%TF.GenerationSoftware,KiCad,Pcbnew,10.0.3*%
%TF.CreationDate,2026-06-27T17:09:46+08:00*%
%TF.ProjectId,LPFilter_500kHz_Elliptical_v0.1,4c504669-6c74-4657-925f-3530306b487a,rev?*%
%TF.SameCoordinates,Original*%
%TF.FileFunction,Copper,L1,Top*%
%TF.FilePolarity,Positive*%
%FSLAX46Y46*%
G04 Gerber Fmt 4.6, Leading zero omitted, Abs format (unit mm)*
G04 Created by KiCad (PCBNEW 10.0.3) date 2026-06-27 17:09:46*
%MOMM*%
%LPD*%
G01*
G04 APERTURE LIST*
G04 Aperture macros list*
%AMRoundRect*
0 Rectangle with rounded corners*
0 $1 Rounding radius*
0 $2 $3 $4 $5 $6 $7 $8 $9 X,Y pos of 4 corners*
0 Add a 4 corners polygon primitive as box body*
4,1,4,$2,$3,$4,$5,$6,$7,$8,$9,$2,$3,0*
0 Add four circle primitives for the rounded corners*
1,1,$1+$1,$2,$3*
1,1,$1+$1,$4,$5*
1,1,$1+$1,$6,$7*
1,1,$1+$1,$8,$9*
0 Add four rect primitives between the rounded corners*
20,1,$1+$1,$2,$3,$4,$5,0*
20,1,$1+$1,$4,$5,$6,$7,0*
20,1,$1+$1,$6,$7,$8,$9,0*
20,1,$1+$1,$8,$9,$2,$3,0*%
G04 Aperture macros list end*
%TA.AperFunction,SMDPad,CuDef*%
%ADD10RoundRect,0.225000X-0.250000X0.225000X-0.250000X-0.225000X0.250000X-0.225000X0.250000X0.225000X0*%
%TD*%
%TA.AperFunction,SMDPad,CuDef*%
%ADD11R,4.000000X3.850013*%
%TD*%
%TA.AperFunction,ComponentPad*%
%ADD12C,1.600000*%
%TD*%
%TA.AperFunction,ComponentPad*%
%ADD13C,2.600965*%
%TD*%
%TA.AperFunction,SMDPad,CuDef*%
%ADD14R,3.120015X2.524003*%
%TD*%
%TA.AperFunction,SMDPad,CuDef*%
%ADD15RoundRect,0.225000X0.250000X-0.225000X0.250000X0.225000X-0.250000X0.225000X-0.250000X-0.225000X0*%
%TD*%
%TA.AperFunction,ViaPad*%
%ADD16C,0.500000*%
%TD*%
%TA.AperFunction,Conductor*%
%ADD17C,0.500000*%
%TD*%
G04 APERTURE END LIST*
D10*
%TO.P,C3,1*%
%TO.N,Net-(C2-Pad2)*%
X109000000Y-44225000D03*
%TO.P,C3,2*%
%TO.N,GNDA*%
X109000000Y-45775000D03*
%TD*%
D11*
%TO.P,L2,1,1_1*%
%TO.N,Net-(C2-Pad2)*%
X122000000Y-40925006D03*
%TO.P,L2,2,2_2*%
%TO.N,Net-(J2-OUT)*%
X122000000Y-48574994D03*
%TD*%
D10*
%TO.P,C2,1*%
%TO.N,Net-(J1-OUT)*%
X105000000Y-44225000D03*
%TO.P,C2,2*%
%TO.N,Net-(C2-Pad2)*%
X105000000Y-45775000D03*
%TD*%
D12*
%TO.P,J1,1,OUT_1*%
%TO.N,Net-(J1-OUT)*%
X82525019Y-44750000D03*
%TO.P,J1,2,2_2*%
%TO.N,GNDA*%
X82525019Y-47250127D03*
D13*
%TO.P,J1,3,3_3*%
X77474981Y-49800038D03*
%TO.P,J1,4,4_4*%
X77474981Y-39699962D03*
%TD*%
D14*
%TO.P,L1,1,1_1*%
%TO.N,Net-(J1-OUT)*%
X98000000Y-41672022D03*
%TO.P,L1,2,2_2*%
%TO.N,Net-(C2-Pad2)*%
X98000000Y-47827978D03*
%TD*%
D15*
%TO.P,C5,1*%
%TO.N,Net-(J2-OUT)*%
X129500000Y-44750000D03*
%TO.P,C5,2*%
%TO.N,GNDA*%
X129500000Y-43200000D03*
%TD*%
D12*
%TO.P,J2,1,OUT_1*%
%TO.N,Net-(J2-OUT)*%
X137474981Y-44750000D03*
%TO.P,J2,2,2_2*%
%TO.N,GNDA*%
X137474981Y-42249873D03*
D13*
%TO.P,J2,3,3_3*%
X142525019Y-39699962D03*
%TO.P,J2,4,4_4*%
X142525019Y-49800038D03*
%TD*%
D10*
%TO.P,C1,1*%
%TO.N,Net-(J1-OUT)*%
X91500000Y-44725000D03*
%TO.P,C1,2*%
%TO.N,GNDA*%
X91500000Y-46275000D03*
%TD*%
%TO.P,C4,1*%
%TO.N,Net-(C2-Pad2)*%
X113000000Y-44225000D03*
%TO.P,C4,2*%
%TO.N,Net-(J2-OUT)*%
X113000000Y-45775000D03*
%TD*%
D16*
%TO.N,GNDA*%
X129500000Y-40500000D03*
X109000000Y-47000000D03*
X91500000Y-47500000D03*
%TD*%
%TO.N,Net-(J2-OUT)*%
D17*
X129500000Y-44750000D02*
X137474981Y-44750000D01*
%TO.N,Net-(J1-OUT)*%
X91475000Y-44750000D02*
X91500000Y-44725000D01*
X82525019Y-44750000D02*
X91475000Y-44750000D01*
%TO.N,Net-(C2-Pad2)*%
X106550000Y-44225000D02*
X105000000Y-45775000D01*
X109000000Y-44225000D02*
X106550000Y-44225000D01*
X98000000Y-47827978D02*
X102947022Y-47827978D01*
X102947022Y-47827978D02*
X105000000Y-45775000D01*
X116299994Y-40925006D02*
X113000000Y-44225000D01*
X113000000Y-44225000D02*
X109000000Y-44225000D01*
X122000000Y-40925006D02*
X116299994Y-40925006D01*
%TO.N,GNDA*%
X91500000Y-46275000D02*
X91500000Y-47500000D01*
X129500000Y-40500000D02*
X129500000Y-43200000D01*
X109000000Y-45775000D02*
X109000000Y-47000000D01*
%TO.N,Net-(J2-OUT)*%
X125675006Y-48574994D02*
X129500000Y-44750000D01*
X122000000Y-48574994D02*
X125675006Y-48574994D01*
X115799994Y-48574994D02*
X113000000Y-45775000D01*
X122000000Y-48574994D02*
X115799994Y-48574994D01*
%TO.N,Net-(J1-OUT)*%
X105000000Y-44225000D02*
X100552978Y-44225000D01*
X94827978Y-41672022D02*
X98000000Y-41672022D01*
X91500000Y-44725000D02*
X91775000Y-44725000D01*
X91775000Y-44725000D02*
X94827978Y-41672022D01*
X100552978Y-44225000D02*
X98000000Y-41672022D01*
%TD*%
M02*
