%TF.GenerationSoftware,KiCad,Pcbnew,10.0.3*%
%TF.CreationDate,2026-06-27T16:58:33+08:00*%
%TF.ProjectId,LPFilter_1kHz_Elliptical_v0.1,4c504669-6c74-4657-925f-316b487a5f45,rev?*%
%TF.SameCoordinates,Original*%
%TF.FileFunction,Legend,Top*%
%TF.FilePolarity,Positive*%
%FSLAX46Y46*%
G04 Gerber Fmt 4.6, Leading zero omitted, Abs format (unit mm)*
G04 Created by KiCad (PCBNEW 10.0.3) date 2026-06-27 16:58:33*
%MOMM*%
%LPD*%
G01*
G04 APERTURE LIST*
G04 Aperture macros list*
%AMRoundRect*
0 Rectangle with rounded corners*
0 $1 Rounding radius*
0 $2 $3 $4 $5 $6 $7 $8 $9 X,Y pos of 4 corners*
0 Add a 4 corners polygon primitive as box body*
4,1,4,$2,$3,$4,$5,$6,$7,$8,$9,$2,$3,0*
0 Add four circle primitives for the rounded corners*
1,1,$1+$1,$2,$3*
1,1,$1+$1,$4,$5*
1,1,$1+$1,$6,$7*
1,1,$1+$1,$8,$9*
0 Add four rect primitives between the rounded corners*
20,1,$1+$1,$2,$3,$4,$5,0*
20,1,$1+$1,$4,$5,$6,$7,0*
20,1,$1+$1,$6,$7,$8,$9,0*
20,1,$1+$1,$8,$9,$2,$3,0*%
G04 Aperture macros list end*
%ADD10C,0.150000*%
%ADD11C,0.100000*%
%ADD12C,0.120000*%
%ADD13C,0.300000*%
%ADD14C,0.254001*%
%ADD15C,0.151994*%
%ADD16C,1.448000*%
%ADD17RoundRect,0.225000X-0.225000X-0.250000X0.225000X-0.250000X0.225000X0.250000X-0.225000X0.250000X0*%
%ADD18RoundRect,0.420000X-2.280000X-0.980000X2.280000X-0.980000X2.280000X0.980000X-2.280000X0.980000X0*%
%ADD19C,1.600000*%
%ADD20C,2.600965*%
%ADD21R,3.464008X2.959995*%
%ADD22RoundRect,0.225000X0.250000X-0.225000X0.250000X0.225000X-0.250000X0.225000X-0.250000X-0.225000X0*%
%ADD23RoundRect,0.225000X-0.250000X0.225000X-0.250000X-0.225000X0.250000X-0.225000X0.250000X0.225000X0*%
G04 APERTURE END LIST*
D10*
X88454819Y-43123808D02*
X87454819Y-43123808D01*
X88454819Y-42647618D02*
X87454819Y-42647618D01*
X87454819Y-42647618D02*
X88454819Y-42076190D01*
X88454819Y-42076190D02*
X87454819Y-42076190D01*
X132545180Y-45972744D02*
X132545180Y-46163220D01*
X132545180Y-46163220D02*
X132497561Y-46258458D01*
X132497561Y-46258458D02*
X132402323Y-46353696D01*
X132402323Y-46353696D02*
X132211847Y-46401315D01*
X132211847Y-46401315D02*
X131878514Y-46401315D01*
X131878514Y-46401315D02*
X131688038Y-46353696D01*
X131688038Y-46353696D02*
X131592800Y-46258458D01*
X131592800Y-46258458D02*
X131545180Y-46163220D01*
X131545180Y-46163220D02*
X131545180Y-45972744D01*
X131545180Y-45972744D02*
X131592800Y-45877506D01*
X131592800Y-45877506D02*
X131688038Y-45782268D01*
X131688038Y-45782268D02*
X131878514Y-45734649D01*
X131878514Y-45734649D02*
X132211847Y-45734649D01*
X132211847Y-45734649D02*
X132402323Y-45782268D01*
X132402323Y-45782268D02*
X132497561Y-45877506D01*
X132497561Y-45877506D02*
X132545180Y-45972744D01*
X132545180Y-46829887D02*
X131735657Y-46829887D01*
X131735657Y-46829887D02*
X131640419Y-46877506D01*
X131640419Y-46877506D02*
X131592800Y-46925125D01*
X131592800Y-46925125D02*
X131545180Y-47020363D01*
X131545180Y-47020363D02*
X131545180Y-47210839D01*
X131545180Y-47210839D02*
X131592800Y-47306077D01*
X131592800Y-47306077D02*
X131640419Y-47353696D01*
X131640419Y-47353696D02*
X131735657Y-47401315D01*
X131735657Y-47401315D02*
X132545180Y-47401315D01*
X132545180Y-47734649D02*
X132545180Y-48306077D01*
X131545180Y-48020363D02*
X132545180Y-48020363D01*
X109833333Y-37109580D02*
X109785714Y-37157200D01*
X109785714Y-37157200D02*
X109642857Y-37204819D01*
X109642857Y-37204819D02*
X109547619Y-37204819D01*
X109547619Y-37204819D02*
X109404762Y-37157200D01*
X109404762Y-37157200D02*
X109309524Y-37061961D01*
X109309524Y-37061961D02*
X109261905Y-36966723D01*
X109261905Y-36966723D02*
X109214286Y-36776247D01*
X109214286Y-36776247D02*
X109214286Y-36633390D01*
X109214286Y-36633390D02*
X109261905Y-36442914D01*
X109261905Y-36442914D02*
X109309524Y-36347676D01*
X109309524Y-36347676D02*
X109404762Y-36252438D01*
X109404762Y-36252438D02*
X109547619Y-36204819D01*
X109547619Y-36204819D02*
X109642857Y-36204819D01*
X109642857Y-36204819D02*
X109785714Y-36252438D01*
X109785714Y-36252438D02*
X109833333Y-36300057D01*
X110166667Y-36204819D02*
X110785714Y-36204819D01*
X110785714Y-36204819D02*
X110452381Y-36585771D01*
X110452381Y-36585771D02*
X110595238Y-36585771D01*
X110595238Y-36585771D02*
X110690476Y-36633390D01*
X110690476Y-36633390D02*
X110738095Y-36681009D01*
X110738095Y-36681009D02*
X110785714Y-36776247D01*
X110785714Y-36776247D02*
X110785714Y-37014342D01*
X110785714Y-37014342D02*
X110738095Y-37109580D01*
X110738095Y-37109580D02*
X110690476Y-37157200D01*
X110690476Y-37157200D02*
X110595238Y-37204819D01*
X110595238Y-37204819D02*
X110309524Y-37204819D01*
X110309524Y-37204819D02*
X110214286Y-37157200D01*
X110214286Y-37157200D02*
X110166667Y-37109580D01*
X120833333Y-52954819D02*
X120357143Y-52954819D01*
X120357143Y-52954819D02*
X120357143Y-51954819D01*
X121119048Y-52050057D02*
X121166667Y-52002438D01*
X121166667Y-52002438D02*
X121261905Y-51954819D01*
X121261905Y-51954819D02*
X121500000Y-51954819D01*
X121500000Y-51954819D02*
X121595238Y-52002438D01*
X121595238Y-52002438D02*
X121642857Y-52050057D01*
X121642857Y-52050057D02*
X121690476Y-52145295D01*
X121690476Y-52145295D02*
X121690476Y-52240533D01*
X121690476Y-52240533D02*
X121642857Y-52383390D01*
X121642857Y-52383390D02*
X121071429Y-52954819D01*
X121071429Y-52954819D02*
X121690476Y-52954819D01*
X109833333Y-53109580D02*
X109785714Y-53157200D01*
X109785714Y-53157200D02*
X109642857Y-53204819D01*
X109642857Y-53204819D02*
X109547619Y-53204819D01*
X109547619Y-53204819D02*
X109404762Y-53157200D01*
X109404762Y-53157200D02*
X109309524Y-53061961D01*
X109309524Y-53061961D02*
X109261905Y-52966723D01*
X109261905Y-52966723D02*
X109214286Y-52776247D01*
X109214286Y-52776247D02*
X109214286Y-52633390D01*
X109214286Y-52633390D02*
X109261905Y-52442914D01*
X109261905Y-52442914D02*
X109309524Y-52347676D01*
X109309524Y-52347676D02*
X109404762Y-52252438D01*
X109404762Y-52252438D02*
X109547619Y-52204819D01*
X109547619Y-52204819D02*
X109642857Y-52204819D01*
X109642857Y-52204819D02*
X109785714Y-52252438D01*
X109785714Y-52252438D02*
X109833333Y-52300057D01*
X110214286Y-52300057D02*
X110261905Y-52252438D01*
X110261905Y-52252438D02*
X110357143Y-52204819D01*
X110357143Y-52204819D02*
X110595238Y-52204819D01*
X110595238Y-52204819D02*
X110690476Y-52252438D01*
X110690476Y-52252438D02*
X110738095Y-52300057D01*
X110738095Y-52300057D02*
X110785714Y-52395295D01*
X110785714Y-52395295D02*
X110785714Y-52490533D01*
X110785714Y-52490533D02*
X110738095Y-52633390D01*
X110738095Y-52633390D02*
X110166667Y-53204819D01*
X110166667Y-53204819D02*
X110785714Y-53204819D01*
X85454819Y-46333333D02*
X86169104Y-46333333D01*
X86169104Y-46333333D02*
X86311961Y-46380952D01*
X86311961Y-46380952D02*
X86407200Y-46476190D01*
X86407200Y-46476190D02*
X86454819Y-46619047D01*
X86454819Y-46619047D02*
X86454819Y-46714285D01*
X86454819Y-45333333D02*
X86454819Y-45904761D01*
X86454819Y-45619047D02*
X85454819Y-45619047D01*
X85454819Y-45619047D02*
X85597676Y-45714285D01*
X85597676Y-45714285D02*
X85692914Y-45809523D01*
X85692914Y-45809523D02*
X85740533Y-45904761D01*
X99833333Y-54204819D02*
X99357143Y-54204819D01*
X99357143Y-54204819D02*
X99357143Y-53204819D01*
X100690476Y-54204819D02*
X100119048Y-54204819D01*
X100404762Y-54204819D02*
X100404762Y-53204819D01*
X100404762Y-53204819D02*
X100309524Y-53347676D01*
X100309524Y-53347676D02*
X100214286Y-53442914D01*
X100214286Y-53442914D02*
X100119048Y-53490533D01*
X129333333Y-41984580D02*
X129285714Y-42032200D01*
X129285714Y-42032200D02*
X129142857Y-42079819D01*
X129142857Y-42079819D02*
X129047619Y-42079819D01*
X129047619Y-42079819D02*
X128904762Y-42032200D01*
X128904762Y-42032200D02*
X128809524Y-41936961D01*
X128809524Y-41936961D02*
X128761905Y-41841723D01*
X128761905Y-41841723D02*
X128714286Y-41651247D01*
X128714286Y-41651247D02*
X128714286Y-41508390D01*
X128714286Y-41508390D02*
X128761905Y-41317914D01*
X128761905Y-41317914D02*
X128809524Y-41222676D01*
X128809524Y-41222676D02*
X128904762Y-41127438D01*
X128904762Y-41127438D02*
X129047619Y-41079819D01*
X129047619Y-41079819D02*
X129142857Y-41079819D01*
X129142857Y-41079819D02*
X129285714Y-41127438D01*
X129285714Y-41127438D02*
X129333333Y-41175057D01*
X130238095Y-41079819D02*
X129761905Y-41079819D01*
X129761905Y-41079819D02*
X129714286Y-41556009D01*
X129714286Y-41556009D02*
X129761905Y-41508390D01*
X129761905Y-41508390D02*
X129857143Y-41460771D01*
X129857143Y-41460771D02*
X130095238Y-41460771D01*
X130095238Y-41460771D02*
X130190476Y-41508390D01*
X130190476Y-41508390D02*
X130238095Y-41556009D01*
X130238095Y-41556009D02*
X130285714Y-41651247D01*
X130285714Y-41651247D02*
X130285714Y-41889342D01*
X130285714Y-41889342D02*
X130238095Y-41984580D01*
X130238095Y-41984580D02*
X130190476Y-42032200D01*
X130190476Y-42032200D02*
X130095238Y-42079819D01*
X130095238Y-42079819D02*
X129857143Y-42079819D01*
X129857143Y-42079819D02*
X129761905Y-42032200D01*
X129761905Y-42032200D02*
X129714286Y-41984580D01*
X134545180Y-42666666D02*
X133830895Y-42666666D01*
X133830895Y-42666666D02*
X133688038Y-42619047D01*
X133688038Y-42619047D02*
X133592800Y-42523809D01*
X133592800Y-42523809D02*
X133545180Y-42380952D01*
X133545180Y-42380952D02*
X133545180Y-42285714D01*
X134449942Y-43095238D02*
X134497561Y-43142857D01*
X134497561Y-43142857D02*
X134545180Y-43238095D01*
X134545180Y-43238095D02*
X134545180Y-43476190D01*
X134545180Y-43476190D02*
X134497561Y-43571428D01*
X134497561Y-43571428D02*
X134449942Y-43619047D01*
X134449942Y-43619047D02*
X134354704Y-43666666D01*
X134354704Y-43666666D02*
X134259466Y-43666666D01*
X134259466Y-43666666D02*
X134116609Y-43619047D01*
X134116609Y-43619047D02*
X133545180Y-43047619D01*
X133545180Y-43047619D02*
X133545180Y-43666666D01*
X89608333Y-38559580D02*
X89560714Y-38607200D01*
X89560714Y-38607200D02*
X89417857Y-38654819D01*
X89417857Y-38654819D02*
X89322619Y-38654819D01*
X89322619Y-38654819D02*
X89179762Y-38607200D01*
X89179762Y-38607200D02*
X89084524Y-38511961D01*
X89084524Y-38511961D02*
X89036905Y-38416723D01*
X89036905Y-38416723D02*
X88989286Y-38226247D01*
X88989286Y-38226247D02*
X88989286Y-38083390D01*
X88989286Y-38083390D02*
X89036905Y-37892914D01*
X89036905Y-37892914D02*
X89084524Y-37797676D01*
X89084524Y-37797676D02*
X89179762Y-37702438D01*
X89179762Y-37702438D02*
X89322619Y-37654819D01*
X89322619Y-37654819D02*
X89417857Y-37654819D01*
X89417857Y-37654819D02*
X89560714Y-37702438D01*
X89560714Y-37702438D02*
X89608333Y-37750057D01*
X90560714Y-38654819D02*
X89989286Y-38654819D01*
X90275000Y-38654819D02*
X90275000Y-37654819D01*
X90275000Y-37654819D02*
X90179762Y-37797676D01*
X90179762Y-37797676D02*
X90084524Y-37892914D01*
X90084524Y-37892914D02*
X89989286Y-37940533D01*
X112333333Y-42609580D02*
X112285714Y-42657200D01*
X112285714Y-42657200D02*
X112142857Y-42704819D01*
X112142857Y-42704819D02*
X112047619Y-42704819D01*
X112047619Y-42704819D02*
X111904762Y-42657200D01*
X111904762Y-42657200D02*
X111809524Y-42561961D01*
X111809524Y-42561961D02*
X111761905Y-42466723D01*
X111761905Y-42466723D02*
X111714286Y-42276247D01*
X111714286Y-42276247D02*
X111714286Y-42133390D01*
X111714286Y-42133390D02*
X111761905Y-41942914D01*
X111761905Y-41942914D02*
X111809524Y-41847676D01*
X111809524Y-41847676D02*
X111904762Y-41752438D01*
X111904762Y-41752438D02*
X112047619Y-41704819D01*
X112047619Y-41704819D02*
X112142857Y-41704819D01*
X112142857Y-41704819D02*
X112285714Y-41752438D01*
X112285714Y-41752438D02*
X112333333Y-41800057D01*
X113190476Y-42038152D02*
X113190476Y-42704819D01*
X112952381Y-41657200D02*
X112714286Y-42371485D01*
X112714286Y-42371485D02*
X113333333Y-42371485D01*
%TO.C,Aluminum Box*%
D11*
X71500000Y-35250000D02*
X148500000Y-35250000D01*
X71500000Y-54750000D02*
X148500000Y-54750000D01*
%TO.C,C3*%
D12*
X109859420Y-38240000D02*
X110140580Y-38240000D01*
X109859420Y-39260000D02*
X110140580Y-39260000D01*
%TO.C,L2*%
D13*
X115100000Y-39350000D02*
X115100000Y-50420000D01*
X117900000Y-38750000D02*
X115600000Y-38750000D01*
X118000000Y-50850000D02*
X115600000Y-50850000D01*
X124000000Y-38750000D02*
X126250000Y-38750000D01*
X124000000Y-50850000D02*
X126300000Y-50850000D01*
X126900000Y-50250000D02*
X126900000Y-39250000D01*
X115106031Y-39350001D02*
G75*
G02*
X115700000Y-38756032I593967J2D01*
G01*
X115600981Y-50845380D02*
G75*
G02*
X115104620Y-50349019I-1J496360D01*
G01*
X126306031Y-38746031D02*
G75*
G02*
X126900000Y-39340000I2J-593967D01*
G01*
X126893968Y-50249999D02*
G75*
G02*
X126299999Y-50843968I-593968J-1D01*
G01*
%TO.C,C2*%
D12*
X109859420Y-50240000D02*
X110140580Y-50240000D01*
X109859420Y-51260000D02*
X110140580Y-51260000D01*
%TO.C,J1*%
D14*
X48793752Y-38145987D02*
X48793752Y-51354013D01*
X48793752Y-51354013D02*
X62636779Y-51354013D01*
X62636779Y-37637986D02*
X71653797Y-37637986D01*
X62636779Y-37663386D02*
X62636779Y-37637986D01*
X62636779Y-38145987D02*
X48793752Y-38145987D01*
X62636779Y-38145987D02*
X62636779Y-37663386D01*
X62636779Y-51354013D02*
X62636779Y-38145987D01*
X62636779Y-51862014D02*
X62636779Y-51354013D01*
X63500381Y-51836614D02*
X62636779Y-37663386D01*
X64770384Y-51836614D02*
X63906782Y-37663386D01*
X66040386Y-51836614D02*
X65176784Y-37663386D01*
X67310389Y-51836614D02*
X66446787Y-37663386D01*
X68580391Y-51836614D02*
X67716789Y-37663386D01*
X69850394Y-51836614D02*
X68986792Y-37663386D01*
X71120396Y-51836614D02*
X70256795Y-37663386D01*
X71653797Y-51862014D02*
X62636779Y-51862014D01*
X71657861Y-37256985D02*
X71657861Y-52243015D01*
X71657861Y-52243015D02*
X84459995Y-52243015D01*
X84459995Y-37256985D02*
X71657861Y-37256985D01*
X84459995Y-52243015D02*
X84459995Y-37256985D01*
X52857760Y-44750000D02*
G75*
G02*
X51232156Y-44750000I-812802J0D01*
G01*
X51232156Y-44750000D02*
G75*
G02*
X52857760Y-44750000I812802J0D01*
G01*
%TO.C,L1*%
D15*
X90653772Y-43117590D02*
X96621006Y-37053785D01*
X90653772Y-46382410D02*
X96621006Y-52446215D01*
X103378994Y-37053785D02*
X96621006Y-37053785D01*
X103378994Y-52446215D02*
X96621006Y-52446215D01*
X109346228Y-43117590D02*
X103378994Y-37053785D01*
X109346228Y-46382410D02*
X103378994Y-52446215D01*
%TO.C,C5*%
D12*
X128990000Y-44115580D02*
X128990000Y-43834420D01*
X130010000Y-44115580D02*
X130010000Y-43834420D01*
%TO.C,J2*%
D14*
X135540005Y-37256985D02*
X135540005Y-52243015D01*
X135540005Y-52243015D02*
X148342139Y-52243015D01*
X148342139Y-37256985D02*
X135540005Y-37256985D01*
X148342139Y-52243015D02*
X148342139Y-37256985D01*
X148346203Y-37637986D02*
X157363221Y-37637986D01*
X148879604Y-37663386D02*
X149743205Y-51836614D01*
X150149606Y-37663386D02*
X151013208Y-51836614D01*
X151419609Y-37663386D02*
X152283211Y-51836614D01*
X152689611Y-37663386D02*
X153553213Y-51836614D01*
X153959614Y-37663386D02*
X154823216Y-51836614D01*
X155229616Y-37663386D02*
X156093218Y-51836614D01*
X156499619Y-37663386D02*
X157363221Y-51836614D01*
X157363221Y-37637986D02*
X157363221Y-38145987D01*
X157363221Y-38145987D02*
X157363221Y-51354013D01*
X157363221Y-51354013D02*
X157363221Y-51836614D01*
X157363221Y-51354013D02*
X171206248Y-51354013D01*
X157363221Y-51836614D02*
X157363221Y-51862014D01*
X157363221Y-51862014D02*
X148346203Y-51862014D01*
X171206248Y-38145987D02*
X157363221Y-38145987D01*
X171206248Y-51354013D02*
X171206248Y-38145987D01*
X168767844Y-44750000D02*
G75*
G02*
X167142240Y-44750000I-812802J0D01*
G01*
X167142240Y-44750000D02*
G75*
G02*
X168767844Y-44750000I812802J0D01*
G01*
%TO.C,C1*%
D12*
X91115000Y-38290580D02*
X91115000Y-38009420D01*
X92135000Y-38290580D02*
X92135000Y-38009420D01*
%TO.C,C4*%
X111990000Y-44609420D02*
X111990000Y-44890580D01*
X113010000Y-44609420D02*
X113010000Y-44890580D01*
%TD*%
%LPC*%
D16*
%TO.C,TH1*%
X130200000Y-52850000D03*
%TD*%
D17*
%TO.C,C3*%
X109225000Y-38750000D03*
X110775000Y-38750000D03*
%TD*%
D18*
%TO.C,L2*%
X121000000Y-39850000D03*
X121000000Y-49650000D03*
%TD*%
D16*
%TO.C,TH2*%
X90050000Y-52650000D03*
%TD*%
D17*
%TO.C,C2*%
X109225000Y-50750000D03*
X110775000Y-50750000D03*
%TD*%
D19*
%TO.C,J1*%
X82525019Y-44750000D03*
X82525019Y-47250127D03*
D20*
X77474981Y-49800038D03*
X77474981Y-39699962D03*
%TD*%
D21*
%TO.C,L1*%
X91622047Y-44750000D03*
X108377953Y-44750000D03*
%TD*%
D22*
%TO.C,C5*%
X129500000Y-44750000D03*
X129500000Y-43200000D03*
%TD*%
D16*
%TO.C,TH3*%
X129850000Y-37100000D03*
%TD*%
D19*
%TO.C,J2*%
X137474981Y-44750000D03*
X137474981Y-42249873D03*
D20*
X142525019Y-39699962D03*
X142525019Y-49800038D03*
%TD*%
D22*
%TO.C,C1*%
X91625000Y-38925000D03*
X91625000Y-37375000D03*
%TD*%
D23*
%TO.C,C4*%
X112500000Y-43975000D03*
X112500000Y-45525000D03*
%TD*%
%LPD*%
M02*
