%TF.GenerationSoftware,KiCad,Pcbnew,10.0.3*%
%TF.CreationDate,2026-06-27T16:58:33+08:00*%
%TF.ProjectId,LPFilter_1kHz_Elliptical_v0.1,4c504669-6c74-4657-925f-316b487a5f45,rev?*%
%TF.SameCoordinates,Original*%
%TF.FileFunction,Copper,L1,Top*%
%TF.FilePolarity,Positive*%
%FSLAX46Y46*%
G04 Gerber Fmt 4.6, Leading zero omitted, Abs format (unit mm)*
G04 Created by KiCad (PCBNEW 10.0.3) date 2026-06-27 16:58:33*
%MOMM*%
%LPD*%
G01*
G04 APERTURE LIST*
G04 Aperture macros list*
%AMRoundRect*
0 Rectangle with rounded corners*
0 $1 Rounding radius*
0 $2 $3 $4 $5 $6 $7 $8 $9 X,Y pos of 4 corners*
0 Add a 4 corners polygon primitive as box body*
4,1,4,$2,$3,$4,$5,$6,$7,$8,$9,$2,$3,0*
0 Add four circle primitives for the rounded corners*
1,1,$1+$1,$2,$3*
1,1,$1+$1,$4,$5*
1,1,$1+$1,$6,$7*
1,1,$1+$1,$8,$9*
0 Add four rect primitives between the rounded corners*
20,1,$1+$1,$2,$3,$4,$5,0*
20,1,$1+$1,$4,$5,$6,$7,0*
20,1,$1+$1,$6,$7,$8,$9,0*
20,1,$1+$1,$8,$9,$2,$3,0*%
G04 Aperture macros list end*
%TA.AperFunction,SMDPad,CuDef*%
%ADD10RoundRect,0.225000X-0.225000X-0.250000X0.225000X-0.250000X0.225000X0.250000X-0.225000X0.250000X0*%
%TD*%
%TA.AperFunction,SMDPad,CuDef*%
%ADD11RoundRect,0.420000X-2.280000X-0.980000X2.280000X-0.980000X2.280000X0.980000X-2.280000X0.980000X0*%
%TD*%
%TA.AperFunction,ComponentPad*%
%ADD12C,1.600000*%
%TD*%
%TA.AperFunction,ComponentPad*%
%ADD13C,2.600965*%
%TD*%
%TA.AperFunction,SMDPad,CuDef*%
%ADD14R,3.464008X2.959995*%
%TD*%
%TA.AperFunction,SMDPad,CuDef*%
%ADD15RoundRect,0.225000X0.250000X-0.225000X0.250000X0.225000X-0.250000X0.225000X-0.250000X-0.225000X0*%
%TD*%
%TA.AperFunction,SMDPad,CuDef*%
%ADD16RoundRect,0.225000X-0.250000X0.225000X-0.250000X-0.225000X0.250000X-0.225000X0.250000X0.225000X0*%
%TD*%
%TA.AperFunction,ViaPad*%
%ADD17C,0.500000*%
%TD*%
%TA.AperFunction,Conductor*%
%ADD18C,0.500000*%
%TD*%
G04 APERTURE END LIST*
D10*
%TO.P,C3,1*%
%TO.N,Net-(C2-Pad2)*%
X109225000Y-38750000D03*
%TO.P,C3,2*%
%TO.N,GNDA*%
X110775000Y-38750000D03*
%TD*%
D11*
%TO.P,L2,1,1_1*%
%TO.N,Net-(C2-Pad2)*%
X121000000Y-39850000D03*
%TO.P,L2,2,2_2*%
%TO.N,Net-(J2-OUT)*%
X121000000Y-49650000D03*
%TD*%
D10*
%TO.P,C2,1*%
%TO.N,Net-(J1-OUT)*%
X109225000Y-50750000D03*
%TO.P,C2,2*%
%TO.N,Net-(C2-Pad2)*%
X110775000Y-50750000D03*
%TD*%
D12*
%TO.P,J1,1,OUT_1*%
%TO.N,Net-(J1-OUT)*%
X82525019Y-44750000D03*
%TO.P,J1,2,2_2*%
%TO.N,GNDA*%
X82525019Y-47250127D03*
D13*
%TO.P,J1,3,3_3*%
X77474981Y-49800038D03*
%TO.P,J1,4,4_4*%
X77474981Y-39699962D03*
%TD*%
D14*
%TO.P,L1,1,1_1*%
%TO.N,Net-(J1-OUT)*%
X91622047Y-44750000D03*
%TO.P,L1,2,2_2*%
%TO.N,Net-(C2-Pad2)*%
X108377953Y-44750000D03*
%TD*%
D15*
%TO.P,C5,1*%
%TO.N,Net-(J2-OUT)*%
X129500000Y-44750000D03*
%TO.P,C5,2*%
%TO.N,GNDA*%
X129500000Y-43200000D03*
%TD*%
D12*
%TO.P,J2,1,OUT_1*%
%TO.N,Net-(J2-OUT)*%
X137474981Y-44750000D03*
%TO.P,J2,2,2_2*%
%TO.N,GNDA*%
X137474981Y-42249873D03*
D13*
%TO.P,J2,3,3_3*%
X142525019Y-39699962D03*
%TO.P,J2,4,4_4*%
X142525019Y-49800038D03*
%TD*%
D15*
%TO.P,C1,1*%
%TO.N,Net-(J1-OUT)*%
X91625000Y-38925000D03*
%TO.P,C1,2*%
%TO.N,GNDA*%
X91625000Y-37375000D03*
%TD*%
D16*
%TO.P,C4,1*%
%TO.N,Net-(C2-Pad2)*%
X112500000Y-43975000D03*
%TO.P,C4,2*%
%TO.N,Net-(J2-OUT)*%
X112500000Y-45525000D03*
%TD*%
D17*
%TO.N,GNDA*%
X93500000Y-37400000D03*
X129500000Y-40500000D03*
X112700000Y-38800000D03*
%TD*%
%TO.N,Net-(J1-OUT)*%
D18*
X82525019Y-44750000D02*
X91622047Y-44750000D01*
%TO.N,Net-(J2-OUT)*%
X129500000Y-44750000D02*
X137474981Y-44750000D01*
%TO.N,Net-(C2-Pad2)*%
X109825000Y-44750000D02*
X110775000Y-45700000D01*
X109225000Y-40700000D02*
X112500000Y-43975000D01*
X112500000Y-43975000D02*
X116875000Y-43975000D01*
X108377953Y-44750000D02*
X109825000Y-44750000D01*
X110775000Y-50750000D02*
X110775000Y-45700000D01*
X110775000Y-45700000D02*
X112500000Y-43975000D01*
X109225000Y-38750000D02*
X109225000Y-40700000D01*
X116875000Y-43975000D02*
X121000000Y-39850000D01*
%TO.N,GNDA*%
X110775000Y-38750000D02*
X112650000Y-38750000D01*
X93500000Y-37400000D02*
X93475000Y-37375000D01*
X93475000Y-37375000D02*
X91625000Y-37375000D01*
X112650000Y-38750000D02*
X112700000Y-38800000D01*
X129500000Y-43200000D02*
X129500000Y-40500000D01*
%TO.N,Net-(J2-OUT)*%
X124600000Y-49650000D02*
X129500000Y-44750000D01*
X112500000Y-45525000D02*
X116875000Y-45525000D01*
X116875000Y-45525000D02*
X121000000Y-49650000D01*
X121000000Y-49650000D02*
X124600000Y-49650000D01*
%TO.N,Net-(J1-OUT)*%
X91625000Y-38925000D02*
X91625000Y-44747047D01*
X91622047Y-38927953D02*
X91625000Y-38925000D01*
X91625000Y-44747047D02*
X91622047Y-44750000D01*
X91622047Y-44750000D02*
X103225000Y-44750000D01*
X103225000Y-44750000D02*
X109225000Y-50750000D01*
%TD*%
M02*
