%TF.GenerationSoftware,KiCad,Pcbnew,10.0.3*%
%TF.CreationDate,2026-06-27T16:58:33+08:00*%
%TF.ProjectId,LPFilter_1kHz_Elliptical_v0.1,4c504669-6c74-4657-925f-316b487a5f45,rev?*%
%TF.SameCoordinates,Original*%
%TF.FileFunction,Copper,L2,Inr*%
%TF.FilePolarity,Positive*%
%FSLAX46Y46*%
G04 Gerber Fmt 4.6, Leading zero omitted, Abs format (unit mm)*
G04 Created by KiCad (PCBNEW 10.0.3) date 2026-06-27 16:58:33*
%MOMM*%
%LPD*%
G01*
G04 APERTURE LIST*
%TA.AperFunction,ComponentPad*%
%ADD10C,1.600000*%
%TD*%
%TA.AperFunction,ComponentPad*%
%ADD11C,2.600965*%
%TD*%
%TA.AperFunction,ViaPad*%
%ADD12C,0.500000*%
%TD*%
G04 APERTURE END LIST*
D10*
%TO.N,Net-(J1-OUT)*%
%TO.C,J1*%
X82525019Y-44750000D03*
%TO.N,GNDA*%
X82525019Y-47250127D03*
D11*
X77474981Y-49800038D03*
X77474981Y-39699962D03*
%TD*%
D10*
%TO.N,Net-(J2-OUT)*%
%TO.C,J2*%
X137474981Y-44750000D03*
%TO.N,GNDA*%
X137474981Y-42249873D03*
D11*
X142525019Y-39699962D03*
X142525019Y-49800038D03*
%TD*%
D12*
%TO.N,GNDA*%
X93500000Y-37400000D03*
X129500000Y-40500000D03*
X112700000Y-38800000D03*
%TD*%
%TA.AperFunction,Conductor*%
%TO.N,GNDA*%
G36*
X147942539Y-35269685D02*
G01*
X147988294Y-35322489D01*
X147999500Y-35374000D01*
X147999500Y-54626000D01*
X147979815Y-54693039D01*
X147927011Y-54738794D01*
X147875500Y-54750000D01*
X72124500Y-54750000D01*
X72057461Y-54730315D01*
X72011706Y-54677511D01*
X72000500Y-54626000D01*
X72000500Y-52568592D01*
X89223500Y-52568592D01*
X89223500Y-52731407D01*
X89255259Y-52891073D01*
X89255262Y-52891082D01*
X89317562Y-53041490D01*
X89317563Y-53041492D01*
X89408015Y-53176862D01*
X89408018Y-53176866D01*
X89523133Y-53291981D01*
X89523137Y-53291984D01*
X89658505Y-53382435D01*
X89658506Y-53382435D01*
X89658507Y-53382436D01*
X89658509Y-53382437D01*
X89758781Y-53423970D01*
X89808919Y-53444738D01*
X89808921Y-53444738D01*
X89808926Y-53444740D01*
X89968592Y-53476499D01*
X89968595Y-53476500D01*
X89968597Y-53476500D01*
X90131405Y-53476500D01*
X90131406Y-53476499D01*
X90184629Y-53465912D01*
X90291073Y-53444740D01*
X90291076Y-53444738D01*
X90291081Y-53444738D01*
X90441495Y-53382435D01*
X90576863Y-53291984D01*
X90691984Y-53176863D01*
X90782435Y-53041495D01*
X90844738Y-52891081D01*
X90869102Y-52768597D01*
X90869103Y-52768592D01*
X129373500Y-52768592D01*
X129373500Y-52931407D01*
X129405259Y-53091073D01*
X129405262Y-53091082D01*
X129467562Y-53241490D01*
X129467563Y-53241492D01*
X129558015Y-53376862D01*
X129558018Y-53376866D01*
X129673133Y-53491981D01*
X129673137Y-53491984D01*
X129808505Y-53582435D01*
X129808506Y-53582435D01*
X129808507Y-53582436D01*
X129808509Y-53582437D01*
X129908781Y-53623970D01*
X129958919Y-53644738D01*
X129958921Y-53644738D01*
X129958926Y-53644740D01*
X130118592Y-53676499D01*
X130118595Y-53676500D01*
X130118597Y-53676500D01*
X130281405Y-53676500D01*
X130281406Y-53676499D01*
X130334629Y-53665912D01*
X130441073Y-53644740D01*
X130441076Y-53644738D01*
X130441081Y-53644738D01*
X130591495Y-53582435D01*
X130726863Y-53491984D01*
X130841984Y-53376863D01*
X130932435Y-53241495D01*
X130994738Y-53091081D01*
X131004602Y-53041495D01*
X131026499Y-52931407D01*
X131026500Y-52931405D01*
X131026500Y-52768594D01*
X131026499Y-52768592D01*
X130994740Y-52608926D01*
X130994737Y-52608917D01*
X130932437Y-52458509D01*
X130932436Y-52458507D01*
X130841984Y-52323137D01*
X130841981Y-52323133D01*
X130726866Y-52208018D01*
X130726862Y-52208015D01*
X130591492Y-52117563D01*
X130591490Y-52117562D01*
X130441082Y-52055262D01*
X130441073Y-52055259D01*
X130281406Y-52023500D01*
X130281403Y-52023500D01*
X130118597Y-52023500D01*
X130118594Y-52023500D01*
X129958926Y-52055259D01*
X129958917Y-52055262D01*
X129808509Y-52117562D01*
X129808507Y-52117563D01*
X129673137Y-52208015D01*
X129673133Y-52208018D01*
X129558018Y-52323133D01*
X129558015Y-52323137D01*
X129467563Y-52458507D01*
X129467562Y-52458509D01*
X129405262Y-52608917D01*
X129405259Y-52608926D01*
X129373500Y-52768592D01*
X90869103Y-52768592D01*
X90875126Y-52738314D01*
X90876499Y-52731407D01*
X90876500Y-52731405D01*
X90876500Y-52568594D01*
X90876499Y-52568592D01*
X90844740Y-52408926D01*
X90844737Y-52408917D01*
X90782437Y-52258509D01*
X90782436Y-52258507D01*
X90691984Y-52123137D01*
X90691981Y-52123133D01*
X90576866Y-52008018D01*
X90576862Y-52008015D01*
X90441492Y-51917563D01*
X90441490Y-51917562D01*
X90291082Y-51855262D01*
X90291073Y-51855259D01*
X90131406Y-51823500D01*
X90131403Y-51823500D01*
X89968597Y-51823500D01*
X89968594Y-51823500D01*
X89808926Y-51855259D01*
X89808917Y-51855262D01*
X89658509Y-51917562D01*
X89658507Y-51917563D01*
X89523137Y-52008015D01*
X89523133Y-52008018D01*
X89408018Y-52123133D01*
X89408015Y-52123137D01*
X89317563Y-52258507D01*
X89317562Y-52258509D01*
X89255262Y-52408917D01*
X89255259Y-52408926D01*
X89223500Y-52568592D01*
X72000500Y-52568592D01*
X72000500Y-49682020D01*
X75674499Y-49682020D01*
X75674499Y-49918055D01*
X75705305Y-50152039D01*
X75705307Y-50152050D01*
X75766390Y-50380019D01*
X75766395Y-50380033D01*
X75856711Y-50598075D01*
X75856713Y-50598079D01*
X75974728Y-50802485D01*
X76037357Y-50884105D01*
X76037358Y-50884105D01*
X76538816Y-50382647D01*
X76636084Y-50516524D01*
X76758495Y-50638935D01*
X76892370Y-50736201D01*
X76390912Y-51237659D01*
X76472540Y-51300294D01*
X76472548Y-51300300D01*
X76676932Y-51418302D01*
X76676943Y-51418307D01*
X76894985Y-51508623D01*
X76894999Y-51508628D01*
X77122968Y-51569711D01*
X77122979Y-51569713D01*
X77356963Y-51600519D01*
X77356978Y-51600520D01*
X77592984Y-51600520D01*
X77592998Y-51600519D01*
X77826982Y-51569713D01*
X77826993Y-51569711D01*
X78054962Y-51508628D01*
X78054976Y-51508623D01*
X78273018Y-51418307D01*
X78273029Y-51418302D01*
X78477413Y-51300300D01*
X78477431Y-51300288D01*
X78559048Y-51237660D01*
X78559048Y-51237658D01*
X78057590Y-50736201D01*
X78191467Y-50638935D01*
X78313878Y-50516524D01*
X78411144Y-50382647D01*
X78912601Y-50884105D01*
X78912603Y-50884105D01*
X78975231Y-50802488D01*
X78975243Y-50802470D01*
X79093245Y-50598086D01*
X79093250Y-50598075D01*
X79183566Y-50380033D01*
X79183571Y-50380019D01*
X79244654Y-50152050D01*
X79244656Y-50152039D01*
X79275462Y-49918055D01*
X79275463Y-49918041D01*
X79275463Y-49682034D01*
X79275462Y-49682020D01*
X140724537Y-49682020D01*
X140724537Y-49918055D01*
X140755343Y-50152039D01*
X140755345Y-50152050D01*
X140816428Y-50380019D01*
X140816433Y-50380033D01*
X140906749Y-50598075D01*
X140906751Y-50598079D01*
X141024766Y-50802485D01*
X141087395Y-50884105D01*
X141087396Y-50884105D01*
X141588854Y-50382647D01*
X141686122Y-50516524D01*
X141808533Y-50638935D01*
X141942408Y-50736201D01*
X141440950Y-51237659D01*
X141522578Y-51300294D01*
X141522586Y-51300300D01*
X141726970Y-51418302D01*
X141726981Y-51418307D01*
X141945023Y-51508623D01*
X141945037Y-51508628D01*
X142173006Y-51569711D01*
X142173017Y-51569713D01*
X142407001Y-51600519D01*
X142407016Y-51600520D01*
X142643022Y-51600520D01*
X142643036Y-51600519D01*
X142877020Y-51569713D01*
X142877031Y-51569711D01*
X143105000Y-51508628D01*
X143105014Y-51508623D01*
X143323056Y-51418307D01*
X143323067Y-51418302D01*
X143527451Y-51300300D01*
X143527469Y-51300288D01*
X143609086Y-51237660D01*
X143609086Y-51237658D01*
X143107628Y-50736201D01*
X143241505Y-50638935D01*
X143363916Y-50516524D01*
X143461182Y-50382647D01*
X143962639Y-50884105D01*
X143962641Y-50884105D01*
X144025269Y-50802488D01*
X144025281Y-50802470D01*
X144143283Y-50598086D01*
X144143288Y-50598075D01*
X144233604Y-50380033D01*
X144233609Y-50380019D01*
X144294692Y-50152050D01*
X144294694Y-50152039D01*
X144325500Y-49918055D01*
X144325501Y-49918041D01*
X144325501Y-49682034D01*
X144325500Y-49682020D01*
X144294694Y-49448036D01*
X144294692Y-49448025D01*
X144233609Y-49220056D01*
X144233604Y-49220042D01*
X144143288Y-49002000D01*
X144143283Y-49001989D01*
X144025281Y-48797605D01*
X144025275Y-48797597D01*
X143962640Y-48715969D01*
X143461182Y-49217427D01*
X143363916Y-49083552D01*
X143241505Y-48961141D01*
X143107628Y-48863874D01*
X143609086Y-48362415D01*
X143609086Y-48362414D01*
X143527466Y-48299785D01*
X143323060Y-48181770D01*
X143323056Y-48181768D01*
X143105014Y-48091452D01*
X143105000Y-48091447D01*
X142877031Y-48030364D01*
X142877020Y-48030362D01*
X142643036Y-47999556D01*
X142407001Y-47999556D01*
X142173017Y-48030362D01*
X142173006Y-48030364D01*
X141945037Y-48091447D01*
X141945023Y-48091452D01*
X141726981Y-48181768D01*
X141726970Y-48181773D01*
X141522588Y-48299773D01*
X141522581Y-48299779D01*
X141440950Y-48362414D01*
X141440950Y-48362415D01*
X141942409Y-48863874D01*
X141808533Y-48961141D01*
X141686122Y-49083552D01*
X141588855Y-49217428D01*
X141087396Y-48715969D01*
X141087395Y-48715969D01*
X141024760Y-48797600D01*
X141024754Y-48797607D01*
X140906754Y-49001989D01*
X140906749Y-49002000D01*
X140816433Y-49220042D01*
X140816428Y-49220056D01*
X140755345Y-49448025D01*
X140755343Y-49448036D01*
X140724537Y-49682020D01*
X79275462Y-49682020D01*
X79244656Y-49448036D01*
X79244654Y-49448025D01*
X79183571Y-49220056D01*
X79183566Y-49220042D01*
X79093250Y-49002000D01*
X79093245Y-49001989D01*
X78975243Y-48797605D01*
X78975237Y-48797597D01*
X78912602Y-48715969D01*
X78411144Y-49217427D01*
X78313878Y-49083552D01*
X78191467Y-48961141D01*
X78057590Y-48863874D01*
X78559048Y-48362415D01*
X78559048Y-48362413D01*
X78477428Y-48299785D01*
X78273022Y-48181770D01*
X78273018Y-48181768D01*
X78054976Y-48091452D01*
X78054962Y-48091447D01*
X77826993Y-48030364D01*
X77826982Y-48030362D01*
X77592998Y-47999556D01*
X77356963Y-47999556D01*
X77122979Y-48030362D01*
X77122968Y-48030364D01*
X76894999Y-48091447D01*
X76894985Y-48091452D01*
X76676943Y-48181768D01*
X76676932Y-48181773D01*
X76472550Y-48299773D01*
X76472543Y-48299779D01*
X76390912Y-48362414D01*
X76390912Y-48362415D01*
X76892371Y-48863874D01*
X76758495Y-48961141D01*
X76636084Y-49083552D01*
X76538817Y-49217428D01*
X76037358Y-48715969D01*
X76037357Y-48715969D01*
X75974722Y-48797600D01*
X75974716Y-48797607D01*
X75856716Y-49001989D01*
X75856711Y-49002000D01*
X75766395Y-49220042D01*
X75766390Y-49220056D01*
X75705307Y-49448025D01*
X75705305Y-49448036D01*
X75674499Y-49682020D01*
X72000500Y-49682020D01*
X72000500Y-47147809D01*
X81225019Y-47147809D01*
X81225019Y-47352444D01*
X81257028Y-47554544D01*
X81320263Y-47749158D01*
X81413160Y-47931477D01*
X81413166Y-47931486D01*
X81445542Y-47976048D01*
X81445543Y-47976049D01*
X82042056Y-47379536D01*
X82059094Y-47443120D01*
X82124920Y-47557134D01*
X82218012Y-47650226D01*
X82332026Y-47716052D01*
X82395609Y-47733089D01*
X81799095Y-48329601D01*
X81843669Y-48361986D01*
X82025987Y-48454882D01*
X82220601Y-48518117D01*
X82422702Y-48550127D01*
X82627336Y-48550127D01*
X82829436Y-48518117D01*
X83024050Y-48454882D01*
X83206368Y-48361986D01*
X83250940Y-48329601D01*
X82654428Y-47733089D01*
X82718012Y-47716052D01*
X82832026Y-47650226D01*
X82925118Y-47557134D01*
X82990944Y-47443120D01*
X83007981Y-47379536D01*
X83604493Y-47976048D01*
X83636878Y-47931476D01*
X83729774Y-47749158D01*
X83793009Y-47554544D01*
X83825019Y-47352444D01*
X83825019Y-47147809D01*
X83793009Y-46945709D01*
X83729774Y-46751095D01*
X83636878Y-46568777D01*
X83604493Y-46524204D01*
X83604493Y-46524203D01*
X83007981Y-47120716D01*
X82990944Y-47057134D01*
X82925118Y-46943120D01*
X82832026Y-46850028D01*
X82718012Y-46784202D01*
X82654427Y-46767164D01*
X83250941Y-46170651D01*
X83250940Y-46170650D01*
X83206378Y-46138274D01*
X83206369Y-46138268D01*
X83042382Y-46054712D01*
X82991586Y-46006737D01*
X82974791Y-45938916D01*
X82997329Y-45872781D01*
X83042381Y-45833743D01*
X83154218Y-45776760D01*
X83307092Y-45665690D01*
X83440709Y-45532073D01*
X83551779Y-45379199D01*
X83637566Y-45210832D01*
X83695959Y-45031118D01*
X83725519Y-44844486D01*
X83725519Y-44655513D01*
X83695959Y-44468881D01*
X83637564Y-44289163D01*
X83551778Y-44120800D01*
X83440709Y-43967927D01*
X83307092Y-43834310D01*
X83154218Y-43723240D01*
X82985855Y-43637454D01*
X82806137Y-43579059D01*
X82619505Y-43549500D01*
X82619500Y-43549500D01*
X82430538Y-43549500D01*
X82430533Y-43549500D01*
X82243900Y-43579059D01*
X82064182Y-43637454D01*
X81895819Y-43723240D01*
X81808598Y-43786610D01*
X81742946Y-43834310D01*
X81742944Y-43834312D01*
X81742943Y-43834312D01*
X81609331Y-43967924D01*
X81609331Y-43967925D01*
X81609329Y-43967927D01*
X81561629Y-44033579D01*
X81498259Y-44120800D01*
X81412473Y-44289163D01*
X81354078Y-44468881D01*
X81324519Y-44655513D01*
X81324519Y-44844486D01*
X81354078Y-45031118D01*
X81412473Y-45210836D01*
X81498259Y-45379199D01*
X81609329Y-45532073D01*
X81742946Y-45665690D01*
X81857601Y-45748992D01*
X81895821Y-45776761D01*
X82007654Y-45833742D01*
X82058451Y-45881716D01*
X82075246Y-45949537D01*
X82052709Y-46015672D01*
X82007655Y-46054712D01*
X81843663Y-46138270D01*
X81799096Y-46170650D01*
X81799096Y-46170651D01*
X82395610Y-46767164D01*
X82332026Y-46784202D01*
X82218012Y-46850028D01*
X82124920Y-46943120D01*
X82059094Y-47057134D01*
X82042056Y-47120717D01*
X81445543Y-46524204D01*
X81445542Y-46524204D01*
X81413162Y-46568771D01*
X81320263Y-46751095D01*
X81257028Y-46945709D01*
X81225019Y-47147809D01*
X72000500Y-47147809D01*
X72000500Y-42147555D01*
X136174981Y-42147555D01*
X136174981Y-42352190D01*
X136206990Y-42554290D01*
X136270225Y-42748904D01*
X136363122Y-42931223D01*
X136363128Y-42931232D01*
X136395504Y-42975794D01*
X136395505Y-42975795D01*
X136992018Y-42379282D01*
X137009056Y-42442866D01*
X137074882Y-42556880D01*
X137167974Y-42649972D01*
X137281988Y-42715798D01*
X137345571Y-42732835D01*
X136749057Y-43329347D01*
X136793631Y-43361732D01*
X136957617Y-43445287D01*
X137008413Y-43493261D01*
X137025208Y-43561082D01*
X137002671Y-43627217D01*
X136957617Y-43666257D01*
X136845781Y-43723240D01*
X136758560Y-43786610D01*
X136692908Y-43834310D01*
X136692906Y-43834312D01*
X136692905Y-43834312D01*
X136559293Y-43967924D01*
X136559293Y-43967925D01*
X136559291Y-43967927D01*
X136511591Y-44033579D01*
X136448221Y-44120800D01*
X136362435Y-44289163D01*
X136304040Y-44468881D01*
X136274481Y-44655513D01*
X136274481Y-44844486D01*
X136304040Y-45031118D01*
X136362435Y-45210836D01*
X136448221Y-45379199D01*
X136559291Y-45532073D01*
X136692908Y-45665690D01*
X136845782Y-45776760D01*
X136925328Y-45817290D01*
X137014144Y-45862545D01*
X137014146Y-45862545D01*
X137014149Y-45862547D01*
X137073145Y-45881716D01*
X137193862Y-45920940D01*
X137380495Y-45950500D01*
X137380500Y-45950500D01*
X137569467Y-45950500D01*
X137756099Y-45920940D01*
X137935813Y-45862547D01*
X138104180Y-45776760D01*
X138257054Y-45665690D01*
X138390671Y-45532073D01*
X138501741Y-45379199D01*
X138587528Y-45210832D01*
X138645921Y-45031118D01*
X138675481Y-44844486D01*
X138675481Y-44655513D01*
X138645921Y-44468881D01*
X138587526Y-44289163D01*
X138501740Y-44120800D01*
X138390671Y-43967927D01*
X138257054Y-43834310D01*
X138104180Y-43723240D01*
X137992343Y-43666256D01*
X137941548Y-43618283D01*
X137924753Y-43550462D01*
X137947290Y-43484327D01*
X137992345Y-43445287D01*
X138156327Y-43361734D01*
X138156328Y-43361734D01*
X138200902Y-43329347D01*
X137604390Y-42732835D01*
X137667974Y-42715798D01*
X137781988Y-42649972D01*
X137875080Y-42556880D01*
X137940906Y-42442866D01*
X137957943Y-42379282D01*
X138554455Y-42975794D01*
X138586840Y-42931222D01*
X138679736Y-42748904D01*
X138742971Y-42554290D01*
X138774981Y-42352190D01*
X138774981Y-42147555D01*
X138742971Y-41945455D01*
X138679736Y-41750841D01*
X138586840Y-41568523D01*
X138554455Y-41523950D01*
X138554455Y-41523949D01*
X137957943Y-42120462D01*
X137940906Y-42056880D01*
X137875080Y-41942866D01*
X137781988Y-41849774D01*
X137667974Y-41783948D01*
X137604389Y-41766910D01*
X138200903Y-41170397D01*
X138200902Y-41170396D01*
X138156340Y-41138020D01*
X138156331Y-41138014D01*
X137974012Y-41045117D01*
X137779398Y-40981882D01*
X137577298Y-40949873D01*
X137372664Y-40949873D01*
X137170563Y-40981882D01*
X136975949Y-41045117D01*
X136793625Y-41138016D01*
X136749058Y-41170396D01*
X136749058Y-41170397D01*
X137345572Y-41766910D01*
X137281988Y-41783948D01*
X137167974Y-41849774D01*
X137074882Y-41942866D01*
X137009056Y-42056880D01*
X136992018Y-42120463D01*
X136395505Y-41523950D01*
X136395504Y-41523950D01*
X136363124Y-41568517D01*
X136270225Y-41750841D01*
X136206990Y-41945455D01*
X136174981Y-42147555D01*
X72000500Y-42147555D01*
X72000500Y-39581944D01*
X75674499Y-39581944D01*
X75674499Y-39817979D01*
X75705305Y-40051963D01*
X75705307Y-40051974D01*
X75766390Y-40279943D01*
X75766395Y-40279957D01*
X75856711Y-40497999D01*
X75856713Y-40498003D01*
X75974728Y-40702409D01*
X76037357Y-40784029D01*
X76037358Y-40784029D01*
X76538816Y-40282571D01*
X76636084Y-40416448D01*
X76758495Y-40538859D01*
X76892370Y-40636125D01*
X76390912Y-41137583D01*
X76472540Y-41200218D01*
X76472548Y-41200224D01*
X76676932Y-41318226D01*
X76676943Y-41318231D01*
X76894985Y-41408547D01*
X76894999Y-41408552D01*
X77122968Y-41469635D01*
X77122979Y-41469637D01*
X77356963Y-41500443D01*
X77356978Y-41500444D01*
X77592984Y-41500444D01*
X77592998Y-41500443D01*
X77826982Y-41469637D01*
X77826993Y-41469635D01*
X78054962Y-41408552D01*
X78054976Y-41408547D01*
X78273018Y-41318231D01*
X78273029Y-41318226D01*
X78477413Y-41200224D01*
X78477431Y-41200212D01*
X78559048Y-41137584D01*
X78559048Y-41137582D01*
X78057590Y-40636125D01*
X78191467Y-40538859D01*
X78313878Y-40416448D01*
X78411144Y-40282571D01*
X78912601Y-40784029D01*
X78912603Y-40784029D01*
X78975231Y-40702412D01*
X78975243Y-40702394D01*
X79093245Y-40498010D01*
X79093250Y-40497999D01*
X79183566Y-40279957D01*
X79183571Y-40279943D01*
X79244654Y-40051974D01*
X79244656Y-40051963D01*
X79275462Y-39817979D01*
X79275463Y-39817965D01*
X79275463Y-39581958D01*
X79275462Y-39581944D01*
X140724537Y-39581944D01*
X140724537Y-39817979D01*
X140755343Y-40051963D01*
X140755345Y-40051974D01*
X140816428Y-40279943D01*
X140816433Y-40279957D01*
X140906749Y-40497999D01*
X140906751Y-40498003D01*
X141024766Y-40702409D01*
X141087395Y-40784029D01*
X141087396Y-40784029D01*
X141588854Y-40282571D01*
X141686122Y-40416448D01*
X141808533Y-40538859D01*
X141942408Y-40636125D01*
X141440950Y-41137583D01*
X141522578Y-41200218D01*
X141522586Y-41200224D01*
X141726970Y-41318226D01*
X141726981Y-41318231D01*
X141945023Y-41408547D01*
X141945037Y-41408552D01*
X142173006Y-41469635D01*
X142173017Y-41469637D01*
X142407001Y-41500443D01*
X142407016Y-41500444D01*
X142643022Y-41500444D01*
X142643036Y-41500443D01*
X142877020Y-41469637D01*
X142877031Y-41469635D01*
X143105000Y-41408552D01*
X143105014Y-41408547D01*
X143323056Y-41318231D01*
X143323067Y-41318226D01*
X143527451Y-41200224D01*
X143527469Y-41200212D01*
X143609086Y-41137584D01*
X143609086Y-41137582D01*
X143107628Y-40636125D01*
X143241505Y-40538859D01*
X143363916Y-40416448D01*
X143461182Y-40282571D01*
X143962639Y-40784029D01*
X143962641Y-40784029D01*
X144025269Y-40702412D01*
X144025281Y-40702394D01*
X144143283Y-40498010D01*
X144143288Y-40497999D01*
X144233604Y-40279957D01*
X144233609Y-40279943D01*
X144294692Y-40051974D01*
X144294694Y-40051963D01*
X144325500Y-39817979D01*
X144325501Y-39817965D01*
X144325501Y-39581958D01*
X144325500Y-39581944D01*
X144294694Y-39347960D01*
X144294692Y-39347949D01*
X144233609Y-39119980D01*
X144233604Y-39119966D01*
X144143288Y-38901924D01*
X144143283Y-38901913D01*
X144025281Y-38697529D01*
X144025275Y-38697521D01*
X143962640Y-38615893D01*
X143461182Y-39117351D01*
X143363916Y-38983476D01*
X143241505Y-38861065D01*
X143107628Y-38763798D01*
X143609086Y-38262339D01*
X143609086Y-38262338D01*
X143527466Y-38199709D01*
X143323060Y-38081694D01*
X143323056Y-38081692D01*
X143105014Y-37991376D01*
X143105000Y-37991371D01*
X142877031Y-37930288D01*
X142877020Y-37930286D01*
X142643036Y-37899480D01*
X142407001Y-37899480D01*
X142173017Y-37930286D01*
X142173006Y-37930288D01*
X141945037Y-37991371D01*
X141945023Y-37991376D01*
X141726981Y-38081692D01*
X141726970Y-38081697D01*
X141522588Y-38199697D01*
X141522581Y-38199703D01*
X141440950Y-38262338D01*
X141440950Y-38262339D01*
X141942409Y-38763798D01*
X141808533Y-38861065D01*
X141686122Y-38983476D01*
X141588855Y-39117352D01*
X141087396Y-38615893D01*
X141087395Y-38615893D01*
X141024760Y-38697524D01*
X141024754Y-38697531D01*
X140906754Y-38901913D01*
X140906749Y-38901924D01*
X140816433Y-39119966D01*
X140816428Y-39119980D01*
X140755345Y-39347949D01*
X140755343Y-39347960D01*
X140724537Y-39581944D01*
X79275462Y-39581944D01*
X79244656Y-39347960D01*
X79244654Y-39347949D01*
X79183571Y-39119980D01*
X79183566Y-39119966D01*
X79093250Y-38901924D01*
X79093245Y-38901913D01*
X78975243Y-38697529D01*
X78975237Y-38697521D01*
X78912602Y-38615893D01*
X78411144Y-39117351D01*
X78313878Y-38983476D01*
X78191467Y-38861065D01*
X78057590Y-38763798D01*
X78559048Y-38262339D01*
X78559048Y-38262338D01*
X78477428Y-38199709D01*
X78273022Y-38081694D01*
X78273018Y-38081692D01*
X78054976Y-37991376D01*
X78054962Y-37991371D01*
X77826993Y-37930288D01*
X77826982Y-37930286D01*
X77592998Y-37899480D01*
X77356963Y-37899480D01*
X77122979Y-37930286D01*
X77122968Y-37930288D01*
X76894999Y-37991371D01*
X76894985Y-37991376D01*
X76676943Y-38081692D01*
X76676932Y-38081697D01*
X76472550Y-38199697D01*
X76472543Y-38199703D01*
X76390912Y-38262338D01*
X76390912Y-38262339D01*
X76892371Y-38763798D01*
X76758495Y-38861065D01*
X76636084Y-38983476D01*
X76538817Y-39117352D01*
X76037358Y-38615893D01*
X76037357Y-38615893D01*
X75974722Y-38697524D01*
X75974716Y-38697531D01*
X75856716Y-38901913D01*
X75856711Y-38901924D01*
X75766395Y-39119966D01*
X75766390Y-39119980D01*
X75705307Y-39347949D01*
X75705305Y-39347960D01*
X75674499Y-39581944D01*
X72000500Y-39581944D01*
X72000500Y-37018592D01*
X129023500Y-37018592D01*
X129023500Y-37181407D01*
X129055259Y-37341073D01*
X129055262Y-37341082D01*
X129117562Y-37491490D01*
X129117563Y-37491492D01*
X129208015Y-37626862D01*
X129208018Y-37626866D01*
X129323133Y-37741981D01*
X129323137Y-37741984D01*
X129458505Y-37832435D01*
X129458506Y-37832435D01*
X129458507Y-37832436D01*
X129458509Y-37832437D01*
X129558781Y-37873970D01*
X129608919Y-37894738D01*
X129608921Y-37894738D01*
X129608926Y-37894740D01*
X129768592Y-37926499D01*
X129768595Y-37926500D01*
X129768597Y-37926500D01*
X129931405Y-37926500D01*
X129931406Y-37926499D01*
X129984629Y-37915912D01*
X130091073Y-37894740D01*
X130091076Y-37894738D01*
X130091081Y-37894738D01*
X130241495Y-37832435D01*
X130376863Y-37741984D01*
X130491984Y-37626863D01*
X130582435Y-37491495D01*
X130644738Y-37341081D01*
X130676500Y-37181403D01*
X130676500Y-37018597D01*
X130676500Y-37018594D01*
X130676499Y-37018592D01*
X130644740Y-36858926D01*
X130644737Y-36858917D01*
X130582437Y-36708509D01*
X130582436Y-36708507D01*
X130491984Y-36573137D01*
X130491981Y-36573133D01*
X130376866Y-36458018D01*
X130376862Y-36458015D01*
X130241492Y-36367563D01*
X130241490Y-36367562D01*
X130091082Y-36305262D01*
X130091073Y-36305259D01*
X129931406Y-36273500D01*
X129931403Y-36273500D01*
X129768597Y-36273500D01*
X129768594Y-36273500D01*
X129608926Y-36305259D01*
X129608917Y-36305262D01*
X129458509Y-36367562D01*
X129458507Y-36367563D01*
X129323137Y-36458015D01*
X129323133Y-36458018D01*
X129208018Y-36573133D01*
X129208015Y-36573137D01*
X129117563Y-36708507D01*
X129117562Y-36708509D01*
X129055262Y-36858917D01*
X129055259Y-36858926D01*
X129023500Y-37018592D01*
X72000500Y-37018592D01*
X72000500Y-35374000D01*
X72020185Y-35306961D01*
X72072989Y-35261206D01*
X72124500Y-35250000D01*
X147875500Y-35250000D01*
X147942539Y-35269685D01*
G37*
%TD.AperFunction*%
%TD*%
M02*
