%TF.GenerationSoftware,KiCad,Pcbnew,10.0.3*%
%TF.CreationDate,2026-06-27T17:08:14+08:00*%
%TF.ProjectId,LPFilter_200kHz_Elliptical_v0.1,4c504669-6c74-4657-925f-3230306b487a,rev?*%
%TF.SameCoordinates,Original*%
%TF.FileFunction,Legend,Top*%
%TF.FilePolarity,Positive*%
%FSLAX46Y46*%
G04 Gerber Fmt 4.6, Leading zero omitted, Abs format (unit mm)*
G04 Created by KiCad (PCBNEW 10.0.3) date 2026-06-27 17:08:14*
%MOMM*%
%LPD*%
G01*
G04 APERTURE LIST*
G04 Aperture macros list*
%AMRoundRect*
0 Rectangle with rounded corners*
0 $1 Rounding radius*
0 $2 $3 $4 $5 $6 $7 $8 $9 X,Y pos of 4 corners*
0 Add a 4 corners polygon primitive as box body*
4,1,4,$2,$3,$4,$5,$6,$7,$8,$9,$2,$3,0*
0 Add four circle primitives for the rounded corners*
1,1,$1+$1,$2,$3*
1,1,$1+$1,$4,$5*
1,1,$1+$1,$6,$7*
1,1,$1+$1,$8,$9*
0 Add four rect primitives between the rounded corners*
20,1,$1+$1,$2,$3,$4,$5,0*
20,1,$1+$1,$4,$5,$6,$7,0*
20,1,$1+$1,$6,$7,$8,$9,0*
20,1,$1+$1,$8,$9,$2,$3,0*%
G04 Aperture macros list end*
%ADD10C,0.150000*%
%ADD11C,0.100000*%
%ADD12C,0.120000*%
%ADD13C,0.150013*%
%ADD14C,0.254001*%
%ADD15C,0.152400*%
%ADD16RoundRect,0.225000X-0.250000X0.225000X-0.250000X-0.225000X0.250000X-0.225000X0.250000X0.225000X0*%
%ADD17C,1.448000*%
%ADD18R,3.120015X1.800000*%
%ADD19C,1.600000*%
%ADD20C,2.600965*%
%ADD21R,3.500000X2.924003*%
%ADD22RoundRect,0.225000X0.250000X-0.225000X0.250000X0.225000X-0.250000X0.225000X-0.250000X-0.225000X0*%
G04 APERTURE END LIST*
D10*
X88454819Y-43123808D02*
X87454819Y-43123808D01*
X88454819Y-42647618D02*
X87454819Y-42647618D01*
X87454819Y-42647618D02*
X88454819Y-42076190D01*
X88454819Y-42076190D02*
X87454819Y-42076190D01*
X132545180Y-45972744D02*
X132545180Y-46163220D01*
X132545180Y-46163220D02*
X132497561Y-46258458D01*
X132497561Y-46258458D02*
X132402323Y-46353696D01*
X132402323Y-46353696D02*
X132211847Y-46401315D01*
X132211847Y-46401315D02*
X131878514Y-46401315D01*
X131878514Y-46401315D02*
X131688038Y-46353696D01*
X131688038Y-46353696D02*
X131592800Y-46258458D01*
X131592800Y-46258458D02*
X131545180Y-46163220D01*
X131545180Y-46163220D02*
X131545180Y-45972744D01*
X131545180Y-45972744D02*
X131592800Y-45877506D01*
X131592800Y-45877506D02*
X131688038Y-45782268D01*
X131688038Y-45782268D02*
X131878514Y-45734649D01*
X131878514Y-45734649D02*
X132211847Y-45734649D01*
X132211847Y-45734649D02*
X132402323Y-45782268D01*
X132402323Y-45782268D02*
X132497561Y-45877506D01*
X132497561Y-45877506D02*
X132545180Y-45972744D01*
X132545180Y-46829887D02*
X131735657Y-46829887D01*
X131735657Y-46829887D02*
X131640419Y-46877506D01*
X131640419Y-46877506D02*
X131592800Y-46925125D01*
X131592800Y-46925125D02*
X131545180Y-47020363D01*
X131545180Y-47020363D02*
X131545180Y-47210839D01*
X131545180Y-47210839D02*
X131592800Y-47306077D01*
X131592800Y-47306077D02*
X131640419Y-47353696D01*
X131640419Y-47353696D02*
X131735657Y-47401315D01*
X131735657Y-47401315D02*
X132545180Y-47401315D01*
X132545180Y-47734649D02*
X132545180Y-48306077D01*
X131545180Y-48020363D02*
X132545180Y-48020363D01*
X113833333Y-42859580D02*
X113785714Y-42907200D01*
X113785714Y-42907200D02*
X113642857Y-42954819D01*
X113642857Y-42954819D02*
X113547619Y-42954819D01*
X113547619Y-42954819D02*
X113404762Y-42907200D01*
X113404762Y-42907200D02*
X113309524Y-42811961D01*
X113309524Y-42811961D02*
X113261905Y-42716723D01*
X113261905Y-42716723D02*
X113214286Y-42526247D01*
X113214286Y-42526247D02*
X113214286Y-42383390D01*
X113214286Y-42383390D02*
X113261905Y-42192914D01*
X113261905Y-42192914D02*
X113309524Y-42097676D01*
X113309524Y-42097676D02*
X113404762Y-42002438D01*
X113404762Y-42002438D02*
X113547619Y-41954819D01*
X113547619Y-41954819D02*
X113642857Y-41954819D01*
X113642857Y-41954819D02*
X113785714Y-42002438D01*
X113785714Y-42002438D02*
X113833333Y-42050057D01*
X114166667Y-41954819D02*
X114785714Y-41954819D01*
X114785714Y-41954819D02*
X114452381Y-42335771D01*
X114452381Y-42335771D02*
X114595238Y-42335771D01*
X114595238Y-42335771D02*
X114690476Y-42383390D01*
X114690476Y-42383390D02*
X114738095Y-42431009D01*
X114738095Y-42431009D02*
X114785714Y-42526247D01*
X114785714Y-42526247D02*
X114785714Y-42764342D01*
X114785714Y-42764342D02*
X114738095Y-42859580D01*
X114738095Y-42859580D02*
X114690476Y-42907200D01*
X114690476Y-42907200D02*
X114595238Y-42954819D01*
X114595238Y-42954819D02*
X114309524Y-42954819D01*
X114309524Y-42954819D02*
X114214286Y-42907200D01*
X114214286Y-42907200D02*
X114166667Y-42859580D01*
X123833333Y-48454819D02*
X123357143Y-48454819D01*
X123357143Y-48454819D02*
X123357143Y-47454819D01*
X124119048Y-47550057D02*
X124166667Y-47502438D01*
X124166667Y-47502438D02*
X124261905Y-47454819D01*
X124261905Y-47454819D02*
X124500000Y-47454819D01*
X124500000Y-47454819D02*
X124595238Y-47502438D01*
X124595238Y-47502438D02*
X124642857Y-47550057D01*
X124642857Y-47550057D02*
X124690476Y-47645295D01*
X124690476Y-47645295D02*
X124690476Y-47740533D01*
X124690476Y-47740533D02*
X124642857Y-47883390D01*
X124642857Y-47883390D02*
X124071429Y-48454819D01*
X124071429Y-48454819D02*
X124690476Y-48454819D01*
X109333333Y-42859580D02*
X109285714Y-42907200D01*
X109285714Y-42907200D02*
X109142857Y-42954819D01*
X109142857Y-42954819D02*
X109047619Y-42954819D01*
X109047619Y-42954819D02*
X108904762Y-42907200D01*
X108904762Y-42907200D02*
X108809524Y-42811961D01*
X108809524Y-42811961D02*
X108761905Y-42716723D01*
X108761905Y-42716723D02*
X108714286Y-42526247D01*
X108714286Y-42526247D02*
X108714286Y-42383390D01*
X108714286Y-42383390D02*
X108761905Y-42192914D01*
X108761905Y-42192914D02*
X108809524Y-42097676D01*
X108809524Y-42097676D02*
X108904762Y-42002438D01*
X108904762Y-42002438D02*
X109047619Y-41954819D01*
X109047619Y-41954819D02*
X109142857Y-41954819D01*
X109142857Y-41954819D02*
X109285714Y-42002438D01*
X109285714Y-42002438D02*
X109333333Y-42050057D01*
X109714286Y-42050057D02*
X109761905Y-42002438D01*
X109761905Y-42002438D02*
X109857143Y-41954819D01*
X109857143Y-41954819D02*
X110095238Y-41954819D01*
X110095238Y-41954819D02*
X110190476Y-42002438D01*
X110190476Y-42002438D02*
X110238095Y-42050057D01*
X110238095Y-42050057D02*
X110285714Y-42145295D01*
X110285714Y-42145295D02*
X110285714Y-42240533D01*
X110285714Y-42240533D02*
X110238095Y-42383390D01*
X110238095Y-42383390D02*
X109666667Y-42954819D01*
X109666667Y-42954819D02*
X110285714Y-42954819D01*
X85454819Y-46333333D02*
X86169104Y-46333333D01*
X86169104Y-46333333D02*
X86311961Y-46380952D01*
X86311961Y-46380952D02*
X86407200Y-46476190D01*
X86407200Y-46476190D02*
X86454819Y-46619047D01*
X86454819Y-46619047D02*
X86454819Y-46714285D01*
X86454819Y-45333333D02*
X86454819Y-45904761D01*
X86454819Y-45619047D02*
X85454819Y-45619047D01*
X85454819Y-45619047D02*
X85597676Y-45714285D01*
X85597676Y-45714285D02*
X85692914Y-45809523D01*
X85692914Y-45809523D02*
X85740533Y-45904761D01*
X99833333Y-52954819D02*
X99357143Y-52954819D01*
X99357143Y-52954819D02*
X99357143Y-51954819D01*
X100690476Y-52954819D02*
X100119048Y-52954819D01*
X100404762Y-52954819D02*
X100404762Y-51954819D01*
X100404762Y-51954819D02*
X100309524Y-52097676D01*
X100309524Y-52097676D02*
X100214286Y-52192914D01*
X100214286Y-52192914D02*
X100119048Y-52240533D01*
X129333333Y-41984580D02*
X129285714Y-42032200D01*
X129285714Y-42032200D02*
X129142857Y-42079819D01*
X129142857Y-42079819D02*
X129047619Y-42079819D01*
X129047619Y-42079819D02*
X128904762Y-42032200D01*
X128904762Y-42032200D02*
X128809524Y-41936961D01*
X128809524Y-41936961D02*
X128761905Y-41841723D01*
X128761905Y-41841723D02*
X128714286Y-41651247D01*
X128714286Y-41651247D02*
X128714286Y-41508390D01*
X128714286Y-41508390D02*
X128761905Y-41317914D01*
X128761905Y-41317914D02*
X128809524Y-41222676D01*
X128809524Y-41222676D02*
X128904762Y-41127438D01*
X128904762Y-41127438D02*
X129047619Y-41079819D01*
X129047619Y-41079819D02*
X129142857Y-41079819D01*
X129142857Y-41079819D02*
X129285714Y-41127438D01*
X129285714Y-41127438D02*
X129333333Y-41175057D01*
X130238095Y-41079819D02*
X129761905Y-41079819D01*
X129761905Y-41079819D02*
X129714286Y-41556009D01*
X129714286Y-41556009D02*
X129761905Y-41508390D01*
X129761905Y-41508390D02*
X129857143Y-41460771D01*
X129857143Y-41460771D02*
X130095238Y-41460771D01*
X130095238Y-41460771D02*
X130190476Y-41508390D01*
X130190476Y-41508390D02*
X130238095Y-41556009D01*
X130238095Y-41556009D02*
X130285714Y-41651247D01*
X130285714Y-41651247D02*
X130285714Y-41889342D01*
X130285714Y-41889342D02*
X130238095Y-41984580D01*
X130238095Y-41984580D02*
X130190476Y-42032200D01*
X130190476Y-42032200D02*
X130095238Y-42079819D01*
X130095238Y-42079819D02*
X129857143Y-42079819D01*
X129857143Y-42079819D02*
X129761905Y-42032200D01*
X129761905Y-42032200D02*
X129714286Y-41984580D01*
X134545180Y-42666666D02*
X133830895Y-42666666D01*
X133830895Y-42666666D02*
X133688038Y-42619047D01*
X133688038Y-42619047D02*
X133592800Y-42523809D01*
X133592800Y-42523809D02*
X133545180Y-42380952D01*
X133545180Y-42380952D02*
X133545180Y-42285714D01*
X134449942Y-43095238D02*
X134497561Y-43142857D01*
X134497561Y-43142857D02*
X134545180Y-43238095D01*
X134545180Y-43238095D02*
X134545180Y-43476190D01*
X134545180Y-43476190D02*
X134497561Y-43571428D01*
X134497561Y-43571428D02*
X134449942Y-43619047D01*
X134449942Y-43619047D02*
X134354704Y-43666666D01*
X134354704Y-43666666D02*
X134259466Y-43666666D01*
X134259466Y-43666666D02*
X134116609Y-43619047D01*
X134116609Y-43619047D02*
X133545180Y-43047619D01*
X133545180Y-43047619D02*
X133545180Y-43666666D01*
X91333333Y-43359580D02*
X91285714Y-43407200D01*
X91285714Y-43407200D02*
X91142857Y-43454819D01*
X91142857Y-43454819D02*
X91047619Y-43454819D01*
X91047619Y-43454819D02*
X90904762Y-43407200D01*
X90904762Y-43407200D02*
X90809524Y-43311961D01*
X90809524Y-43311961D02*
X90761905Y-43216723D01*
X90761905Y-43216723D02*
X90714286Y-43026247D01*
X90714286Y-43026247D02*
X90714286Y-42883390D01*
X90714286Y-42883390D02*
X90761905Y-42692914D01*
X90761905Y-42692914D02*
X90809524Y-42597676D01*
X90809524Y-42597676D02*
X90904762Y-42502438D01*
X90904762Y-42502438D02*
X91047619Y-42454819D01*
X91047619Y-42454819D02*
X91142857Y-42454819D01*
X91142857Y-42454819D02*
X91285714Y-42502438D01*
X91285714Y-42502438D02*
X91333333Y-42550057D01*
X92285714Y-43454819D02*
X91714286Y-43454819D01*
X92000000Y-43454819D02*
X92000000Y-42454819D01*
X92000000Y-42454819D02*
X91904762Y-42597676D01*
X91904762Y-42597676D02*
X91809524Y-42692914D01*
X91809524Y-42692914D02*
X91714286Y-42740533D01*
X118333333Y-42859580D02*
X118285714Y-42907200D01*
X118285714Y-42907200D02*
X118142857Y-42954819D01*
X118142857Y-42954819D02*
X118047619Y-42954819D01*
X118047619Y-42954819D02*
X117904762Y-42907200D01*
X117904762Y-42907200D02*
X117809524Y-42811961D01*
X117809524Y-42811961D02*
X117761905Y-42716723D01*
X117761905Y-42716723D02*
X117714286Y-42526247D01*
X117714286Y-42526247D02*
X117714286Y-42383390D01*
X117714286Y-42383390D02*
X117761905Y-42192914D01*
X117761905Y-42192914D02*
X117809524Y-42097676D01*
X117809524Y-42097676D02*
X117904762Y-42002438D01*
X117904762Y-42002438D02*
X118047619Y-41954819D01*
X118047619Y-41954819D02*
X118142857Y-41954819D01*
X118142857Y-41954819D02*
X118285714Y-42002438D01*
X118285714Y-42002438D02*
X118333333Y-42050057D01*
X119190476Y-42288152D02*
X119190476Y-42954819D01*
X118952381Y-41907200D02*
X118714286Y-42621485D01*
X118714286Y-42621485D02*
X119333333Y-42621485D01*
%TO.C,Aluminum Box*%
D11*
X71500000Y-35250000D02*
X148500000Y-35250000D01*
X71500000Y-54750000D02*
X148500000Y-54750000D01*
%TO.C,C3*%
D12*
X113490000Y-44859420D02*
X113490000Y-45140580D01*
X114510000Y-44859420D02*
X114510000Y-45140580D01*
%TO.C,L2*%
D13*
X122200025Y-46499987D02*
X122200025Y-42999987D01*
X125799873Y-43000191D02*
X125799873Y-46500140D01*
%TO.C,C2*%
D12*
X108990000Y-44859420D02*
X108990000Y-45140580D01*
X110010000Y-44859420D02*
X110010000Y-45140580D01*
%TO.C,J1*%
D14*
X48793752Y-38145987D02*
X48793752Y-51354013D01*
X48793752Y-51354013D02*
X62636779Y-51354013D01*
X62636779Y-37637986D02*
X71653797Y-37637986D01*
X62636779Y-37663386D02*
X62636779Y-37637986D01*
X62636779Y-38145987D02*
X48793752Y-38145987D01*
X62636779Y-38145987D02*
X62636779Y-37663386D01*
X62636779Y-51354013D02*
X62636779Y-38145987D01*
X62636779Y-51862014D02*
X62636779Y-51354013D01*
X63500381Y-51836614D02*
X62636779Y-37663386D01*
X64770384Y-51836614D02*
X63906782Y-37663386D01*
X66040386Y-51836614D02*
X65176784Y-37663386D01*
X67310389Y-51836614D02*
X66446787Y-37663386D01*
X68580391Y-51836614D02*
X67716789Y-37663386D01*
X69850394Y-51836614D02*
X68986792Y-37663386D01*
X71120396Y-51836614D02*
X70256795Y-37663386D01*
X71653797Y-51862014D02*
X62636779Y-51862014D01*
X71657861Y-37256985D02*
X71657861Y-52243015D01*
X71657861Y-52243015D02*
X84459995Y-52243015D01*
X84459995Y-37256985D02*
X71657861Y-37256985D01*
X84459995Y-52243015D02*
X84459995Y-37256985D01*
X52857760Y-44750000D02*
G75*
G02*
X51232156Y-44750000I-812802J0D01*
G01*
X51232156Y-44750000D02*
G75*
G02*
X52857760Y-44750000I812802J0D01*
G01*
%TO.C,L1*%
D15*
X94923774Y-39023762D02*
X98006629Y-39037148D01*
X94923774Y-50476238D02*
X94923774Y-39023762D01*
X97945491Y-50504458D02*
X94923774Y-50476238D01*
X102101575Y-50485662D02*
X105076226Y-50476238D01*
X105076226Y-39023762D02*
X101981204Y-39009563D01*
X105076226Y-50476238D02*
X105076226Y-39023762D01*
%TO.C,C5*%
D12*
X128990000Y-44115580D02*
X128990000Y-43834420D01*
X130010000Y-44115580D02*
X130010000Y-43834420D01*
%TO.C,J2*%
D14*
X135540005Y-37256985D02*
X135540005Y-52243015D01*
X135540005Y-52243015D02*
X148342139Y-52243015D01*
X148342139Y-37256985D02*
X135540005Y-37256985D01*
X148342139Y-52243015D02*
X148342139Y-37256985D01*
X148346203Y-37637986D02*
X157363221Y-37637986D01*
X148879604Y-37663386D02*
X149743205Y-51836614D01*
X150149606Y-37663386D02*
X151013208Y-51836614D01*
X151419609Y-37663386D02*
X152283211Y-51836614D01*
X152689611Y-37663386D02*
X153553213Y-51836614D01*
X153959614Y-37663386D02*
X154823216Y-51836614D01*
X155229616Y-37663386D02*
X156093218Y-51836614D01*
X156499619Y-37663386D02*
X157363221Y-51836614D01*
X157363221Y-37637986D02*
X157363221Y-38145987D01*
X157363221Y-38145987D02*
X157363221Y-51354013D01*
X157363221Y-51354013D02*
X157363221Y-51836614D01*
X157363221Y-51354013D02*
X171206248Y-51354013D01*
X157363221Y-51836614D02*
X157363221Y-51862014D01*
X157363221Y-51862014D02*
X148346203Y-51862014D01*
X171206248Y-38145987D02*
X157363221Y-38145987D01*
X171206248Y-51354013D02*
X171206248Y-38145987D01*
X168767844Y-44750000D02*
G75*
G02*
X167142240Y-44750000I-812802J0D01*
G01*
X167142240Y-44750000D02*
G75*
G02*
X168767844Y-44750000I812802J0D01*
G01*
%TO.C,C1*%
D12*
X90990000Y-45359420D02*
X90990000Y-45640580D01*
X92010000Y-45359420D02*
X92010000Y-45640580D01*
%TO.C,C4*%
X117990000Y-44859420D02*
X117990000Y-45140580D01*
X119010000Y-44859420D02*
X119010000Y-45140580D01*
%TD*%
%LPC*%
D16*
%TO.C,C3*%
X114000000Y-44225000D03*
X114000000Y-45775000D03*
%TD*%
D17*
%TO.C,TH1*%
X129250000Y-51850000D03*
%TD*%
%TO.C,TH2*%
X91050000Y-52150000D03*
%TD*%
D18*
%TO.C,L2*%
X124000000Y-43446977D03*
X124000000Y-46053023D03*
%TD*%
D16*
%TO.C,C2*%
X109500000Y-44225000D03*
X109500000Y-45775000D03*
%TD*%
D17*
%TO.C,TH3*%
X112850000Y-37550000D03*
%TD*%
D19*
%TO.C,J1*%
X82525019Y-44750000D03*
X82525019Y-47250127D03*
D20*
X77474981Y-49800038D03*
X77474981Y-39699962D03*
%TD*%
D21*
%TO.C,L1*%
X99999898Y-39569533D03*
X99999898Y-49930467D03*
%TD*%
D22*
%TO.C,C5*%
X129500000Y-44750000D03*
X129500000Y-43200000D03*
%TD*%
D19*
%TO.C,J2*%
X137474981Y-44750000D03*
X137474981Y-42249873D03*
D20*
X142525019Y-39699962D03*
X142525019Y-49800038D03*
%TD*%
D16*
%TO.C,C1*%
X91500000Y-44725000D03*
X91500000Y-46275000D03*
%TD*%
%TO.C,C4*%
X118500000Y-44225000D03*
X118500000Y-45775000D03*
%TD*%
%LPD*%
M02*
