%TF.GenerationSoftware,KiCad,Pcbnew,10.0.3*%
%TF.CreationDate,2026-06-27T17:08:14+08:00*%
%TF.ProjectId,LPFilter_200kHz_Elliptical_v0.1,4c504669-6c74-4657-925f-3230306b487a,rev?*%
%TF.SameCoordinates,Original*%
%TF.FileFunction,Legend,Bot*%
%TF.FilePolarity,Positive*%
%FSLAX46Y46*%
G04 Gerber Fmt 4.6, Leading zero omitted, Abs format (unit mm)*
G04 Created by KiCad (PCBNEW 10.0.3) date 2026-06-27 17:08:14*
%MOMM*%
%LPD*%
G01*
G04 APERTURE LIST*
%ADD10C,0.300000*%
%ADD11C,0.000000*%
%ADD12C,1.448000*%
%ADD13C,1.600000*%
%ADD14C,2.600965*%
G04 APERTURE END LIST*
D10*
X132445489Y-40020366D02*
X131945489Y-40020366D01*
X131731203Y-40806080D02*
X132445489Y-40806080D01*
X132445489Y-40806080D02*
X132445489Y-39306080D01*
X132445489Y-39306080D02*
X131731203Y-39306080D01*
X130874060Y-40806080D02*
X131016917Y-40734652D01*
X131016917Y-40734652D02*
X131088346Y-40591794D01*
X131088346Y-40591794D02*
X131088346Y-39306080D01*
X130088346Y-40806080D02*
X130231203Y-40734652D01*
X130231203Y-40734652D02*
X130302632Y-40591794D01*
X130302632Y-40591794D02*
X130302632Y-39306080D01*
X129516918Y-40806080D02*
X129516918Y-39806080D01*
X129516918Y-39306080D02*
X129588346Y-39377509D01*
X129588346Y-39377509D02*
X129516918Y-39448937D01*
X129516918Y-39448937D02*
X129445489Y-39377509D01*
X129445489Y-39377509D02*
X129516918Y-39306080D01*
X129516918Y-39306080D02*
X129516918Y-39448937D01*
X128802632Y-39806080D02*
X128802632Y-41306080D01*
X128802632Y-39877509D02*
X128659775Y-39806080D01*
X128659775Y-39806080D02*
X128374060Y-39806080D01*
X128374060Y-39806080D02*
X128231203Y-39877509D01*
X128231203Y-39877509D02*
X128159775Y-39948937D01*
X128159775Y-39948937D02*
X128088346Y-40091794D01*
X128088346Y-40091794D02*
X128088346Y-40520366D01*
X128088346Y-40520366D02*
X128159775Y-40663223D01*
X128159775Y-40663223D02*
X128231203Y-40734652D01*
X128231203Y-40734652D02*
X128374060Y-40806080D01*
X128374060Y-40806080D02*
X128659775Y-40806080D01*
X128659775Y-40806080D02*
X128802632Y-40734652D01*
X127659774Y-39806080D02*
X127088346Y-39806080D01*
X127445489Y-39306080D02*
X127445489Y-40591794D01*
X127445489Y-40591794D02*
X127374060Y-40734652D01*
X127374060Y-40734652D02*
X127231203Y-40806080D01*
X127231203Y-40806080D02*
X127088346Y-40806080D01*
X126588346Y-40806080D02*
X126588346Y-39806080D01*
X126588346Y-39306080D02*
X126659774Y-39377509D01*
X126659774Y-39377509D02*
X126588346Y-39448937D01*
X126588346Y-39448937D02*
X126516917Y-39377509D01*
X126516917Y-39377509D02*
X126588346Y-39306080D01*
X126588346Y-39306080D02*
X126588346Y-39448937D01*
X125231203Y-40734652D02*
X125374060Y-40806080D01*
X125374060Y-40806080D02*
X125659774Y-40806080D01*
X125659774Y-40806080D02*
X125802631Y-40734652D01*
X125802631Y-40734652D02*
X125874060Y-40663223D01*
X125874060Y-40663223D02*
X125945488Y-40520366D01*
X125945488Y-40520366D02*
X125945488Y-40091794D01*
X125945488Y-40091794D02*
X125874060Y-39948937D01*
X125874060Y-39948937D02*
X125802631Y-39877509D01*
X125802631Y-39877509D02*
X125659774Y-39806080D01*
X125659774Y-39806080D02*
X125374060Y-39806080D01*
X125374060Y-39806080D02*
X125231203Y-39877509D01*
X122731203Y-40806080D02*
X123445489Y-40806080D01*
X123445489Y-40806080D02*
X123445489Y-39306080D01*
X122016917Y-40806080D02*
X122159774Y-40734652D01*
X122159774Y-40734652D02*
X122231203Y-40663223D01*
X122231203Y-40663223D02*
X122302631Y-40520366D01*
X122302631Y-40520366D02*
X122302631Y-40091794D01*
X122302631Y-40091794D02*
X122231203Y-39948937D01*
X122231203Y-39948937D02*
X122159774Y-39877509D01*
X122159774Y-39877509D02*
X122016917Y-39806080D01*
X122016917Y-39806080D02*
X121802631Y-39806080D01*
X121802631Y-39806080D02*
X121659774Y-39877509D01*
X121659774Y-39877509D02*
X121588346Y-39948937D01*
X121588346Y-39948937D02*
X121516917Y-40091794D01*
X121516917Y-40091794D02*
X121516917Y-40520366D01*
X121516917Y-40520366D02*
X121588346Y-40663223D01*
X121588346Y-40663223D02*
X121659774Y-40734652D01*
X121659774Y-40734652D02*
X121802631Y-40806080D01*
X121802631Y-40806080D02*
X122016917Y-40806080D01*
X121016917Y-39806080D02*
X120731203Y-40806080D01*
X120731203Y-40806080D02*
X120445488Y-40091794D01*
X120445488Y-40091794D02*
X120159774Y-40806080D01*
X120159774Y-40806080D02*
X119874060Y-39806080D01*
X118159774Y-40806080D02*
X118159774Y-39306080D01*
X118159774Y-39306080D02*
X117588345Y-39306080D01*
X117588345Y-39306080D02*
X117445488Y-39377509D01*
X117445488Y-39377509D02*
X117374059Y-39448937D01*
X117374059Y-39448937D02*
X117302631Y-39591794D01*
X117302631Y-39591794D02*
X117302631Y-39806080D01*
X117302631Y-39806080D02*
X117374059Y-39948937D01*
X117374059Y-39948937D02*
X117445488Y-40020366D01*
X117445488Y-40020366D02*
X117588345Y-40091794D01*
X117588345Y-40091794D02*
X118159774Y-40091794D01*
X116016917Y-40806080D02*
X116016917Y-40020366D01*
X116016917Y-40020366D02*
X116088345Y-39877509D01*
X116088345Y-39877509D02*
X116231202Y-39806080D01*
X116231202Y-39806080D02*
X116516917Y-39806080D01*
X116516917Y-39806080D02*
X116659774Y-39877509D01*
X116016917Y-40734652D02*
X116159774Y-40806080D01*
X116159774Y-40806080D02*
X116516917Y-40806080D01*
X116516917Y-40806080D02*
X116659774Y-40734652D01*
X116659774Y-40734652D02*
X116731202Y-40591794D01*
X116731202Y-40591794D02*
X116731202Y-40448937D01*
X116731202Y-40448937D02*
X116659774Y-40306080D01*
X116659774Y-40306080D02*
X116516917Y-40234652D01*
X116516917Y-40234652D02*
X116159774Y-40234652D01*
X116159774Y-40234652D02*
X116016917Y-40163223D01*
X115374059Y-40734652D02*
X115231202Y-40806080D01*
X115231202Y-40806080D02*
X114945488Y-40806080D01*
X114945488Y-40806080D02*
X114802631Y-40734652D01*
X114802631Y-40734652D02*
X114731202Y-40591794D01*
X114731202Y-40591794D02*
X114731202Y-40520366D01*
X114731202Y-40520366D02*
X114802631Y-40377509D01*
X114802631Y-40377509D02*
X114945488Y-40306080D01*
X114945488Y-40306080D02*
X115159774Y-40306080D01*
X115159774Y-40306080D02*
X115302631Y-40234652D01*
X115302631Y-40234652D02*
X115374059Y-40091794D01*
X115374059Y-40091794D02*
X115374059Y-40020366D01*
X115374059Y-40020366D02*
X115302631Y-39877509D01*
X115302631Y-39877509D02*
X115159774Y-39806080D01*
X115159774Y-39806080D02*
X114945488Y-39806080D01*
X114945488Y-39806080D02*
X114802631Y-39877509D01*
X114159773Y-40734652D02*
X114016916Y-40806080D01*
X114016916Y-40806080D02*
X113731202Y-40806080D01*
X113731202Y-40806080D02*
X113588345Y-40734652D01*
X113588345Y-40734652D02*
X113516916Y-40591794D01*
X113516916Y-40591794D02*
X113516916Y-40520366D01*
X113516916Y-40520366D02*
X113588345Y-40377509D01*
X113588345Y-40377509D02*
X113731202Y-40306080D01*
X113731202Y-40306080D02*
X113945488Y-40306080D01*
X113945488Y-40306080D02*
X114088345Y-40234652D01*
X114088345Y-40234652D02*
X114159773Y-40091794D01*
X114159773Y-40091794D02*
X114159773Y-40020366D01*
X114159773Y-40020366D02*
X114088345Y-39877509D01*
X114088345Y-39877509D02*
X113945488Y-39806080D01*
X113945488Y-39806080D02*
X113731202Y-39806080D01*
X113731202Y-39806080D02*
X113588345Y-39877509D01*
X111231202Y-40020366D02*
X111731202Y-40020366D01*
X111731202Y-40806080D02*
X111731202Y-39306080D01*
X111731202Y-39306080D02*
X111016916Y-39306080D01*
X110445488Y-40806080D02*
X110445488Y-39806080D01*
X110445488Y-39306080D02*
X110516916Y-39377509D01*
X110516916Y-39377509D02*
X110445488Y-39448937D01*
X110445488Y-39448937D02*
X110374059Y-39377509D01*
X110374059Y-39377509D02*
X110445488Y-39306080D01*
X110445488Y-39306080D02*
X110445488Y-39448937D01*
X109516916Y-40806080D02*
X109659773Y-40734652D01*
X109659773Y-40734652D02*
X109731202Y-40591794D01*
X109731202Y-40591794D02*
X109731202Y-39306080D01*
X109159773Y-39806080D02*
X108588345Y-39806080D01*
X108945488Y-39306080D02*
X108945488Y-40591794D01*
X108945488Y-40591794D02*
X108874059Y-40734652D01*
X108874059Y-40734652D02*
X108731202Y-40806080D01*
X108731202Y-40806080D02*
X108588345Y-40806080D01*
X107516916Y-40734652D02*
X107659773Y-40806080D01*
X107659773Y-40806080D02*
X107945488Y-40806080D01*
X107945488Y-40806080D02*
X108088345Y-40734652D01*
X108088345Y-40734652D02*
X108159773Y-40591794D01*
X108159773Y-40591794D02*
X108159773Y-40020366D01*
X108159773Y-40020366D02*
X108088345Y-39877509D01*
X108088345Y-39877509D02*
X107945488Y-39806080D01*
X107945488Y-39806080D02*
X107659773Y-39806080D01*
X107659773Y-39806080D02*
X107516916Y-39877509D01*
X107516916Y-39877509D02*
X107445488Y-40020366D01*
X107445488Y-40020366D02*
X107445488Y-40163223D01*
X107445488Y-40163223D02*
X108159773Y-40306080D01*
X106802631Y-40806080D02*
X106802631Y-39806080D01*
X106802631Y-40091794D02*
X106731202Y-39948937D01*
X106731202Y-39948937D02*
X106659774Y-39877509D01*
X106659774Y-39877509D02*
X106516916Y-39806080D01*
X106516916Y-39806080D02*
X106374059Y-39806080D01*
X104874060Y-39806080D02*
X104516917Y-40806080D01*
X104516917Y-40806080D02*
X104159774Y-39806080D01*
X103302631Y-39306080D02*
X103159774Y-39306080D01*
X103159774Y-39306080D02*
X103016917Y-39377509D01*
X103016917Y-39377509D02*
X102945489Y-39448937D01*
X102945489Y-39448937D02*
X102874060Y-39591794D01*
X102874060Y-39591794D02*
X102802631Y-39877509D01*
X102802631Y-39877509D02*
X102802631Y-40234652D01*
X102802631Y-40234652D02*
X102874060Y-40520366D01*
X102874060Y-40520366D02*
X102945489Y-40663223D01*
X102945489Y-40663223D02*
X103016917Y-40734652D01*
X103016917Y-40734652D02*
X103159774Y-40806080D01*
X103159774Y-40806080D02*
X103302631Y-40806080D01*
X103302631Y-40806080D02*
X103445489Y-40734652D01*
X103445489Y-40734652D02*
X103516917Y-40663223D01*
X103516917Y-40663223D02*
X103588346Y-40520366D01*
X103588346Y-40520366D02*
X103659774Y-40234652D01*
X103659774Y-40234652D02*
X103659774Y-39877509D01*
X103659774Y-39877509D02*
X103588346Y-39591794D01*
X103588346Y-39591794D02*
X103516917Y-39448937D01*
X103516917Y-39448937D02*
X103445489Y-39377509D01*
X103445489Y-39377509D02*
X103302631Y-39306080D01*
X102159775Y-40663223D02*
X102088346Y-40734652D01*
X102088346Y-40734652D02*
X102159775Y-40806080D01*
X102159775Y-40806080D02*
X102231203Y-40734652D01*
X102231203Y-40734652D02*
X102159775Y-40663223D01*
X102159775Y-40663223D02*
X102159775Y-40806080D01*
X100659774Y-40806080D02*
X101516917Y-40806080D01*
X101088346Y-40806080D02*
X101088346Y-39306080D01*
X101088346Y-39306080D02*
X101231203Y-39520366D01*
X101231203Y-39520366D02*
X101374060Y-39663223D01*
X101374060Y-39663223D02*
X101516917Y-39734652D01*
X131588346Y-43078139D02*
X131659774Y-43149568D01*
X131659774Y-43149568D02*
X131874060Y-43220996D01*
X131874060Y-43220996D02*
X132016917Y-43220996D01*
X132016917Y-43220996D02*
X132231203Y-43149568D01*
X132231203Y-43149568D02*
X132374060Y-43006710D01*
X132374060Y-43006710D02*
X132445489Y-42863853D01*
X132445489Y-42863853D02*
X132516917Y-42578139D01*
X132516917Y-42578139D02*
X132516917Y-42363853D01*
X132516917Y-42363853D02*
X132445489Y-42078139D01*
X132445489Y-42078139D02*
X132374060Y-41935282D01*
X132374060Y-41935282D02*
X132231203Y-41792425D01*
X132231203Y-41792425D02*
X132016917Y-41720996D01*
X132016917Y-41720996D02*
X131874060Y-41720996D01*
X131874060Y-41720996D02*
X131659774Y-41792425D01*
X131659774Y-41792425D02*
X131588346Y-41863853D01*
X130302632Y-42220996D02*
X130302632Y-43220996D01*
X130945489Y-42220996D02*
X130945489Y-43006710D01*
X130945489Y-43006710D02*
X130874060Y-43149568D01*
X130874060Y-43149568D02*
X130731203Y-43220996D01*
X130731203Y-43220996D02*
X130516917Y-43220996D01*
X130516917Y-43220996D02*
X130374060Y-43149568D01*
X130374060Y-43149568D02*
X130302632Y-43078139D01*
X129802631Y-42220996D02*
X129231203Y-42220996D01*
X129588346Y-41720996D02*
X129588346Y-43006710D01*
X129588346Y-43006710D02*
X129516917Y-43149568D01*
X129516917Y-43149568D02*
X129374060Y-43220996D01*
X129374060Y-43220996D02*
X129231203Y-43220996D01*
X128516917Y-43220996D02*
X128659774Y-43149568D01*
X128659774Y-43149568D02*
X128731203Y-43078139D01*
X128731203Y-43078139D02*
X128802631Y-42935282D01*
X128802631Y-42935282D02*
X128802631Y-42506710D01*
X128802631Y-42506710D02*
X128731203Y-42363853D01*
X128731203Y-42363853D02*
X128659774Y-42292425D01*
X128659774Y-42292425D02*
X128516917Y-42220996D01*
X128516917Y-42220996D02*
X128302631Y-42220996D01*
X128302631Y-42220996D02*
X128159774Y-42292425D01*
X128159774Y-42292425D02*
X128088346Y-42363853D01*
X128088346Y-42363853D02*
X128016917Y-42506710D01*
X128016917Y-42506710D02*
X128016917Y-42935282D01*
X128016917Y-42935282D02*
X128088346Y-43078139D01*
X128088346Y-43078139D02*
X128159774Y-43149568D01*
X128159774Y-43149568D02*
X128302631Y-43220996D01*
X128302631Y-43220996D02*
X128516917Y-43220996D01*
X127588345Y-42220996D02*
X127016917Y-42220996D01*
X127374060Y-43220996D02*
X127374060Y-41935282D01*
X127374060Y-41935282D02*
X127302631Y-41792425D01*
X127302631Y-41792425D02*
X127159774Y-41720996D01*
X127159774Y-41720996D02*
X127016917Y-41720996D01*
X126731202Y-42220996D02*
X126159774Y-42220996D01*
X126516917Y-43220996D02*
X126516917Y-41935282D01*
X126516917Y-41935282D02*
X126445488Y-41792425D01*
X126445488Y-41792425D02*
X126302631Y-41720996D01*
X126302631Y-41720996D02*
X126159774Y-41720996D01*
X125659774Y-43078139D02*
X125588345Y-43149568D01*
X125588345Y-43149568D02*
X125659774Y-43220996D01*
X125659774Y-43220996D02*
X125731202Y-43149568D01*
X125731202Y-43149568D02*
X125659774Y-43078139D01*
X125659774Y-43078139D02*
X125659774Y-43220996D01*
X125659774Y-42292425D02*
X125588345Y-42363853D01*
X125588345Y-42363853D02*
X125659774Y-42435282D01*
X125659774Y-42435282D02*
X125731202Y-42363853D01*
X125731202Y-42363853D02*
X125659774Y-42292425D01*
X125659774Y-42292425D02*
X125659774Y-42435282D01*
X123874059Y-41863853D02*
X123802631Y-41792425D01*
X123802631Y-41792425D02*
X123659774Y-41720996D01*
X123659774Y-41720996D02*
X123302631Y-41720996D01*
X123302631Y-41720996D02*
X123159774Y-41792425D01*
X123159774Y-41792425D02*
X123088345Y-41863853D01*
X123088345Y-41863853D02*
X123016916Y-42006710D01*
X123016916Y-42006710D02*
X123016916Y-42149568D01*
X123016916Y-42149568D02*
X123088345Y-42363853D01*
X123088345Y-42363853D02*
X123945488Y-43220996D01*
X123945488Y-43220996D02*
X123016916Y-43220996D01*
X122088345Y-41720996D02*
X121945488Y-41720996D01*
X121945488Y-41720996D02*
X121802631Y-41792425D01*
X121802631Y-41792425D02*
X121731203Y-41863853D01*
X121731203Y-41863853D02*
X121659774Y-42006710D01*
X121659774Y-42006710D02*
X121588345Y-42292425D01*
X121588345Y-42292425D02*
X121588345Y-42649568D01*
X121588345Y-42649568D02*
X121659774Y-42935282D01*
X121659774Y-42935282D02*
X121731203Y-43078139D01*
X121731203Y-43078139D02*
X121802631Y-43149568D01*
X121802631Y-43149568D02*
X121945488Y-43220996D01*
X121945488Y-43220996D02*
X122088345Y-43220996D01*
X122088345Y-43220996D02*
X122231203Y-43149568D01*
X122231203Y-43149568D02*
X122302631Y-43078139D01*
X122302631Y-43078139D02*
X122374060Y-42935282D01*
X122374060Y-42935282D02*
X122445488Y-42649568D01*
X122445488Y-42649568D02*
X122445488Y-42292425D01*
X122445488Y-42292425D02*
X122374060Y-42006710D01*
X122374060Y-42006710D02*
X122302631Y-41863853D01*
X122302631Y-41863853D02*
X122231203Y-41792425D01*
X122231203Y-41792425D02*
X122088345Y-41720996D01*
X120659774Y-41720996D02*
X120516917Y-41720996D01*
X120516917Y-41720996D02*
X120374060Y-41792425D01*
X120374060Y-41792425D02*
X120302632Y-41863853D01*
X120302632Y-41863853D02*
X120231203Y-42006710D01*
X120231203Y-42006710D02*
X120159774Y-42292425D01*
X120159774Y-42292425D02*
X120159774Y-42649568D01*
X120159774Y-42649568D02*
X120231203Y-42935282D01*
X120231203Y-42935282D02*
X120302632Y-43078139D01*
X120302632Y-43078139D02*
X120374060Y-43149568D01*
X120374060Y-43149568D02*
X120516917Y-43220996D01*
X120516917Y-43220996D02*
X120659774Y-43220996D01*
X120659774Y-43220996D02*
X120802632Y-43149568D01*
X120802632Y-43149568D02*
X120874060Y-43078139D01*
X120874060Y-43078139D02*
X120945489Y-42935282D01*
X120945489Y-42935282D02*
X121016917Y-42649568D01*
X121016917Y-42649568D02*
X121016917Y-42292425D01*
X121016917Y-42292425D02*
X120945489Y-42006710D01*
X120945489Y-42006710D02*
X120874060Y-41863853D01*
X120874060Y-41863853D02*
X120802632Y-41792425D01*
X120802632Y-41792425D02*
X120659774Y-41720996D01*
X119516918Y-43220996D02*
X119516918Y-41720996D01*
X119374061Y-42649568D02*
X118945489Y-43220996D01*
X118945489Y-42220996D02*
X119516918Y-42792425D01*
X118302632Y-43220996D02*
X118302632Y-41720996D01*
X118302632Y-42435282D02*
X117445489Y-42435282D01*
X117445489Y-43220996D02*
X117445489Y-41720996D01*
X116874060Y-42220996D02*
X116088346Y-42220996D01*
X116088346Y-42220996D02*
X116874060Y-43220996D01*
X116874060Y-43220996D02*
X116088346Y-43220996D01*
X132445489Y-45635912D02*
X132445489Y-44135912D01*
X132445489Y-44135912D02*
X132088346Y-44135912D01*
X132088346Y-44135912D02*
X131874060Y-44207341D01*
X131874060Y-44207341D02*
X131731203Y-44350198D01*
X131731203Y-44350198D02*
X131659774Y-44493055D01*
X131659774Y-44493055D02*
X131588346Y-44778769D01*
X131588346Y-44778769D02*
X131588346Y-44993055D01*
X131588346Y-44993055D02*
X131659774Y-45278769D01*
X131659774Y-45278769D02*
X131731203Y-45421626D01*
X131731203Y-45421626D02*
X131874060Y-45564484D01*
X131874060Y-45564484D02*
X132088346Y-45635912D01*
X132088346Y-45635912D02*
X132445489Y-45635912D01*
X130302632Y-45635912D02*
X130302632Y-44850198D01*
X130302632Y-44850198D02*
X130374060Y-44707341D01*
X130374060Y-44707341D02*
X130516917Y-44635912D01*
X130516917Y-44635912D02*
X130802632Y-44635912D01*
X130802632Y-44635912D02*
X130945489Y-44707341D01*
X130302632Y-45564484D02*
X130445489Y-45635912D01*
X130445489Y-45635912D02*
X130802632Y-45635912D01*
X130802632Y-45635912D02*
X130945489Y-45564484D01*
X130945489Y-45564484D02*
X131016917Y-45421626D01*
X131016917Y-45421626D02*
X131016917Y-45278769D01*
X131016917Y-45278769D02*
X130945489Y-45135912D01*
X130945489Y-45135912D02*
X130802632Y-45064484D01*
X130802632Y-45064484D02*
X130445489Y-45064484D01*
X130445489Y-45064484D02*
X130302632Y-44993055D01*
X129802631Y-44635912D02*
X129231203Y-44635912D01*
X129588346Y-44135912D02*
X129588346Y-45421626D01*
X129588346Y-45421626D02*
X129516917Y-45564484D01*
X129516917Y-45564484D02*
X129374060Y-45635912D01*
X129374060Y-45635912D02*
X129231203Y-45635912D01*
X128159774Y-45564484D02*
X128302631Y-45635912D01*
X128302631Y-45635912D02*
X128588346Y-45635912D01*
X128588346Y-45635912D02*
X128731203Y-45564484D01*
X128731203Y-45564484D02*
X128802631Y-45421626D01*
X128802631Y-45421626D02*
X128802631Y-44850198D01*
X128802631Y-44850198D02*
X128731203Y-44707341D01*
X128731203Y-44707341D02*
X128588346Y-44635912D01*
X128588346Y-44635912D02*
X128302631Y-44635912D01*
X128302631Y-44635912D02*
X128159774Y-44707341D01*
X128159774Y-44707341D02*
X128088346Y-44850198D01*
X128088346Y-44850198D02*
X128088346Y-44993055D01*
X128088346Y-44993055D02*
X128802631Y-45135912D01*
X127445489Y-45493055D02*
X127374060Y-45564484D01*
X127374060Y-45564484D02*
X127445489Y-45635912D01*
X127445489Y-45635912D02*
X127516917Y-45564484D01*
X127516917Y-45564484D02*
X127445489Y-45493055D01*
X127445489Y-45493055D02*
X127445489Y-45635912D01*
X127445489Y-44707341D02*
X127374060Y-44778769D01*
X127374060Y-44778769D02*
X127445489Y-44850198D01*
X127445489Y-44850198D02*
X127516917Y-44778769D01*
X127516917Y-44778769D02*
X127445489Y-44707341D01*
X127445489Y-44707341D02*
X127445489Y-44850198D01*
X125659774Y-44278769D02*
X125588346Y-44207341D01*
X125588346Y-44207341D02*
X125445489Y-44135912D01*
X125445489Y-44135912D02*
X125088346Y-44135912D01*
X125088346Y-44135912D02*
X124945489Y-44207341D01*
X124945489Y-44207341D02*
X124874060Y-44278769D01*
X124874060Y-44278769D02*
X124802631Y-44421626D01*
X124802631Y-44421626D02*
X124802631Y-44564484D01*
X124802631Y-44564484D02*
X124874060Y-44778769D01*
X124874060Y-44778769D02*
X125731203Y-45635912D01*
X125731203Y-45635912D02*
X124802631Y-45635912D01*
X123874060Y-44135912D02*
X123731203Y-44135912D01*
X123731203Y-44135912D02*
X123588346Y-44207341D01*
X123588346Y-44207341D02*
X123516918Y-44278769D01*
X123516918Y-44278769D02*
X123445489Y-44421626D01*
X123445489Y-44421626D02*
X123374060Y-44707341D01*
X123374060Y-44707341D02*
X123374060Y-45064484D01*
X123374060Y-45064484D02*
X123445489Y-45350198D01*
X123445489Y-45350198D02*
X123516918Y-45493055D01*
X123516918Y-45493055D02*
X123588346Y-45564484D01*
X123588346Y-45564484D02*
X123731203Y-45635912D01*
X123731203Y-45635912D02*
X123874060Y-45635912D01*
X123874060Y-45635912D02*
X124016918Y-45564484D01*
X124016918Y-45564484D02*
X124088346Y-45493055D01*
X124088346Y-45493055D02*
X124159775Y-45350198D01*
X124159775Y-45350198D02*
X124231203Y-45064484D01*
X124231203Y-45064484D02*
X124231203Y-44707341D01*
X124231203Y-44707341D02*
X124159775Y-44421626D01*
X124159775Y-44421626D02*
X124088346Y-44278769D01*
X124088346Y-44278769D02*
X124016918Y-44207341D01*
X124016918Y-44207341D02*
X123874060Y-44135912D01*
X122802632Y-44278769D02*
X122731204Y-44207341D01*
X122731204Y-44207341D02*
X122588347Y-44135912D01*
X122588347Y-44135912D02*
X122231204Y-44135912D01*
X122231204Y-44135912D02*
X122088347Y-44207341D01*
X122088347Y-44207341D02*
X122016918Y-44278769D01*
X122016918Y-44278769D02*
X121945489Y-44421626D01*
X121945489Y-44421626D02*
X121945489Y-44564484D01*
X121945489Y-44564484D02*
X122016918Y-44778769D01*
X122016918Y-44778769D02*
X122874061Y-45635912D01*
X122874061Y-45635912D02*
X121945489Y-45635912D01*
X120659776Y-44135912D02*
X120945490Y-44135912D01*
X120945490Y-44135912D02*
X121088347Y-44207341D01*
X121088347Y-44207341D02*
X121159776Y-44278769D01*
X121159776Y-44278769D02*
X121302633Y-44493055D01*
X121302633Y-44493055D02*
X121374061Y-44778769D01*
X121374061Y-44778769D02*
X121374061Y-45350198D01*
X121374061Y-45350198D02*
X121302633Y-45493055D01*
X121302633Y-45493055D02*
X121231204Y-45564484D01*
X121231204Y-45564484D02*
X121088347Y-45635912D01*
X121088347Y-45635912D02*
X120802633Y-45635912D01*
X120802633Y-45635912D02*
X120659776Y-45564484D01*
X120659776Y-45564484D02*
X120588347Y-45493055D01*
X120588347Y-45493055D02*
X120516918Y-45350198D01*
X120516918Y-45350198D02*
X120516918Y-44993055D01*
X120516918Y-44993055D02*
X120588347Y-44850198D01*
X120588347Y-44850198D02*
X120659776Y-44778769D01*
X120659776Y-44778769D02*
X120802633Y-44707341D01*
X120802633Y-44707341D02*
X121088347Y-44707341D01*
X121088347Y-44707341D02*
X121231204Y-44778769D01*
X121231204Y-44778769D02*
X121302633Y-44850198D01*
X121302633Y-44850198D02*
X121374061Y-44993055D01*
X118802633Y-44064484D02*
X120088347Y-45993055D01*
X118016918Y-44135912D02*
X117874061Y-44135912D01*
X117874061Y-44135912D02*
X117731204Y-44207341D01*
X117731204Y-44207341D02*
X117659776Y-44278769D01*
X117659776Y-44278769D02*
X117588347Y-44421626D01*
X117588347Y-44421626D02*
X117516918Y-44707341D01*
X117516918Y-44707341D02*
X117516918Y-45064484D01*
X117516918Y-45064484D02*
X117588347Y-45350198D01*
X117588347Y-45350198D02*
X117659776Y-45493055D01*
X117659776Y-45493055D02*
X117731204Y-45564484D01*
X117731204Y-45564484D02*
X117874061Y-45635912D01*
X117874061Y-45635912D02*
X118016918Y-45635912D01*
X118016918Y-45635912D02*
X118159776Y-45564484D01*
X118159776Y-45564484D02*
X118231204Y-45493055D01*
X118231204Y-45493055D02*
X118302633Y-45350198D01*
X118302633Y-45350198D02*
X118374061Y-45064484D01*
X118374061Y-45064484D02*
X118374061Y-44707341D01*
X118374061Y-44707341D02*
X118302633Y-44421626D01*
X118302633Y-44421626D02*
X118231204Y-44278769D01*
X118231204Y-44278769D02*
X118159776Y-44207341D01*
X118159776Y-44207341D02*
X118016918Y-44135912D01*
X116231205Y-44135912D02*
X116516919Y-44135912D01*
X116516919Y-44135912D02*
X116659776Y-44207341D01*
X116659776Y-44207341D02*
X116731205Y-44278769D01*
X116731205Y-44278769D02*
X116874062Y-44493055D01*
X116874062Y-44493055D02*
X116945490Y-44778769D01*
X116945490Y-44778769D02*
X116945490Y-45350198D01*
X116945490Y-45350198D02*
X116874062Y-45493055D01*
X116874062Y-45493055D02*
X116802633Y-45564484D01*
X116802633Y-45564484D02*
X116659776Y-45635912D01*
X116659776Y-45635912D02*
X116374062Y-45635912D01*
X116374062Y-45635912D02*
X116231205Y-45564484D01*
X116231205Y-45564484D02*
X116159776Y-45493055D01*
X116159776Y-45493055D02*
X116088347Y-45350198D01*
X116088347Y-45350198D02*
X116088347Y-44993055D01*
X116088347Y-44993055D02*
X116159776Y-44850198D01*
X116159776Y-44850198D02*
X116231205Y-44778769D01*
X116231205Y-44778769D02*
X116374062Y-44707341D01*
X116374062Y-44707341D02*
X116659776Y-44707341D01*
X116659776Y-44707341D02*
X116802633Y-44778769D01*
X116802633Y-44778769D02*
X116874062Y-44850198D01*
X116874062Y-44850198D02*
X116945490Y-44993055D01*
X114374062Y-44064484D02*
X115659776Y-45993055D01*
X113945490Y-44278769D02*
X113874062Y-44207341D01*
X113874062Y-44207341D02*
X113731205Y-44135912D01*
X113731205Y-44135912D02*
X113374062Y-44135912D01*
X113374062Y-44135912D02*
X113231205Y-44207341D01*
X113231205Y-44207341D02*
X113159776Y-44278769D01*
X113159776Y-44278769D02*
X113088347Y-44421626D01*
X113088347Y-44421626D02*
X113088347Y-44564484D01*
X113088347Y-44564484D02*
X113159776Y-44778769D01*
X113159776Y-44778769D02*
X114016919Y-45635912D01*
X114016919Y-45635912D02*
X113088347Y-45635912D01*
X112588348Y-44135912D02*
X111659776Y-44135912D01*
X111659776Y-44135912D02*
X112159776Y-44707341D01*
X112159776Y-44707341D02*
X111945491Y-44707341D01*
X111945491Y-44707341D02*
X111802634Y-44778769D01*
X111802634Y-44778769D02*
X111731205Y-44850198D01*
X111731205Y-44850198D02*
X111659776Y-44993055D01*
X111659776Y-44993055D02*
X111659776Y-45350198D01*
X111659776Y-45350198D02*
X111731205Y-45493055D01*
X111731205Y-45493055D02*
X111802634Y-45564484D01*
X111802634Y-45564484D02*
X111945491Y-45635912D01*
X111945491Y-45635912D02*
X112374062Y-45635912D01*
X112374062Y-45635912D02*
X112516919Y-45564484D01*
X112516919Y-45564484D02*
X112588348Y-45493055D01*
X132445489Y-48050828D02*
X132445489Y-46550828D01*
X132445489Y-46550828D02*
X132088346Y-46550828D01*
X132088346Y-46550828D02*
X131874060Y-46622257D01*
X131874060Y-46622257D02*
X131731203Y-46765114D01*
X131731203Y-46765114D02*
X131659774Y-46907971D01*
X131659774Y-46907971D02*
X131588346Y-47193685D01*
X131588346Y-47193685D02*
X131588346Y-47407971D01*
X131588346Y-47407971D02*
X131659774Y-47693685D01*
X131659774Y-47693685D02*
X131731203Y-47836542D01*
X131731203Y-47836542D02*
X131874060Y-47979400D01*
X131874060Y-47979400D02*
X132088346Y-48050828D01*
X132088346Y-48050828D02*
X132445489Y-48050828D01*
X130374060Y-47979400D02*
X130516917Y-48050828D01*
X130516917Y-48050828D02*
X130802632Y-48050828D01*
X130802632Y-48050828D02*
X130945489Y-47979400D01*
X130945489Y-47979400D02*
X131016917Y-47836542D01*
X131016917Y-47836542D02*
X131016917Y-47265114D01*
X131016917Y-47265114D02*
X130945489Y-47122257D01*
X130945489Y-47122257D02*
X130802632Y-47050828D01*
X130802632Y-47050828D02*
X130516917Y-47050828D01*
X130516917Y-47050828D02*
X130374060Y-47122257D01*
X130374060Y-47122257D02*
X130302632Y-47265114D01*
X130302632Y-47265114D02*
X130302632Y-47407971D01*
X130302632Y-47407971D02*
X131016917Y-47550828D01*
X129802632Y-47050828D02*
X129445489Y-48050828D01*
X129445489Y-48050828D02*
X129088346Y-47050828D01*
X127945489Y-47979400D02*
X128088346Y-48050828D01*
X128088346Y-48050828D02*
X128374061Y-48050828D01*
X128374061Y-48050828D02*
X128516918Y-47979400D01*
X128516918Y-47979400D02*
X128588346Y-47836542D01*
X128588346Y-47836542D02*
X128588346Y-47265114D01*
X128588346Y-47265114D02*
X128516918Y-47122257D01*
X128516918Y-47122257D02*
X128374061Y-47050828D01*
X128374061Y-47050828D02*
X128088346Y-47050828D01*
X128088346Y-47050828D02*
X127945489Y-47122257D01*
X127945489Y-47122257D02*
X127874061Y-47265114D01*
X127874061Y-47265114D02*
X127874061Y-47407971D01*
X127874061Y-47407971D02*
X128588346Y-47550828D01*
X127016918Y-48050828D02*
X127159775Y-47979400D01*
X127159775Y-47979400D02*
X127231204Y-47836542D01*
X127231204Y-47836542D02*
X127231204Y-46550828D01*
X126231204Y-48050828D02*
X126374061Y-47979400D01*
X126374061Y-47979400D02*
X126445490Y-47907971D01*
X126445490Y-47907971D02*
X126516918Y-47765114D01*
X126516918Y-47765114D02*
X126516918Y-47336542D01*
X126516918Y-47336542D02*
X126445490Y-47193685D01*
X126445490Y-47193685D02*
X126374061Y-47122257D01*
X126374061Y-47122257D02*
X126231204Y-47050828D01*
X126231204Y-47050828D02*
X126016918Y-47050828D01*
X126016918Y-47050828D02*
X125874061Y-47122257D01*
X125874061Y-47122257D02*
X125802633Y-47193685D01*
X125802633Y-47193685D02*
X125731204Y-47336542D01*
X125731204Y-47336542D02*
X125731204Y-47765114D01*
X125731204Y-47765114D02*
X125802633Y-47907971D01*
X125802633Y-47907971D02*
X125874061Y-47979400D01*
X125874061Y-47979400D02*
X126016918Y-48050828D01*
X126016918Y-48050828D02*
X126231204Y-48050828D01*
X125088347Y-47050828D02*
X125088347Y-48550828D01*
X125088347Y-47122257D02*
X124945490Y-47050828D01*
X124945490Y-47050828D02*
X124659775Y-47050828D01*
X124659775Y-47050828D02*
X124516918Y-47122257D01*
X124516918Y-47122257D02*
X124445490Y-47193685D01*
X124445490Y-47193685D02*
X124374061Y-47336542D01*
X124374061Y-47336542D02*
X124374061Y-47765114D01*
X124374061Y-47765114D02*
X124445490Y-47907971D01*
X124445490Y-47907971D02*
X124516918Y-47979400D01*
X124516918Y-47979400D02*
X124659775Y-48050828D01*
X124659775Y-48050828D02*
X124945490Y-48050828D01*
X124945490Y-48050828D02*
X125088347Y-47979400D01*
X123159775Y-47979400D02*
X123302632Y-48050828D01*
X123302632Y-48050828D02*
X123588347Y-48050828D01*
X123588347Y-48050828D02*
X123731204Y-47979400D01*
X123731204Y-47979400D02*
X123802632Y-47836542D01*
X123802632Y-47836542D02*
X123802632Y-47265114D01*
X123802632Y-47265114D02*
X123731204Y-47122257D01*
X123731204Y-47122257D02*
X123588347Y-47050828D01*
X123588347Y-47050828D02*
X123302632Y-47050828D01*
X123302632Y-47050828D02*
X123159775Y-47122257D01*
X123159775Y-47122257D02*
X123088347Y-47265114D01*
X123088347Y-47265114D02*
X123088347Y-47407971D01*
X123088347Y-47407971D02*
X123802632Y-47550828D01*
X121802633Y-48050828D02*
X121802633Y-46550828D01*
X121802633Y-47979400D02*
X121945490Y-48050828D01*
X121945490Y-48050828D02*
X122231204Y-48050828D01*
X122231204Y-48050828D02*
X122374061Y-47979400D01*
X122374061Y-47979400D02*
X122445490Y-47907971D01*
X122445490Y-47907971D02*
X122516918Y-47765114D01*
X122516918Y-47765114D02*
X122516918Y-47336542D01*
X122516918Y-47336542D02*
X122445490Y-47193685D01*
X122445490Y-47193685D02*
X122374061Y-47122257D01*
X122374061Y-47122257D02*
X122231204Y-47050828D01*
X122231204Y-47050828D02*
X121945490Y-47050828D01*
X121945490Y-47050828D02*
X121802633Y-47122257D01*
X119945490Y-48050828D02*
X119945490Y-46550828D01*
X119945490Y-47122257D02*
X119802633Y-47050828D01*
X119802633Y-47050828D02*
X119516918Y-47050828D01*
X119516918Y-47050828D02*
X119374061Y-47122257D01*
X119374061Y-47122257D02*
X119302633Y-47193685D01*
X119302633Y-47193685D02*
X119231204Y-47336542D01*
X119231204Y-47336542D02*
X119231204Y-47765114D01*
X119231204Y-47765114D02*
X119302633Y-47907971D01*
X119302633Y-47907971D02*
X119374061Y-47979400D01*
X119374061Y-47979400D02*
X119516918Y-48050828D01*
X119516918Y-48050828D02*
X119802633Y-48050828D01*
X119802633Y-48050828D02*
X119945490Y-47979400D01*
X118731204Y-47050828D02*
X118374061Y-48050828D01*
X118016918Y-47050828D02*
X118374061Y-48050828D01*
X118374061Y-48050828D02*
X118516918Y-48407971D01*
X118516918Y-48407971D02*
X118588347Y-48479400D01*
X118588347Y-48479400D02*
X118731204Y-48550828D01*
X117445490Y-47907971D02*
X117374061Y-47979400D01*
X117374061Y-47979400D02*
X117445490Y-48050828D01*
X117445490Y-48050828D02*
X117516918Y-47979400D01*
X117516918Y-47979400D02*
X117445490Y-47907971D01*
X117445490Y-47907971D02*
X117445490Y-48050828D01*
X117445490Y-47122257D02*
X117374061Y-47193685D01*
X117374061Y-47193685D02*
X117445490Y-47265114D01*
X117445490Y-47265114D02*
X117516918Y-47193685D01*
X117516918Y-47193685D02*
X117445490Y-47122257D01*
X117445490Y-47122257D02*
X117445490Y-47265114D01*
X115588347Y-48050828D02*
X115588347Y-46550828D01*
X115588347Y-46550828D02*
X115088347Y-47622257D01*
X115088347Y-47622257D02*
X114588347Y-46550828D01*
X114588347Y-46550828D02*
X114588347Y-48050828D01*
X113874061Y-48050828D02*
X113874061Y-47050828D01*
X113874061Y-46550828D02*
X113945489Y-46622257D01*
X113945489Y-46622257D02*
X113874061Y-46693685D01*
X113874061Y-46693685D02*
X113802632Y-46622257D01*
X113802632Y-46622257D02*
X113874061Y-46550828D01*
X113874061Y-46550828D02*
X113874061Y-46693685D01*
X113159775Y-48050828D02*
X113159775Y-46550828D01*
X113016918Y-47479400D02*
X112588346Y-48050828D01*
X112588346Y-47050828D02*
X113159775Y-47622257D01*
X111374060Y-47979400D02*
X111516917Y-48050828D01*
X111516917Y-48050828D02*
X111802632Y-48050828D01*
X111802632Y-48050828D02*
X111945489Y-47979400D01*
X111945489Y-47979400D02*
X112016917Y-47836542D01*
X112016917Y-47836542D02*
X112016917Y-47265114D01*
X112016917Y-47265114D02*
X111945489Y-47122257D01*
X111945489Y-47122257D02*
X111802632Y-47050828D01*
X111802632Y-47050828D02*
X111516917Y-47050828D01*
X111516917Y-47050828D02*
X111374060Y-47122257D01*
X111374060Y-47122257D02*
X111302632Y-47265114D01*
X111302632Y-47265114D02*
X111302632Y-47407971D01*
X111302632Y-47407971D02*
X112016917Y-47550828D01*
X109516918Y-48050828D02*
X109516918Y-46550828D01*
X109516918Y-47265114D02*
X108659775Y-47265114D01*
X108659775Y-48050828D02*
X108659775Y-46550828D01*
X107302632Y-47050828D02*
X107302632Y-48050828D01*
X107945489Y-47050828D02*
X107945489Y-47836542D01*
X107945489Y-47836542D02*
X107874060Y-47979400D01*
X107874060Y-47979400D02*
X107731203Y-48050828D01*
X107731203Y-48050828D02*
X107516917Y-48050828D01*
X107516917Y-48050828D02*
X107374060Y-47979400D01*
X107374060Y-47979400D02*
X107302632Y-47907971D01*
X106588346Y-47050828D02*
X106588346Y-48050828D01*
X106588346Y-47193685D02*
X106516917Y-47122257D01*
X106516917Y-47122257D02*
X106374060Y-47050828D01*
X106374060Y-47050828D02*
X106159774Y-47050828D01*
X106159774Y-47050828D02*
X106016917Y-47122257D01*
X106016917Y-47122257D02*
X105945489Y-47265114D01*
X105945489Y-47265114D02*
X105945489Y-48050828D01*
X104588346Y-47050828D02*
X104588346Y-48265114D01*
X104588346Y-48265114D02*
X104659774Y-48407971D01*
X104659774Y-48407971D02*
X104731203Y-48479400D01*
X104731203Y-48479400D02*
X104874060Y-48550828D01*
X104874060Y-48550828D02*
X105088346Y-48550828D01*
X105088346Y-48550828D02*
X105231203Y-48479400D01*
X104588346Y-47979400D02*
X104731203Y-48050828D01*
X104731203Y-48050828D02*
X105016917Y-48050828D01*
X105016917Y-48050828D02*
X105159774Y-47979400D01*
X105159774Y-47979400D02*
X105231203Y-47907971D01*
X105231203Y-47907971D02*
X105302631Y-47765114D01*
X105302631Y-47765114D02*
X105302631Y-47336542D01*
X105302631Y-47336542D02*
X105231203Y-47193685D01*
X105231203Y-47193685D02*
X105159774Y-47122257D01*
X105159774Y-47122257D02*
X105016917Y-47050828D01*
X105016917Y-47050828D02*
X104731203Y-47050828D01*
X104731203Y-47050828D02*
X104588346Y-47122257D01*
D11*
%TO.C,G1*%
G36*
X88342172Y-37490909D02*
G01*
X88342172Y-38501136D01*
X88286048Y-38501136D01*
X88229924Y-38501136D01*
X88229924Y-37490909D01*
X88229924Y-36480682D01*
X88286048Y-36480682D01*
X88342172Y-36480682D01*
X88342172Y-37490909D01*
G37*
G36*
X88694950Y-37490909D02*
G01*
X88694950Y-38501136D01*
X88638826Y-38501136D01*
X88582702Y-38501136D01*
X88582702Y-37490909D01*
X88582702Y-36480682D01*
X88638826Y-36480682D01*
X88694950Y-36480682D01*
X88694950Y-37490909D01*
G37*
G36*
X89015657Y-37490909D02*
G01*
X89015657Y-38501136D01*
X88959533Y-38501136D01*
X88903409Y-38501136D01*
X88903409Y-37490909D01*
X88903409Y-36480682D01*
X88959533Y-36480682D01*
X89015657Y-36480682D01*
X89015657Y-37490909D01*
G37*
G36*
X93232955Y-42085038D02*
G01*
X93232955Y-42413763D01*
X93176831Y-42413763D01*
X93120707Y-42413763D01*
X93120707Y-42085038D01*
X93120707Y-41756313D01*
X93176831Y-41756313D01*
X93232955Y-41756313D01*
X93232955Y-42085038D01*
G37*
G36*
X96039142Y-40385290D02*
G01*
X96039142Y-40826263D01*
X95983018Y-40826263D01*
X95926894Y-40826263D01*
X95926894Y-40385290D01*
X95926894Y-39944318D01*
X95983018Y-39944318D01*
X96039142Y-39944318D01*
X96039142Y-40385290D01*
G37*
G36*
X96728662Y-37490909D02*
G01*
X96728662Y-38501136D01*
X96672538Y-38501136D01*
X96616414Y-38501136D01*
X96616414Y-37490909D01*
X96616414Y-36480682D01*
X96672538Y-36480682D01*
X96728662Y-36480682D01*
X96728662Y-37490909D01*
G37*
G36*
X97065404Y-37490909D02*
G01*
X97065404Y-38501136D01*
X97009280Y-38501136D01*
X96953157Y-38501136D01*
X96953157Y-37490909D01*
X96953157Y-36480682D01*
X97009280Y-36480682D01*
X97065404Y-36480682D01*
X97065404Y-37490909D01*
G37*
G36*
X97402147Y-37490909D02*
G01*
X97402147Y-38501136D01*
X97346023Y-38501136D01*
X97289899Y-38501136D01*
X97289899Y-37490909D01*
X97289899Y-36480682D01*
X97346023Y-36480682D01*
X97402147Y-36480682D01*
X97402147Y-37490909D01*
G37*
G36*
X91164394Y-40385290D02*
G01*
X91164394Y-40826263D01*
X90899811Y-40826263D01*
X90635227Y-40826263D01*
X90635227Y-40778157D01*
X90635227Y-40730050D01*
X90843687Y-40730050D01*
X91052147Y-40730050D01*
X91052147Y-40337184D01*
X91052147Y-39944318D01*
X91108270Y-39944318D01*
X91164394Y-39944318D01*
X91164394Y-40385290D01*
G37*
G36*
X93215638Y-41523424D02*
G01*
X93240944Y-41551444D01*
X93247177Y-41589137D01*
X93229748Y-41624823D01*
X93220758Y-41632415D01*
X93181630Y-41643977D01*
X93143290Y-41629986D01*
X93116610Y-41593457D01*
X93114980Y-41585468D01*
X93125227Y-41554320D01*
X93152629Y-41527309D01*
X93186913Y-41515783D01*
X93215638Y-41523424D01*
G37*
G36*
X94579924Y-41579924D02*
G01*
X94579924Y-41628030D01*
X94451642Y-41628030D01*
X94323359Y-41628030D01*
X94323359Y-42020896D01*
X94323359Y-42413763D01*
X94267235Y-42413763D01*
X94211111Y-42413763D01*
X94211111Y-42020896D01*
X94211111Y-41628030D01*
X94082828Y-41628030D01*
X93954546Y-41628030D01*
X93954546Y-41579924D01*
X93954546Y-41531818D01*
X94267235Y-41531818D01*
X94579924Y-41531818D01*
X94579924Y-41579924D01*
G37*
G36*
X91412698Y-36348998D02*
G01*
X91498800Y-36389037D01*
X91506789Y-36394523D01*
X91570539Y-36457607D01*
X91610466Y-36534761D01*
X91626960Y-36619716D01*
X91620408Y-36706207D01*
X91591200Y-36787964D01*
X91539724Y-36858722D01*
X91466368Y-36912213D01*
X91454214Y-36918067D01*
X91365735Y-36942899D01*
X91279054Y-36939620D01*
X91198937Y-36911528D01*
X91130151Y-36861921D01*
X91077464Y-36794093D01*
X91045643Y-36711344D01*
X91039455Y-36616968D01*
X91058645Y-36530108D01*
X91102230Y-36451496D01*
X91164537Y-36391544D01*
X91240457Y-36352786D01*
X91324880Y-36337760D01*
X91412698Y-36348998D01*
G37*
G36*
X94058531Y-36348998D02*
G01*
X94144633Y-36389037D01*
X94152623Y-36394523D01*
X94216372Y-36457607D01*
X94256299Y-36534761D01*
X94272793Y-36619716D01*
X94266242Y-36706207D01*
X94237033Y-36787964D01*
X94185557Y-36858722D01*
X94112201Y-36912213D01*
X94100047Y-36918067D01*
X94011569Y-36942899D01*
X93924887Y-36939620D01*
X93844770Y-36911528D01*
X93775985Y-36861921D01*
X93723298Y-36794093D01*
X93691477Y-36711344D01*
X93685288Y-36616968D01*
X93704479Y-36530108D01*
X93748064Y-36451496D01*
X93810371Y-36391544D01*
X93886291Y-36352786D01*
X93970714Y-36337760D01*
X94058531Y-36348998D01*
G37*
G36*
X94199508Y-39944534D02*
G01*
X94214839Y-39949345D01*
X94230667Y-39961721D01*
X94249648Y-39984993D01*
X94274440Y-40022487D01*
X94307699Y-40077534D01*
X94352081Y-40153461D01*
X94410244Y-40253598D01*
X94510869Y-40426578D01*
X94652792Y-40185448D01*
X94794715Y-39944318D01*
X94863709Y-39944318D01*
X94932702Y-39944318D01*
X94932702Y-40385290D01*
X94932702Y-40826263D01*
X94868880Y-40826263D01*
X94805057Y-40826263D01*
X94800729Y-40485511D01*
X94796402Y-40144760D01*
X94676169Y-40349211D01*
X94633813Y-40420765D01*
X94588010Y-40492921D01*
X94551134Y-40537543D01*
X94519019Y-40554593D01*
X94487500Y-40544034D01*
X94452412Y-40505830D01*
X94409591Y-40439942D01*
X94354871Y-40346334D01*
X94235164Y-40139007D01*
X94230843Y-40482635D01*
X94226521Y-40826263D01*
X94162693Y-40826263D01*
X94098864Y-40826263D01*
X94098864Y-40385290D01*
X94098864Y-39944318D01*
X94163400Y-39944318D01*
X94182016Y-39943960D01*
X94199508Y-39944534D01*
G37*
G36*
X92325161Y-39944362D02*
G01*
X92363526Y-39946301D01*
X92388517Y-39956431D01*
X92409397Y-39981571D01*
X92435425Y-40028542D01*
X92440938Y-40038966D01*
X92472752Y-40098325D01*
X92511398Y-40169536D01*
X92549727Y-40239411D01*
X92619703Y-40366132D01*
X92717119Y-40183287D01*
X92728771Y-40161417D01*
X92772838Y-40079294D01*
X92805729Y-40020749D01*
X92830676Y-39981939D01*
X92850913Y-39959019D01*
X92869672Y-39948145D01*
X92890186Y-39945473D01*
X92915687Y-39947158D01*
X92973971Y-39952336D01*
X92823214Y-40216919D01*
X92672458Y-40481502D01*
X92672087Y-40653883D01*
X92671717Y-40826263D01*
X92615594Y-40826263D01*
X92559470Y-40826263D01*
X92559470Y-40654855D01*
X92559470Y-40483447D01*
X92428612Y-40249962D01*
X92398274Y-40195978D01*
X92355078Y-40119621D01*
X92317908Y-40054513D01*
X92289961Y-40006243D01*
X92274432Y-39980398D01*
X92265470Y-39965982D01*
X92261704Y-39950932D01*
X92278297Y-39945231D01*
X92321104Y-39944356D01*
X92325161Y-39944362D01*
G37*
G36*
X91024545Y-41758046D02*
G01*
X91097231Y-41794848D01*
X91156376Y-41837100D01*
X91161450Y-41796706D01*
X91166153Y-41775739D01*
X91183215Y-41760009D01*
X91221583Y-41756313D01*
X91276642Y-41756313D01*
X91276642Y-42085038D01*
X91276642Y-42413763D01*
X91220518Y-42413763D01*
X91164394Y-42413763D01*
X91164394Y-42184818D01*
X91164168Y-42122409D01*
X91162020Y-42037894D01*
X91156196Y-41976981D01*
X91145002Y-41934334D01*
X91126750Y-41904618D01*
X91099748Y-41882496D01*
X91062305Y-41862633D01*
X91061119Y-41862074D01*
X90989420Y-41839454D01*
X90928194Y-41842233D01*
X90882252Y-41870210D01*
X90871197Y-41885288D01*
X90862412Y-41907276D01*
X90856181Y-41940390D01*
X90851851Y-41989865D01*
X90848771Y-42060939D01*
X90846287Y-42158847D01*
X90840869Y-42413763D01*
X90784775Y-42413763D01*
X90728680Y-42413763D01*
X90734199Y-42153188D01*
X90736461Y-42070532D01*
X90741647Y-41974590D01*
X90750300Y-41902767D01*
X90763772Y-41850371D01*
X90783415Y-41812709D01*
X90810579Y-41785089D01*
X90846616Y-41762816D01*
X90872792Y-41752165D01*
X90946236Y-41743372D01*
X91024545Y-41758046D01*
G37*
G36*
X89801389Y-40826263D02*
G01*
X89745265Y-40826263D01*
X89710529Y-40824141D01*
X89692893Y-40812291D01*
X89689142Y-40783379D01*
X89689142Y-40740495D01*
X89653054Y-40774398D01*
X89619174Y-40801013D01*
X89576886Y-40825155D01*
X89540132Y-40835115D01*
X89469268Y-40836794D01*
X89396493Y-40822565D01*
X89336544Y-40794320D01*
X89298580Y-40760790D01*
X89256717Y-40695166D01*
X89232472Y-40608429D01*
X89224838Y-40502062D01*
X89336453Y-40502062D01*
X89336475Y-40507258D01*
X89346889Y-40598135D01*
X89374889Y-40670853D01*
X89418415Y-40719937D01*
X89422622Y-40722650D01*
X89466510Y-40739288D01*
X89517924Y-40746086D01*
X89550022Y-40743799D01*
X89591312Y-40728066D01*
X89634621Y-40691566D01*
X89654103Y-40671517D01*
X89673810Y-40645693D01*
X89684257Y-40616805D01*
X89688360Y-40575186D01*
X89689036Y-40511168D01*
X89685566Y-40442757D01*
X89666014Y-40357191D01*
X89628502Y-40297220D01*
X89572200Y-40261718D01*
X89496276Y-40249558D01*
X89459280Y-40252546D01*
X89404395Y-40276357D01*
X89366180Y-40325008D01*
X89343809Y-40399808D01*
X89336453Y-40502062D01*
X89224838Y-40502062D01*
X89224469Y-40496927D01*
X89230583Y-40401553D01*
X89256352Y-40303201D01*
X89302032Y-40229454D01*
X89367377Y-40180679D01*
X89452140Y-40157246D01*
X89511046Y-40157742D01*
X89584021Y-40179931D01*
X89640158Y-40223879D01*
X89659051Y-40242662D01*
X89673870Y-40244121D01*
X89683089Y-40222182D01*
X89687812Y-40173980D01*
X89689142Y-40096654D01*
X89689142Y-39944318D01*
X89745265Y-39944318D01*
X89801389Y-39944318D01*
X89801389Y-40385290D01*
X89801389Y-40511168D01*
X89801389Y-40826263D01*
G37*
G36*
X92190657Y-40826263D02*
G01*
X92134533Y-40826263D01*
X92099797Y-40824141D01*
X92082161Y-40812291D01*
X92078409Y-40783379D01*
X92078409Y-40740495D01*
X92042322Y-40774398D01*
X92008441Y-40801013D01*
X91966154Y-40825155D01*
X91929399Y-40835115D01*
X91858535Y-40836794D01*
X91785761Y-40822565D01*
X91725812Y-40794320D01*
X91687848Y-40760790D01*
X91645985Y-40695166D01*
X91621740Y-40608429D01*
X91614105Y-40502062D01*
X91725721Y-40502062D01*
X91725743Y-40507258D01*
X91736157Y-40598135D01*
X91764156Y-40670853D01*
X91807682Y-40719937D01*
X91811890Y-40722650D01*
X91855778Y-40739288D01*
X91907192Y-40746086D01*
X91939290Y-40743799D01*
X91980580Y-40728066D01*
X92023889Y-40691566D01*
X92043371Y-40671517D01*
X92063078Y-40645693D01*
X92073524Y-40616805D01*
X92077628Y-40575186D01*
X92078304Y-40511168D01*
X92074833Y-40442757D01*
X92055282Y-40357191D01*
X92017770Y-40297220D01*
X91961467Y-40261718D01*
X91885544Y-40249558D01*
X91848548Y-40252546D01*
X91793663Y-40276357D01*
X91755448Y-40325008D01*
X91733076Y-40399808D01*
X91725721Y-40502062D01*
X91614105Y-40502062D01*
X91613736Y-40496927D01*
X91619851Y-40401553D01*
X91645620Y-40303201D01*
X91691300Y-40229454D01*
X91756645Y-40180679D01*
X91841408Y-40157246D01*
X91900314Y-40157742D01*
X91973289Y-40179931D01*
X92029426Y-40223879D01*
X92048319Y-40242662D01*
X92063137Y-40244121D01*
X92072357Y-40222182D01*
X92077080Y-40173980D01*
X92078409Y-40096654D01*
X92078409Y-39944318D01*
X92134533Y-39944318D01*
X92190657Y-39944318D01*
X92190657Y-40385290D01*
X92190657Y-40511168D01*
X92190657Y-40826263D01*
G37*
G36*
X95719913Y-40564666D02*
G01*
X95751670Y-40649966D01*
X95778087Y-40720788D01*
X95797232Y-40771933D01*
X95807176Y-40798201D01*
X95809752Y-40815750D01*
X95794369Y-40824231D01*
X95753848Y-40826263D01*
X95689618Y-40826263D01*
X95645754Y-40705997D01*
X95601891Y-40585732D01*
X95423641Y-40585766D01*
X95245392Y-40585800D01*
X95204525Y-40702023D01*
X95188970Y-40745550D01*
X95171613Y-40787106D01*
X95155359Y-40809498D01*
X95134744Y-40819334D01*
X95104304Y-40823222D01*
X95093800Y-40823898D01*
X95059123Y-40822397D01*
X95045315Y-40815204D01*
X95045465Y-40814301D01*
X95052503Y-40792113D01*
X95069051Y-40744408D01*
X95093695Y-40675129D01*
X95125025Y-40588218D01*
X95161629Y-40487618D01*
X95166084Y-40475470D01*
X95285480Y-40475470D01*
X95289059Y-40478581D01*
X95316773Y-40484192D01*
X95365940Y-40488072D01*
X95429395Y-40489520D01*
X95573310Y-40489520D01*
X95527862Y-40365246D01*
X95526130Y-40360504D01*
X95499790Y-40287143D01*
X95473912Y-40213170D01*
X95453864Y-40153917D01*
X95425315Y-40066862D01*
X95355397Y-40264141D01*
X95350779Y-40277202D01*
X95325252Y-40350581D01*
X95304508Y-40412170D01*
X95290575Y-40455843D01*
X95285480Y-40475470D01*
X95166084Y-40475470D01*
X95202095Y-40377273D01*
X95358509Y-39952336D01*
X95424366Y-39947496D01*
X95431504Y-39946996D01*
X95471375Y-39947312D01*
X95492460Y-39958978D01*
X95506163Y-39987584D01*
X95510285Y-39998979D01*
X95525359Y-40040028D01*
X95548608Y-40102998D01*
X95578103Y-40182689D01*
X95611911Y-40273901D01*
X95648103Y-40371434D01*
X95684747Y-40470089D01*
X95691972Y-40489520D01*
X95719913Y-40564666D01*
G37*
G36*
X90530543Y-40710679D02*
G01*
X90497165Y-40771078D01*
X90439627Y-40816382D01*
X90409504Y-40828439D01*
X90331231Y-40838314D01*
X90248113Y-40824584D01*
X90170596Y-40788338D01*
X90106061Y-40745631D01*
X90106061Y-40785947D01*
X90103130Y-40810594D01*
X90087110Y-40823442D01*
X90048585Y-40826263D01*
X89991110Y-40826263D01*
X89996471Y-40557670D01*
X89996927Y-40535740D01*
X89997977Y-40501413D01*
X90106061Y-40501413D01*
X90106061Y-40572848D01*
X90106145Y-40579760D01*
X90117630Y-40640343D01*
X90151759Y-40687497D01*
X90213245Y-40728047D01*
X90264284Y-40745413D01*
X90323965Y-40746587D01*
X90376008Y-40729522D01*
X90412811Y-40696940D01*
X90426768Y-40651566D01*
X90422778Y-40615163D01*
X90402359Y-40575929D01*
X90361262Y-40547245D01*
X90295756Y-40526799D01*
X90202112Y-40512280D01*
X90106061Y-40501413D01*
X89997977Y-40501413D01*
X90000207Y-40428553D01*
X90005795Y-40347906D01*
X90015262Y-40289096D01*
X90030181Y-40247422D01*
X90052125Y-40218180D01*
X90082665Y-40196671D01*
X90123374Y-40178190D01*
X90150056Y-40168765D01*
X90236360Y-40153867D01*
X90319213Y-40160565D01*
X90393157Y-40186366D01*
X90452733Y-40228774D01*
X90492482Y-40285297D01*
X90506945Y-40353439D01*
X90505092Y-40376833D01*
X90491708Y-40390603D01*
X90456829Y-40390315D01*
X90432902Y-40386161D01*
X90406494Y-40368625D01*
X90388678Y-40329225D01*
X90379350Y-40305209D01*
X90353676Y-40273655D01*
X90307991Y-40252645D01*
X90273500Y-40243771D01*
X90204666Y-40243785D01*
X90151850Y-40270265D01*
X90117999Y-40321143D01*
X90106061Y-40394352D01*
X90106083Y-40402046D01*
X90108585Y-40424737D01*
X90120588Y-40436432D01*
X90149615Y-40440776D01*
X90203190Y-40441414D01*
X90263466Y-40443178D01*
X90360824Y-40457233D01*
X90435250Y-40486426D01*
X90490922Y-40532073D01*
X90519449Y-40574367D01*
X90538419Y-40642628D01*
X90537385Y-40651566D01*
X90530543Y-40710679D01*
G37*
G36*
X92005796Y-42298179D02*
G01*
X91972418Y-42358578D01*
X91914879Y-42403882D01*
X91884757Y-42415939D01*
X91806483Y-42425814D01*
X91723365Y-42412084D01*
X91645849Y-42375838D01*
X91581313Y-42333131D01*
X91581313Y-42373447D01*
X91578383Y-42398094D01*
X91562363Y-42410942D01*
X91523838Y-42413763D01*
X91466363Y-42413763D01*
X91471723Y-42145170D01*
X91472179Y-42123240D01*
X91473230Y-42088913D01*
X91581313Y-42088913D01*
X91581313Y-42160348D01*
X91581398Y-42167260D01*
X91592883Y-42227843D01*
X91627012Y-42274997D01*
X91688498Y-42315547D01*
X91739537Y-42332913D01*
X91799217Y-42334087D01*
X91851261Y-42317022D01*
X91888063Y-42284440D01*
X91902020Y-42239066D01*
X91898030Y-42202663D01*
X91877612Y-42163429D01*
X91836514Y-42134745D01*
X91771008Y-42114299D01*
X91677365Y-42099780D01*
X91581313Y-42088913D01*
X91473230Y-42088913D01*
X91475460Y-42016053D01*
X91481047Y-41935406D01*
X91490515Y-41876596D01*
X91505434Y-41834922D01*
X91527377Y-41805680D01*
X91557917Y-41784171D01*
X91598627Y-41765690D01*
X91625309Y-41756265D01*
X91711612Y-41741367D01*
X91794466Y-41748065D01*
X91868410Y-41773866D01*
X91927986Y-41816274D01*
X91967735Y-41872797D01*
X91982197Y-41940939D01*
X91980344Y-41964333D01*
X91966961Y-41978103D01*
X91932081Y-41977815D01*
X91908155Y-41973661D01*
X91881746Y-41956125D01*
X91863931Y-41916725D01*
X91854603Y-41892709D01*
X91828928Y-41861155D01*
X91783244Y-41840145D01*
X91748753Y-41831271D01*
X91679919Y-41831285D01*
X91627103Y-41857765D01*
X91593252Y-41908643D01*
X91581313Y-41981852D01*
X91581336Y-41989546D01*
X91583838Y-42012237D01*
X91595841Y-42023932D01*
X91624868Y-42028276D01*
X91678442Y-42028914D01*
X91738719Y-42030678D01*
X91836076Y-42044733D01*
X91910503Y-42073926D01*
X91966175Y-42119573D01*
X91994701Y-42161867D01*
X92013671Y-42230128D01*
X92012637Y-42239066D01*
X92005796Y-42298179D01*
G37*
G36*
X93978144Y-42298179D02*
G01*
X93944766Y-42358578D01*
X93887228Y-42403882D01*
X93857105Y-42415939D01*
X93778832Y-42425814D01*
X93695714Y-42412084D01*
X93618197Y-42375838D01*
X93553662Y-42333131D01*
X93553662Y-42373447D01*
X93550731Y-42398094D01*
X93534711Y-42410942D01*
X93496186Y-42413763D01*
X93438711Y-42413763D01*
X93444072Y-42145170D01*
X93444528Y-42123240D01*
X93445578Y-42088913D01*
X93553662Y-42088913D01*
X93553662Y-42160348D01*
X93553746Y-42167260D01*
X93565231Y-42227843D01*
X93599360Y-42274997D01*
X93660846Y-42315547D01*
X93711885Y-42332913D01*
X93771566Y-42334087D01*
X93823609Y-42317022D01*
X93860412Y-42284440D01*
X93874369Y-42239066D01*
X93870379Y-42202663D01*
X93849960Y-42163429D01*
X93808863Y-42134745D01*
X93743357Y-42114299D01*
X93649713Y-42099780D01*
X93553662Y-42088913D01*
X93445578Y-42088913D01*
X93447808Y-42016053D01*
X93453396Y-41935406D01*
X93462863Y-41876596D01*
X93477782Y-41834922D01*
X93499726Y-41805680D01*
X93530266Y-41784171D01*
X93570975Y-41765690D01*
X93597657Y-41756265D01*
X93683961Y-41741367D01*
X93766814Y-41748065D01*
X93840758Y-41773866D01*
X93900334Y-41816274D01*
X93940083Y-41872797D01*
X93954546Y-41940939D01*
X93952693Y-41964333D01*
X93939309Y-41978103D01*
X93904430Y-41977815D01*
X93880503Y-41973661D01*
X93854095Y-41956125D01*
X93836279Y-41916725D01*
X93826951Y-41892709D01*
X93801277Y-41861155D01*
X93755592Y-41840145D01*
X93721101Y-41831271D01*
X93652267Y-41831285D01*
X93599451Y-41857765D01*
X93565600Y-41908643D01*
X93553662Y-41981852D01*
X93553684Y-41989546D01*
X93556186Y-42012237D01*
X93568189Y-42023932D01*
X93597216Y-42028276D01*
X93650791Y-42028914D01*
X93711067Y-42030678D01*
X93808425Y-42044733D01*
X93882851Y-42073926D01*
X93938523Y-42119573D01*
X93967050Y-42161867D01*
X93986020Y-42230128D01*
X93984986Y-42239066D01*
X93978144Y-42298179D01*
G37*
G36*
X93722269Y-39942989D02*
G01*
X93802417Y-39974708D01*
X93865895Y-40026877D01*
X93887408Y-40057110D01*
X93902416Y-40100018D01*
X93906440Y-40159863D01*
X93906057Y-40176815D01*
X93894284Y-40243314D01*
X93863620Y-40297668D01*
X93810772Y-40342903D01*
X93732443Y-40382048D01*
X93625338Y-40418129D01*
X93610155Y-40422591D01*
X93525442Y-40450778D01*
X93467160Y-40477847D01*
X93430636Y-40506440D01*
X93411199Y-40539198D01*
X93400988Y-40601467D01*
X93418394Y-40657853D01*
X93464137Y-40701269D01*
X93537025Y-40729906D01*
X93585175Y-40738040D01*
X93666610Y-40734873D01*
X93734640Y-40710194D01*
X93784219Y-40666300D01*
X93810300Y-40605490D01*
X93817621Y-40580755D01*
X93837352Y-40563741D01*
X93878450Y-40556702D01*
X93914797Y-40555547D01*
X93934061Y-40563475D01*
X93938510Y-40585279D01*
X93925044Y-40654844D01*
X93884582Y-40723488D01*
X93822390Y-40780449D01*
X93743790Y-40819328D01*
X93741370Y-40820102D01*
X93662372Y-40834575D01*
X93572347Y-40835262D01*
X93484985Y-40823019D01*
X93413978Y-40798703D01*
X93356894Y-40758252D01*
X93307706Y-40693347D01*
X93282482Y-40617695D01*
X93283346Y-40538341D01*
X93312426Y-40462330D01*
X93320649Y-40449382D01*
X93345761Y-40417717D01*
X93377752Y-40391653D01*
X93422659Y-40367755D01*
X93486517Y-40342589D01*
X93575361Y-40312721D01*
X93620776Y-40297235D01*
X93685576Y-40272149D01*
X93735972Y-40248991D01*
X93763776Y-40231300D01*
X93765613Y-40229419D01*
X93790756Y-40182574D01*
X93787376Y-40130397D01*
X93755895Y-40080952D01*
X93721996Y-40055295D01*
X93659129Y-40033046D01*
X93590912Y-40030677D01*
X93525812Y-40046884D01*
X93472299Y-40080361D01*
X93438841Y-40129804D01*
X93425389Y-40160664D01*
X93403661Y-40180351D01*
X93366034Y-40184848D01*
X93339499Y-40183545D01*
X93318160Y-40173291D01*
X93313132Y-40147131D01*
X93313610Y-40140308D01*
X93325841Y-40099438D01*
X93349423Y-40054928D01*
X93386574Y-40012372D01*
X93457603Y-39966410D01*
X93542282Y-39939251D01*
X93633030Y-39931307D01*
X93722269Y-39942989D01*
G37*
G36*
X92584342Y-41757857D02*
G01*
X92598029Y-41766095D01*
X92610448Y-41784744D01*
X92623651Y-41817878D01*
X92639686Y-41869574D01*
X92660603Y-41943906D01*
X92688453Y-42044949D01*
X92708524Y-42116182D01*
X92727166Y-42179702D01*
X92741570Y-42225952D01*
X92749671Y-42248086D01*
X92754549Y-42244528D01*
X92767040Y-42216011D01*
X92784934Y-42164594D01*
X92806648Y-42094903D01*
X92830599Y-42011564D01*
X92901287Y-41756313D01*
X92954873Y-41756313D01*
X92960080Y-41756394D01*
X92994415Y-41761927D01*
X93008460Y-41773487D01*
X93007267Y-41779473D01*
X92998687Y-41811484D01*
X92983244Y-41865665D01*
X92962611Y-41936397D01*
X92938462Y-42018061D01*
X92912473Y-42105039D01*
X92886319Y-42191712D01*
X92861673Y-42272462D01*
X92840210Y-42341670D01*
X92823604Y-42393718D01*
X92821996Y-42396718D01*
X92797847Y-42408957D01*
X92755175Y-42413763D01*
X92693308Y-42413763D01*
X92623611Y-42165215D01*
X92607618Y-42109144D01*
X92584825Y-42032691D01*
X92565418Y-41971680D01*
X92551065Y-41931282D01*
X92543435Y-41916667D01*
X92539270Y-41923087D01*
X92527040Y-41955204D01*
X92509183Y-42009711D01*
X92487366Y-42081438D01*
X92463258Y-42165215D01*
X92393561Y-42413763D01*
X92332887Y-42413763D01*
X92272213Y-42413763D01*
X92208609Y-42209312D01*
X92184505Y-42131724D01*
X92148599Y-42015536D01*
X92121099Y-41925512D01*
X92101166Y-41858833D01*
X92087965Y-41812678D01*
X92080659Y-41784227D01*
X92078409Y-41770659D01*
X92078619Y-41769382D01*
X92095599Y-41760111D01*
X92131464Y-41756313D01*
X92184519Y-41756313D01*
X92255104Y-42012177D01*
X92272690Y-42075272D01*
X92294444Y-42151344D01*
X92312277Y-42211391D01*
X92324701Y-42250436D01*
X92330227Y-42263502D01*
X92331660Y-42260247D01*
X92340660Y-42232979D01*
X92356120Y-42182752D01*
X92376342Y-42115136D01*
X92399631Y-42035700D01*
X92408438Y-42005396D01*
X92431483Y-41926201D01*
X92451158Y-41858726D01*
X92465608Y-41809330D01*
X92472975Y-41784375D01*
X92475452Y-41778188D01*
X92497384Y-41761330D01*
X92543272Y-41756313D01*
X92544967Y-41756309D01*
X92567338Y-41755953D01*
X92584342Y-41757857D01*
G37*
G36*
X93983049Y-38125615D02*
G01*
X93983673Y-38163499D01*
X93984339Y-38242398D01*
X93984008Y-38306691D01*
X93982740Y-38350559D01*
X93980594Y-38368186D01*
X93974829Y-38368583D01*
X93947278Y-38359614D01*
X93906440Y-38340783D01*
X93884489Y-38329967D01*
X93850444Y-38315153D01*
X93835325Y-38311602D01*
X93829227Y-38320385D01*
X93809322Y-38349599D01*
X93781166Y-38391181D01*
X93757821Y-38422205D01*
X93697924Y-38487863D01*
X93622048Y-38559365D01*
X93537661Y-38629867D01*
X93452233Y-38692527D01*
X93356893Y-38749772D01*
X93203333Y-38820818D01*
X93031267Y-38879886D01*
X92848106Y-38924133D01*
X92844440Y-38924798D01*
X92786459Y-38929933D01*
X92705995Y-38930663D01*
X92611516Y-38927526D01*
X92511491Y-38921057D01*
X92414387Y-38911795D01*
X92328672Y-38900275D01*
X92262816Y-38887035D01*
X92108960Y-38837710D01*
X91912515Y-38746742D01*
X91731257Y-38629664D01*
X91569785Y-38489116D01*
X91437681Y-38355817D01*
X91373835Y-38388388D01*
X91355670Y-38397479D01*
X91319635Y-38414292D01*
X91301333Y-38420960D01*
X91299782Y-38417065D01*
X91296973Y-38387996D01*
X91294719Y-38335172D01*
X91293221Y-38264135D01*
X91292677Y-38180429D01*
X91292806Y-38137334D01*
X91293769Y-38059270D01*
X91295519Y-37996648D01*
X91297872Y-37955010D01*
X91300644Y-37939899D01*
X91304968Y-37941994D01*
X91330957Y-37958629D01*
X91375967Y-37989161D01*
X91435249Y-38030343D01*
X91504053Y-38078927D01*
X91699493Y-38217955D01*
X91632386Y-38250458D01*
X91611968Y-38261212D01*
X91578496Y-38283938D01*
X91565278Y-38301144D01*
X91566568Y-38306035D01*
X91585189Y-38332564D01*
X91621795Y-38372563D01*
X91671057Y-38421080D01*
X91727647Y-38473160D01*
X91786237Y-38523850D01*
X91841496Y-38568196D01*
X91888098Y-38601245D01*
X91954278Y-38641365D01*
X92112536Y-38719860D01*
X92272870Y-38772800D01*
X92443246Y-38802432D01*
X92631629Y-38811003D01*
X92699737Y-38809371D01*
X92895491Y-38788718D01*
X93076722Y-38742972D01*
X93249676Y-38670214D01*
X93420598Y-38568524D01*
X93435101Y-38558170D01*
X93481860Y-38520554D01*
X93535826Y-38472765D01*
X93591750Y-38419989D01*
X93644383Y-38367411D01*
X93688477Y-38320220D01*
X93718782Y-38283601D01*
X93730051Y-38262741D01*
X93727620Y-38258025D01*
X93704857Y-38240832D01*
X93665909Y-38220518D01*
X93648199Y-38212141D01*
X93615287Y-38193753D01*
X93602630Y-38182003D01*
X93605114Y-38178721D01*
X93627278Y-38159060D01*
X93668684Y-38125491D01*
X93724788Y-38081652D01*
X93791045Y-38031180D01*
X93978599Y-37889949D01*
X93983049Y-38125615D01*
G37*
G36*
X94831890Y-37489380D02*
G01*
X94888673Y-37501574D01*
X94988782Y-37524967D01*
X95137469Y-37579141D01*
X95286939Y-37654072D01*
X95428767Y-37745368D01*
X95554525Y-37848637D01*
X95559329Y-37853183D01*
X95620550Y-37917089D01*
X95685005Y-37993751D01*
X95749180Y-38077928D01*
X95809563Y-38164379D01*
X95862642Y-38247864D01*
X95904905Y-38323143D01*
X95932838Y-38384975D01*
X95942929Y-38428120D01*
X95950385Y-38464391D01*
X95972740Y-38520010D01*
X96005133Y-38582927D01*
X96042621Y-38643627D01*
X96080265Y-38692595D01*
X96102086Y-38717040D01*
X96122891Y-38739263D01*
X96143752Y-38757595D01*
X96167578Y-38772399D01*
X96197280Y-38784037D01*
X96235768Y-38792872D01*
X96285954Y-38799269D01*
X96350747Y-38803588D01*
X96433059Y-38806194D01*
X96535799Y-38807449D01*
X96661878Y-38807716D01*
X96814207Y-38807358D01*
X96995696Y-38806738D01*
X97754924Y-38804310D01*
X97754924Y-38861012D01*
X97754924Y-38917715D01*
X97061395Y-38922958D01*
X96971678Y-38923634D01*
X96799925Y-38924859D01*
X96656143Y-38925679D01*
X96537531Y-38925990D01*
X96441288Y-38925685D01*
X96364612Y-38924662D01*
X96304702Y-38922814D01*
X96258756Y-38920039D01*
X96223972Y-38916230D01*
X96197549Y-38911284D01*
X96176685Y-38905095D01*
X96158579Y-38897560D01*
X96140429Y-38888574D01*
X96096564Y-38862172D01*
X96012208Y-38788527D01*
X95935762Y-38692044D01*
X95871697Y-38578859D01*
X95824484Y-38455105D01*
X95819345Y-38438622D01*
X95772820Y-38329207D01*
X95704672Y-38212192D01*
X95620130Y-38094945D01*
X95524426Y-37984835D01*
X95422791Y-37889231D01*
X95362374Y-37842924D01*
X95256369Y-37774510D01*
X95140973Y-37711991D01*
X95026856Y-37660981D01*
X94924685Y-37627096D01*
X94906163Y-37624359D01*
X94853784Y-37620630D01*
X94773425Y-37617204D01*
X94667487Y-37614082D01*
X94538373Y-37611264D01*
X94388485Y-37608750D01*
X94220225Y-37606541D01*
X94035994Y-37604636D01*
X93838194Y-37603036D01*
X93629229Y-37601742D01*
X93411499Y-37600752D01*
X93187406Y-37600069D01*
X92959353Y-37599691D01*
X92729742Y-37599620D01*
X92500973Y-37599855D01*
X92275451Y-37600396D01*
X92055576Y-37601245D01*
X91843750Y-37602400D01*
X91642376Y-37603863D01*
X91453855Y-37605634D01*
X91280589Y-37607712D01*
X91124981Y-37610099D01*
X90989432Y-37612794D01*
X90876345Y-37615798D01*
X90788120Y-37619110D01*
X90727161Y-37622732D01*
X90695869Y-37626663D01*
X90602359Y-37654732D01*
X90414438Y-37735453D01*
X90241248Y-37844338D01*
X90084630Y-37980323D01*
X90074850Y-37990336D01*
X90004970Y-38068961D01*
X89936508Y-38156912D01*
X89874921Y-38246336D01*
X89825669Y-38329379D01*
X89794209Y-38398187D01*
X89789315Y-38412120D01*
X89766076Y-38478247D01*
X89743797Y-38541596D01*
X89732530Y-38570127D01*
X89692543Y-38647977D01*
X89641337Y-38727054D01*
X89586134Y-38796844D01*
X89534158Y-38846828D01*
X89531265Y-38849032D01*
X89507097Y-38866701D01*
X89483166Y-38881463D01*
X89456535Y-38893555D01*
X89424267Y-38903214D01*
X89383425Y-38910676D01*
X89331073Y-38916180D01*
X89264273Y-38919960D01*
X89180088Y-38922256D01*
X89075582Y-38923302D01*
X88947817Y-38923338D01*
X88793857Y-38922598D01*
X88610764Y-38921321D01*
X87861111Y-38915783D01*
X87861111Y-38860013D01*
X87861111Y-38804243D01*
X88612245Y-38806745D01*
X88768370Y-38807299D01*
X88923798Y-38807728D01*
X89052585Y-38807571D01*
X89157662Y-38806458D01*
X89241955Y-38804024D01*
X89308394Y-38799900D01*
X89359907Y-38793718D01*
X89399422Y-38785111D01*
X89429867Y-38773711D01*
X89454172Y-38759150D01*
X89475264Y-38741061D01*
X89496072Y-38719076D01*
X89519525Y-38692828D01*
X89547708Y-38658028D01*
X89587851Y-38597497D01*
X89622768Y-38533419D01*
X89647457Y-38475271D01*
X89656914Y-38432529D01*
X89662669Y-38407798D01*
X89679915Y-38362881D01*
X89704612Y-38309831D01*
X89802884Y-38142256D01*
X89924578Y-37983092D01*
X90063173Y-37840858D01*
X90214909Y-37718572D01*
X90376031Y-37619250D01*
X90542779Y-37545910D01*
X90711395Y-37501568D01*
X90747854Y-37494316D01*
X90790417Y-37481988D01*
X90792361Y-37480922D01*
X91667853Y-37480922D01*
X91690850Y-37481349D01*
X91741544Y-37481741D01*
X91819079Y-37482093D01*
X91922600Y-37482402D01*
X92051249Y-37482664D01*
X92204170Y-37482875D01*
X92380507Y-37483030D01*
X92579402Y-37483126D01*
X92800000Y-37483159D01*
X92824236Y-37483159D01*
X93042588Y-37483119D01*
X93239147Y-37483017D01*
X93413058Y-37482855D01*
X93563462Y-37482639D01*
X93689504Y-37482372D01*
X93790328Y-37482058D01*
X93865077Y-37481702D01*
X93912893Y-37481306D01*
X93932922Y-37480876D01*
X93924306Y-37480414D01*
X93886188Y-37479926D01*
X93817713Y-37479415D01*
X93718024Y-37478885D01*
X93562339Y-37478266D01*
X93333620Y-37477651D01*
X93087337Y-37477270D01*
X92831760Y-37477124D01*
X92575163Y-37477212D01*
X92325819Y-37477535D01*
X92091999Y-37478093D01*
X91881976Y-37478885D01*
X91869978Y-37478942D01*
X91773618Y-37479470D01*
X91708381Y-37479979D01*
X91673412Y-37480464D01*
X91667853Y-37480922D01*
X90792361Y-37480922D01*
X90811284Y-37470547D01*
X90807277Y-37462120D01*
X90775215Y-37458838D01*
X90762793Y-37458252D01*
X90705010Y-37448331D01*
X90629845Y-37428335D01*
X90546247Y-37401107D01*
X90463166Y-37369489D01*
X90389550Y-37336324D01*
X90305523Y-37290881D01*
X90129164Y-37169882D01*
X89971191Y-37023029D01*
X89830655Y-36849495D01*
X89801440Y-36806226D01*
X89759496Y-36738465D01*
X89720331Y-36669506D01*
X89687687Y-36606329D01*
X89665301Y-36555913D01*
X89656914Y-36525236D01*
X89649228Y-36491865D01*
X89626538Y-36439243D01*
X89593807Y-36378840D01*
X89556059Y-36319855D01*
X89518320Y-36271487D01*
X89501700Y-36253006D01*
X89477816Y-36227516D01*
X89454389Y-36206371D01*
X89428462Y-36189163D01*
X89397080Y-36175486D01*
X89357283Y-36164931D01*
X89306116Y-36157093D01*
X89240621Y-36151563D01*
X89157840Y-36147935D01*
X89054818Y-36145801D01*
X88928597Y-36144754D01*
X88776220Y-36144387D01*
X88594729Y-36144291D01*
X87861111Y-36143939D01*
X87861111Y-36087816D01*
X87861111Y-36031692D01*
X88610764Y-36031849D01*
X89360417Y-36032005D01*
X89443334Y-36070612D01*
X89500737Y-36102647D01*
X89585617Y-36173903D01*
X89661698Y-36270843D01*
X89730461Y-36395496D01*
X89793391Y-36549894D01*
X89798584Y-36563193D01*
X89825185Y-36618506D01*
X89862219Y-36684648D01*
X89903342Y-36750071D01*
X89996317Y-36874578D01*
X90142606Y-37026745D01*
X90307159Y-37153424D01*
X90488277Y-37253362D01*
X90684261Y-37325309D01*
X90688513Y-37326494D01*
X90705392Y-37330689D01*
X90724827Y-37334446D01*
X90748552Y-37337789D01*
X90778305Y-37340743D01*
X90815821Y-37343330D01*
X90862838Y-37345575D01*
X90921090Y-37347503D01*
X90992314Y-37349137D01*
X91078247Y-37350501D01*
X91180625Y-37351620D01*
X91301183Y-37352517D01*
X91441659Y-37353216D01*
X91603787Y-37353742D01*
X91789306Y-37354118D01*
X91999950Y-37354369D01*
X92237457Y-37354518D01*
X92503561Y-37354590D01*
X92800000Y-37354609D01*
X92885859Y-37354607D01*
X93173643Y-37354576D01*
X93431577Y-37354486D01*
X93661400Y-37354311D01*
X93864849Y-37354029D01*
X94043661Y-37353614D01*
X94199572Y-37353044D01*
X94334321Y-37352293D01*
X94449645Y-37351338D01*
X94547280Y-37350154D01*
X94628965Y-37348717D01*
X94696435Y-37347004D01*
X94751429Y-37344991D01*
X94795683Y-37342652D01*
X94830935Y-37339964D01*
X94858923Y-37336904D01*
X94881382Y-37333446D01*
X94900051Y-37329566D01*
X94916667Y-37325242D01*
X94983743Y-37304373D01*
X95168108Y-37225803D01*
X95339412Y-37121487D01*
X95494182Y-36994548D01*
X95628945Y-36848107D01*
X95740227Y-36685286D01*
X95824556Y-36509205D01*
X95859079Y-36424734D01*
X95920536Y-36301597D01*
X95986429Y-36204669D01*
X96059475Y-36130232D01*
X96142391Y-36074570D01*
X96154895Y-36068099D01*
X96171003Y-36061147D01*
X96190228Y-36055395D01*
X96215464Y-36050705D01*
X96249607Y-36046943D01*
X96295552Y-36043971D01*
X96356195Y-36041653D01*
X96434432Y-36039854D01*
X96533157Y-36038437D01*
X96655266Y-36037266D01*
X96803655Y-36036204D01*
X96981219Y-36035117D01*
X97754924Y-36030524D01*
X97754924Y-36086636D01*
X97754924Y-36142749D01*
X96994606Y-36147353D01*
X96234288Y-36151957D01*
X96165282Y-36200471D01*
X96096186Y-36259099D01*
X96019738Y-36354117D01*
X95967191Y-36459652D01*
X95921155Y-36576193D01*
X95820741Y-36769790D01*
X95698256Y-36944673D01*
X95555956Y-37098544D01*
X95396098Y-37229106D01*
X95220937Y-37334061D01*
X95032731Y-37411112D01*
X94997229Y-37422106D01*
X94929250Y-37440961D01*
X94872412Y-37453981D01*
X94836298Y-37458838D01*
X94808042Y-37460220D01*
X94789262Y-37466816D01*
X94797982Y-37477166D01*
X94808282Y-37480876D01*
X94831890Y-37489380D01*
G37*
%TO.C,G3*%
G36*
X98316110Y-53347007D02*
G01*
X98316110Y-53805369D01*
X98237853Y-53805369D01*
X98159595Y-53805369D01*
X98159595Y-53347007D01*
X98159595Y-52888644D01*
X98237853Y-52888644D01*
X98316110Y-52888644D01*
X98316110Y-53347007D01*
G37*
G36*
X102228962Y-50976936D02*
G01*
X102228962Y-51591813D01*
X102150705Y-51591813D01*
X102072448Y-51591813D01*
X102072448Y-50976936D01*
X102072448Y-50362059D01*
X102150705Y-50362059D01*
X102228962Y-50362059D01*
X102228962Y-50976936D01*
G37*
G36*
X95431779Y-50976936D02*
G01*
X95431779Y-51591813D01*
X95062853Y-51591813D01*
X94693926Y-51591813D01*
X94693926Y-51524735D01*
X94693926Y-51457658D01*
X94973416Y-51457658D01*
X95252905Y-51457658D01*
X95252905Y-50909859D01*
X95252905Y-50362059D01*
X95342342Y-50362059D01*
X95431779Y-50362059D01*
X95431779Y-50976936D01*
G37*
G36*
X98291964Y-52563912D02*
G01*
X98327250Y-52602982D01*
X98335941Y-52655539D01*
X98311638Y-52705299D01*
X98299103Y-52715885D01*
X98244544Y-52732006D01*
X98191084Y-52712498D01*
X98153883Y-52661563D01*
X98151609Y-52650423D01*
X98165898Y-52606992D01*
X98204106Y-52569328D01*
X98251911Y-52553257D01*
X98291964Y-52563912D01*
G37*
G36*
X100171919Y-52642693D02*
G01*
X100171919Y-52709771D01*
X100004226Y-52709771D01*
X99836532Y-52709771D01*
X99836532Y-53257570D01*
X99836532Y-53805369D01*
X99747095Y-53805369D01*
X99657659Y-53805369D01*
X99657659Y-53257570D01*
X99657659Y-52709771D01*
X99489965Y-52709771D01*
X99322272Y-52709771D01*
X99322272Y-52642693D01*
X99322272Y-52575616D01*
X99747095Y-52575616D01*
X100171919Y-52575616D01*
X100171919Y-52642693D01*
G37*
G36*
X97938979Y-46368083D02*
G01*
X98040429Y-46433191D01*
X98061314Y-46452940D01*
X98115652Y-46516740D01*
X98151746Y-46576705D01*
X98170945Y-46636792D01*
X98178920Y-46759671D01*
X98150027Y-46879025D01*
X98087743Y-46984005D01*
X97995550Y-47063763D01*
X97897920Y-47105351D01*
X97780719Y-47116043D01*
X97669251Y-47087299D01*
X97571660Y-47021448D01*
X97496088Y-46920823D01*
X97470822Y-46863931D01*
X97446731Y-46747196D01*
X97456790Y-46636656D01*
X97495726Y-46537036D01*
X97558265Y-46453060D01*
X97639134Y-46389453D01*
X97733058Y-46350938D01*
X97834765Y-46342240D01*
X97938979Y-46368083D01*
G37*
G36*
X99892968Y-50698377D02*
G01*
X100087711Y-51034694D01*
X100286797Y-50698377D01*
X100485883Y-50362059D01*
X100574852Y-50362059D01*
X100663821Y-50362059D01*
X100663821Y-50976936D01*
X100663821Y-51591813D01*
X100586000Y-51591813D01*
X100508179Y-51591813D01*
X100502153Y-51105501D01*
X100496127Y-50619190D01*
X100320748Y-50916731D01*
X100251656Y-51032969D01*
X100188958Y-51130072D01*
X100138051Y-51189087D01*
X100093207Y-51209929D01*
X100048696Y-51192513D01*
X99998792Y-51136753D01*
X99937767Y-51042563D01*
X99859891Y-50909859D01*
X99691198Y-50619190D01*
X99685172Y-51105501D01*
X99679146Y-51591813D01*
X99601325Y-51591813D01*
X99523504Y-51591813D01*
X99523504Y-50976936D01*
X99523504Y-50362059D01*
X99610865Y-50362059D01*
X99698226Y-50362059D01*
X99892968Y-50698377D01*
G37*
G36*
X97277732Y-50641549D02*
G01*
X97298327Y-50679481D01*
X97351546Y-50774578D01*
X97396751Y-50851240D01*
X97429691Y-50902413D01*
X97446115Y-50921038D01*
X97449816Y-50918547D01*
X97472448Y-50887363D01*
X97509872Y-50826075D01*
X97557873Y-50741773D01*
X97612235Y-50641549D01*
X97760503Y-50362059D01*
X97848254Y-50362059D01*
X97866750Y-50362365D01*
X97916174Y-50367063D01*
X97936004Y-50375632D01*
X97926499Y-50396532D01*
X97898156Y-50450373D01*
X97854430Y-50530590D01*
X97798807Y-50630792D01*
X97734772Y-50744590D01*
X97533539Y-51099976D01*
X97533539Y-51345894D01*
X97533539Y-51591813D01*
X97444103Y-51591813D01*
X97354666Y-51591813D01*
X97354666Y-51339724D01*
X97354666Y-51087636D01*
X97196336Y-50808694D01*
X97180687Y-50781089D01*
X97120156Y-50673675D01*
X97065307Y-50575411D01*
X97021638Y-50496190D01*
X96994649Y-50445906D01*
X96951292Y-50362059D01*
X97039247Y-50362059D01*
X97127201Y-50362059D01*
X97277732Y-50641549D01*
G37*
G36*
X95167113Y-52876720D02*
G01*
X95275993Y-52910559D01*
X95369473Y-52971219D01*
X95392024Y-52990046D01*
X95406720Y-52988486D01*
X95409419Y-52948007D01*
X95413271Y-52911445D01*
X95434900Y-52892659D01*
X95487676Y-52888644D01*
X95565933Y-52888644D01*
X95565933Y-53347007D01*
X95565933Y-53805369D01*
X95487676Y-53805369D01*
X95409419Y-53805369D01*
X95409419Y-53473879D01*
X95409396Y-53429388D01*
X95408716Y-53312934D01*
X95406322Y-53231121D01*
X95401189Y-53176264D01*
X95392293Y-53140676D01*
X95378609Y-53116672D01*
X95359111Y-53096568D01*
X95302281Y-53052418D01*
X95207472Y-53008664D01*
X95117077Y-53001359D01*
X95039177Y-53032131D01*
X95033146Y-53036864D01*
X95018514Y-53054224D01*
X95007918Y-53082011D01*
X95000497Y-53127084D01*
X94995391Y-53196300D01*
X94991739Y-53296518D01*
X94988681Y-53434596D01*
X94981586Y-53805369D01*
X94904834Y-53805369D01*
X94828081Y-53805369D01*
X94828081Y-53445412D01*
X94828487Y-53359506D01*
X94832380Y-53215437D01*
X94841681Y-53106634D01*
X94857949Y-53026833D01*
X94882743Y-52969775D01*
X94917620Y-52929197D01*
X94964141Y-52898839D01*
X95057526Y-52872325D01*
X95167113Y-52876720D01*
G37*
G36*
X93508891Y-51591813D02*
G01*
X93439721Y-51591813D01*
X93437756Y-51591807D01*
X93383152Y-51581412D01*
X93358929Y-51547376D01*
X93358406Y-51545381D01*
X93348017Y-51517806D01*
X93329334Y-51517619D01*
X93288355Y-51544188D01*
X93237637Y-51576573D01*
X93195863Y-51598039D01*
X93145552Y-51611116D01*
X93036696Y-51609291D01*
X92927421Y-51573478D01*
X92831707Y-51507165D01*
X92783740Y-51445596D01*
X92737548Y-51337106D01*
X92712442Y-51209306D01*
X92710761Y-51133450D01*
X92874224Y-51133450D01*
X92875228Y-51177241D01*
X92893281Y-51305483D01*
X92933060Y-51399796D01*
X92993392Y-51456995D01*
X93002371Y-51461291D01*
X93075526Y-51477285D01*
X93159690Y-51474771D01*
X93229402Y-51454065D01*
X93262885Y-51433528D01*
X93307248Y-51391477D01*
X93334341Y-51334551D01*
X93347955Y-51252932D01*
X93351880Y-51136804D01*
X93351901Y-51127906D01*
X93351307Y-51035746D01*
X93346790Y-50975262D01*
X93335016Y-50934357D01*
X93312650Y-50900936D01*
X93276356Y-50862904D01*
X93242183Y-50831380D01*
X93183837Y-50796494D01*
X93118372Y-50786883D01*
X93054666Y-50792478D01*
X92973207Y-50826300D01*
X92917098Y-50892816D01*
X92884663Y-50994405D01*
X92874224Y-51133450D01*
X92710761Y-51133450D01*
X92709449Y-51074206D01*
X92729594Y-50943815D01*
X92773901Y-50830144D01*
X92848399Y-50737083D01*
X92944756Y-50677828D01*
X93053489Y-50655506D01*
X93165872Y-50671889D01*
X93273178Y-50728751D01*
X93352377Y-50789159D01*
X93352377Y-50575609D01*
X93352377Y-50362059D01*
X93430634Y-50362059D01*
X93508891Y-50362059D01*
X93508891Y-50976936D01*
X93508891Y-51127906D01*
X93508891Y-51591813D01*
G37*
G36*
X96840405Y-51591813D02*
G01*
X96771235Y-51591813D01*
X96769270Y-51591807D01*
X96714666Y-51581412D01*
X96690444Y-51547376D01*
X96689920Y-51545381D01*
X96679531Y-51517806D01*
X96660848Y-51517619D01*
X96619870Y-51544188D01*
X96569152Y-51576573D01*
X96527377Y-51598039D01*
X96477066Y-51611116D01*
X96368210Y-51609291D01*
X96258935Y-51573478D01*
X96163221Y-51507165D01*
X96115254Y-51445596D01*
X96069062Y-51337106D01*
X96043956Y-51209306D01*
X96042275Y-51133450D01*
X96205738Y-51133450D01*
X96206742Y-51177241D01*
X96224795Y-51305483D01*
X96264574Y-51399796D01*
X96324906Y-51456995D01*
X96333885Y-51461291D01*
X96407041Y-51477285D01*
X96491204Y-51474771D01*
X96560916Y-51454065D01*
X96594399Y-51433528D01*
X96638762Y-51391477D01*
X96665855Y-51334551D01*
X96679469Y-51252932D01*
X96683394Y-51136804D01*
X96683416Y-51127906D01*
X96682821Y-51035746D01*
X96678304Y-50975262D01*
X96666530Y-50934357D01*
X96644164Y-50900936D01*
X96607870Y-50862904D01*
X96573698Y-50831380D01*
X96515351Y-50796494D01*
X96449886Y-50786883D01*
X96386180Y-50792478D01*
X96304721Y-50826300D01*
X96248613Y-50892816D01*
X96216177Y-50994405D01*
X96205738Y-51133450D01*
X96042275Y-51133450D01*
X96040963Y-51074206D01*
X96061108Y-50943815D01*
X96105415Y-50830144D01*
X96179913Y-50737083D01*
X96276270Y-50677828D01*
X96385003Y-50655506D01*
X96497386Y-50671889D01*
X96604692Y-50728751D01*
X96683891Y-50789159D01*
X96683891Y-50575609D01*
X96683891Y-50362059D01*
X96762148Y-50362059D01*
X96840405Y-50362059D01*
X96840405Y-50976936D01*
X96840405Y-51127906D01*
X96840405Y-51591813D01*
G37*
G36*
X99352084Y-53546765D02*
G01*
X99337459Y-53647169D01*
X99287325Y-53735823D01*
X99203198Y-53796414D01*
X99149648Y-53813436D01*
X99042299Y-53819448D01*
X98932998Y-53797581D01*
X98840558Y-53750231D01*
X98791527Y-53714257D01*
X98757980Y-53697561D01*
X98743835Y-53709320D01*
X98740933Y-53749471D01*
X98739332Y-53773779D01*
X98721794Y-53799353D01*
X98673856Y-53805369D01*
X98606779Y-53805369D01*
X98607108Y-53442033D01*
X98607611Y-53353034D01*
X98763293Y-53353034D01*
X98763293Y-53466600D01*
X98763988Y-53510799D01*
X98772185Y-53563174D01*
X98796828Y-53599196D01*
X98846740Y-53636870D01*
X98886884Y-53658977D01*
X98965596Y-53684573D01*
X99046831Y-53695091D01*
X99116258Y-53689214D01*
X99159549Y-53665625D01*
X99190190Y-53609642D01*
X99196273Y-53532514D01*
X99163065Y-53464337D01*
X99093232Y-53415184D01*
X99057805Y-53403047D01*
X98977962Y-53383439D01*
X98891858Y-53368971D01*
X98763293Y-53353034D01*
X98607611Y-53353034D01*
X98607828Y-53314732D01*
X98611211Y-53194777D01*
X98618903Y-53106390D01*
X98632555Y-53042360D01*
X98653821Y-52995481D01*
X98684353Y-52958543D01*
X98725804Y-52924338D01*
X98744645Y-52911565D01*
X98792798Y-52890721D01*
X98857754Y-52880303D01*
X98953345Y-52877464D01*
X98962340Y-52877494D01*
X99080963Y-52886526D01*
X99167717Y-52915266D01*
X99232520Y-52968954D01*
X99285290Y-53052830D01*
X99301182Y-53088331D01*
X99314440Y-53152381D01*
X99293001Y-53189620D01*
X99236332Y-53201672D01*
X99211290Y-53200455D01*
X99175502Y-53183488D01*
X99158135Y-53135609D01*
X99152128Y-53114292D01*
X99106833Y-53049230D01*
X99031959Y-53006441D01*
X98937610Y-52992482D01*
X98903135Y-52995069D01*
X98824381Y-53022094D01*
X98778299Y-53079350D01*
X98763293Y-53168447D01*
X98763293Y-53262446D01*
X98949167Y-53274042D01*
X99085708Y-53289701D01*
X99205856Y-53323951D01*
X99288698Y-53377126D01*
X99336638Y-53450855D01*
X99349789Y-53532514D01*
X99352084Y-53546765D01*
G37*
G36*
X101738182Y-51142999D02*
G01*
X101788698Y-51280509D01*
X101831456Y-51398089D01*
X101864473Y-51490254D01*
X101885762Y-51551517D01*
X101893342Y-51576393D01*
X101892082Y-51579483D01*
X101864082Y-51587754D01*
X101810812Y-51587573D01*
X101779584Y-51584270D01*
X101747445Y-51574081D01*
X101723726Y-51549212D01*
X101700807Y-51500449D01*
X101671068Y-51418577D01*
X101614085Y-51256521D01*
X101364051Y-51256473D01*
X101300001Y-51256561D01*
X101212012Y-51257874D01*
X101156076Y-51261993D01*
X101123982Y-51270474D01*
X101107520Y-51284869D01*
X101098480Y-51306734D01*
X101089693Y-51333536D01*
X101066878Y-51398938D01*
X101039469Y-51474427D01*
X101039313Y-51474848D01*
X101012956Y-51541478D01*
X100989738Y-51576312D01*
X100957922Y-51589655D01*
X100905773Y-51591813D01*
X100849845Y-51589171D01*
X100827492Y-51577778D01*
X100830969Y-51552684D01*
X100839642Y-51529733D01*
X100862387Y-51468577D01*
X100896423Y-51376608D01*
X100939492Y-51259939D01*
X100989337Y-51124678D01*
X100990223Y-51122271D01*
X101156759Y-51122271D01*
X101357473Y-51122271D01*
X101401982Y-51121852D01*
X101482033Y-51118622D01*
X101537304Y-51112893D01*
X101557829Y-51105501D01*
X101557823Y-51105348D01*
X101550676Y-51078856D01*
X101532262Y-51022272D01*
X101505798Y-50944646D01*
X101474501Y-50855029D01*
X101441590Y-50762471D01*
X101410281Y-50676023D01*
X101383793Y-50604736D01*
X101365343Y-50557658D01*
X101358149Y-50543842D01*
X101357648Y-50546204D01*
X101347051Y-50579907D01*
X101324846Y-50645603D01*
X101293845Y-50735074D01*
X101256857Y-50840101D01*
X101156759Y-51122271D01*
X100990223Y-51122271D01*
X101043701Y-50976936D01*
X101088881Y-50854154D01*
X101139751Y-50716138D01*
X101184274Y-50595592D01*
X101220184Y-50498642D01*
X101245214Y-50431416D01*
X101257098Y-50400041D01*
X101266484Y-50383738D01*
X101299401Y-50367019D01*
X101362518Y-50366502D01*
X101451853Y-50373239D01*
X101672481Y-50965757D01*
X101681891Y-50991045D01*
X101724291Y-51105501D01*
X101738182Y-51142999D01*
G37*
G36*
X98989319Y-50364551D02*
G01*
X99085452Y-50396727D01*
X99140826Y-50433727D01*
X99211095Y-50517098D01*
X99248299Y-50617066D01*
X99249377Y-50723209D01*
X99211269Y-50825110D01*
X99185611Y-50860225D01*
X99132376Y-50907353D01*
X99055473Y-50950892D01*
X98948085Y-50994462D01*
X98803393Y-51041685D01*
X98718640Y-51069521D01*
X98630551Y-51108456D01*
X98575722Y-51151462D01*
X98547617Y-51204263D01*
X98539701Y-51272580D01*
X98539794Y-51278177D01*
X98562449Y-51355617D01*
X98619508Y-51416189D01*
X98703026Y-51456000D01*
X98805057Y-51471157D01*
X98917657Y-51457767D01*
X98950602Y-51448716D01*
X99034929Y-51412228D01*
X99085936Y-51360400D01*
X99112134Y-51285707D01*
X99113444Y-51278816D01*
X99127036Y-51232146D01*
X99153129Y-51215101D01*
X99207597Y-51216109D01*
X99213850Y-51216643D01*
X99263842Y-51224836D01*
X99282167Y-51245244D01*
X99280818Y-51289964D01*
X99269542Y-51346526D01*
X99217184Y-51452287D01*
X99129062Y-51533937D01*
X99008426Y-51587920D01*
X98935629Y-51603474D01*
X98800962Y-51609235D01*
X98669063Y-51589451D01*
X98552624Y-51546570D01*
X98464339Y-51483039D01*
X98408093Y-51398926D01*
X98375518Y-51289707D01*
X98377001Y-51179539D01*
X98390855Y-51126595D01*
X98423171Y-51062479D01*
X98475548Y-51008390D01*
X98553997Y-50959959D01*
X98664524Y-50912823D01*
X98813138Y-50862615D01*
X98825616Y-50858682D01*
X98934264Y-50821344D01*
X99006760Y-50787363D01*
X99050003Y-50751160D01*
X99070891Y-50707158D01*
X99076321Y-50649778D01*
X99068317Y-50592442D01*
X99027899Y-50531919D01*
X98952165Y-50496805D01*
X98839761Y-50486163D01*
X98803444Y-50487726D01*
X98699078Y-50510660D01*
X98627566Y-50559506D01*
X98591808Y-50632553D01*
X98578355Y-50676954D01*
X98552154Y-50693780D01*
X98497544Y-50693026D01*
X98445304Y-50685226D01*
X98423034Y-50666042D01*
X98420969Y-50624532D01*
X98421324Y-50620188D01*
X98449779Y-50534001D01*
X98512708Y-50454421D01*
X98600748Y-50393479D01*
X98637445Y-50378613D01*
X98747163Y-50355373D01*
X98870505Y-50350726D01*
X98989319Y-50364551D01*
G37*
G36*
X97411705Y-52890796D02*
G01*
X97430790Y-52902284D01*
X97448108Y-52928287D01*
X97466517Y-52974489D01*
X97488875Y-53046571D01*
X97518042Y-53150217D01*
X97556875Y-53291109D01*
X97584861Y-53390433D01*
X97610856Y-53479003D01*
X97630939Y-53543492D01*
X97642235Y-53574355D01*
X97649037Y-53569394D01*
X97666454Y-53529632D01*
X97691405Y-53457937D01*
X97721682Y-53360762D01*
X97755079Y-53244558D01*
X97853643Y-52888644D01*
X97928362Y-52888644D01*
X97935622Y-52888757D01*
X97983498Y-52896471D01*
X98003081Y-52912590D01*
X98001418Y-52920938D01*
X97989455Y-52965573D01*
X97967921Y-53041120D01*
X97939151Y-53139746D01*
X97905479Y-53253616D01*
X97869241Y-53374895D01*
X97832772Y-53495749D01*
X97798406Y-53608345D01*
X97768479Y-53704846D01*
X97745325Y-53777420D01*
X97743083Y-53781604D01*
X97709410Y-53798668D01*
X97649910Y-53805369D01*
X97563645Y-53805369D01*
X97466462Y-53458802D01*
X97444161Y-53380620D01*
X97412379Y-53274016D01*
X97385319Y-53188944D01*
X97365306Y-53132614D01*
X97354666Y-53112235D01*
X97348859Y-53121188D01*
X97331806Y-53165971D01*
X97306907Y-53241974D01*
X97276486Y-53341988D01*
X97242870Y-53458802D01*
X97145687Y-53805369D01*
X97061085Y-53805369D01*
X96976483Y-53805369D01*
X96887797Y-53520290D01*
X96854187Y-53412105D01*
X96804121Y-53250095D01*
X96765775Y-53124569D01*
X96737982Y-53031594D01*
X96719575Y-52967237D01*
X96709387Y-52927566D01*
X96706250Y-52908648D01*
X96706543Y-52906867D01*
X96730220Y-52893939D01*
X96780228Y-52888644D01*
X96854206Y-52888644D01*
X96952627Y-53245412D01*
X96977149Y-53333390D01*
X97007483Y-53439462D01*
X97032348Y-53523189D01*
X97049671Y-53577632D01*
X97057377Y-53595850D01*
X97059375Y-53591312D01*
X97071924Y-53553291D01*
X97093480Y-53483256D01*
X97121678Y-53388975D01*
X97154151Y-53278211D01*
X97166432Y-53235956D01*
X97198565Y-53125530D01*
X97225999Y-53031445D01*
X97246147Y-52962569D01*
X97256419Y-52927772D01*
X97259873Y-52919145D01*
X97290455Y-52895639D01*
X97354439Y-52888644D01*
X97356803Y-52888638D01*
X97387996Y-52888142D01*
X97411705Y-52890796D01*
G37*
G36*
X94534992Y-51415822D02*
G01*
X94492932Y-51502454D01*
X94421372Y-51568881D01*
X94415866Y-51572115D01*
X94342484Y-51601677D01*
X94269103Y-51613597D01*
X94243208Y-51611732D01*
X94170116Y-51595669D01*
X94093045Y-51568294D01*
X94028017Y-51535881D01*
X93991052Y-51504704D01*
X93967243Y-51481577D01*
X93943605Y-51490961D01*
X93933715Y-51535915D01*
X93932113Y-51560223D01*
X93914576Y-51585797D01*
X93866638Y-51591813D01*
X93799560Y-51591813D01*
X93799560Y-51213423D01*
X93799591Y-51193242D01*
X93958048Y-51193242D01*
X93960496Y-51261261D01*
X93962907Y-51295543D01*
X93973386Y-51354438D01*
X93997308Y-51393130D01*
X94043228Y-51428955D01*
X94102729Y-51458318D01*
X94191770Y-51478186D01*
X94278150Y-51476304D01*
X94344442Y-51451376D01*
X94368939Y-51421592D01*
X94384823Y-51358586D01*
X94376875Y-51289431D01*
X94345043Y-51232992D01*
X94332627Y-51223080D01*
X94272660Y-51194705D01*
X94188436Y-51169529D01*
X94095088Y-51151515D01*
X94007752Y-51144630D01*
X93982800Y-51146136D01*
X93963972Y-51158594D01*
X93958048Y-51193242D01*
X93799591Y-51193242D01*
X93799773Y-51075056D01*
X93801039Y-50973878D01*
X93804303Y-50902578D01*
X93810507Y-50853736D01*
X93820594Y-50819929D01*
X93835507Y-50793735D01*
X93856190Y-50767732D01*
X93942684Y-50697424D01*
X94056756Y-50661239D01*
X94198338Y-50659938D01*
X94224812Y-50663164D01*
X94335692Y-50693016D01*
X94417197Y-50749851D01*
X94478072Y-50839274D01*
X94495319Y-50878196D01*
X94507185Y-50940645D01*
X94484426Y-50976594D01*
X94426318Y-50988116D01*
X94413040Y-50987848D01*
X94370465Y-50977195D01*
X94358539Y-50946413D01*
X94355848Y-50924889D01*
X94324547Y-50862898D01*
X94269207Y-50809377D01*
X94203809Y-50779414D01*
X94173150Y-50775739D01*
X94093428Y-50783999D01*
X94022510Y-50812323D01*
X93977962Y-50854843D01*
X93976787Y-50857151D01*
X93962119Y-50909300D01*
X93956074Y-50975466D01*
X93956074Y-51055193D01*
X94086676Y-51055193D01*
X94190366Y-51061867D01*
X94305672Y-51083600D01*
X94404388Y-51116819D01*
X94472544Y-51157808D01*
X94524627Y-51230007D01*
X94546056Y-51321001D01*
X94541670Y-51358586D01*
X94534992Y-51415822D01*
G37*
G36*
X96592034Y-53629379D02*
G01*
X96549975Y-53716011D01*
X96478415Y-53782437D01*
X96472908Y-53785671D01*
X96399526Y-53815233D01*
X96326145Y-53827154D01*
X96300250Y-53825288D01*
X96227158Y-53809225D01*
X96150087Y-53781850D01*
X96085059Y-53749438D01*
X96048094Y-53718261D01*
X96024286Y-53695133D01*
X96000648Y-53704517D01*
X95990757Y-53749471D01*
X95989156Y-53773779D01*
X95971618Y-53799353D01*
X95923680Y-53805369D01*
X95856603Y-53805369D01*
X95856603Y-53426979D01*
X95856634Y-53406798D01*
X96015090Y-53406798D01*
X96017538Y-53474818D01*
X96019950Y-53509100D01*
X96030428Y-53567994D01*
X96054351Y-53606686D01*
X96100270Y-53642511D01*
X96159771Y-53671874D01*
X96248812Y-53691742D01*
X96335192Y-53689861D01*
X96401484Y-53664933D01*
X96425982Y-53635148D01*
X96441865Y-53572143D01*
X96433917Y-53502987D01*
X96402085Y-53446549D01*
X96389669Y-53436636D01*
X96329702Y-53408262D01*
X96245478Y-53383085D01*
X96152131Y-53365072D01*
X96064794Y-53358186D01*
X96039842Y-53359693D01*
X96021014Y-53372150D01*
X96015090Y-53406798D01*
X95856634Y-53406798D01*
X95856815Y-53288612D01*
X95858082Y-53187434D01*
X95861345Y-53116135D01*
X95867549Y-53067293D01*
X95877636Y-53033486D01*
X95892550Y-53007292D01*
X95913232Y-52981289D01*
X95999726Y-52910980D01*
X96113798Y-52874796D01*
X96255380Y-52873494D01*
X96281854Y-52876720D01*
X96392734Y-52906572D01*
X96474239Y-52963407D01*
X96535114Y-53052830D01*
X96552361Y-53091753D01*
X96564228Y-53154202D01*
X96541468Y-53190150D01*
X96483361Y-53201672D01*
X96470082Y-53201405D01*
X96427507Y-53190752D01*
X96415581Y-53159969D01*
X96412890Y-53138446D01*
X96381589Y-53076455D01*
X96326250Y-53022933D01*
X96260852Y-52992971D01*
X96230192Y-52989295D01*
X96150470Y-52997555D01*
X96079552Y-53025879D01*
X96035004Y-53068399D01*
X96033830Y-53070707D01*
X96019162Y-53122856D01*
X96013117Y-53189023D01*
X96013117Y-53268750D01*
X96143718Y-53268750D01*
X96247408Y-53275423D01*
X96362714Y-53297156D01*
X96461431Y-53330375D01*
X96529586Y-53371365D01*
X96581670Y-53443563D01*
X96603098Y-53534557D01*
X96598712Y-53572143D01*
X96592034Y-53629379D01*
G37*
G36*
X100006094Y-46739721D02*
G01*
X99998093Y-46922617D01*
X99980021Y-47091044D01*
X99952011Y-47231285D01*
X99928825Y-47311712D01*
X99814710Y-47613380D01*
X99665246Y-47889923D01*
X99481995Y-48139132D01*
X99266524Y-48358798D01*
X99020397Y-48546711D01*
X98968910Y-48579467D01*
X98701349Y-48719411D01*
X98419968Y-48820040D01*
X98129493Y-48881550D01*
X97834649Y-48904139D01*
X97540162Y-48888002D01*
X97250758Y-48833337D01*
X96971162Y-48740340D01*
X96706101Y-48609208D01*
X96460300Y-48440139D01*
X96416646Y-48405600D01*
X96349217Y-48354167D01*
X96299460Y-48318705D01*
X96275837Y-48305394D01*
X96271431Y-48318691D01*
X96266502Y-48369955D01*
X96262585Y-48452948D01*
X96260000Y-48560421D01*
X96259067Y-48685123D01*
X96259386Y-48784928D01*
X96260610Y-48896669D01*
X96262589Y-48985473D01*
X96265151Y-49044080D01*
X96268122Y-49065228D01*
X96275692Y-49058057D01*
X96300915Y-49021999D01*
X96335465Y-48965768D01*
X96374061Y-48903070D01*
X96407309Y-48862134D01*
X96436328Y-48848452D01*
X96469462Y-48855136D01*
X96484617Y-48863079D01*
X96500469Y-48887590D01*
X96497034Y-48928334D01*
X96472620Y-48990338D01*
X96425537Y-49078632D01*
X96354094Y-49198244D01*
X96344525Y-49213774D01*
X96288177Y-49303729D01*
X96240765Y-49376964D01*
X96207024Y-49426296D01*
X96191691Y-49444544D01*
X96189561Y-49443182D01*
X96168383Y-49416287D01*
X96129580Y-49360196D01*
X96077816Y-49281791D01*
X96017756Y-49187951D01*
X96000251Y-49160137D01*
X95939328Y-49060966D01*
X95899797Y-48990608D01*
X95878612Y-48942431D01*
X95872727Y-48909806D01*
X95879097Y-48886102D01*
X95898031Y-48859077D01*
X95924467Y-48841637D01*
X95937871Y-48844993D01*
X95979694Y-48876174D01*
X96026777Y-48930687D01*
X96068400Y-48996962D01*
X96072204Y-49004204D01*
X96098050Y-49047532D01*
X96114307Y-49065228D01*
X96116992Y-49052991D01*
X96120147Y-49002915D01*
X96122656Y-48920961D01*
X96124314Y-48814443D01*
X96124912Y-48690674D01*
X96124912Y-48316120D01*
X96027674Y-48264535D01*
X95952613Y-48210339D01*
X95884210Y-48124303D01*
X95842767Y-48025350D01*
X95832611Y-47924492D01*
X95858066Y-47832741D01*
X95866119Y-47805777D01*
X95862055Y-47763372D01*
X95841913Y-47699507D01*
X95803501Y-47605030D01*
X95793089Y-47580515D01*
X95723574Y-47402073D01*
X95674842Y-47240669D01*
X95643828Y-47081067D01*
X95627467Y-46908035D01*
X95622694Y-46706338D01*
X95625466Y-46589173D01*
X95777641Y-46589173D01*
X95781588Y-46878599D01*
X95826473Y-47168743D01*
X95913402Y-47455369D01*
X95921808Y-47477318D01*
X95956218Y-47563982D01*
X95981642Y-47616732D01*
X96003347Y-47642323D01*
X96026604Y-47647509D01*
X96056680Y-47639045D01*
X96073552Y-47631912D01*
X96089761Y-47618030D01*
X96099543Y-47591898D01*
X96104272Y-47545402D01*
X96105318Y-47470426D01*
X96104054Y-47358857D01*
X96100188Y-47097623D01*
X96179628Y-47097623D01*
X96259067Y-47097623D01*
X96259067Y-47365933D01*
X96259541Y-47454241D01*
X96262146Y-47542816D01*
X96267722Y-47597975D01*
X96277045Y-47626267D01*
X96290891Y-47634242D01*
X96300598Y-47635398D01*
X96350256Y-47660156D01*
X96407821Y-47708341D01*
X96460845Y-47768235D01*
X96496879Y-47828123D01*
X96520013Y-47901879D01*
X96521051Y-48006439D01*
X96481525Y-48115826D01*
X96435673Y-48204401D01*
X96538698Y-48296169D01*
X96582498Y-48333349D01*
X96769989Y-48462184D01*
X96988178Y-48572096D01*
X97227672Y-48658869D01*
X97479078Y-48718287D01*
X97676523Y-48742491D01*
X97965608Y-48741914D01*
X98249128Y-48700008D01*
X98522934Y-48618777D01*
X98782876Y-48500227D01*
X99024807Y-48346362D01*
X99244575Y-48159188D01*
X99438033Y-47940710D01*
X99601030Y-47692932D01*
X99636711Y-47625047D01*
X99727483Y-47408339D01*
X99797629Y-47172047D01*
X99842861Y-46932578D01*
X99858891Y-46706338D01*
X99855525Y-46607161D01*
X99826913Y-46379404D01*
X99772593Y-46145706D01*
X99696788Y-45922306D01*
X99603725Y-45725444D01*
X99566382Y-45659519D01*
X99522596Y-45586173D01*
X99490543Y-45542438D01*
X99464289Y-45522485D01*
X99437904Y-45520486D01*
X99405454Y-45530609D01*
X99344631Y-45553734D01*
X99344631Y-45833777D01*
X99344631Y-46113820D01*
X99277553Y-46113820D01*
X99210476Y-46113820D01*
X99210476Y-45838077D01*
X99210476Y-45562333D01*
X99127347Y-45508279D01*
X99110212Y-45496725D01*
X99013767Y-45408273D01*
X98959276Y-45307842D01*
X98947698Y-45197095D01*
X98950415Y-45170932D01*
X98960770Y-45104687D01*
X98972446Y-45061742D01*
X98973384Y-45054111D01*
X98951262Y-45021471D01*
X98896969Y-44978256D01*
X98817685Y-44928698D01*
X98720589Y-44877029D01*
X98612863Y-44827480D01*
X98501687Y-44784284D01*
X98365112Y-44741344D01*
X98069472Y-44681047D01*
X97773987Y-44665382D01*
X97479078Y-44694388D01*
X97248721Y-44746022D01*
X96993026Y-44836884D01*
X96753824Y-44963035D01*
X96520914Y-45129105D01*
X96333273Y-45301009D01*
X96149117Y-45523331D01*
X96000370Y-45767543D01*
X95888138Y-46029411D01*
X95813527Y-46304699D01*
X95777641Y-46589173D01*
X95625466Y-46589173D01*
X95627440Y-46505768D01*
X95643755Y-46332454D01*
X95674580Y-46172694D01*
X95722854Y-46011279D01*
X95791520Y-45832996D01*
X95910758Y-45597984D01*
X96069317Y-45368370D01*
X96258484Y-45155228D01*
X96471215Y-44965602D01*
X96700466Y-44806539D01*
X96939194Y-44685083D01*
X97124084Y-44617174D01*
X97427275Y-44542431D01*
X97733951Y-44510000D01*
X98039888Y-44519637D01*
X98340863Y-44571098D01*
X98632654Y-44664142D01*
X98911037Y-44798525D01*
X98967665Y-44830575D01*
X99042278Y-44869805D01*
X99093001Y-44890097D01*
X99128693Y-44894604D01*
X99158216Y-44886477D01*
X99165620Y-44883014D01*
X99184166Y-44871116D01*
X99196735Y-44851784D01*
X99204489Y-44817563D01*
X99208589Y-44760994D01*
X99210198Y-44674621D01*
X99210476Y-44550987D01*
X99210476Y-44549811D01*
X99209741Y-44403890D01*
X99206778Y-44299086D01*
X99200421Y-44231836D01*
X99189509Y-44198576D01*
X99172878Y-44195742D01*
X99149364Y-44219772D01*
X99117804Y-44267101D01*
X99073100Y-44326224D01*
X99022436Y-44365050D01*
X98979311Y-44369019D01*
X98949986Y-44335576D01*
X98949437Y-44331192D01*
X98960462Y-44294344D01*
X98989053Y-44232651D01*
X99030423Y-44154170D01*
X99079785Y-44066960D01*
X99132350Y-43979079D01*
X99183330Y-43898585D01*
X99227938Y-43833537D01*
X99261387Y-43791992D01*
X99278887Y-43782009D01*
X99307611Y-43819548D01*
X99350133Y-43883309D01*
X99400998Y-43964146D01*
X99454780Y-44052948D01*
X99506055Y-44140601D01*
X99549397Y-44217993D01*
X99579381Y-44276011D01*
X99590581Y-44305544D01*
X99583480Y-44344793D01*
X99555197Y-44367802D01*
X99511697Y-44358762D01*
X99459837Y-44319652D01*
X99406473Y-44252449D01*
X99345339Y-44157394D01*
X99344985Y-44509251D01*
X99344631Y-44861107D01*
X99418342Y-44891906D01*
X99450896Y-44907642D01*
X99541809Y-44980983D01*
X99602775Y-45079023D01*
X99628991Y-45191622D01*
X99615657Y-45308642D01*
X99606085Y-45344602D01*
X99603531Y-45381912D01*
X99614546Y-45422124D01*
X99642655Y-45476819D01*
X99691378Y-45557577D01*
X99778146Y-45715374D01*
X99880040Y-45954120D01*
X99961820Y-46214436D01*
X99968352Y-46241377D01*
X99991356Y-46385384D01*
X100003892Y-46556071D01*
X100005694Y-46706338D01*
X100006094Y-46739721D01*
G37*
%TO.C,G2*%
G36*
X80936928Y-46043770D02*
G01*
X81170498Y-46303365D01*
X81371612Y-46533148D01*
X81529096Y-46720563D01*
X81631780Y-46853056D01*
X81668490Y-46918072D01*
X81639445Y-46920960D01*
X81527131Y-46891074D01*
X81349977Y-46829617D01*
X81129044Y-46743408D01*
X81046676Y-46709951D01*
X80650021Y-46553502D01*
X80245219Y-46400674D01*
X79846219Y-46256101D01*
X79466970Y-46124419D01*
X79121419Y-46010263D01*
X78823514Y-45918268D01*
X78587205Y-45853070D01*
X78426439Y-45819303D01*
X78355165Y-45821604D01*
X78349700Y-45836323D01*
X78324972Y-45940757D01*
X78285280Y-46131288D01*
X78233809Y-46391937D01*
X78173748Y-46706721D01*
X78108284Y-47059660D01*
X78077745Y-47225533D01*
X78014439Y-47562832D01*
X77958059Y-47854583D01*
X77911780Y-48084821D01*
X77878778Y-48237578D01*
X77862228Y-48296889D01*
X77834991Y-48271927D01*
X77776068Y-48168876D01*
X77700909Y-48010515D01*
X77513579Y-47587911D01*
X77308306Y-47128039D01*
X77143300Y-46762803D01*
X77016592Y-46487944D01*
X76926212Y-46299203D01*
X76870190Y-46192319D01*
X76846556Y-46163035D01*
X76829955Y-46211387D01*
X76791912Y-46355506D01*
X76736813Y-46580229D01*
X76668171Y-46870674D01*
X76589496Y-47211959D01*
X76504299Y-47589204D01*
X76416091Y-47987527D01*
X76403294Y-48045217D01*
X76358724Y-48235220D01*
X76323701Y-48368196D01*
X76304904Y-48418271D01*
X76293005Y-48397559D01*
X76242887Y-48290087D01*
X76159722Y-48103428D01*
X76049705Y-47851691D01*
X75919034Y-47548982D01*
X75773906Y-47209409D01*
X75700615Y-47037322D01*
X75546715Y-46677225D01*
X75402070Y-46340374D01*
X75275208Y-46046546D01*
X75174655Y-45815519D01*
X75108938Y-45667068D01*
X75106021Y-45660607D01*
X75023536Y-45474918D01*
X74912480Y-45221004D01*
X74787035Y-44931450D01*
X74661383Y-44638840D01*
X74541077Y-44366518D01*
X74383470Y-44023584D01*
X74203103Y-43640999D01*
X74013989Y-43248481D01*
X73830136Y-42875747D01*
X73295714Y-41807402D01*
X73716566Y-42037910D01*
X73885294Y-42131334D01*
X74194224Y-42306965D01*
X74492217Y-42481577D01*
X74757582Y-42642169D01*
X74968628Y-42775742D01*
X75103666Y-42869293D01*
X75209849Y-42940425D01*
X75285101Y-42971444D01*
X75292725Y-42965913D01*
X75275699Y-42886692D01*
X75200433Y-42714086D01*
X75067295Y-42448834D01*
X74876649Y-42091676D01*
X74700855Y-41773611D01*
X75110066Y-41773611D01*
X75111726Y-41779042D01*
X75148717Y-41858100D01*
X75229440Y-42019712D01*
X75347452Y-42251294D01*
X75496310Y-42540259D01*
X75669570Y-42874020D01*
X75860788Y-43239992D01*
X76038579Y-43582924D01*
X76266778Y-44032304D01*
X76492351Y-44485585D01*
X76702787Y-44917320D01*
X76885572Y-45302062D01*
X77028196Y-45614364D01*
X77173330Y-45942064D01*
X77334538Y-46304023D01*
X77459826Y-46581304D01*
X77554160Y-46783774D01*
X77622508Y-46921303D01*
X77669836Y-47003757D01*
X77701111Y-47041006D01*
X77721299Y-47042916D01*
X77735369Y-47019357D01*
X77737303Y-47013940D01*
X77763055Y-46910300D01*
X77797819Y-46735205D01*
X77834646Y-46523379D01*
X77855606Y-46384080D01*
X77872019Y-46203153D01*
X77867154Y-46030649D01*
X77839054Y-45827827D01*
X77785763Y-45555951D01*
X77658735Y-45067145D01*
X77474658Y-44612817D01*
X77230071Y-44214607D01*
X76911838Y-43846827D01*
X76538432Y-43471663D01*
X76739232Y-43471663D01*
X76985997Y-43505354D01*
X77282955Y-43604798D01*
X77572937Y-43752262D01*
X77813934Y-43929836D01*
X77822362Y-43937664D01*
X78084958Y-44256635D01*
X78269976Y-44640569D01*
X78365675Y-45065302D01*
X78402667Y-45408393D01*
X78854507Y-45529933D01*
X78927873Y-45550278D01*
X79215931Y-45637416D01*
X79533601Y-45741822D01*
X79824466Y-45845161D01*
X79972719Y-45899313D01*
X80168397Y-45966244D01*
X80306861Y-46007778D01*
X80364886Y-46016551D01*
X80338395Y-45974489D01*
X80243270Y-45867429D01*
X80091346Y-45707788D01*
X79894912Y-45507664D01*
X79666257Y-45279156D01*
X79417670Y-45034362D01*
X79161443Y-44785382D01*
X78909863Y-44544314D01*
X78675221Y-44323256D01*
X78469806Y-44134306D01*
X78305908Y-43989565D01*
X77676308Y-43478124D01*
X76936223Y-42928164D01*
X76166083Y-42403979D01*
X76145669Y-42390720D01*
X75793549Y-42163224D01*
X75524656Y-41992402D01*
X75330426Y-41873142D01*
X75202294Y-41800332D01*
X75131695Y-41768859D01*
X75110066Y-41773611D01*
X74700855Y-41773611D01*
X74628861Y-41643353D01*
X74602194Y-41595493D01*
X74476448Y-41363712D01*
X74377930Y-41172009D01*
X74316005Y-41039163D01*
X74300036Y-40983954D01*
X74334701Y-40988957D01*
X74454822Y-41040332D01*
X74646665Y-41136477D01*
X74896687Y-41270109D01*
X75191344Y-41433944D01*
X75517094Y-41620699D01*
X75860394Y-41823092D01*
X76911663Y-42491395D01*
X78031840Y-43305705D01*
X79093258Y-44194728D01*
X80118532Y-45176274D01*
X80153198Y-45211661D01*
X80417106Y-45485363D01*
X80682073Y-45766918D01*
X80911872Y-46016551D01*
X80936928Y-46043770D01*
G37*
%TD*%
%LPC*%
D12*
%TO.C,TH1*%
X129250000Y-51850000D03*
%TD*%
%TO.C,TH2*%
X91050000Y-52150000D03*
%TD*%
%TO.C,TH3*%
X112850000Y-37550000D03*
%TD*%
D13*
%TO.C,J1*%
X82525019Y-44750000D03*
X82525019Y-47250127D03*
D14*
X77474981Y-49800038D03*
X77474981Y-39699962D03*
%TD*%
D13*
%TO.C,J2*%
X137474981Y-44750000D03*
X137474981Y-42249873D03*
D14*
X142525019Y-39699962D03*
X142525019Y-49800038D03*
%TD*%
%LPD*%
M02*
