%TF.GenerationSoftware,KiCad,Pcbnew,10.0.3*%
%TF.CreationDate,2026-06-27T17:02:45+08:00*%
%TF.ProjectId,LPFilter_10kHz_Elliptical_v0.1,4c504669-6c74-4657-925f-31306b487a5f,rev?*%
%TF.SameCoordinates,Original*%
%TF.FileFunction,Legend,Top*%
%TF.FilePolarity,Positive*%
%FSLAX46Y46*%
G04 Gerber Fmt 4.6, Leading zero omitted, Abs format (unit mm)*
G04 Created by KiCad (PCBNEW 10.0.3) date 2026-06-27 17:02:45*
%MOMM*%
%LPD*%
G01*
G04 APERTURE LIST*
G04 Aperture macros list*
%AMRoundRect*
0 Rectangle with rounded corners*
0 $1 Rounding radius*
0 $2 $3 $4 $5 $6 $7 $8 $9 X,Y pos of 4 corners*
0 Add a 4 corners polygon primitive as box body*
4,1,4,$2,$3,$4,$5,$6,$7,$8,$9,$2,$3,0*
0 Add four circle primitives for the rounded corners*
1,1,$1+$1,$2,$3*
1,1,$1+$1,$4,$5*
1,1,$1+$1,$6,$7*
1,1,$1+$1,$8,$9*
0 Add four rect primitives between the rounded corners*
20,1,$1+$1,$2,$3,$4,$5,0*
20,1,$1+$1,$4,$5,$6,$7,0*
20,1,$1+$1,$6,$7,$8,$9,0*
20,1,$1+$1,$8,$9,$2,$3,0*%
G04 Aperture macros list end*
%ADD10C,0.150000*%
%ADD11C,0.100000*%
%ADD12C,0.120000*%
%ADD13C,0.152400*%
%ADD14C,0.254001*%
%ADD15RoundRect,0.225000X-0.250000X0.225000X-0.250000X-0.225000X0.250000X-0.225000X0.250000X0.225000X0*%
%ADD16C,1.448000*%
%ADD17R,5.720015X2.200000*%
%ADD18C,1.600000*%
%ADD19C,2.600965*%
%ADD20R,5.700000X2.500000*%
%ADD21RoundRect,0.225000X0.250000X-0.225000X0.250000X0.225000X-0.250000X0.225000X-0.250000X-0.225000X0*%
G04 APERTURE END LIST*
D10*
X88454819Y-43123808D02*
X87454819Y-43123808D01*
X88454819Y-42647618D02*
X87454819Y-42647618D01*
X87454819Y-42647618D02*
X88454819Y-42076190D01*
X88454819Y-42076190D02*
X87454819Y-42076190D01*
X132545180Y-45972744D02*
X132545180Y-46163220D01*
X132545180Y-46163220D02*
X132497561Y-46258458D01*
X132497561Y-46258458D02*
X132402323Y-46353696D01*
X132402323Y-46353696D02*
X132211847Y-46401315D01*
X132211847Y-46401315D02*
X131878514Y-46401315D01*
X131878514Y-46401315D02*
X131688038Y-46353696D01*
X131688038Y-46353696D02*
X131592800Y-46258458D01*
X131592800Y-46258458D02*
X131545180Y-46163220D01*
X131545180Y-46163220D02*
X131545180Y-45972744D01*
X131545180Y-45972744D02*
X131592800Y-45877506D01*
X131592800Y-45877506D02*
X131688038Y-45782268D01*
X131688038Y-45782268D02*
X131878514Y-45734649D01*
X131878514Y-45734649D02*
X132211847Y-45734649D01*
X132211847Y-45734649D02*
X132402323Y-45782268D01*
X132402323Y-45782268D02*
X132497561Y-45877506D01*
X132497561Y-45877506D02*
X132545180Y-45972744D01*
X132545180Y-46829887D02*
X131735657Y-46829887D01*
X131735657Y-46829887D02*
X131640419Y-46877506D01*
X131640419Y-46877506D02*
X131592800Y-46925125D01*
X131592800Y-46925125D02*
X131545180Y-47020363D01*
X131545180Y-47020363D02*
X131545180Y-47210839D01*
X131545180Y-47210839D02*
X131592800Y-47306077D01*
X131592800Y-47306077D02*
X131640419Y-47353696D01*
X131640419Y-47353696D02*
X131735657Y-47401315D01*
X131735657Y-47401315D02*
X132545180Y-47401315D01*
X132545180Y-47734649D02*
X132545180Y-48306077D01*
X131545180Y-48020363D02*
X132545180Y-48020363D01*
X110833333Y-42859580D02*
X110785714Y-42907200D01*
X110785714Y-42907200D02*
X110642857Y-42954819D01*
X110642857Y-42954819D02*
X110547619Y-42954819D01*
X110547619Y-42954819D02*
X110404762Y-42907200D01*
X110404762Y-42907200D02*
X110309524Y-42811961D01*
X110309524Y-42811961D02*
X110261905Y-42716723D01*
X110261905Y-42716723D02*
X110214286Y-42526247D01*
X110214286Y-42526247D02*
X110214286Y-42383390D01*
X110214286Y-42383390D02*
X110261905Y-42192914D01*
X110261905Y-42192914D02*
X110309524Y-42097676D01*
X110309524Y-42097676D02*
X110404762Y-42002438D01*
X110404762Y-42002438D02*
X110547619Y-41954819D01*
X110547619Y-41954819D02*
X110642857Y-41954819D01*
X110642857Y-41954819D02*
X110785714Y-42002438D01*
X110785714Y-42002438D02*
X110833333Y-42050057D01*
X111166667Y-41954819D02*
X111785714Y-41954819D01*
X111785714Y-41954819D02*
X111452381Y-42335771D01*
X111452381Y-42335771D02*
X111595238Y-42335771D01*
X111595238Y-42335771D02*
X111690476Y-42383390D01*
X111690476Y-42383390D02*
X111738095Y-42431009D01*
X111738095Y-42431009D02*
X111785714Y-42526247D01*
X111785714Y-42526247D02*
X111785714Y-42764342D01*
X111785714Y-42764342D02*
X111738095Y-42859580D01*
X111738095Y-42859580D02*
X111690476Y-42907200D01*
X111690476Y-42907200D02*
X111595238Y-42954819D01*
X111595238Y-42954819D02*
X111309524Y-42954819D01*
X111309524Y-42954819D02*
X111214286Y-42907200D01*
X111214286Y-42907200D02*
X111166667Y-42859580D01*
X122833333Y-50454819D02*
X122357143Y-50454819D01*
X122357143Y-50454819D02*
X122357143Y-49454819D01*
X123119048Y-49550057D02*
X123166667Y-49502438D01*
X123166667Y-49502438D02*
X123261905Y-49454819D01*
X123261905Y-49454819D02*
X123500000Y-49454819D01*
X123500000Y-49454819D02*
X123595238Y-49502438D01*
X123595238Y-49502438D02*
X123642857Y-49550057D01*
X123642857Y-49550057D02*
X123690476Y-49645295D01*
X123690476Y-49645295D02*
X123690476Y-49740533D01*
X123690476Y-49740533D02*
X123642857Y-49883390D01*
X123642857Y-49883390D02*
X123071429Y-50454819D01*
X123071429Y-50454819D02*
X123690476Y-50454819D01*
X106333333Y-42859580D02*
X106285714Y-42907200D01*
X106285714Y-42907200D02*
X106142857Y-42954819D01*
X106142857Y-42954819D02*
X106047619Y-42954819D01*
X106047619Y-42954819D02*
X105904762Y-42907200D01*
X105904762Y-42907200D02*
X105809524Y-42811961D01*
X105809524Y-42811961D02*
X105761905Y-42716723D01*
X105761905Y-42716723D02*
X105714286Y-42526247D01*
X105714286Y-42526247D02*
X105714286Y-42383390D01*
X105714286Y-42383390D02*
X105761905Y-42192914D01*
X105761905Y-42192914D02*
X105809524Y-42097676D01*
X105809524Y-42097676D02*
X105904762Y-42002438D01*
X105904762Y-42002438D02*
X106047619Y-41954819D01*
X106047619Y-41954819D02*
X106142857Y-41954819D01*
X106142857Y-41954819D02*
X106285714Y-42002438D01*
X106285714Y-42002438D02*
X106333333Y-42050057D01*
X106714286Y-42050057D02*
X106761905Y-42002438D01*
X106761905Y-42002438D02*
X106857143Y-41954819D01*
X106857143Y-41954819D02*
X107095238Y-41954819D01*
X107095238Y-41954819D02*
X107190476Y-42002438D01*
X107190476Y-42002438D02*
X107238095Y-42050057D01*
X107238095Y-42050057D02*
X107285714Y-42145295D01*
X107285714Y-42145295D02*
X107285714Y-42240533D01*
X107285714Y-42240533D02*
X107238095Y-42383390D01*
X107238095Y-42383390D02*
X106666667Y-42954819D01*
X106666667Y-42954819D02*
X107285714Y-42954819D01*
X85454819Y-46333333D02*
X86169104Y-46333333D01*
X86169104Y-46333333D02*
X86311961Y-46380952D01*
X86311961Y-46380952D02*
X86407200Y-46476190D01*
X86407200Y-46476190D02*
X86454819Y-46619047D01*
X86454819Y-46619047D02*
X86454819Y-46714285D01*
X86454819Y-45333333D02*
X86454819Y-45904761D01*
X86454819Y-45619047D02*
X85454819Y-45619047D01*
X85454819Y-45619047D02*
X85597676Y-45714285D01*
X85597676Y-45714285D02*
X85692914Y-45809523D01*
X85692914Y-45809523D02*
X85740533Y-45904761D01*
X98833333Y-49954819D02*
X98357143Y-49954819D01*
X98357143Y-49954819D02*
X98357143Y-48954819D01*
X99690476Y-49954819D02*
X99119048Y-49954819D01*
X99404762Y-49954819D02*
X99404762Y-48954819D01*
X99404762Y-48954819D02*
X99309524Y-49097676D01*
X99309524Y-49097676D02*
X99214286Y-49192914D01*
X99214286Y-49192914D02*
X99119048Y-49240533D01*
X129333333Y-41984580D02*
X129285714Y-42032200D01*
X129285714Y-42032200D02*
X129142857Y-42079819D01*
X129142857Y-42079819D02*
X129047619Y-42079819D01*
X129047619Y-42079819D02*
X128904762Y-42032200D01*
X128904762Y-42032200D02*
X128809524Y-41936961D01*
X128809524Y-41936961D02*
X128761905Y-41841723D01*
X128761905Y-41841723D02*
X128714286Y-41651247D01*
X128714286Y-41651247D02*
X128714286Y-41508390D01*
X128714286Y-41508390D02*
X128761905Y-41317914D01*
X128761905Y-41317914D02*
X128809524Y-41222676D01*
X128809524Y-41222676D02*
X128904762Y-41127438D01*
X128904762Y-41127438D02*
X129047619Y-41079819D01*
X129047619Y-41079819D02*
X129142857Y-41079819D01*
X129142857Y-41079819D02*
X129285714Y-41127438D01*
X129285714Y-41127438D02*
X129333333Y-41175057D01*
X130238095Y-41079819D02*
X129761905Y-41079819D01*
X129761905Y-41079819D02*
X129714286Y-41556009D01*
X129714286Y-41556009D02*
X129761905Y-41508390D01*
X129761905Y-41508390D02*
X129857143Y-41460771D01*
X129857143Y-41460771D02*
X130095238Y-41460771D01*
X130095238Y-41460771D02*
X130190476Y-41508390D01*
X130190476Y-41508390D02*
X130238095Y-41556009D01*
X130238095Y-41556009D02*
X130285714Y-41651247D01*
X130285714Y-41651247D02*
X130285714Y-41889342D01*
X130285714Y-41889342D02*
X130238095Y-41984580D01*
X130238095Y-41984580D02*
X130190476Y-42032200D01*
X130190476Y-42032200D02*
X130095238Y-42079819D01*
X130095238Y-42079819D02*
X129857143Y-42079819D01*
X129857143Y-42079819D02*
X129761905Y-42032200D01*
X129761905Y-42032200D02*
X129714286Y-41984580D01*
X134545180Y-42666666D02*
X133830895Y-42666666D01*
X133830895Y-42666666D02*
X133688038Y-42619047D01*
X133688038Y-42619047D02*
X133592800Y-42523809D01*
X133592800Y-42523809D02*
X133545180Y-42380952D01*
X133545180Y-42380952D02*
X133545180Y-42285714D01*
X134449942Y-43095238D02*
X134497561Y-43142857D01*
X134497561Y-43142857D02*
X134545180Y-43238095D01*
X134545180Y-43238095D02*
X134545180Y-43476190D01*
X134545180Y-43476190D02*
X134497561Y-43571428D01*
X134497561Y-43571428D02*
X134449942Y-43619047D01*
X134449942Y-43619047D02*
X134354704Y-43666666D01*
X134354704Y-43666666D02*
X134259466Y-43666666D01*
X134259466Y-43666666D02*
X134116609Y-43619047D01*
X134116609Y-43619047D02*
X133545180Y-43047619D01*
X133545180Y-43047619D02*
X133545180Y-43666666D01*
X91333333Y-43359580D02*
X91285714Y-43407200D01*
X91285714Y-43407200D02*
X91142857Y-43454819D01*
X91142857Y-43454819D02*
X91047619Y-43454819D01*
X91047619Y-43454819D02*
X90904762Y-43407200D01*
X90904762Y-43407200D02*
X90809524Y-43311961D01*
X90809524Y-43311961D02*
X90761905Y-43216723D01*
X90761905Y-43216723D02*
X90714286Y-43026247D01*
X90714286Y-43026247D02*
X90714286Y-42883390D01*
X90714286Y-42883390D02*
X90761905Y-42692914D01*
X90761905Y-42692914D02*
X90809524Y-42597676D01*
X90809524Y-42597676D02*
X90904762Y-42502438D01*
X90904762Y-42502438D02*
X91047619Y-42454819D01*
X91047619Y-42454819D02*
X91142857Y-42454819D01*
X91142857Y-42454819D02*
X91285714Y-42502438D01*
X91285714Y-42502438D02*
X91333333Y-42550057D01*
X92285714Y-43454819D02*
X91714286Y-43454819D01*
X92000000Y-43454819D02*
X92000000Y-42454819D01*
X92000000Y-42454819D02*
X91904762Y-42597676D01*
X91904762Y-42597676D02*
X91809524Y-42692914D01*
X91809524Y-42692914D02*
X91714286Y-42740533D01*
X115333333Y-42859580D02*
X115285714Y-42907200D01*
X115285714Y-42907200D02*
X115142857Y-42954819D01*
X115142857Y-42954819D02*
X115047619Y-42954819D01*
X115047619Y-42954819D02*
X114904762Y-42907200D01*
X114904762Y-42907200D02*
X114809524Y-42811961D01*
X114809524Y-42811961D02*
X114761905Y-42716723D01*
X114761905Y-42716723D02*
X114714286Y-42526247D01*
X114714286Y-42526247D02*
X114714286Y-42383390D01*
X114714286Y-42383390D02*
X114761905Y-42192914D01*
X114761905Y-42192914D02*
X114809524Y-42097676D01*
X114809524Y-42097676D02*
X114904762Y-42002438D01*
X114904762Y-42002438D02*
X115047619Y-41954819D01*
X115047619Y-41954819D02*
X115142857Y-41954819D01*
X115142857Y-41954819D02*
X115285714Y-42002438D01*
X115285714Y-42002438D02*
X115333333Y-42050057D01*
X116190476Y-42288152D02*
X116190476Y-42954819D01*
X115952381Y-41907200D02*
X115714286Y-42621485D01*
X115714286Y-42621485D02*
X116333333Y-42621485D01*
%TO.C,Aluminum Box*%
D11*
X71500000Y-35250000D02*
X148500000Y-35250000D01*
X71500000Y-54750000D02*
X148500000Y-54750000D01*
%TO.C,C3*%
D12*
X110490000Y-44859420D02*
X110490000Y-45140580D01*
X111510000Y-44859420D02*
X111510000Y-45140580D01*
%TO.C,L2*%
D13*
X119823800Y-41573673D02*
X119823800Y-47926073D01*
X119823800Y-47926073D02*
X119987605Y-47926073D01*
X119987605Y-41573673D02*
X119823800Y-41573673D01*
X126012395Y-41573673D02*
X126176200Y-41573673D01*
X126176200Y-41573673D02*
X126176200Y-47926073D01*
X126176200Y-47926073D02*
X126012395Y-47926073D01*
%TO.C,C2*%
D12*
X105990000Y-44859420D02*
X105990000Y-45140580D01*
X107010000Y-44859420D02*
X107010000Y-45140580D01*
%TO.C,J1*%
D14*
X48793752Y-38145987D02*
X48793752Y-51354013D01*
X48793752Y-51354013D02*
X62636779Y-51354013D01*
X62636779Y-37637986D02*
X71653797Y-37637986D01*
X62636779Y-37663386D02*
X62636779Y-37637986D01*
X62636779Y-38145987D02*
X48793752Y-38145987D01*
X62636779Y-38145987D02*
X62636779Y-37663386D01*
X62636779Y-51354013D02*
X62636779Y-38145987D01*
X62636779Y-51862014D02*
X62636779Y-51354013D01*
X63500381Y-51836614D02*
X62636779Y-37663386D01*
X64770384Y-51836614D02*
X63906782Y-37663386D01*
X66040386Y-51836614D02*
X65176784Y-37663386D01*
X67310389Y-51836614D02*
X66446787Y-37663386D01*
X68580391Y-51836614D02*
X67716789Y-37663386D01*
X69850394Y-51836614D02*
X68986792Y-37663386D01*
X71120396Y-51836614D02*
X70256795Y-37663386D01*
X71653797Y-51862014D02*
X62636779Y-51862014D01*
X71657861Y-37256985D02*
X71657861Y-52243015D01*
X71657861Y-52243015D02*
X84459995Y-52243015D01*
X84459995Y-37256985D02*
X71657861Y-37256985D01*
X84459995Y-52243015D02*
X84459995Y-37256985D01*
X52857760Y-44750000D02*
G75*
G02*
X51232156Y-44750000I-812802J0D01*
G01*
X51232156Y-44750000D02*
G75*
G02*
X52857760Y-44750000I812802J0D01*
G01*
%TO.C,L1*%
X96000000Y-43079413D02*
X96000000Y-46442786D01*
X102000000Y-43057214D02*
X102000000Y-46420587D01*
%TO.C,C5*%
D12*
X128990000Y-44115580D02*
X128990000Y-43834420D01*
X130010000Y-44115580D02*
X130010000Y-43834420D01*
%TO.C,J2*%
D14*
X135540005Y-37256985D02*
X135540005Y-52243015D01*
X135540005Y-52243015D02*
X148342139Y-52243015D01*
X148342139Y-37256985D02*
X135540005Y-37256985D01*
X148342139Y-52243015D02*
X148342139Y-37256985D01*
X148346203Y-37637986D02*
X157363221Y-37637986D01*
X148879604Y-37663386D02*
X149743205Y-51836614D01*
X150149606Y-37663386D02*
X151013208Y-51836614D01*
X151419609Y-37663386D02*
X152283211Y-51836614D01*
X152689611Y-37663386D02*
X153553213Y-51836614D01*
X153959614Y-37663386D02*
X154823216Y-51836614D01*
X155229616Y-37663386D02*
X156093218Y-51836614D01*
X156499619Y-37663386D02*
X157363221Y-51836614D01*
X157363221Y-37637986D02*
X157363221Y-38145987D01*
X157363221Y-38145987D02*
X157363221Y-51354013D01*
X157363221Y-51354013D02*
X157363221Y-51836614D01*
X157363221Y-51354013D02*
X171206248Y-51354013D01*
X157363221Y-51836614D02*
X157363221Y-51862014D01*
X157363221Y-51862014D02*
X148346203Y-51862014D01*
X171206248Y-38145987D02*
X157363221Y-38145987D01*
X171206248Y-51354013D02*
X171206248Y-38145987D01*
X168767844Y-44750000D02*
G75*
G02*
X167142240Y-44750000I-812802J0D01*
G01*
X167142240Y-44750000D02*
G75*
G02*
X168767844Y-44750000I812802J0D01*
G01*
%TO.C,C1*%
D12*
X90990000Y-45359420D02*
X90990000Y-45640580D01*
X92010000Y-45359420D02*
X92010000Y-45640580D01*
%TO.C,C4*%
X114990000Y-44859420D02*
X114990000Y-45140580D01*
X116010000Y-44859420D02*
X116010000Y-45140580D01*
%TD*%
%LPC*%
D15*
%TO.C,C3*%
X111000000Y-44225000D03*
X111000000Y-45775000D03*
%TD*%
D16*
%TO.C,TH3*%
X91350000Y-51150000D03*
%TD*%
D17*
%TO.C,L2*%
X123000000Y-42250000D03*
X123000000Y-47250000D03*
%TD*%
D16*
%TO.C,TH1*%
X129550000Y-51850000D03*
%TD*%
D15*
%TO.C,C2*%
X106500000Y-44225000D03*
X106500000Y-45775000D03*
%TD*%
D18*
%TO.C,J1*%
X82525019Y-44750000D03*
X82525019Y-47250127D03*
D19*
X77474981Y-49800038D03*
X77474981Y-39699962D03*
%TD*%
D16*
%TO.C,TH2*%
X128800000Y-37750000D03*
%TD*%
D20*
%TO.C,L1*%
X98987300Y-42399987D03*
X99012700Y-47100013D03*
%TD*%
D21*
%TO.C,C5*%
X129500000Y-44750000D03*
X129500000Y-43200000D03*
%TD*%
D18*
%TO.C,J2*%
X137474981Y-44750000D03*
X137474981Y-42249873D03*
D19*
X142525019Y-39699962D03*
X142525019Y-49800038D03*
%TD*%
D15*
%TO.C,C1*%
X91500000Y-44725000D03*
X91500000Y-46275000D03*
%TD*%
%TO.C,C4*%
X115500000Y-44225000D03*
X115500000Y-45775000D03*
%TD*%
%LPD*%
M02*
