%TF.GenerationSoftware,KiCad,Pcbnew,10.0.3*%
%TF.CreationDate,2026-06-27T17:10:59+08:00*%
%TF.ProjectId,LPFilter_1MHz_Elliptical_v0.1,4c504669-6c74-4657-925f-314d487a5f45,rev?*%
%TF.SameCoordinates,Original*%
%TF.FileFunction,Copper,L2,Inr*%
%TF.FilePolarity,Positive*%
%FSLAX46Y46*%
G04 Gerber Fmt 4.6, Leading zero omitted, Abs format (unit mm)*
G04 Created by KiCad (PCBNEW 10.0.3) date 2026-06-27 17:10:59*
%MOMM*%
%LPD*%
G01*
G04 APERTURE LIST*
%TA.AperFunction,ComponentPad*%
%ADD10C,1.600000*%
%TD*%
%TA.AperFunction,ComponentPad*%
%ADD11C,2.600965*%
%TD*%
%TA.AperFunction,ViaPad*%
%ADD12C,0.600000*%
%TD*%
G04 APERTURE END LIST*
D10*
%TO.N,Net-(J1-OUT)*%
%TO.C,J1*%
X82525019Y-44750000D03*
%TO.N,GNDA*%
X82525019Y-47250127D03*
D11*
X77474981Y-49800038D03*
X77474981Y-39699962D03*
%TD*%
D10*
%TO.N,Net-(J2-OUT)*%
%TO.C,J2*%
X137474981Y-44750000D03*
%TO.N,GNDA*%
X137474981Y-42249873D03*
D11*
X142525019Y-39699962D03*
X142525019Y-49800038D03*
%TD*%
D12*
%TO.N,GNDA*%
X91500000Y-48000000D03*
X129500000Y-40500000D03*
X111000000Y-47500000D03*
%TD*%
%TA.AperFunction,Conductor*%
%TO.N,GNDA*%
G36*
X147942539Y-35269685D02*
G01*
X147988294Y-35322489D01*
X147999500Y-35374000D01*
X147999500Y-54626000D01*
X147979815Y-54693039D01*
X147927011Y-54738794D01*
X147875500Y-54750000D01*
X72124500Y-54750000D01*
X72057461Y-54730315D01*
X72011706Y-54677511D01*
X72000500Y-54626000D01*
X72000500Y-49682020D01*
X75674499Y-49682020D01*
X75674499Y-49918055D01*
X75705305Y-50152039D01*
X75705307Y-50152050D01*
X75766390Y-50380019D01*
X75766395Y-50380033D01*
X75856711Y-50598075D01*
X75856713Y-50598079D01*
X75974728Y-50802485D01*
X76037357Y-50884105D01*
X76037358Y-50884105D01*
X76538816Y-50382647D01*
X76636084Y-50516524D01*
X76758495Y-50638935D01*
X76892370Y-50736201D01*
X76390912Y-51237659D01*
X76472540Y-51300294D01*
X76472548Y-51300300D01*
X76676932Y-51418302D01*
X76676943Y-51418307D01*
X76894985Y-51508623D01*
X76894999Y-51508628D01*
X77122968Y-51569711D01*
X77122979Y-51569713D01*
X77356963Y-51600519D01*
X77356978Y-51600520D01*
X77592984Y-51600520D01*
X77592998Y-51600519D01*
X77826982Y-51569713D01*
X77826993Y-51569711D01*
X78017775Y-51518592D01*
X89923500Y-51518592D01*
X89923500Y-51681407D01*
X89955259Y-51841073D01*
X89955262Y-51841082D01*
X90017562Y-51991490D01*
X90017563Y-51991492D01*
X90108015Y-52126862D01*
X90108018Y-52126866D01*
X90223133Y-52241981D01*
X90223137Y-52241984D01*
X90358505Y-52332435D01*
X90358506Y-52332435D01*
X90358507Y-52332436D01*
X90358509Y-52332437D01*
X90388207Y-52344738D01*
X90508919Y-52394738D01*
X90508921Y-52394738D01*
X90508926Y-52394740D01*
X90668592Y-52426499D01*
X90668595Y-52426500D01*
X90668597Y-52426500D01*
X90831405Y-52426500D01*
X90831406Y-52426499D01*
X90884629Y-52415912D01*
X90991073Y-52394740D01*
X90991076Y-52394738D01*
X90991081Y-52394738D01*
X91141495Y-52332435D01*
X91276863Y-52241984D01*
X91391984Y-52126863D01*
X91482435Y-51991495D01*
X91544738Y-51841081D01*
X91554684Y-51791082D01*
X91576499Y-51681407D01*
X91576500Y-51681405D01*
X91576500Y-51518594D01*
X91570155Y-51486697D01*
X91570155Y-51486696D01*
X91566554Y-51468592D01*
X128573500Y-51468592D01*
X128573500Y-51631407D01*
X128605259Y-51791073D01*
X128605262Y-51791082D01*
X128667562Y-51941490D01*
X128667563Y-51941492D01*
X128758015Y-52076862D01*
X128758018Y-52076866D01*
X128873133Y-52191981D01*
X128873137Y-52191984D01*
X129008505Y-52282435D01*
X129008506Y-52282435D01*
X129008507Y-52282436D01*
X129008509Y-52282437D01*
X129108781Y-52323970D01*
X129158919Y-52344738D01*
X129158921Y-52344738D01*
X129158926Y-52344740D01*
X129318592Y-52376499D01*
X129318595Y-52376500D01*
X129318597Y-52376500D01*
X129481405Y-52376500D01*
X129481406Y-52376499D01*
X129534629Y-52365912D01*
X129641073Y-52344740D01*
X129641076Y-52344738D01*
X129641081Y-52344738D01*
X129791495Y-52282435D01*
X129926863Y-52191984D01*
X130041984Y-52076863D01*
X130132435Y-51941495D01*
X130194738Y-51791081D01*
X130226500Y-51631403D01*
X130226500Y-51468597D01*
X130226500Y-51468594D01*
X130226499Y-51468592D01*
X130194740Y-51308926D01*
X130194738Y-51308921D01*
X130194738Y-51308919D01*
X130132435Y-51158505D01*
X130041984Y-51023137D01*
X130041981Y-51023133D01*
X129926866Y-50908018D01*
X129926862Y-50908015D01*
X129791492Y-50817563D01*
X129791490Y-50817562D01*
X129641082Y-50755262D01*
X129641073Y-50755259D01*
X129481406Y-50723500D01*
X129481403Y-50723500D01*
X129318597Y-50723500D01*
X129318594Y-50723500D01*
X129158926Y-50755259D01*
X129158917Y-50755262D01*
X129008509Y-50817562D01*
X129008507Y-50817563D01*
X128873137Y-50908015D01*
X128873133Y-50908018D01*
X128758018Y-51023133D01*
X128758015Y-51023137D01*
X128667563Y-51158507D01*
X128667562Y-51158509D01*
X128605262Y-51308917D01*
X128605259Y-51308926D01*
X128573500Y-51468592D01*
X91566554Y-51468592D01*
X91544740Y-51358926D01*
X91544737Y-51358917D01*
X91482437Y-51208509D01*
X91482436Y-51208507D01*
X91449025Y-51158505D01*
X91391984Y-51073137D01*
X91391981Y-51073133D01*
X91276866Y-50958018D01*
X91276862Y-50958015D01*
X91141492Y-50867563D01*
X91141490Y-50867562D01*
X90991082Y-50805262D01*
X90991073Y-50805259D01*
X90831406Y-50773500D01*
X90831403Y-50773500D01*
X90668597Y-50773500D01*
X90668594Y-50773500D01*
X90508926Y-50805259D01*
X90508917Y-50805262D01*
X90358509Y-50867562D01*
X90358507Y-50867563D01*
X90223137Y-50958015D01*
X90223133Y-50958018D01*
X90108018Y-51073133D01*
X90108015Y-51073137D01*
X90017563Y-51208507D01*
X90017562Y-51208509D01*
X89955262Y-51358917D01*
X89955259Y-51358926D01*
X89923500Y-51518592D01*
X78017775Y-51518592D01*
X78054962Y-51508628D01*
X78054976Y-51508623D01*
X78273018Y-51418307D01*
X78273022Y-51418305D01*
X78295864Y-51405118D01*
X78295865Y-51405117D01*
X78477413Y-51300300D01*
X78477431Y-51300288D01*
X78559048Y-51237660D01*
X78559048Y-51237658D01*
X78057590Y-50736201D01*
X78191467Y-50638935D01*
X78313878Y-50516524D01*
X78411144Y-50382647D01*
X78912601Y-50884105D01*
X78912603Y-50884105D01*
X78975231Y-50802488D01*
X78975243Y-50802470D01*
X79093245Y-50598086D01*
X79093250Y-50598075D01*
X79183566Y-50380033D01*
X79183571Y-50380019D01*
X79244654Y-50152050D01*
X79244656Y-50152039D01*
X79275462Y-49918055D01*
X79275463Y-49918041D01*
X79275463Y-49682034D01*
X79275462Y-49682020D01*
X140724537Y-49682020D01*
X140724537Y-49918055D01*
X140755343Y-50152039D01*
X140755345Y-50152050D01*
X140816428Y-50380019D01*
X140816433Y-50380033D01*
X140906749Y-50598075D01*
X140906751Y-50598079D01*
X141024766Y-50802485D01*
X141087395Y-50884105D01*
X141087396Y-50884105D01*
X141588854Y-50382647D01*
X141686122Y-50516524D01*
X141808533Y-50638935D01*
X141942408Y-50736201D01*
X141440950Y-51237659D01*
X141522578Y-51300294D01*
X141522586Y-51300300D01*
X141726970Y-51418302D01*
X141726981Y-51418307D01*
X141945023Y-51508623D01*
X141945037Y-51508628D01*
X142173006Y-51569711D01*
X142173017Y-51569713D01*
X142407001Y-51600519D01*
X142407016Y-51600520D01*
X142643022Y-51600520D01*
X142643036Y-51600519D01*
X142877020Y-51569713D01*
X142877031Y-51569711D01*
X143105000Y-51508628D01*
X143105014Y-51508623D01*
X143323056Y-51418307D01*
X143323067Y-51418302D01*
X143527451Y-51300300D01*
X143527469Y-51300288D01*
X143609086Y-51237660D01*
X143609086Y-51237658D01*
X143107628Y-50736201D01*
X143241505Y-50638935D01*
X143363916Y-50516524D01*
X143461182Y-50382647D01*
X143962639Y-50884105D01*
X143962641Y-50884105D01*
X144025269Y-50802488D01*
X144025281Y-50802470D01*
X144143283Y-50598086D01*
X144143288Y-50598075D01*
X144233604Y-50380033D01*
X144233609Y-50380019D01*
X144294692Y-50152050D01*
X144294694Y-50152039D01*
X144325500Y-49918055D01*
X144325501Y-49918041D01*
X144325501Y-49682034D01*
X144325500Y-49682020D01*
X144294694Y-49448036D01*
X144294692Y-49448025D01*
X144233609Y-49220056D01*
X144233604Y-49220042D01*
X144143288Y-49002000D01*
X144143283Y-49001989D01*
X144025281Y-48797605D01*
X144025275Y-48797597D01*
X143962640Y-48715969D01*
X143461182Y-49217427D01*
X143363916Y-49083552D01*
X143241505Y-48961141D01*
X143107628Y-48863874D01*
X143609086Y-48362415D01*
X143609086Y-48362414D01*
X143527466Y-48299785D01*
X143323060Y-48181770D01*
X143323056Y-48181768D01*
X143105014Y-48091452D01*
X143105000Y-48091447D01*
X142877031Y-48030364D01*
X142877020Y-48030362D01*
X142643036Y-47999556D01*
X142407001Y-47999556D01*
X142173017Y-48030362D01*
X142173006Y-48030364D01*
X141945037Y-48091447D01*
X141945023Y-48091452D01*
X141726981Y-48181768D01*
X141726970Y-48181773D01*
X141522588Y-48299773D01*
X141522581Y-48299779D01*
X141440950Y-48362414D01*
X141440950Y-48362415D01*
X141942409Y-48863874D01*
X141808533Y-48961141D01*
X141686122Y-49083552D01*
X141588855Y-49217428D01*
X141087396Y-48715969D01*
X141087395Y-48715969D01*
X141024760Y-48797600D01*
X141024754Y-48797607D01*
X140906754Y-49001989D01*
X140906749Y-49002000D01*
X140816433Y-49220042D01*
X140816428Y-49220056D01*
X140755345Y-49448025D01*
X140755343Y-49448036D01*
X140724537Y-49682020D01*
X79275462Y-49682020D01*
X79244656Y-49448036D01*
X79244654Y-49448025D01*
X79183571Y-49220056D01*
X79183566Y-49220042D01*
X79093250Y-49002000D01*
X79093245Y-49001989D01*
X78975243Y-48797605D01*
X78975237Y-48797597D01*
X78912602Y-48715969D01*
X78411144Y-49217427D01*
X78313878Y-49083552D01*
X78191467Y-48961141D01*
X78057590Y-48863874D01*
X78559048Y-48362415D01*
X78559048Y-48362413D01*
X78477428Y-48299785D01*
X78273022Y-48181770D01*
X78273018Y-48181768D01*
X78054976Y-48091452D01*
X78054962Y-48091447D01*
X77826993Y-48030364D01*
X77826982Y-48030362D01*
X77592998Y-47999556D01*
X77356963Y-47999556D01*
X77122979Y-48030362D01*
X77122968Y-48030364D01*
X76894999Y-48091447D01*
X76894985Y-48091452D01*
X76676943Y-48181768D01*
X76676932Y-48181773D01*
X76472550Y-48299773D01*
X76472543Y-48299779D01*
X76390912Y-48362414D01*
X76390912Y-48362415D01*
X76892371Y-48863874D01*
X76758495Y-48961141D01*
X76636084Y-49083552D01*
X76538817Y-49217428D01*
X76037358Y-48715969D01*
X76037357Y-48715969D01*
X75974722Y-48797600D01*
X75974716Y-48797607D01*
X75856716Y-49001989D01*
X75856711Y-49002000D01*
X75766395Y-49220042D01*
X75766390Y-49220056D01*
X75705307Y-49448025D01*
X75705305Y-49448036D01*
X75674499Y-49682020D01*
X72000500Y-49682020D01*
X72000500Y-47147809D01*
X81225019Y-47147809D01*
X81225019Y-47352444D01*
X81257028Y-47554544D01*
X81320263Y-47749158D01*
X81413160Y-47931477D01*
X81413166Y-47931486D01*
X81445542Y-47976048D01*
X81445543Y-47976049D01*
X82042056Y-47379536D01*
X82059094Y-47443120D01*
X82124920Y-47557134D01*
X82218012Y-47650226D01*
X82332026Y-47716052D01*
X82395609Y-47733089D01*
X81799095Y-48329601D01*
X81843669Y-48361986D01*
X82025987Y-48454882D01*
X82220601Y-48518117D01*
X82422702Y-48550127D01*
X82627336Y-48550127D01*
X82829436Y-48518117D01*
X83024050Y-48454882D01*
X83206368Y-48361986D01*
X83250940Y-48329601D01*
X82654428Y-47733089D01*
X82718012Y-47716052D01*
X82832026Y-47650226D01*
X82925118Y-47557134D01*
X82990944Y-47443120D01*
X83007981Y-47379536D01*
X83604493Y-47976048D01*
X83636878Y-47931476D01*
X83729774Y-47749158D01*
X83793009Y-47554544D01*
X83825019Y-47352444D01*
X83825019Y-47147809D01*
X83793009Y-46945709D01*
X83729774Y-46751095D01*
X83636878Y-46568777D01*
X83604493Y-46524204D01*
X83604493Y-46524203D01*
X83007981Y-47120716D01*
X82990944Y-47057134D01*
X82925118Y-46943120D01*
X82832026Y-46850028D01*
X82718012Y-46784202D01*
X82654427Y-46767164D01*
X83250941Y-46170651D01*
X83250940Y-46170650D01*
X83206378Y-46138274D01*
X83206369Y-46138268D01*
X83042382Y-46054712D01*
X82991586Y-46006737D01*
X82974791Y-45938916D01*
X82997329Y-45872781D01*
X83042381Y-45833743D01*
X83154218Y-45776760D01*
X83307092Y-45665690D01*
X83440709Y-45532073D01*
X83551779Y-45379199D01*
X83637566Y-45210832D01*
X83695959Y-45031118D01*
X83725519Y-44844486D01*
X83725519Y-44655513D01*
X83695959Y-44468881D01*
X83637564Y-44289163D01*
X83551778Y-44120800D01*
X83440709Y-43967927D01*
X83307092Y-43834310D01*
X83154218Y-43723240D01*
X82985855Y-43637454D01*
X82806137Y-43579059D01*
X82619505Y-43549500D01*
X82619500Y-43549500D01*
X82430538Y-43549500D01*
X82430533Y-43549500D01*
X82243900Y-43579059D01*
X82064182Y-43637454D01*
X81895819Y-43723240D01*
X81808598Y-43786610D01*
X81742946Y-43834310D01*
X81742944Y-43834312D01*
X81742943Y-43834312D01*
X81609331Y-43967924D01*
X81609331Y-43967925D01*
X81609329Y-43967927D01*
X81561629Y-44033579D01*
X81498259Y-44120800D01*
X81412473Y-44289163D01*
X81354078Y-44468881D01*
X81324519Y-44655513D01*
X81324519Y-44844486D01*
X81354078Y-45031118D01*
X81412473Y-45210836D01*
X81498259Y-45379199D01*
X81609329Y-45532073D01*
X81742946Y-45665690D01*
X81857601Y-45748992D01*
X81895821Y-45776761D01*
X82007654Y-45833742D01*
X82058451Y-45881716D01*
X82075246Y-45949537D01*
X82052709Y-46015672D01*
X82007655Y-46054712D01*
X81843663Y-46138270D01*
X81799096Y-46170650D01*
X81799096Y-46170651D01*
X82395610Y-46767164D01*
X82332026Y-46784202D01*
X82218012Y-46850028D01*
X82124920Y-46943120D01*
X82059094Y-47057134D01*
X82042056Y-47120717D01*
X81445543Y-46524204D01*
X81445542Y-46524204D01*
X81413162Y-46568771D01*
X81320263Y-46751095D01*
X81257028Y-46945709D01*
X81225019Y-47147809D01*
X72000500Y-47147809D01*
X72000500Y-42147555D01*
X136174981Y-42147555D01*
X136174981Y-42352190D01*
X136206990Y-42554290D01*
X136270225Y-42748904D01*
X136363122Y-42931223D01*
X136363128Y-42931232D01*
X136395504Y-42975794D01*
X136395505Y-42975795D01*
X136992018Y-42379282D01*
X137009056Y-42442866D01*
X137074882Y-42556880D01*
X137167974Y-42649972D01*
X137281988Y-42715798D01*
X137345571Y-42732835D01*
X136749057Y-43329347D01*
X136793631Y-43361732D01*
X136957617Y-43445287D01*
X137008413Y-43493261D01*
X137025208Y-43561082D01*
X137002671Y-43627217D01*
X136957617Y-43666257D01*
X136845781Y-43723240D01*
X136758560Y-43786610D01*
X136692908Y-43834310D01*
X136692906Y-43834312D01*
X136692905Y-43834312D01*
X136559293Y-43967924D01*
X136559293Y-43967925D01*
X136559291Y-43967927D01*
X136511591Y-44033579D01*
X136448221Y-44120800D01*
X136362435Y-44289163D01*
X136304040Y-44468881D01*
X136274481Y-44655513D01*
X136274481Y-44844486D01*
X136304040Y-45031118D01*
X136362435Y-45210836D01*
X136448221Y-45379199D01*
X136559291Y-45532073D01*
X136692908Y-45665690D01*
X136845782Y-45776760D01*
X136925328Y-45817290D01*
X137014144Y-45862545D01*
X137014146Y-45862545D01*
X137014149Y-45862547D01*
X137073145Y-45881716D01*
X137193862Y-45920940D01*
X137380495Y-45950500D01*
X137380500Y-45950500D01*
X137569467Y-45950500D01*
X137756099Y-45920940D01*
X137935813Y-45862547D01*
X138104180Y-45776760D01*
X138257054Y-45665690D01*
X138390671Y-45532073D01*
X138501741Y-45379199D01*
X138587528Y-45210832D01*
X138645921Y-45031118D01*
X138675481Y-44844486D01*
X138675481Y-44655513D01*
X138645921Y-44468881D01*
X138587526Y-44289163D01*
X138501740Y-44120800D01*
X138390671Y-43967927D01*
X138257054Y-43834310D01*
X138104180Y-43723240D01*
X137992343Y-43666256D01*
X137941548Y-43618283D01*
X137924753Y-43550462D01*
X137947290Y-43484327D01*
X137992345Y-43445287D01*
X138156327Y-43361734D01*
X138156328Y-43361734D01*
X138200902Y-43329347D01*
X137604390Y-42732835D01*
X137667974Y-42715798D01*
X137781988Y-42649972D01*
X137875080Y-42556880D01*
X137940906Y-42442866D01*
X137957943Y-42379282D01*
X138554455Y-42975794D01*
X138586840Y-42931222D01*
X138679736Y-42748904D01*
X138742971Y-42554290D01*
X138774981Y-42352190D01*
X138774981Y-42147555D01*
X138742971Y-41945455D01*
X138679736Y-41750841D01*
X138586840Y-41568523D01*
X138554455Y-41523950D01*
X138554455Y-41523949D01*
X137957943Y-42120462D01*
X137940906Y-42056880D01*
X137875080Y-41942866D01*
X137781988Y-41849774D01*
X137667974Y-41783948D01*
X137604389Y-41766910D01*
X138200903Y-41170397D01*
X138200902Y-41170396D01*
X138156340Y-41138020D01*
X138156331Y-41138014D01*
X137974012Y-41045117D01*
X137779398Y-40981882D01*
X137577298Y-40949873D01*
X137372664Y-40949873D01*
X137170563Y-40981882D01*
X136975949Y-41045117D01*
X136793625Y-41138016D01*
X136749058Y-41170396D01*
X136749058Y-41170397D01*
X137345572Y-41766910D01*
X137281988Y-41783948D01*
X137167974Y-41849774D01*
X137074882Y-41942866D01*
X137009056Y-42056880D01*
X136992018Y-42120463D01*
X136395505Y-41523950D01*
X136395504Y-41523950D01*
X136363124Y-41568517D01*
X136270225Y-41750841D01*
X136206990Y-41945455D01*
X136174981Y-42147555D01*
X72000500Y-42147555D01*
X72000500Y-39581944D01*
X75674499Y-39581944D01*
X75674499Y-39817979D01*
X75705305Y-40051963D01*
X75705307Y-40051974D01*
X75766390Y-40279943D01*
X75766395Y-40279957D01*
X75856711Y-40497999D01*
X75856713Y-40498003D01*
X75974728Y-40702409D01*
X76037357Y-40784029D01*
X76037358Y-40784029D01*
X76538816Y-40282571D01*
X76636084Y-40416448D01*
X76758495Y-40538859D01*
X76892370Y-40636125D01*
X76390912Y-41137583D01*
X76472540Y-41200218D01*
X76472548Y-41200224D01*
X76676932Y-41318226D01*
X76676943Y-41318231D01*
X76894985Y-41408547D01*
X76894999Y-41408552D01*
X77122968Y-41469635D01*
X77122979Y-41469637D01*
X77356963Y-41500443D01*
X77356978Y-41500444D01*
X77592984Y-41500444D01*
X77592998Y-41500443D01*
X77826982Y-41469637D01*
X77826993Y-41469635D01*
X78054962Y-41408552D01*
X78054976Y-41408547D01*
X78273018Y-41318231D01*
X78273029Y-41318226D01*
X78477413Y-41200224D01*
X78477431Y-41200212D01*
X78559048Y-41137584D01*
X78559048Y-41137582D01*
X78057590Y-40636125D01*
X78191467Y-40538859D01*
X78313878Y-40416448D01*
X78411144Y-40282571D01*
X78912601Y-40784029D01*
X78912603Y-40784029D01*
X78975231Y-40702412D01*
X78975243Y-40702394D01*
X79093245Y-40498010D01*
X79093250Y-40497999D01*
X79183566Y-40279957D01*
X79183571Y-40279943D01*
X79244654Y-40051974D01*
X79244656Y-40051963D01*
X79275462Y-39817979D01*
X79275463Y-39817965D01*
X79275463Y-39581958D01*
X79275462Y-39581944D01*
X140724537Y-39581944D01*
X140724537Y-39817979D01*
X140755343Y-40051963D01*
X140755345Y-40051974D01*
X140816428Y-40279943D01*
X140816433Y-40279957D01*
X140906749Y-40497999D01*
X140906751Y-40498003D01*
X141024766Y-40702409D01*
X141087395Y-40784029D01*
X141087396Y-40784029D01*
X141588854Y-40282571D01*
X141686122Y-40416448D01*
X141808533Y-40538859D01*
X141942408Y-40636125D01*
X141440950Y-41137583D01*
X141522578Y-41200218D01*
X141522586Y-41200224D01*
X141726970Y-41318226D01*
X141726981Y-41318231D01*
X141945023Y-41408547D01*
X141945037Y-41408552D01*
X142173006Y-41469635D01*
X142173017Y-41469637D01*
X142407001Y-41500443D01*
X142407016Y-41500444D01*
X142643022Y-41500444D01*
X142643036Y-41500443D01*
X142877020Y-41469637D01*
X142877031Y-41469635D01*
X143105000Y-41408552D01*
X143105014Y-41408547D01*
X143323056Y-41318231D01*
X143323067Y-41318226D01*
X143527451Y-41200224D01*
X143527469Y-41200212D01*
X143609086Y-41137584D01*
X143609086Y-41137582D01*
X143107628Y-40636125D01*
X143241505Y-40538859D01*
X143363916Y-40416448D01*
X143461182Y-40282571D01*
X143962639Y-40784029D01*
X143962641Y-40784029D01*
X144025269Y-40702412D01*
X144025281Y-40702394D01*
X144143283Y-40498010D01*
X144143288Y-40497999D01*
X144233604Y-40279957D01*
X144233609Y-40279943D01*
X144294692Y-40051974D01*
X144294694Y-40051963D01*
X144325500Y-39817979D01*
X144325501Y-39817965D01*
X144325501Y-39581958D01*
X144325500Y-39581944D01*
X144294694Y-39347960D01*
X144294692Y-39347949D01*
X144233609Y-39119980D01*
X144233604Y-39119966D01*
X144143288Y-38901924D01*
X144143283Y-38901913D01*
X144025281Y-38697529D01*
X144025275Y-38697521D01*
X143962640Y-38615893D01*
X143461182Y-39117351D01*
X143363916Y-38983476D01*
X143241505Y-38861065D01*
X143107628Y-38763798D01*
X143609086Y-38262339D01*
X143609086Y-38262338D01*
X143527466Y-38199709D01*
X143323060Y-38081694D01*
X143323056Y-38081692D01*
X143105014Y-37991376D01*
X143105000Y-37991371D01*
X142877031Y-37930288D01*
X142877020Y-37930286D01*
X142643036Y-37899480D01*
X142407001Y-37899480D01*
X142173017Y-37930286D01*
X142173006Y-37930288D01*
X141945037Y-37991371D01*
X141945023Y-37991376D01*
X141726981Y-38081692D01*
X141726970Y-38081697D01*
X141522588Y-38199697D01*
X141522581Y-38199703D01*
X141440950Y-38262338D01*
X141440950Y-38262339D01*
X141942409Y-38763798D01*
X141808533Y-38861065D01*
X141686122Y-38983476D01*
X141588855Y-39117352D01*
X141087396Y-38615893D01*
X141087395Y-38615893D01*
X141024760Y-38697524D01*
X141024754Y-38697531D01*
X140906754Y-38901913D01*
X140906749Y-38901924D01*
X140816433Y-39119966D01*
X140816428Y-39119980D01*
X140755345Y-39347949D01*
X140755343Y-39347960D01*
X140724537Y-39581944D01*
X79275462Y-39581944D01*
X79244656Y-39347960D01*
X79244654Y-39347949D01*
X79183571Y-39119980D01*
X79183566Y-39119966D01*
X79093250Y-38901924D01*
X79093245Y-38901913D01*
X78975243Y-38697529D01*
X78975237Y-38697521D01*
X78912602Y-38615893D01*
X78411144Y-39117351D01*
X78313878Y-38983476D01*
X78191467Y-38861065D01*
X78057590Y-38763798D01*
X78559048Y-38262339D01*
X78559048Y-38262338D01*
X78477428Y-38199709D01*
X78273022Y-38081694D01*
X78273018Y-38081692D01*
X78054976Y-37991376D01*
X78054962Y-37991371D01*
X77826993Y-37930288D01*
X77826982Y-37930286D01*
X77592998Y-37899480D01*
X77356963Y-37899480D01*
X77122979Y-37930286D01*
X77122968Y-37930288D01*
X76894999Y-37991371D01*
X76894985Y-37991376D01*
X76676943Y-38081692D01*
X76676932Y-38081697D01*
X76472550Y-38199697D01*
X76472543Y-38199703D01*
X76390912Y-38262338D01*
X76390912Y-38262339D01*
X76892371Y-38763798D01*
X76758495Y-38861065D01*
X76636084Y-38983476D01*
X76538817Y-39117352D01*
X76037358Y-38615893D01*
X76037357Y-38615893D01*
X75974722Y-38697524D01*
X75974716Y-38697531D01*
X75856716Y-38901913D01*
X75856711Y-38901924D01*
X75766395Y-39119966D01*
X75766390Y-39119980D01*
X75705307Y-39347949D01*
X75705305Y-39347960D01*
X75674499Y-39581944D01*
X72000500Y-39581944D01*
X72000500Y-37318592D01*
X111773500Y-37318592D01*
X111773500Y-37481407D01*
X111805259Y-37641073D01*
X111805262Y-37641082D01*
X111867562Y-37791490D01*
X111867563Y-37791492D01*
X111958015Y-37926862D01*
X111958018Y-37926866D01*
X112073133Y-38041981D01*
X112073137Y-38041984D01*
X112208505Y-38132435D01*
X112208506Y-38132435D01*
X112208507Y-38132436D01*
X112208509Y-38132437D01*
X112308781Y-38173970D01*
X112358919Y-38194738D01*
X112358921Y-38194738D01*
X112358926Y-38194740D01*
X112518592Y-38226499D01*
X112518595Y-38226500D01*
X112518597Y-38226500D01*
X112681405Y-38226500D01*
X112681406Y-38226499D01*
X112734629Y-38215912D01*
X112841073Y-38194740D01*
X112841075Y-38194739D01*
X112841081Y-38194738D01*
X112991495Y-38132435D01*
X113126863Y-38041984D01*
X113241984Y-37926863D01*
X113332435Y-37791495D01*
X113394738Y-37641081D01*
X113426500Y-37481403D01*
X113426500Y-37318597D01*
X113426500Y-37318594D01*
X113426499Y-37318592D01*
X113394740Y-37158926D01*
X113394737Y-37158917D01*
X113332437Y-37008509D01*
X113332436Y-37008507D01*
X113241984Y-36873137D01*
X113241981Y-36873133D01*
X113126866Y-36758018D01*
X113126862Y-36758015D01*
X112991492Y-36667563D01*
X112991490Y-36667562D01*
X112841082Y-36605262D01*
X112841073Y-36605259D01*
X112681406Y-36573500D01*
X112681403Y-36573500D01*
X112518597Y-36573500D01*
X112518594Y-36573500D01*
X112358926Y-36605259D01*
X112358917Y-36605262D01*
X112208509Y-36667562D01*
X112208507Y-36667563D01*
X112073137Y-36758015D01*
X112073133Y-36758018D01*
X111958018Y-36873133D01*
X111958015Y-36873137D01*
X111867563Y-37008507D01*
X111867562Y-37008509D01*
X111805262Y-37158917D01*
X111805259Y-37158926D01*
X111773500Y-37318592D01*
X72000500Y-37318592D01*
X72000500Y-35374000D01*
X72020185Y-35306961D01*
X72072989Y-35261206D01*
X72124500Y-35250000D01*
X147875500Y-35250000D01*
X147942539Y-35269685D01*
G37*
%TD.AperFunction*%
%TD*%
M02*
