%TF.GenerationSoftware,KiCad,Pcbnew,10.0.3*%
%TF.CreationDate,2026-06-27T17:10:59+08:00*%
%TF.ProjectId,LPFilter_1MHz_Elliptical_v0.1,4c504669-6c74-4657-925f-314d487a5f45,rev?*%
%TF.SameCoordinates,Original*%
%TF.FileFunction,Legend,Bot*%
%TF.FilePolarity,Positive*%
%FSLAX46Y46*%
G04 Gerber Fmt 4.6, Leading zero omitted, Abs format (unit mm)*
G04 Created by KiCad (PCBNEW 10.0.3) date 2026-06-27 17:10:59*
%MOMM*%
%LPD*%
G01*
G04 APERTURE LIST*
%ADD10C,0.300000*%
%ADD11C,0.000000*%
%ADD12C,1.448000*%
%ADD13C,1.600000*%
%ADD14C,2.600965*%
G04 APERTURE END LIST*
D10*
X132445489Y-40020366D02*
X131945489Y-40020366D01*
X131731203Y-40806080D02*
X132445489Y-40806080D01*
X132445489Y-40806080D02*
X132445489Y-39306080D01*
X132445489Y-39306080D02*
X131731203Y-39306080D01*
X130874060Y-40806080D02*
X131016917Y-40734652D01*
X131016917Y-40734652D02*
X131088346Y-40591794D01*
X131088346Y-40591794D02*
X131088346Y-39306080D01*
X130088346Y-40806080D02*
X130231203Y-40734652D01*
X130231203Y-40734652D02*
X130302632Y-40591794D01*
X130302632Y-40591794D02*
X130302632Y-39306080D01*
X129516918Y-40806080D02*
X129516918Y-39806080D01*
X129516918Y-39306080D02*
X129588346Y-39377509D01*
X129588346Y-39377509D02*
X129516918Y-39448937D01*
X129516918Y-39448937D02*
X129445489Y-39377509D01*
X129445489Y-39377509D02*
X129516918Y-39306080D01*
X129516918Y-39306080D02*
X129516918Y-39448937D01*
X128802632Y-39806080D02*
X128802632Y-41306080D01*
X128802632Y-39877509D02*
X128659775Y-39806080D01*
X128659775Y-39806080D02*
X128374060Y-39806080D01*
X128374060Y-39806080D02*
X128231203Y-39877509D01*
X128231203Y-39877509D02*
X128159775Y-39948937D01*
X128159775Y-39948937D02*
X128088346Y-40091794D01*
X128088346Y-40091794D02*
X128088346Y-40520366D01*
X128088346Y-40520366D02*
X128159775Y-40663223D01*
X128159775Y-40663223D02*
X128231203Y-40734652D01*
X128231203Y-40734652D02*
X128374060Y-40806080D01*
X128374060Y-40806080D02*
X128659775Y-40806080D01*
X128659775Y-40806080D02*
X128802632Y-40734652D01*
X127659774Y-39806080D02*
X127088346Y-39806080D01*
X127445489Y-39306080D02*
X127445489Y-40591794D01*
X127445489Y-40591794D02*
X127374060Y-40734652D01*
X127374060Y-40734652D02*
X127231203Y-40806080D01*
X127231203Y-40806080D02*
X127088346Y-40806080D01*
X126588346Y-40806080D02*
X126588346Y-39806080D01*
X126588346Y-39306080D02*
X126659774Y-39377509D01*
X126659774Y-39377509D02*
X126588346Y-39448937D01*
X126588346Y-39448937D02*
X126516917Y-39377509D01*
X126516917Y-39377509D02*
X126588346Y-39306080D01*
X126588346Y-39306080D02*
X126588346Y-39448937D01*
X125231203Y-40734652D02*
X125374060Y-40806080D01*
X125374060Y-40806080D02*
X125659774Y-40806080D01*
X125659774Y-40806080D02*
X125802631Y-40734652D01*
X125802631Y-40734652D02*
X125874060Y-40663223D01*
X125874060Y-40663223D02*
X125945488Y-40520366D01*
X125945488Y-40520366D02*
X125945488Y-40091794D01*
X125945488Y-40091794D02*
X125874060Y-39948937D01*
X125874060Y-39948937D02*
X125802631Y-39877509D01*
X125802631Y-39877509D02*
X125659774Y-39806080D01*
X125659774Y-39806080D02*
X125374060Y-39806080D01*
X125374060Y-39806080D02*
X125231203Y-39877509D01*
X122731203Y-40806080D02*
X123445489Y-40806080D01*
X123445489Y-40806080D02*
X123445489Y-39306080D01*
X122016917Y-40806080D02*
X122159774Y-40734652D01*
X122159774Y-40734652D02*
X122231203Y-40663223D01*
X122231203Y-40663223D02*
X122302631Y-40520366D01*
X122302631Y-40520366D02*
X122302631Y-40091794D01*
X122302631Y-40091794D02*
X122231203Y-39948937D01*
X122231203Y-39948937D02*
X122159774Y-39877509D01*
X122159774Y-39877509D02*
X122016917Y-39806080D01*
X122016917Y-39806080D02*
X121802631Y-39806080D01*
X121802631Y-39806080D02*
X121659774Y-39877509D01*
X121659774Y-39877509D02*
X121588346Y-39948937D01*
X121588346Y-39948937D02*
X121516917Y-40091794D01*
X121516917Y-40091794D02*
X121516917Y-40520366D01*
X121516917Y-40520366D02*
X121588346Y-40663223D01*
X121588346Y-40663223D02*
X121659774Y-40734652D01*
X121659774Y-40734652D02*
X121802631Y-40806080D01*
X121802631Y-40806080D02*
X122016917Y-40806080D01*
X121016917Y-39806080D02*
X120731203Y-40806080D01*
X120731203Y-40806080D02*
X120445488Y-40091794D01*
X120445488Y-40091794D02*
X120159774Y-40806080D01*
X120159774Y-40806080D02*
X119874060Y-39806080D01*
X118159774Y-40806080D02*
X118159774Y-39306080D01*
X118159774Y-39306080D02*
X117588345Y-39306080D01*
X117588345Y-39306080D02*
X117445488Y-39377509D01*
X117445488Y-39377509D02*
X117374059Y-39448937D01*
X117374059Y-39448937D02*
X117302631Y-39591794D01*
X117302631Y-39591794D02*
X117302631Y-39806080D01*
X117302631Y-39806080D02*
X117374059Y-39948937D01*
X117374059Y-39948937D02*
X117445488Y-40020366D01*
X117445488Y-40020366D02*
X117588345Y-40091794D01*
X117588345Y-40091794D02*
X118159774Y-40091794D01*
X116016917Y-40806080D02*
X116016917Y-40020366D01*
X116016917Y-40020366D02*
X116088345Y-39877509D01*
X116088345Y-39877509D02*
X116231202Y-39806080D01*
X116231202Y-39806080D02*
X116516917Y-39806080D01*
X116516917Y-39806080D02*
X116659774Y-39877509D01*
X116016917Y-40734652D02*
X116159774Y-40806080D01*
X116159774Y-40806080D02*
X116516917Y-40806080D01*
X116516917Y-40806080D02*
X116659774Y-40734652D01*
X116659774Y-40734652D02*
X116731202Y-40591794D01*
X116731202Y-40591794D02*
X116731202Y-40448937D01*
X116731202Y-40448937D02*
X116659774Y-40306080D01*
X116659774Y-40306080D02*
X116516917Y-40234652D01*
X116516917Y-40234652D02*
X116159774Y-40234652D01*
X116159774Y-40234652D02*
X116016917Y-40163223D01*
X115374059Y-40734652D02*
X115231202Y-40806080D01*
X115231202Y-40806080D02*
X114945488Y-40806080D01*
X114945488Y-40806080D02*
X114802631Y-40734652D01*
X114802631Y-40734652D02*
X114731202Y-40591794D01*
X114731202Y-40591794D02*
X114731202Y-40520366D01*
X114731202Y-40520366D02*
X114802631Y-40377509D01*
X114802631Y-40377509D02*
X114945488Y-40306080D01*
X114945488Y-40306080D02*
X115159774Y-40306080D01*
X115159774Y-40306080D02*
X115302631Y-40234652D01*
X115302631Y-40234652D02*
X115374059Y-40091794D01*
X115374059Y-40091794D02*
X115374059Y-40020366D01*
X115374059Y-40020366D02*
X115302631Y-39877509D01*
X115302631Y-39877509D02*
X115159774Y-39806080D01*
X115159774Y-39806080D02*
X114945488Y-39806080D01*
X114945488Y-39806080D02*
X114802631Y-39877509D01*
X114159773Y-40734652D02*
X114016916Y-40806080D01*
X114016916Y-40806080D02*
X113731202Y-40806080D01*
X113731202Y-40806080D02*
X113588345Y-40734652D01*
X113588345Y-40734652D02*
X113516916Y-40591794D01*
X113516916Y-40591794D02*
X113516916Y-40520366D01*
X113516916Y-40520366D02*
X113588345Y-40377509D01*
X113588345Y-40377509D02*
X113731202Y-40306080D01*
X113731202Y-40306080D02*
X113945488Y-40306080D01*
X113945488Y-40306080D02*
X114088345Y-40234652D01*
X114088345Y-40234652D02*
X114159773Y-40091794D01*
X114159773Y-40091794D02*
X114159773Y-40020366D01*
X114159773Y-40020366D02*
X114088345Y-39877509D01*
X114088345Y-39877509D02*
X113945488Y-39806080D01*
X113945488Y-39806080D02*
X113731202Y-39806080D01*
X113731202Y-39806080D02*
X113588345Y-39877509D01*
X111231202Y-40020366D02*
X111731202Y-40020366D01*
X111731202Y-40806080D02*
X111731202Y-39306080D01*
X111731202Y-39306080D02*
X111016916Y-39306080D01*
X110445488Y-40806080D02*
X110445488Y-39806080D01*
X110445488Y-39306080D02*
X110516916Y-39377509D01*
X110516916Y-39377509D02*
X110445488Y-39448937D01*
X110445488Y-39448937D02*
X110374059Y-39377509D01*
X110374059Y-39377509D02*
X110445488Y-39306080D01*
X110445488Y-39306080D02*
X110445488Y-39448937D01*
X109516916Y-40806080D02*
X109659773Y-40734652D01*
X109659773Y-40734652D02*
X109731202Y-40591794D01*
X109731202Y-40591794D02*
X109731202Y-39306080D01*
X109159773Y-39806080D02*
X108588345Y-39806080D01*
X108945488Y-39306080D02*
X108945488Y-40591794D01*
X108945488Y-40591794D02*
X108874059Y-40734652D01*
X108874059Y-40734652D02*
X108731202Y-40806080D01*
X108731202Y-40806080D02*
X108588345Y-40806080D01*
X107516916Y-40734652D02*
X107659773Y-40806080D01*
X107659773Y-40806080D02*
X107945488Y-40806080D01*
X107945488Y-40806080D02*
X108088345Y-40734652D01*
X108088345Y-40734652D02*
X108159773Y-40591794D01*
X108159773Y-40591794D02*
X108159773Y-40020366D01*
X108159773Y-40020366D02*
X108088345Y-39877509D01*
X108088345Y-39877509D02*
X107945488Y-39806080D01*
X107945488Y-39806080D02*
X107659773Y-39806080D01*
X107659773Y-39806080D02*
X107516916Y-39877509D01*
X107516916Y-39877509D02*
X107445488Y-40020366D01*
X107445488Y-40020366D02*
X107445488Y-40163223D01*
X107445488Y-40163223D02*
X108159773Y-40306080D01*
X106802631Y-40806080D02*
X106802631Y-39806080D01*
X106802631Y-40091794D02*
X106731202Y-39948937D01*
X106731202Y-39948937D02*
X106659774Y-39877509D01*
X106659774Y-39877509D02*
X106516916Y-39806080D01*
X106516916Y-39806080D02*
X106374059Y-39806080D01*
X104874060Y-39806080D02*
X104516917Y-40806080D01*
X104516917Y-40806080D02*
X104159774Y-39806080D01*
X103302631Y-39306080D02*
X103159774Y-39306080D01*
X103159774Y-39306080D02*
X103016917Y-39377509D01*
X103016917Y-39377509D02*
X102945489Y-39448937D01*
X102945489Y-39448937D02*
X102874060Y-39591794D01*
X102874060Y-39591794D02*
X102802631Y-39877509D01*
X102802631Y-39877509D02*
X102802631Y-40234652D01*
X102802631Y-40234652D02*
X102874060Y-40520366D01*
X102874060Y-40520366D02*
X102945489Y-40663223D01*
X102945489Y-40663223D02*
X103016917Y-40734652D01*
X103016917Y-40734652D02*
X103159774Y-40806080D01*
X103159774Y-40806080D02*
X103302631Y-40806080D01*
X103302631Y-40806080D02*
X103445489Y-40734652D01*
X103445489Y-40734652D02*
X103516917Y-40663223D01*
X103516917Y-40663223D02*
X103588346Y-40520366D01*
X103588346Y-40520366D02*
X103659774Y-40234652D01*
X103659774Y-40234652D02*
X103659774Y-39877509D01*
X103659774Y-39877509D02*
X103588346Y-39591794D01*
X103588346Y-39591794D02*
X103516917Y-39448937D01*
X103516917Y-39448937D02*
X103445489Y-39377509D01*
X103445489Y-39377509D02*
X103302631Y-39306080D01*
X102159775Y-40663223D02*
X102088346Y-40734652D01*
X102088346Y-40734652D02*
X102159775Y-40806080D01*
X102159775Y-40806080D02*
X102231203Y-40734652D01*
X102231203Y-40734652D02*
X102159775Y-40663223D01*
X102159775Y-40663223D02*
X102159775Y-40806080D01*
X100659774Y-40806080D02*
X101516917Y-40806080D01*
X101088346Y-40806080D02*
X101088346Y-39306080D01*
X101088346Y-39306080D02*
X101231203Y-39520366D01*
X101231203Y-39520366D02*
X101374060Y-39663223D01*
X101374060Y-39663223D02*
X101516917Y-39734652D01*
X131588346Y-43078139D02*
X131659774Y-43149568D01*
X131659774Y-43149568D02*
X131874060Y-43220996D01*
X131874060Y-43220996D02*
X132016917Y-43220996D01*
X132016917Y-43220996D02*
X132231203Y-43149568D01*
X132231203Y-43149568D02*
X132374060Y-43006710D01*
X132374060Y-43006710D02*
X132445489Y-42863853D01*
X132445489Y-42863853D02*
X132516917Y-42578139D01*
X132516917Y-42578139D02*
X132516917Y-42363853D01*
X132516917Y-42363853D02*
X132445489Y-42078139D01*
X132445489Y-42078139D02*
X132374060Y-41935282D01*
X132374060Y-41935282D02*
X132231203Y-41792425D01*
X132231203Y-41792425D02*
X132016917Y-41720996D01*
X132016917Y-41720996D02*
X131874060Y-41720996D01*
X131874060Y-41720996D02*
X131659774Y-41792425D01*
X131659774Y-41792425D02*
X131588346Y-41863853D01*
X130302632Y-42220996D02*
X130302632Y-43220996D01*
X130945489Y-42220996D02*
X130945489Y-43006710D01*
X130945489Y-43006710D02*
X130874060Y-43149568D01*
X130874060Y-43149568D02*
X130731203Y-43220996D01*
X130731203Y-43220996D02*
X130516917Y-43220996D01*
X130516917Y-43220996D02*
X130374060Y-43149568D01*
X130374060Y-43149568D02*
X130302632Y-43078139D01*
X129802631Y-42220996D02*
X129231203Y-42220996D01*
X129588346Y-41720996D02*
X129588346Y-43006710D01*
X129588346Y-43006710D02*
X129516917Y-43149568D01*
X129516917Y-43149568D02*
X129374060Y-43220996D01*
X129374060Y-43220996D02*
X129231203Y-43220996D01*
X128516917Y-43220996D02*
X128659774Y-43149568D01*
X128659774Y-43149568D02*
X128731203Y-43078139D01*
X128731203Y-43078139D02*
X128802631Y-42935282D01*
X128802631Y-42935282D02*
X128802631Y-42506710D01*
X128802631Y-42506710D02*
X128731203Y-42363853D01*
X128731203Y-42363853D02*
X128659774Y-42292425D01*
X128659774Y-42292425D02*
X128516917Y-42220996D01*
X128516917Y-42220996D02*
X128302631Y-42220996D01*
X128302631Y-42220996D02*
X128159774Y-42292425D01*
X128159774Y-42292425D02*
X128088346Y-42363853D01*
X128088346Y-42363853D02*
X128016917Y-42506710D01*
X128016917Y-42506710D02*
X128016917Y-42935282D01*
X128016917Y-42935282D02*
X128088346Y-43078139D01*
X128088346Y-43078139D02*
X128159774Y-43149568D01*
X128159774Y-43149568D02*
X128302631Y-43220996D01*
X128302631Y-43220996D02*
X128516917Y-43220996D01*
X127588345Y-42220996D02*
X127016917Y-42220996D01*
X127374060Y-43220996D02*
X127374060Y-41935282D01*
X127374060Y-41935282D02*
X127302631Y-41792425D01*
X127302631Y-41792425D02*
X127159774Y-41720996D01*
X127159774Y-41720996D02*
X127016917Y-41720996D01*
X126731202Y-42220996D02*
X126159774Y-42220996D01*
X126516917Y-43220996D02*
X126516917Y-41935282D01*
X126516917Y-41935282D02*
X126445488Y-41792425D01*
X126445488Y-41792425D02*
X126302631Y-41720996D01*
X126302631Y-41720996D02*
X126159774Y-41720996D01*
X125659774Y-43078139D02*
X125588345Y-43149568D01*
X125588345Y-43149568D02*
X125659774Y-43220996D01*
X125659774Y-43220996D02*
X125731202Y-43149568D01*
X125731202Y-43149568D02*
X125659774Y-43078139D01*
X125659774Y-43078139D02*
X125659774Y-43220996D01*
X125659774Y-42292425D02*
X125588345Y-42363853D01*
X125588345Y-42363853D02*
X125659774Y-42435282D01*
X125659774Y-42435282D02*
X125731202Y-42363853D01*
X125731202Y-42363853D02*
X125659774Y-42292425D01*
X125659774Y-42292425D02*
X125659774Y-42435282D01*
X123016916Y-43220996D02*
X123874059Y-43220996D01*
X123445488Y-43220996D02*
X123445488Y-41720996D01*
X123445488Y-41720996D02*
X123588345Y-41935282D01*
X123588345Y-41935282D02*
X123731202Y-42078139D01*
X123731202Y-42078139D02*
X123874059Y-42149568D01*
X122374060Y-43220996D02*
X122374060Y-41720996D01*
X122374060Y-41720996D02*
X121874060Y-42792425D01*
X121874060Y-42792425D02*
X121374060Y-41720996D01*
X121374060Y-41720996D02*
X121374060Y-43220996D01*
X120659774Y-43220996D02*
X120659774Y-41720996D01*
X120659774Y-42435282D02*
X119802631Y-42435282D01*
X119802631Y-43220996D02*
X119802631Y-41720996D01*
X119231202Y-42220996D02*
X118445488Y-42220996D01*
X118445488Y-42220996D02*
X119231202Y-43220996D01*
X119231202Y-43220996D02*
X118445488Y-43220996D01*
X132445489Y-45635912D02*
X132445489Y-44135912D01*
X132445489Y-44135912D02*
X132088346Y-44135912D01*
X132088346Y-44135912D02*
X131874060Y-44207341D01*
X131874060Y-44207341D02*
X131731203Y-44350198D01*
X131731203Y-44350198D02*
X131659774Y-44493055D01*
X131659774Y-44493055D02*
X131588346Y-44778769D01*
X131588346Y-44778769D02*
X131588346Y-44993055D01*
X131588346Y-44993055D02*
X131659774Y-45278769D01*
X131659774Y-45278769D02*
X131731203Y-45421626D01*
X131731203Y-45421626D02*
X131874060Y-45564484D01*
X131874060Y-45564484D02*
X132088346Y-45635912D01*
X132088346Y-45635912D02*
X132445489Y-45635912D01*
X130302632Y-45635912D02*
X130302632Y-44850198D01*
X130302632Y-44850198D02*
X130374060Y-44707341D01*
X130374060Y-44707341D02*
X130516917Y-44635912D01*
X130516917Y-44635912D02*
X130802632Y-44635912D01*
X130802632Y-44635912D02*
X130945489Y-44707341D01*
X130302632Y-45564484D02*
X130445489Y-45635912D01*
X130445489Y-45635912D02*
X130802632Y-45635912D01*
X130802632Y-45635912D02*
X130945489Y-45564484D01*
X130945489Y-45564484D02*
X131016917Y-45421626D01*
X131016917Y-45421626D02*
X131016917Y-45278769D01*
X131016917Y-45278769D02*
X130945489Y-45135912D01*
X130945489Y-45135912D02*
X130802632Y-45064484D01*
X130802632Y-45064484D02*
X130445489Y-45064484D01*
X130445489Y-45064484D02*
X130302632Y-44993055D01*
X129802631Y-44635912D02*
X129231203Y-44635912D01*
X129588346Y-44135912D02*
X129588346Y-45421626D01*
X129588346Y-45421626D02*
X129516917Y-45564484D01*
X129516917Y-45564484D02*
X129374060Y-45635912D01*
X129374060Y-45635912D02*
X129231203Y-45635912D01*
X128159774Y-45564484D02*
X128302631Y-45635912D01*
X128302631Y-45635912D02*
X128588346Y-45635912D01*
X128588346Y-45635912D02*
X128731203Y-45564484D01*
X128731203Y-45564484D02*
X128802631Y-45421626D01*
X128802631Y-45421626D02*
X128802631Y-44850198D01*
X128802631Y-44850198D02*
X128731203Y-44707341D01*
X128731203Y-44707341D02*
X128588346Y-44635912D01*
X128588346Y-44635912D02*
X128302631Y-44635912D01*
X128302631Y-44635912D02*
X128159774Y-44707341D01*
X128159774Y-44707341D02*
X128088346Y-44850198D01*
X128088346Y-44850198D02*
X128088346Y-44993055D01*
X128088346Y-44993055D02*
X128802631Y-45135912D01*
X127445489Y-45493055D02*
X127374060Y-45564484D01*
X127374060Y-45564484D02*
X127445489Y-45635912D01*
X127445489Y-45635912D02*
X127516917Y-45564484D01*
X127516917Y-45564484D02*
X127445489Y-45493055D01*
X127445489Y-45493055D02*
X127445489Y-45635912D01*
X127445489Y-44707341D02*
X127374060Y-44778769D01*
X127374060Y-44778769D02*
X127445489Y-44850198D01*
X127445489Y-44850198D02*
X127516917Y-44778769D01*
X127516917Y-44778769D02*
X127445489Y-44707341D01*
X127445489Y-44707341D02*
X127445489Y-44850198D01*
X125659774Y-44278769D02*
X125588346Y-44207341D01*
X125588346Y-44207341D02*
X125445489Y-44135912D01*
X125445489Y-44135912D02*
X125088346Y-44135912D01*
X125088346Y-44135912D02*
X124945489Y-44207341D01*
X124945489Y-44207341D02*
X124874060Y-44278769D01*
X124874060Y-44278769D02*
X124802631Y-44421626D01*
X124802631Y-44421626D02*
X124802631Y-44564484D01*
X124802631Y-44564484D02*
X124874060Y-44778769D01*
X124874060Y-44778769D02*
X125731203Y-45635912D01*
X125731203Y-45635912D02*
X124802631Y-45635912D01*
X123874060Y-44135912D02*
X123731203Y-44135912D01*
X123731203Y-44135912D02*
X123588346Y-44207341D01*
X123588346Y-44207341D02*
X123516918Y-44278769D01*
X123516918Y-44278769D02*
X123445489Y-44421626D01*
X123445489Y-44421626D02*
X123374060Y-44707341D01*
X123374060Y-44707341D02*
X123374060Y-45064484D01*
X123374060Y-45064484D02*
X123445489Y-45350198D01*
X123445489Y-45350198D02*
X123516918Y-45493055D01*
X123516918Y-45493055D02*
X123588346Y-45564484D01*
X123588346Y-45564484D02*
X123731203Y-45635912D01*
X123731203Y-45635912D02*
X123874060Y-45635912D01*
X123874060Y-45635912D02*
X124016918Y-45564484D01*
X124016918Y-45564484D02*
X124088346Y-45493055D01*
X124088346Y-45493055D02*
X124159775Y-45350198D01*
X124159775Y-45350198D02*
X124231203Y-45064484D01*
X124231203Y-45064484D02*
X124231203Y-44707341D01*
X124231203Y-44707341D02*
X124159775Y-44421626D01*
X124159775Y-44421626D02*
X124088346Y-44278769D01*
X124088346Y-44278769D02*
X124016918Y-44207341D01*
X124016918Y-44207341D02*
X123874060Y-44135912D01*
X122802632Y-44278769D02*
X122731204Y-44207341D01*
X122731204Y-44207341D02*
X122588347Y-44135912D01*
X122588347Y-44135912D02*
X122231204Y-44135912D01*
X122231204Y-44135912D02*
X122088347Y-44207341D01*
X122088347Y-44207341D02*
X122016918Y-44278769D01*
X122016918Y-44278769D02*
X121945489Y-44421626D01*
X121945489Y-44421626D02*
X121945489Y-44564484D01*
X121945489Y-44564484D02*
X122016918Y-44778769D01*
X122016918Y-44778769D02*
X122874061Y-45635912D01*
X122874061Y-45635912D02*
X121945489Y-45635912D01*
X120659776Y-44135912D02*
X120945490Y-44135912D01*
X120945490Y-44135912D02*
X121088347Y-44207341D01*
X121088347Y-44207341D02*
X121159776Y-44278769D01*
X121159776Y-44278769D02*
X121302633Y-44493055D01*
X121302633Y-44493055D02*
X121374061Y-44778769D01*
X121374061Y-44778769D02*
X121374061Y-45350198D01*
X121374061Y-45350198D02*
X121302633Y-45493055D01*
X121302633Y-45493055D02*
X121231204Y-45564484D01*
X121231204Y-45564484D02*
X121088347Y-45635912D01*
X121088347Y-45635912D02*
X120802633Y-45635912D01*
X120802633Y-45635912D02*
X120659776Y-45564484D01*
X120659776Y-45564484D02*
X120588347Y-45493055D01*
X120588347Y-45493055D02*
X120516918Y-45350198D01*
X120516918Y-45350198D02*
X120516918Y-44993055D01*
X120516918Y-44993055D02*
X120588347Y-44850198D01*
X120588347Y-44850198D02*
X120659776Y-44778769D01*
X120659776Y-44778769D02*
X120802633Y-44707341D01*
X120802633Y-44707341D02*
X121088347Y-44707341D01*
X121088347Y-44707341D02*
X121231204Y-44778769D01*
X121231204Y-44778769D02*
X121302633Y-44850198D01*
X121302633Y-44850198D02*
X121374061Y-44993055D01*
X118802633Y-44064484D02*
X120088347Y-45993055D01*
X118016918Y-44135912D02*
X117874061Y-44135912D01*
X117874061Y-44135912D02*
X117731204Y-44207341D01*
X117731204Y-44207341D02*
X117659776Y-44278769D01*
X117659776Y-44278769D02*
X117588347Y-44421626D01*
X117588347Y-44421626D02*
X117516918Y-44707341D01*
X117516918Y-44707341D02*
X117516918Y-45064484D01*
X117516918Y-45064484D02*
X117588347Y-45350198D01*
X117588347Y-45350198D02*
X117659776Y-45493055D01*
X117659776Y-45493055D02*
X117731204Y-45564484D01*
X117731204Y-45564484D02*
X117874061Y-45635912D01*
X117874061Y-45635912D02*
X118016918Y-45635912D01*
X118016918Y-45635912D02*
X118159776Y-45564484D01*
X118159776Y-45564484D02*
X118231204Y-45493055D01*
X118231204Y-45493055D02*
X118302633Y-45350198D01*
X118302633Y-45350198D02*
X118374061Y-45064484D01*
X118374061Y-45064484D02*
X118374061Y-44707341D01*
X118374061Y-44707341D02*
X118302633Y-44421626D01*
X118302633Y-44421626D02*
X118231204Y-44278769D01*
X118231204Y-44278769D02*
X118159776Y-44207341D01*
X118159776Y-44207341D02*
X118016918Y-44135912D01*
X116231205Y-44135912D02*
X116516919Y-44135912D01*
X116516919Y-44135912D02*
X116659776Y-44207341D01*
X116659776Y-44207341D02*
X116731205Y-44278769D01*
X116731205Y-44278769D02*
X116874062Y-44493055D01*
X116874062Y-44493055D02*
X116945490Y-44778769D01*
X116945490Y-44778769D02*
X116945490Y-45350198D01*
X116945490Y-45350198D02*
X116874062Y-45493055D01*
X116874062Y-45493055D02*
X116802633Y-45564484D01*
X116802633Y-45564484D02*
X116659776Y-45635912D01*
X116659776Y-45635912D02*
X116374062Y-45635912D01*
X116374062Y-45635912D02*
X116231205Y-45564484D01*
X116231205Y-45564484D02*
X116159776Y-45493055D01*
X116159776Y-45493055D02*
X116088347Y-45350198D01*
X116088347Y-45350198D02*
X116088347Y-44993055D01*
X116088347Y-44993055D02*
X116159776Y-44850198D01*
X116159776Y-44850198D02*
X116231205Y-44778769D01*
X116231205Y-44778769D02*
X116374062Y-44707341D01*
X116374062Y-44707341D02*
X116659776Y-44707341D01*
X116659776Y-44707341D02*
X116802633Y-44778769D01*
X116802633Y-44778769D02*
X116874062Y-44850198D01*
X116874062Y-44850198D02*
X116945490Y-44993055D01*
X114374062Y-44064484D02*
X115659776Y-45993055D01*
X113945490Y-44278769D02*
X113874062Y-44207341D01*
X113874062Y-44207341D02*
X113731205Y-44135912D01*
X113731205Y-44135912D02*
X113374062Y-44135912D01*
X113374062Y-44135912D02*
X113231205Y-44207341D01*
X113231205Y-44207341D02*
X113159776Y-44278769D01*
X113159776Y-44278769D02*
X113088347Y-44421626D01*
X113088347Y-44421626D02*
X113088347Y-44564484D01*
X113088347Y-44564484D02*
X113159776Y-44778769D01*
X113159776Y-44778769D02*
X114016919Y-45635912D01*
X114016919Y-45635912D02*
X113088347Y-45635912D01*
X112588348Y-44135912D02*
X111659776Y-44135912D01*
X111659776Y-44135912D02*
X112159776Y-44707341D01*
X112159776Y-44707341D02*
X111945491Y-44707341D01*
X111945491Y-44707341D02*
X111802634Y-44778769D01*
X111802634Y-44778769D02*
X111731205Y-44850198D01*
X111731205Y-44850198D02*
X111659776Y-44993055D01*
X111659776Y-44993055D02*
X111659776Y-45350198D01*
X111659776Y-45350198D02*
X111731205Y-45493055D01*
X111731205Y-45493055D02*
X111802634Y-45564484D01*
X111802634Y-45564484D02*
X111945491Y-45635912D01*
X111945491Y-45635912D02*
X112374062Y-45635912D01*
X112374062Y-45635912D02*
X112516919Y-45564484D01*
X112516919Y-45564484D02*
X112588348Y-45493055D01*
X132445489Y-48050828D02*
X132445489Y-46550828D01*
X132445489Y-46550828D02*
X132088346Y-46550828D01*
X132088346Y-46550828D02*
X131874060Y-46622257D01*
X131874060Y-46622257D02*
X131731203Y-46765114D01*
X131731203Y-46765114D02*
X131659774Y-46907971D01*
X131659774Y-46907971D02*
X131588346Y-47193685D01*
X131588346Y-47193685D02*
X131588346Y-47407971D01*
X131588346Y-47407971D02*
X131659774Y-47693685D01*
X131659774Y-47693685D02*
X131731203Y-47836542D01*
X131731203Y-47836542D02*
X131874060Y-47979400D01*
X131874060Y-47979400D02*
X132088346Y-48050828D01*
X132088346Y-48050828D02*
X132445489Y-48050828D01*
X130374060Y-47979400D02*
X130516917Y-48050828D01*
X130516917Y-48050828D02*
X130802632Y-48050828D01*
X130802632Y-48050828D02*
X130945489Y-47979400D01*
X130945489Y-47979400D02*
X131016917Y-47836542D01*
X131016917Y-47836542D02*
X131016917Y-47265114D01*
X131016917Y-47265114D02*
X130945489Y-47122257D01*
X130945489Y-47122257D02*
X130802632Y-47050828D01*
X130802632Y-47050828D02*
X130516917Y-47050828D01*
X130516917Y-47050828D02*
X130374060Y-47122257D01*
X130374060Y-47122257D02*
X130302632Y-47265114D01*
X130302632Y-47265114D02*
X130302632Y-47407971D01*
X130302632Y-47407971D02*
X131016917Y-47550828D01*
X129802632Y-47050828D02*
X129445489Y-48050828D01*
X129445489Y-48050828D02*
X129088346Y-47050828D01*
X127945489Y-47979400D02*
X128088346Y-48050828D01*
X128088346Y-48050828D02*
X128374061Y-48050828D01*
X128374061Y-48050828D02*
X128516918Y-47979400D01*
X128516918Y-47979400D02*
X128588346Y-47836542D01*
X128588346Y-47836542D02*
X128588346Y-47265114D01*
X128588346Y-47265114D02*
X128516918Y-47122257D01*
X128516918Y-47122257D02*
X128374061Y-47050828D01*
X128374061Y-47050828D02*
X128088346Y-47050828D01*
X128088346Y-47050828D02*
X127945489Y-47122257D01*
X127945489Y-47122257D02*
X127874061Y-47265114D01*
X127874061Y-47265114D02*
X127874061Y-47407971D01*
X127874061Y-47407971D02*
X128588346Y-47550828D01*
X127016918Y-48050828D02*
X127159775Y-47979400D01*
X127159775Y-47979400D02*
X127231204Y-47836542D01*
X127231204Y-47836542D02*
X127231204Y-46550828D01*
X126231204Y-48050828D02*
X126374061Y-47979400D01*
X126374061Y-47979400D02*
X126445490Y-47907971D01*
X126445490Y-47907971D02*
X126516918Y-47765114D01*
X126516918Y-47765114D02*
X126516918Y-47336542D01*
X126516918Y-47336542D02*
X126445490Y-47193685D01*
X126445490Y-47193685D02*
X126374061Y-47122257D01*
X126374061Y-47122257D02*
X126231204Y-47050828D01*
X126231204Y-47050828D02*
X126016918Y-47050828D01*
X126016918Y-47050828D02*
X125874061Y-47122257D01*
X125874061Y-47122257D02*
X125802633Y-47193685D01*
X125802633Y-47193685D02*
X125731204Y-47336542D01*
X125731204Y-47336542D02*
X125731204Y-47765114D01*
X125731204Y-47765114D02*
X125802633Y-47907971D01*
X125802633Y-47907971D02*
X125874061Y-47979400D01*
X125874061Y-47979400D02*
X126016918Y-48050828D01*
X126016918Y-48050828D02*
X126231204Y-48050828D01*
X125088347Y-47050828D02*
X125088347Y-48550828D01*
X125088347Y-47122257D02*
X124945490Y-47050828D01*
X124945490Y-47050828D02*
X124659775Y-47050828D01*
X124659775Y-47050828D02*
X124516918Y-47122257D01*
X124516918Y-47122257D02*
X124445490Y-47193685D01*
X124445490Y-47193685D02*
X124374061Y-47336542D01*
X124374061Y-47336542D02*
X124374061Y-47765114D01*
X124374061Y-47765114D02*
X124445490Y-47907971D01*
X124445490Y-47907971D02*
X124516918Y-47979400D01*
X124516918Y-47979400D02*
X124659775Y-48050828D01*
X124659775Y-48050828D02*
X124945490Y-48050828D01*
X124945490Y-48050828D02*
X125088347Y-47979400D01*
X123159775Y-47979400D02*
X123302632Y-48050828D01*
X123302632Y-48050828D02*
X123588347Y-48050828D01*
X123588347Y-48050828D02*
X123731204Y-47979400D01*
X123731204Y-47979400D02*
X123802632Y-47836542D01*
X123802632Y-47836542D02*
X123802632Y-47265114D01*
X123802632Y-47265114D02*
X123731204Y-47122257D01*
X123731204Y-47122257D02*
X123588347Y-47050828D01*
X123588347Y-47050828D02*
X123302632Y-47050828D01*
X123302632Y-47050828D02*
X123159775Y-47122257D01*
X123159775Y-47122257D02*
X123088347Y-47265114D01*
X123088347Y-47265114D02*
X123088347Y-47407971D01*
X123088347Y-47407971D02*
X123802632Y-47550828D01*
X121802633Y-48050828D02*
X121802633Y-46550828D01*
X121802633Y-47979400D02*
X121945490Y-48050828D01*
X121945490Y-48050828D02*
X122231204Y-48050828D01*
X122231204Y-48050828D02*
X122374061Y-47979400D01*
X122374061Y-47979400D02*
X122445490Y-47907971D01*
X122445490Y-47907971D02*
X122516918Y-47765114D01*
X122516918Y-47765114D02*
X122516918Y-47336542D01*
X122516918Y-47336542D02*
X122445490Y-47193685D01*
X122445490Y-47193685D02*
X122374061Y-47122257D01*
X122374061Y-47122257D02*
X122231204Y-47050828D01*
X122231204Y-47050828D02*
X121945490Y-47050828D01*
X121945490Y-47050828D02*
X121802633Y-47122257D01*
X119945490Y-48050828D02*
X119945490Y-46550828D01*
X119945490Y-47122257D02*
X119802633Y-47050828D01*
X119802633Y-47050828D02*
X119516918Y-47050828D01*
X119516918Y-47050828D02*
X119374061Y-47122257D01*
X119374061Y-47122257D02*
X119302633Y-47193685D01*
X119302633Y-47193685D02*
X119231204Y-47336542D01*
X119231204Y-47336542D02*
X119231204Y-47765114D01*
X119231204Y-47765114D02*
X119302633Y-47907971D01*
X119302633Y-47907971D02*
X119374061Y-47979400D01*
X119374061Y-47979400D02*
X119516918Y-48050828D01*
X119516918Y-48050828D02*
X119802633Y-48050828D01*
X119802633Y-48050828D02*
X119945490Y-47979400D01*
X118731204Y-47050828D02*
X118374061Y-48050828D01*
X118016918Y-47050828D02*
X118374061Y-48050828D01*
X118374061Y-48050828D02*
X118516918Y-48407971D01*
X118516918Y-48407971D02*
X118588347Y-48479400D01*
X118588347Y-48479400D02*
X118731204Y-48550828D01*
X117445490Y-47907971D02*
X117374061Y-47979400D01*
X117374061Y-47979400D02*
X117445490Y-48050828D01*
X117445490Y-48050828D02*
X117516918Y-47979400D01*
X117516918Y-47979400D02*
X117445490Y-47907971D01*
X117445490Y-47907971D02*
X117445490Y-48050828D01*
X117445490Y-47122257D02*
X117374061Y-47193685D01*
X117374061Y-47193685D02*
X117445490Y-47265114D01*
X117445490Y-47265114D02*
X117516918Y-47193685D01*
X117516918Y-47193685D02*
X117445490Y-47122257D01*
X117445490Y-47122257D02*
X117445490Y-47265114D01*
X115588347Y-48050828D02*
X115588347Y-46550828D01*
X115588347Y-46550828D02*
X115088347Y-47622257D01*
X115088347Y-47622257D02*
X114588347Y-46550828D01*
X114588347Y-46550828D02*
X114588347Y-48050828D01*
X113874061Y-48050828D02*
X113874061Y-47050828D01*
X113874061Y-46550828D02*
X113945489Y-46622257D01*
X113945489Y-46622257D02*
X113874061Y-46693685D01*
X113874061Y-46693685D02*
X113802632Y-46622257D01*
X113802632Y-46622257D02*
X113874061Y-46550828D01*
X113874061Y-46550828D02*
X113874061Y-46693685D01*
X113159775Y-48050828D02*
X113159775Y-46550828D01*
X113016918Y-47479400D02*
X112588346Y-48050828D01*
X112588346Y-47050828D02*
X113159775Y-47622257D01*
X111374060Y-47979400D02*
X111516917Y-48050828D01*
X111516917Y-48050828D02*
X111802632Y-48050828D01*
X111802632Y-48050828D02*
X111945489Y-47979400D01*
X111945489Y-47979400D02*
X112016917Y-47836542D01*
X112016917Y-47836542D02*
X112016917Y-47265114D01*
X112016917Y-47265114D02*
X111945489Y-47122257D01*
X111945489Y-47122257D02*
X111802632Y-47050828D01*
X111802632Y-47050828D02*
X111516917Y-47050828D01*
X111516917Y-47050828D02*
X111374060Y-47122257D01*
X111374060Y-47122257D02*
X111302632Y-47265114D01*
X111302632Y-47265114D02*
X111302632Y-47407971D01*
X111302632Y-47407971D02*
X112016917Y-47550828D01*
X109516918Y-48050828D02*
X109516918Y-46550828D01*
X109516918Y-47265114D02*
X108659775Y-47265114D01*
X108659775Y-48050828D02*
X108659775Y-46550828D01*
X107302632Y-47050828D02*
X107302632Y-48050828D01*
X107945489Y-47050828D02*
X107945489Y-47836542D01*
X107945489Y-47836542D02*
X107874060Y-47979400D01*
X107874060Y-47979400D02*
X107731203Y-48050828D01*
X107731203Y-48050828D02*
X107516917Y-48050828D01*
X107516917Y-48050828D02*
X107374060Y-47979400D01*
X107374060Y-47979400D02*
X107302632Y-47907971D01*
X106588346Y-47050828D02*
X106588346Y-48050828D01*
X106588346Y-47193685D02*
X106516917Y-47122257D01*
X106516917Y-47122257D02*
X106374060Y-47050828D01*
X106374060Y-47050828D02*
X106159774Y-47050828D01*
X106159774Y-47050828D02*
X106016917Y-47122257D01*
X106016917Y-47122257D02*
X105945489Y-47265114D01*
X105945489Y-47265114D02*
X105945489Y-48050828D01*
X104588346Y-47050828D02*
X104588346Y-48265114D01*
X104588346Y-48265114D02*
X104659774Y-48407971D01*
X104659774Y-48407971D02*
X104731203Y-48479400D01*
X104731203Y-48479400D02*
X104874060Y-48550828D01*
X104874060Y-48550828D02*
X105088346Y-48550828D01*
X105088346Y-48550828D02*
X105231203Y-48479400D01*
X104588346Y-47979400D02*
X104731203Y-48050828D01*
X104731203Y-48050828D02*
X105016917Y-48050828D01*
X105016917Y-48050828D02*
X105159774Y-47979400D01*
X105159774Y-47979400D02*
X105231203Y-47907971D01*
X105231203Y-47907971D02*
X105302631Y-47765114D01*
X105302631Y-47765114D02*
X105302631Y-47336542D01*
X105302631Y-47336542D02*
X105231203Y-47193685D01*
X105231203Y-47193685D02*
X105159774Y-47122257D01*
X105159774Y-47122257D02*
X105016917Y-47050828D01*
X105016917Y-47050828D02*
X104731203Y-47050828D01*
X104731203Y-47050828D02*
X104588346Y-47122257D01*
D11*
%TO.C,G1*%
G36*
X88342172Y-37490909D02*
G01*
X88342172Y-38501136D01*
X88286048Y-38501136D01*
X88229924Y-38501136D01*
X88229924Y-37490909D01*
X88229924Y-36480682D01*
X88286048Y-36480682D01*
X88342172Y-36480682D01*
X88342172Y-37490909D01*
G37*
G36*
X88694950Y-37490909D02*
G01*
X88694950Y-38501136D01*
X88638826Y-38501136D01*
X88582702Y-38501136D01*
X88582702Y-37490909D01*
X88582702Y-36480682D01*
X88638826Y-36480682D01*
X88694950Y-36480682D01*
X88694950Y-37490909D01*
G37*
G36*
X89015657Y-37490909D02*
G01*
X89015657Y-38501136D01*
X88959533Y-38501136D01*
X88903409Y-38501136D01*
X88903409Y-37490909D01*
X88903409Y-36480682D01*
X88959533Y-36480682D01*
X89015657Y-36480682D01*
X89015657Y-37490909D01*
G37*
G36*
X93232955Y-42085038D02*
G01*
X93232955Y-42413763D01*
X93176831Y-42413763D01*
X93120707Y-42413763D01*
X93120707Y-42085038D01*
X93120707Y-41756313D01*
X93176831Y-41756313D01*
X93232955Y-41756313D01*
X93232955Y-42085038D01*
G37*
G36*
X96039142Y-40385290D02*
G01*
X96039142Y-40826263D01*
X95983018Y-40826263D01*
X95926894Y-40826263D01*
X95926894Y-40385290D01*
X95926894Y-39944318D01*
X95983018Y-39944318D01*
X96039142Y-39944318D01*
X96039142Y-40385290D01*
G37*
G36*
X96728662Y-37490909D02*
G01*
X96728662Y-38501136D01*
X96672538Y-38501136D01*
X96616414Y-38501136D01*
X96616414Y-37490909D01*
X96616414Y-36480682D01*
X96672538Y-36480682D01*
X96728662Y-36480682D01*
X96728662Y-37490909D01*
G37*
G36*
X97065404Y-37490909D02*
G01*
X97065404Y-38501136D01*
X97009280Y-38501136D01*
X96953157Y-38501136D01*
X96953157Y-37490909D01*
X96953157Y-36480682D01*
X97009280Y-36480682D01*
X97065404Y-36480682D01*
X97065404Y-37490909D01*
G37*
G36*
X97402147Y-37490909D02*
G01*
X97402147Y-38501136D01*
X97346023Y-38501136D01*
X97289899Y-38501136D01*
X97289899Y-37490909D01*
X97289899Y-36480682D01*
X97346023Y-36480682D01*
X97402147Y-36480682D01*
X97402147Y-37490909D01*
G37*
G36*
X91164394Y-40385290D02*
G01*
X91164394Y-40826263D01*
X90899811Y-40826263D01*
X90635227Y-40826263D01*
X90635227Y-40778157D01*
X90635227Y-40730050D01*
X90843687Y-40730050D01*
X91052147Y-40730050D01*
X91052147Y-40337184D01*
X91052147Y-39944318D01*
X91108270Y-39944318D01*
X91164394Y-39944318D01*
X91164394Y-40385290D01*
G37*
G36*
X93215638Y-41523424D02*
G01*
X93240944Y-41551444D01*
X93247177Y-41589137D01*
X93229748Y-41624823D01*
X93220758Y-41632415D01*
X93181630Y-41643977D01*
X93143290Y-41629986D01*
X93116610Y-41593457D01*
X93114980Y-41585468D01*
X93125227Y-41554320D01*
X93152629Y-41527309D01*
X93186913Y-41515783D01*
X93215638Y-41523424D01*
G37*
G36*
X94579924Y-41579924D02*
G01*
X94579924Y-41628030D01*
X94451642Y-41628030D01*
X94323359Y-41628030D01*
X94323359Y-42020896D01*
X94323359Y-42413763D01*
X94267235Y-42413763D01*
X94211111Y-42413763D01*
X94211111Y-42020896D01*
X94211111Y-41628030D01*
X94082828Y-41628030D01*
X93954546Y-41628030D01*
X93954546Y-41579924D01*
X93954546Y-41531818D01*
X94267235Y-41531818D01*
X94579924Y-41531818D01*
X94579924Y-41579924D01*
G37*
G36*
X91412698Y-36348998D02*
G01*
X91498800Y-36389037D01*
X91506789Y-36394523D01*
X91570539Y-36457607D01*
X91610466Y-36534761D01*
X91626960Y-36619716D01*
X91620408Y-36706207D01*
X91591200Y-36787964D01*
X91539724Y-36858722D01*
X91466368Y-36912213D01*
X91454214Y-36918067D01*
X91365735Y-36942899D01*
X91279054Y-36939620D01*
X91198937Y-36911528D01*
X91130151Y-36861921D01*
X91077464Y-36794093D01*
X91045643Y-36711344D01*
X91039455Y-36616968D01*
X91058645Y-36530108D01*
X91102230Y-36451496D01*
X91164537Y-36391544D01*
X91240457Y-36352786D01*
X91324880Y-36337760D01*
X91412698Y-36348998D01*
G37*
G36*
X94058531Y-36348998D02*
G01*
X94144633Y-36389037D01*
X94152623Y-36394523D01*
X94216372Y-36457607D01*
X94256299Y-36534761D01*
X94272793Y-36619716D01*
X94266242Y-36706207D01*
X94237033Y-36787964D01*
X94185557Y-36858722D01*
X94112201Y-36912213D01*
X94100047Y-36918067D01*
X94011569Y-36942899D01*
X93924887Y-36939620D01*
X93844770Y-36911528D01*
X93775985Y-36861921D01*
X93723298Y-36794093D01*
X93691477Y-36711344D01*
X93685288Y-36616968D01*
X93704479Y-36530108D01*
X93748064Y-36451496D01*
X93810371Y-36391544D01*
X93886291Y-36352786D01*
X93970714Y-36337760D01*
X94058531Y-36348998D01*
G37*
G36*
X94199508Y-39944534D02*
G01*
X94214839Y-39949345D01*
X94230667Y-39961721D01*
X94249648Y-39984993D01*
X94274440Y-40022487D01*
X94307699Y-40077534D01*
X94352081Y-40153461D01*
X94410244Y-40253598D01*
X94510869Y-40426578D01*
X94652792Y-40185448D01*
X94794715Y-39944318D01*
X94863709Y-39944318D01*
X94932702Y-39944318D01*
X94932702Y-40385290D01*
X94932702Y-40826263D01*
X94868880Y-40826263D01*
X94805057Y-40826263D01*
X94800729Y-40485511D01*
X94796402Y-40144760D01*
X94676169Y-40349211D01*
X94633813Y-40420765D01*
X94588010Y-40492921D01*
X94551134Y-40537543D01*
X94519019Y-40554593D01*
X94487500Y-40544034D01*
X94452412Y-40505830D01*
X94409591Y-40439942D01*
X94354871Y-40346334D01*
X94235164Y-40139007D01*
X94230843Y-40482635D01*
X94226521Y-40826263D01*
X94162693Y-40826263D01*
X94098864Y-40826263D01*
X94098864Y-40385290D01*
X94098864Y-39944318D01*
X94163400Y-39944318D01*
X94182016Y-39943960D01*
X94199508Y-39944534D01*
G37*
G36*
X92325161Y-39944362D02*
G01*
X92363526Y-39946301D01*
X92388517Y-39956431D01*
X92409397Y-39981571D01*
X92435425Y-40028542D01*
X92440938Y-40038966D01*
X92472752Y-40098325D01*
X92511398Y-40169536D01*
X92549727Y-40239411D01*
X92619703Y-40366132D01*
X92717119Y-40183287D01*
X92728771Y-40161417D01*
X92772838Y-40079294D01*
X92805729Y-40020749D01*
X92830676Y-39981939D01*
X92850913Y-39959019D01*
X92869672Y-39948145D01*
X92890186Y-39945473D01*
X92915687Y-39947158D01*
X92973971Y-39952336D01*
X92823214Y-40216919D01*
X92672458Y-40481502D01*
X92672087Y-40653883D01*
X92671717Y-40826263D01*
X92615594Y-40826263D01*
X92559470Y-40826263D01*
X92559470Y-40654855D01*
X92559470Y-40483447D01*
X92428612Y-40249962D01*
X92398274Y-40195978D01*
X92355078Y-40119621D01*
X92317908Y-40054513D01*
X92289961Y-40006243D01*
X92274432Y-39980398D01*
X92265470Y-39965982D01*
X92261704Y-39950932D01*
X92278297Y-39945231D01*
X92321104Y-39944356D01*
X92325161Y-39944362D01*
G37*
G36*
X91024545Y-41758046D02*
G01*
X91097231Y-41794848D01*
X91156376Y-41837100D01*
X91161450Y-41796706D01*
X91166153Y-41775739D01*
X91183215Y-41760009D01*
X91221583Y-41756313D01*
X91276642Y-41756313D01*
X91276642Y-42085038D01*
X91276642Y-42413763D01*
X91220518Y-42413763D01*
X91164394Y-42413763D01*
X91164394Y-42184818D01*
X91164168Y-42122409D01*
X91162020Y-42037894D01*
X91156196Y-41976981D01*
X91145002Y-41934334D01*
X91126750Y-41904618D01*
X91099748Y-41882496D01*
X91062305Y-41862633D01*
X91061119Y-41862074D01*
X90989420Y-41839454D01*
X90928194Y-41842233D01*
X90882252Y-41870210D01*
X90871197Y-41885288D01*
X90862412Y-41907276D01*
X90856181Y-41940390D01*
X90851851Y-41989865D01*
X90848771Y-42060939D01*
X90846287Y-42158847D01*
X90840869Y-42413763D01*
X90784775Y-42413763D01*
X90728680Y-42413763D01*
X90734199Y-42153188D01*
X90736461Y-42070532D01*
X90741647Y-41974590D01*
X90750300Y-41902767D01*
X90763772Y-41850371D01*
X90783415Y-41812709D01*
X90810579Y-41785089D01*
X90846616Y-41762816D01*
X90872792Y-41752165D01*
X90946236Y-41743372D01*
X91024545Y-41758046D01*
G37*
G36*
X89801389Y-40826263D02*
G01*
X89745265Y-40826263D01*
X89710529Y-40824141D01*
X89692893Y-40812291D01*
X89689142Y-40783379D01*
X89689142Y-40740495D01*
X89653054Y-40774398D01*
X89619174Y-40801013D01*
X89576886Y-40825155D01*
X89540132Y-40835115D01*
X89469268Y-40836794D01*
X89396493Y-40822565D01*
X89336544Y-40794320D01*
X89298580Y-40760790D01*
X89256717Y-40695166D01*
X89232472Y-40608429D01*
X89224838Y-40502062D01*
X89336453Y-40502062D01*
X89336475Y-40507258D01*
X89346889Y-40598135D01*
X89374889Y-40670853D01*
X89418415Y-40719937D01*
X89422622Y-40722650D01*
X89466510Y-40739288D01*
X89517924Y-40746086D01*
X89550022Y-40743799D01*
X89591312Y-40728066D01*
X89634621Y-40691566D01*
X89654103Y-40671517D01*
X89673810Y-40645693D01*
X89684257Y-40616805D01*
X89688360Y-40575186D01*
X89689036Y-40511168D01*
X89685566Y-40442757D01*
X89666014Y-40357191D01*
X89628502Y-40297220D01*
X89572200Y-40261718D01*
X89496276Y-40249558D01*
X89459280Y-40252546D01*
X89404395Y-40276357D01*
X89366180Y-40325008D01*
X89343809Y-40399808D01*
X89336453Y-40502062D01*
X89224838Y-40502062D01*
X89224469Y-40496927D01*
X89230583Y-40401553D01*
X89256352Y-40303201D01*
X89302032Y-40229454D01*
X89367377Y-40180679D01*
X89452140Y-40157246D01*
X89511046Y-40157742D01*
X89584021Y-40179931D01*
X89640158Y-40223879D01*
X89659051Y-40242662D01*
X89673870Y-40244121D01*
X89683089Y-40222182D01*
X89687812Y-40173980D01*
X89689142Y-40096654D01*
X89689142Y-39944318D01*
X89745265Y-39944318D01*
X89801389Y-39944318D01*
X89801389Y-40385290D01*
X89801389Y-40511168D01*
X89801389Y-40826263D01*
G37*
G36*
X92190657Y-40826263D02*
G01*
X92134533Y-40826263D01*
X92099797Y-40824141D01*
X92082161Y-40812291D01*
X92078409Y-40783379D01*
X92078409Y-40740495D01*
X92042322Y-40774398D01*
X92008441Y-40801013D01*
X91966154Y-40825155D01*
X91929399Y-40835115D01*
X91858535Y-40836794D01*
X91785761Y-40822565D01*
X91725812Y-40794320D01*
X91687848Y-40760790D01*
X91645985Y-40695166D01*
X91621740Y-40608429D01*
X91614105Y-40502062D01*
X91725721Y-40502062D01*
X91725743Y-40507258D01*
X91736157Y-40598135D01*
X91764156Y-40670853D01*
X91807682Y-40719937D01*
X91811890Y-40722650D01*
X91855778Y-40739288D01*
X91907192Y-40746086D01*
X91939290Y-40743799D01*
X91980580Y-40728066D01*
X92023889Y-40691566D01*
X92043371Y-40671517D01*
X92063078Y-40645693D01*
X92073524Y-40616805D01*
X92077628Y-40575186D01*
X92078304Y-40511168D01*
X92074833Y-40442757D01*
X92055282Y-40357191D01*
X92017770Y-40297220D01*
X91961467Y-40261718D01*
X91885544Y-40249558D01*
X91848548Y-40252546D01*
X91793663Y-40276357D01*
X91755448Y-40325008D01*
X91733076Y-40399808D01*
X91725721Y-40502062D01*
X91614105Y-40502062D01*
X91613736Y-40496927D01*
X91619851Y-40401553D01*
X91645620Y-40303201D01*
X91691300Y-40229454D01*
X91756645Y-40180679D01*
X91841408Y-40157246D01*
X91900314Y-40157742D01*
X91973289Y-40179931D01*
X92029426Y-40223879D01*
X92048319Y-40242662D01*
X92063137Y-40244121D01*
X92072357Y-40222182D01*
X92077080Y-40173980D01*
X92078409Y-40096654D01*
X92078409Y-39944318D01*
X92134533Y-39944318D01*
X92190657Y-39944318D01*
X92190657Y-40385290D01*
X92190657Y-40511168D01*
X92190657Y-40826263D01*
G37*
G36*
X95719913Y-40564666D02*
G01*
X95751670Y-40649966D01*
X95778087Y-40720788D01*
X95797232Y-40771933D01*
X95807176Y-40798201D01*
X95809752Y-40815750D01*
X95794369Y-40824231D01*
X95753848Y-40826263D01*
X95689618Y-40826263D01*
X95645754Y-40705997D01*
X95601891Y-40585732D01*
X95423641Y-40585766D01*
X95245392Y-40585800D01*
X95204525Y-40702023D01*
X95188970Y-40745550D01*
X95171613Y-40787106D01*
X95155359Y-40809498D01*
X95134744Y-40819334D01*
X95104304Y-40823222D01*
X95093800Y-40823898D01*
X95059123Y-40822397D01*
X95045315Y-40815204D01*
X95045465Y-40814301D01*
X95052503Y-40792113D01*
X95069051Y-40744408D01*
X95093695Y-40675129D01*
X95125025Y-40588218D01*
X95161629Y-40487618D01*
X95166084Y-40475470D01*
X95285480Y-40475470D01*
X95289059Y-40478581D01*
X95316773Y-40484192D01*
X95365940Y-40488072D01*
X95429395Y-40489520D01*
X95573310Y-40489520D01*
X95527862Y-40365246D01*
X95526130Y-40360504D01*
X95499790Y-40287143D01*
X95473912Y-40213170D01*
X95453864Y-40153917D01*
X95425315Y-40066862D01*
X95355397Y-40264141D01*
X95350779Y-40277202D01*
X95325252Y-40350581D01*
X95304508Y-40412170D01*
X95290575Y-40455843D01*
X95285480Y-40475470D01*
X95166084Y-40475470D01*
X95202095Y-40377273D01*
X95358509Y-39952336D01*
X95424366Y-39947496D01*
X95431504Y-39946996D01*
X95471375Y-39947312D01*
X95492460Y-39958978D01*
X95506163Y-39987584D01*
X95510285Y-39998979D01*
X95525359Y-40040028D01*
X95548608Y-40102998D01*
X95578103Y-40182689D01*
X95611911Y-40273901D01*
X95648103Y-40371434D01*
X95684747Y-40470089D01*
X95691972Y-40489520D01*
X95719913Y-40564666D01*
G37*
G36*
X90530543Y-40710679D02*
G01*
X90497165Y-40771078D01*
X90439627Y-40816382D01*
X90409504Y-40828439D01*
X90331231Y-40838314D01*
X90248113Y-40824584D01*
X90170596Y-40788338D01*
X90106061Y-40745631D01*
X90106061Y-40785947D01*
X90103130Y-40810594D01*
X90087110Y-40823442D01*
X90048585Y-40826263D01*
X89991110Y-40826263D01*
X89996471Y-40557670D01*
X89996927Y-40535740D01*
X89997977Y-40501413D01*
X90106061Y-40501413D01*
X90106061Y-40572848D01*
X90106145Y-40579760D01*
X90117630Y-40640343D01*
X90151759Y-40687497D01*
X90213245Y-40728047D01*
X90264284Y-40745413D01*
X90323965Y-40746587D01*
X90376008Y-40729522D01*
X90412811Y-40696940D01*
X90426768Y-40651566D01*
X90422778Y-40615163D01*
X90402359Y-40575929D01*
X90361262Y-40547245D01*
X90295756Y-40526799D01*
X90202112Y-40512280D01*
X90106061Y-40501413D01*
X89997977Y-40501413D01*
X90000207Y-40428553D01*
X90005795Y-40347906D01*
X90015262Y-40289096D01*
X90030181Y-40247422D01*
X90052125Y-40218180D01*
X90082665Y-40196671D01*
X90123374Y-40178190D01*
X90150056Y-40168765D01*
X90236360Y-40153867D01*
X90319213Y-40160565D01*
X90393157Y-40186366D01*
X90452733Y-40228774D01*
X90492482Y-40285297D01*
X90506945Y-40353439D01*
X90505092Y-40376833D01*
X90491708Y-40390603D01*
X90456829Y-40390315D01*
X90432902Y-40386161D01*
X90406494Y-40368625D01*
X90388678Y-40329225D01*
X90379350Y-40305209D01*
X90353676Y-40273655D01*
X90307991Y-40252645D01*
X90273500Y-40243771D01*
X90204666Y-40243785D01*
X90151850Y-40270265D01*
X90117999Y-40321143D01*
X90106061Y-40394352D01*
X90106083Y-40402046D01*
X90108585Y-40424737D01*
X90120588Y-40436432D01*
X90149615Y-40440776D01*
X90203190Y-40441414D01*
X90263466Y-40443178D01*
X90360824Y-40457233D01*
X90435250Y-40486426D01*
X90490922Y-40532073D01*
X90519449Y-40574367D01*
X90538419Y-40642628D01*
X90537385Y-40651566D01*
X90530543Y-40710679D01*
G37*
G36*
X92005796Y-42298179D02*
G01*
X91972418Y-42358578D01*
X91914879Y-42403882D01*
X91884757Y-42415939D01*
X91806483Y-42425814D01*
X91723365Y-42412084D01*
X91645849Y-42375838D01*
X91581313Y-42333131D01*
X91581313Y-42373447D01*
X91578383Y-42398094D01*
X91562363Y-42410942D01*
X91523838Y-42413763D01*
X91466363Y-42413763D01*
X91471723Y-42145170D01*
X91472179Y-42123240D01*
X91473230Y-42088913D01*
X91581313Y-42088913D01*
X91581313Y-42160348D01*
X91581398Y-42167260D01*
X91592883Y-42227843D01*
X91627012Y-42274997D01*
X91688498Y-42315547D01*
X91739537Y-42332913D01*
X91799217Y-42334087D01*
X91851261Y-42317022D01*
X91888063Y-42284440D01*
X91902020Y-42239066D01*
X91898030Y-42202663D01*
X91877612Y-42163429D01*
X91836514Y-42134745D01*
X91771008Y-42114299D01*
X91677365Y-42099780D01*
X91581313Y-42088913D01*
X91473230Y-42088913D01*
X91475460Y-42016053D01*
X91481047Y-41935406D01*
X91490515Y-41876596D01*
X91505434Y-41834922D01*
X91527377Y-41805680D01*
X91557917Y-41784171D01*
X91598627Y-41765690D01*
X91625309Y-41756265D01*
X91711612Y-41741367D01*
X91794466Y-41748065D01*
X91868410Y-41773866D01*
X91927986Y-41816274D01*
X91967735Y-41872797D01*
X91982197Y-41940939D01*
X91980344Y-41964333D01*
X91966961Y-41978103D01*
X91932081Y-41977815D01*
X91908155Y-41973661D01*
X91881746Y-41956125D01*
X91863931Y-41916725D01*
X91854603Y-41892709D01*
X91828928Y-41861155D01*
X91783244Y-41840145D01*
X91748753Y-41831271D01*
X91679919Y-41831285D01*
X91627103Y-41857765D01*
X91593252Y-41908643D01*
X91581313Y-41981852D01*
X91581336Y-41989546D01*
X91583838Y-42012237D01*
X91595841Y-42023932D01*
X91624868Y-42028276D01*
X91678442Y-42028914D01*
X91738719Y-42030678D01*
X91836076Y-42044733D01*
X91910503Y-42073926D01*
X91966175Y-42119573D01*
X91994701Y-42161867D01*
X92013671Y-42230128D01*
X92012637Y-42239066D01*
X92005796Y-42298179D01*
G37*
G36*
X93978144Y-42298179D02*
G01*
X93944766Y-42358578D01*
X93887228Y-42403882D01*
X93857105Y-42415939D01*
X93778832Y-42425814D01*
X93695714Y-42412084D01*
X93618197Y-42375838D01*
X93553662Y-42333131D01*
X93553662Y-42373447D01*
X93550731Y-42398094D01*
X93534711Y-42410942D01*
X93496186Y-42413763D01*
X93438711Y-42413763D01*
X93444072Y-42145170D01*
X93444528Y-42123240D01*
X93445578Y-42088913D01*
X93553662Y-42088913D01*
X93553662Y-42160348D01*
X93553746Y-42167260D01*
X93565231Y-42227843D01*
X93599360Y-42274997D01*
X93660846Y-42315547D01*
X93711885Y-42332913D01*
X93771566Y-42334087D01*
X93823609Y-42317022D01*
X93860412Y-42284440D01*
X93874369Y-42239066D01*
X93870379Y-42202663D01*
X93849960Y-42163429D01*
X93808863Y-42134745D01*
X93743357Y-42114299D01*
X93649713Y-42099780D01*
X93553662Y-42088913D01*
X93445578Y-42088913D01*
X93447808Y-42016053D01*
X93453396Y-41935406D01*
X93462863Y-41876596D01*
X93477782Y-41834922D01*
X93499726Y-41805680D01*
X93530266Y-41784171D01*
X93570975Y-41765690D01*
X93597657Y-41756265D01*
X93683961Y-41741367D01*
X93766814Y-41748065D01*
X93840758Y-41773866D01*
X93900334Y-41816274D01*
X93940083Y-41872797D01*
X93954546Y-41940939D01*
X93952693Y-41964333D01*
X93939309Y-41978103D01*
X93904430Y-41977815D01*
X93880503Y-41973661D01*
X93854095Y-41956125D01*
X93836279Y-41916725D01*
X93826951Y-41892709D01*
X93801277Y-41861155D01*
X93755592Y-41840145D01*
X93721101Y-41831271D01*
X93652267Y-41831285D01*
X93599451Y-41857765D01*
X93565600Y-41908643D01*
X93553662Y-41981852D01*
X93553684Y-41989546D01*
X93556186Y-42012237D01*
X93568189Y-42023932D01*
X93597216Y-42028276D01*
X93650791Y-42028914D01*
X93711067Y-42030678D01*
X93808425Y-42044733D01*
X93882851Y-42073926D01*
X93938523Y-42119573D01*
X93967050Y-42161867D01*
X93986020Y-42230128D01*
X93984986Y-42239066D01*
X93978144Y-42298179D01*
G37*
G36*
X93722269Y-39942989D02*
G01*
X93802417Y-39974708D01*
X93865895Y-40026877D01*
X93887408Y-40057110D01*
X93902416Y-40100018D01*
X93906440Y-40159863D01*
X93906057Y-40176815D01*
X93894284Y-40243314D01*
X93863620Y-40297668D01*
X93810772Y-40342903D01*
X93732443Y-40382048D01*
X93625338Y-40418129D01*
X93610155Y-40422591D01*
X93525442Y-40450778D01*
X93467160Y-40477847D01*
X93430636Y-40506440D01*
X93411199Y-40539198D01*
X93400988Y-40601467D01*
X93418394Y-40657853D01*
X93464137Y-40701269D01*
X93537025Y-40729906D01*
X93585175Y-40738040D01*
X93666610Y-40734873D01*
X93734640Y-40710194D01*
X93784219Y-40666300D01*
X93810300Y-40605490D01*
X93817621Y-40580755D01*
X93837352Y-40563741D01*
X93878450Y-40556702D01*
X93914797Y-40555547D01*
X93934061Y-40563475D01*
X93938510Y-40585279D01*
X93925044Y-40654844D01*
X93884582Y-40723488D01*
X93822390Y-40780449D01*
X93743790Y-40819328D01*
X93741370Y-40820102D01*
X93662372Y-40834575D01*
X93572347Y-40835262D01*
X93484985Y-40823019D01*
X93413978Y-40798703D01*
X93356894Y-40758252D01*
X93307706Y-40693347D01*
X93282482Y-40617695D01*
X93283346Y-40538341D01*
X93312426Y-40462330D01*
X93320649Y-40449382D01*
X93345761Y-40417717D01*
X93377752Y-40391653D01*
X93422659Y-40367755D01*
X93486517Y-40342589D01*
X93575361Y-40312721D01*
X93620776Y-40297235D01*
X93685576Y-40272149D01*
X93735972Y-40248991D01*
X93763776Y-40231300D01*
X93765613Y-40229419D01*
X93790756Y-40182574D01*
X93787376Y-40130397D01*
X93755895Y-40080952D01*
X93721996Y-40055295D01*
X93659129Y-40033046D01*
X93590912Y-40030677D01*
X93525812Y-40046884D01*
X93472299Y-40080361D01*
X93438841Y-40129804D01*
X93425389Y-40160664D01*
X93403661Y-40180351D01*
X93366034Y-40184848D01*
X93339499Y-40183545D01*
X93318160Y-40173291D01*
X93313132Y-40147131D01*
X93313610Y-40140308D01*
X93325841Y-40099438D01*
X93349423Y-40054928D01*
X93386574Y-40012372D01*
X93457603Y-39966410D01*
X93542282Y-39939251D01*
X93633030Y-39931307D01*
X93722269Y-39942989D01*
G37*
G36*
X92584342Y-41757857D02*
G01*
X92598029Y-41766095D01*
X92610448Y-41784744D01*
X92623651Y-41817878D01*
X92639686Y-41869574D01*
X92660603Y-41943906D01*
X92688453Y-42044949D01*
X92708524Y-42116182D01*
X92727166Y-42179702D01*
X92741570Y-42225952D01*
X92749671Y-42248086D01*
X92754549Y-42244528D01*
X92767040Y-42216011D01*
X92784934Y-42164594D01*
X92806648Y-42094903D01*
X92830599Y-42011564D01*
X92901287Y-41756313D01*
X92954873Y-41756313D01*
X92960080Y-41756394D01*
X92994415Y-41761927D01*
X93008460Y-41773487D01*
X93007267Y-41779473D01*
X92998687Y-41811484D01*
X92983244Y-41865665D01*
X92962611Y-41936397D01*
X92938462Y-42018061D01*
X92912473Y-42105039D01*
X92886319Y-42191712D01*
X92861673Y-42272462D01*
X92840210Y-42341670D01*
X92823604Y-42393718D01*
X92821996Y-42396718D01*
X92797847Y-42408957D01*
X92755175Y-42413763D01*
X92693308Y-42413763D01*
X92623611Y-42165215D01*
X92607618Y-42109144D01*
X92584825Y-42032691D01*
X92565418Y-41971680D01*
X92551065Y-41931282D01*
X92543435Y-41916667D01*
X92539270Y-41923087D01*
X92527040Y-41955204D01*
X92509183Y-42009711D01*
X92487366Y-42081438D01*
X92463258Y-42165215D01*
X92393561Y-42413763D01*
X92332887Y-42413763D01*
X92272213Y-42413763D01*
X92208609Y-42209312D01*
X92184505Y-42131724D01*
X92148599Y-42015536D01*
X92121099Y-41925512D01*
X92101166Y-41858833D01*
X92087965Y-41812678D01*
X92080659Y-41784227D01*
X92078409Y-41770659D01*
X92078619Y-41769382D01*
X92095599Y-41760111D01*
X92131464Y-41756313D01*
X92184519Y-41756313D01*
X92255104Y-42012177D01*
X92272690Y-42075272D01*
X92294444Y-42151344D01*
X92312277Y-42211391D01*
X92324701Y-42250436D01*
X92330227Y-42263502D01*
X92331660Y-42260247D01*
X92340660Y-42232979D01*
X92356120Y-42182752D01*
X92376342Y-42115136D01*
X92399631Y-42035700D01*
X92408438Y-42005396D01*
X92431483Y-41926201D01*
X92451158Y-41858726D01*
X92465608Y-41809330D01*
X92472975Y-41784375D01*
X92475452Y-41778188D01*
X92497384Y-41761330D01*
X92543272Y-41756313D01*
X92544967Y-41756309D01*
X92567338Y-41755953D01*
X92584342Y-41757857D01*
G37*
G36*
X93983049Y-38125615D02*
G01*
X93983673Y-38163499D01*
X93984339Y-38242398D01*
X93984008Y-38306691D01*
X93982740Y-38350559D01*
X93980594Y-38368186D01*
X93974829Y-38368583D01*
X93947278Y-38359614D01*
X93906440Y-38340783D01*
X93884489Y-38329967D01*
X93850444Y-38315153D01*
X93835325Y-38311602D01*
X93829227Y-38320385D01*
X93809322Y-38349599D01*
X93781166Y-38391181D01*
X93757821Y-38422205D01*
X93697924Y-38487863D01*
X93622048Y-38559365D01*
X93537661Y-38629867D01*
X93452233Y-38692527D01*
X93356893Y-38749772D01*
X93203333Y-38820818D01*
X93031267Y-38879886D01*
X92848106Y-38924133D01*
X92844440Y-38924798D01*
X92786459Y-38929933D01*
X92705995Y-38930663D01*
X92611516Y-38927526D01*
X92511491Y-38921057D01*
X92414387Y-38911795D01*
X92328672Y-38900275D01*
X92262816Y-38887035D01*
X92108960Y-38837710D01*
X91912515Y-38746742D01*
X91731257Y-38629664D01*
X91569785Y-38489116D01*
X91437681Y-38355817D01*
X91373835Y-38388388D01*
X91355670Y-38397479D01*
X91319635Y-38414292D01*
X91301333Y-38420960D01*
X91299782Y-38417065D01*
X91296973Y-38387996D01*
X91294719Y-38335172D01*
X91293221Y-38264135D01*
X91292677Y-38180429D01*
X91292806Y-38137334D01*
X91293769Y-38059270D01*
X91295519Y-37996648D01*
X91297872Y-37955010D01*
X91300644Y-37939899D01*
X91304968Y-37941994D01*
X91330957Y-37958629D01*
X91375967Y-37989161D01*
X91435249Y-38030343D01*
X91504053Y-38078927D01*
X91699493Y-38217955D01*
X91632386Y-38250458D01*
X91611968Y-38261212D01*
X91578496Y-38283938D01*
X91565278Y-38301144D01*
X91566568Y-38306035D01*
X91585189Y-38332564D01*
X91621795Y-38372563D01*
X91671057Y-38421080D01*
X91727647Y-38473160D01*
X91786237Y-38523850D01*
X91841496Y-38568196D01*
X91888098Y-38601245D01*
X91954278Y-38641365D01*
X92112536Y-38719860D01*
X92272870Y-38772800D01*
X92443246Y-38802432D01*
X92631629Y-38811003D01*
X92699737Y-38809371D01*
X92895491Y-38788718D01*
X93076722Y-38742972D01*
X93249676Y-38670214D01*
X93420598Y-38568524D01*
X93435101Y-38558170D01*
X93481860Y-38520554D01*
X93535826Y-38472765D01*
X93591750Y-38419989D01*
X93644383Y-38367411D01*
X93688477Y-38320220D01*
X93718782Y-38283601D01*
X93730051Y-38262741D01*
X93727620Y-38258025D01*
X93704857Y-38240832D01*
X93665909Y-38220518D01*
X93648199Y-38212141D01*
X93615287Y-38193753D01*
X93602630Y-38182003D01*
X93605114Y-38178721D01*
X93627278Y-38159060D01*
X93668684Y-38125491D01*
X93724788Y-38081652D01*
X93791045Y-38031180D01*
X93978599Y-37889949D01*
X93983049Y-38125615D01*
G37*
G36*
X94831890Y-37489380D02*
G01*
X94888673Y-37501574D01*
X94988782Y-37524967D01*
X95137469Y-37579141D01*
X95286939Y-37654072D01*
X95428767Y-37745368D01*
X95554525Y-37848637D01*
X95559329Y-37853183D01*
X95620550Y-37917089D01*
X95685005Y-37993751D01*
X95749180Y-38077928D01*
X95809563Y-38164379D01*
X95862642Y-38247864D01*
X95904905Y-38323143D01*
X95932838Y-38384975D01*
X95942929Y-38428120D01*
X95950385Y-38464391D01*
X95972740Y-38520010D01*
X96005133Y-38582927D01*
X96042621Y-38643627D01*
X96080265Y-38692595D01*
X96102086Y-38717040D01*
X96122891Y-38739263D01*
X96143752Y-38757595D01*
X96167578Y-38772399D01*
X96197280Y-38784037D01*
X96235768Y-38792872D01*
X96285954Y-38799269D01*
X96350747Y-38803588D01*
X96433059Y-38806194D01*
X96535799Y-38807449D01*
X96661878Y-38807716D01*
X96814207Y-38807358D01*
X96995696Y-38806738D01*
X97754924Y-38804310D01*
X97754924Y-38861012D01*
X97754924Y-38917715D01*
X97061395Y-38922958D01*
X96971678Y-38923634D01*
X96799925Y-38924859D01*
X96656143Y-38925679D01*
X96537531Y-38925990D01*
X96441288Y-38925685D01*
X96364612Y-38924662D01*
X96304702Y-38922814D01*
X96258756Y-38920039D01*
X96223972Y-38916230D01*
X96197549Y-38911284D01*
X96176685Y-38905095D01*
X96158579Y-38897560D01*
X96140429Y-38888574D01*
X96096564Y-38862172D01*
X96012208Y-38788527D01*
X95935762Y-38692044D01*
X95871697Y-38578859D01*
X95824484Y-38455105D01*
X95819345Y-38438622D01*
X95772820Y-38329207D01*
X95704672Y-38212192D01*
X95620130Y-38094945D01*
X95524426Y-37984835D01*
X95422791Y-37889231D01*
X95362374Y-37842924D01*
X95256369Y-37774510D01*
X95140973Y-37711991D01*
X95026856Y-37660981D01*
X94924685Y-37627096D01*
X94906163Y-37624359D01*
X94853784Y-37620630D01*
X94773425Y-37617204D01*
X94667487Y-37614082D01*
X94538373Y-37611264D01*
X94388485Y-37608750D01*
X94220225Y-37606541D01*
X94035994Y-37604636D01*
X93838194Y-37603036D01*
X93629229Y-37601742D01*
X93411499Y-37600752D01*
X93187406Y-37600069D01*
X92959353Y-37599691D01*
X92729742Y-37599620D01*
X92500973Y-37599855D01*
X92275451Y-37600396D01*
X92055576Y-37601245D01*
X91843750Y-37602400D01*
X91642376Y-37603863D01*
X91453855Y-37605634D01*
X91280589Y-37607712D01*
X91124981Y-37610099D01*
X90989432Y-37612794D01*
X90876345Y-37615798D01*
X90788120Y-37619110D01*
X90727161Y-37622732D01*
X90695869Y-37626663D01*
X90602359Y-37654732D01*
X90414438Y-37735453D01*
X90241248Y-37844338D01*
X90084630Y-37980323D01*
X90074850Y-37990336D01*
X90004970Y-38068961D01*
X89936508Y-38156912D01*
X89874921Y-38246336D01*
X89825669Y-38329379D01*
X89794209Y-38398187D01*
X89789315Y-38412120D01*
X89766076Y-38478247D01*
X89743797Y-38541596D01*
X89732530Y-38570127D01*
X89692543Y-38647977D01*
X89641337Y-38727054D01*
X89586134Y-38796844D01*
X89534158Y-38846828D01*
X89531265Y-38849032D01*
X89507097Y-38866701D01*
X89483166Y-38881463D01*
X89456535Y-38893555D01*
X89424267Y-38903214D01*
X89383425Y-38910676D01*
X89331073Y-38916180D01*
X89264273Y-38919960D01*
X89180088Y-38922256D01*
X89075582Y-38923302D01*
X88947817Y-38923338D01*
X88793857Y-38922598D01*
X88610764Y-38921321D01*
X87861111Y-38915783D01*
X87861111Y-38860013D01*
X87861111Y-38804243D01*
X88612245Y-38806745D01*
X88768370Y-38807299D01*
X88923798Y-38807728D01*
X89052585Y-38807571D01*
X89157662Y-38806458D01*
X89241955Y-38804024D01*
X89308394Y-38799900D01*
X89359907Y-38793718D01*
X89399422Y-38785111D01*
X89429867Y-38773711D01*
X89454172Y-38759150D01*
X89475264Y-38741061D01*
X89496072Y-38719076D01*
X89519525Y-38692828D01*
X89547708Y-38658028D01*
X89587851Y-38597497D01*
X89622768Y-38533419D01*
X89647457Y-38475271D01*
X89656914Y-38432529D01*
X89662669Y-38407798D01*
X89679915Y-38362881D01*
X89704612Y-38309831D01*
X89802884Y-38142256D01*
X89924578Y-37983092D01*
X90063173Y-37840858D01*
X90214909Y-37718572D01*
X90376031Y-37619250D01*
X90542779Y-37545910D01*
X90711395Y-37501568D01*
X90747854Y-37494316D01*
X90790417Y-37481988D01*
X90792361Y-37480922D01*
X91667853Y-37480922D01*
X91690850Y-37481349D01*
X91741544Y-37481741D01*
X91819079Y-37482093D01*
X91922600Y-37482402D01*
X92051249Y-37482664D01*
X92204170Y-37482875D01*
X92380507Y-37483030D01*
X92579402Y-37483126D01*
X92800000Y-37483159D01*
X92824236Y-37483159D01*
X93042588Y-37483119D01*
X93239147Y-37483017D01*
X93413058Y-37482855D01*
X93563462Y-37482639D01*
X93689504Y-37482372D01*
X93790328Y-37482058D01*
X93865077Y-37481702D01*
X93912893Y-37481306D01*
X93932922Y-37480876D01*
X93924306Y-37480414D01*
X93886188Y-37479926D01*
X93817713Y-37479415D01*
X93718024Y-37478885D01*
X93562339Y-37478266D01*
X93333620Y-37477651D01*
X93087337Y-37477270D01*
X92831760Y-37477124D01*
X92575163Y-37477212D01*
X92325819Y-37477535D01*
X92091999Y-37478093D01*
X91881976Y-37478885D01*
X91869978Y-37478942D01*
X91773618Y-37479470D01*
X91708381Y-37479979D01*
X91673412Y-37480464D01*
X91667853Y-37480922D01*
X90792361Y-37480922D01*
X90811284Y-37470547D01*
X90807277Y-37462120D01*
X90775215Y-37458838D01*
X90762793Y-37458252D01*
X90705010Y-37448331D01*
X90629845Y-37428335D01*
X90546247Y-37401107D01*
X90463166Y-37369489D01*
X90389550Y-37336324D01*
X90305523Y-37290881D01*
X90129164Y-37169882D01*
X89971191Y-37023029D01*
X89830655Y-36849495D01*
X89801440Y-36806226D01*
X89759496Y-36738465D01*
X89720331Y-36669506D01*
X89687687Y-36606329D01*
X89665301Y-36555913D01*
X89656914Y-36525236D01*
X89649228Y-36491865D01*
X89626538Y-36439243D01*
X89593807Y-36378840D01*
X89556059Y-36319855D01*
X89518320Y-36271487D01*
X89501700Y-36253006D01*
X89477816Y-36227516D01*
X89454389Y-36206371D01*
X89428462Y-36189163D01*
X89397080Y-36175486D01*
X89357283Y-36164931D01*
X89306116Y-36157093D01*
X89240621Y-36151563D01*
X89157840Y-36147935D01*
X89054818Y-36145801D01*
X88928597Y-36144754D01*
X88776220Y-36144387D01*
X88594729Y-36144291D01*
X87861111Y-36143939D01*
X87861111Y-36087816D01*
X87861111Y-36031692D01*
X88610764Y-36031849D01*
X89360417Y-36032005D01*
X89443334Y-36070612D01*
X89500737Y-36102647D01*
X89585617Y-36173903D01*
X89661698Y-36270843D01*
X89730461Y-36395496D01*
X89793391Y-36549894D01*
X89798584Y-36563193D01*
X89825185Y-36618506D01*
X89862219Y-36684648D01*
X89903342Y-36750071D01*
X89996317Y-36874578D01*
X90142606Y-37026745D01*
X90307159Y-37153424D01*
X90488277Y-37253362D01*
X90684261Y-37325309D01*
X90688513Y-37326494D01*
X90705392Y-37330689D01*
X90724827Y-37334446D01*
X90748552Y-37337789D01*
X90778305Y-37340743D01*
X90815821Y-37343330D01*
X90862838Y-37345575D01*
X90921090Y-37347503D01*
X90992314Y-37349137D01*
X91078247Y-37350501D01*
X91180625Y-37351620D01*
X91301183Y-37352517D01*
X91441659Y-37353216D01*
X91603787Y-37353742D01*
X91789306Y-37354118D01*
X91999950Y-37354369D01*
X92237457Y-37354518D01*
X92503561Y-37354590D01*
X92800000Y-37354609D01*
X92885859Y-37354607D01*
X93173643Y-37354576D01*
X93431577Y-37354486D01*
X93661400Y-37354311D01*
X93864849Y-37354029D01*
X94043661Y-37353614D01*
X94199572Y-37353044D01*
X94334321Y-37352293D01*
X94449645Y-37351338D01*
X94547280Y-37350154D01*
X94628965Y-37348717D01*
X94696435Y-37347004D01*
X94751429Y-37344991D01*
X94795683Y-37342652D01*
X94830935Y-37339964D01*
X94858923Y-37336904D01*
X94881382Y-37333446D01*
X94900051Y-37329566D01*
X94916667Y-37325242D01*
X94983743Y-37304373D01*
X95168108Y-37225803D01*
X95339412Y-37121487D01*
X95494182Y-36994548D01*
X95628945Y-36848107D01*
X95740227Y-36685286D01*
X95824556Y-36509205D01*
X95859079Y-36424734D01*
X95920536Y-36301597D01*
X95986429Y-36204669D01*
X96059475Y-36130232D01*
X96142391Y-36074570D01*
X96154895Y-36068099D01*
X96171003Y-36061147D01*
X96190228Y-36055395D01*
X96215464Y-36050705D01*
X96249607Y-36046943D01*
X96295552Y-36043971D01*
X96356195Y-36041653D01*
X96434432Y-36039854D01*
X96533157Y-36038437D01*
X96655266Y-36037266D01*
X96803655Y-36036204D01*
X96981219Y-36035117D01*
X97754924Y-36030524D01*
X97754924Y-36086636D01*
X97754924Y-36142749D01*
X96994606Y-36147353D01*
X96234288Y-36151957D01*
X96165282Y-36200471D01*
X96096186Y-36259099D01*
X96019738Y-36354117D01*
X95967191Y-36459652D01*
X95921155Y-36576193D01*
X95820741Y-36769790D01*
X95698256Y-36944673D01*
X95555956Y-37098544D01*
X95396098Y-37229106D01*
X95220937Y-37334061D01*
X95032731Y-37411112D01*
X94997229Y-37422106D01*
X94929250Y-37440961D01*
X94872412Y-37453981D01*
X94836298Y-37458838D01*
X94808042Y-37460220D01*
X94789262Y-37466816D01*
X94797982Y-37477166D01*
X94808282Y-37480876D01*
X94831890Y-37489380D01*
G37*
%TO.C,G3*%
G36*
X98716110Y-53497007D02*
G01*
X98716110Y-53955369D01*
X98637853Y-53955369D01*
X98559595Y-53955369D01*
X98559595Y-53497007D01*
X98559595Y-53038644D01*
X98637853Y-53038644D01*
X98716110Y-53038644D01*
X98716110Y-53497007D01*
G37*
G36*
X102628962Y-51126936D02*
G01*
X102628962Y-51741813D01*
X102550705Y-51741813D01*
X102472448Y-51741813D01*
X102472448Y-51126936D01*
X102472448Y-50512059D01*
X102550705Y-50512059D01*
X102628962Y-50512059D01*
X102628962Y-51126936D01*
G37*
G36*
X95831779Y-51126936D02*
G01*
X95831779Y-51741813D01*
X95462853Y-51741813D01*
X95093926Y-51741813D01*
X95093926Y-51674735D01*
X95093926Y-51607658D01*
X95373416Y-51607658D01*
X95652905Y-51607658D01*
X95652905Y-51059859D01*
X95652905Y-50512059D01*
X95742342Y-50512059D01*
X95831779Y-50512059D01*
X95831779Y-51126936D01*
G37*
G36*
X98691964Y-52713912D02*
G01*
X98727250Y-52752982D01*
X98735941Y-52805539D01*
X98711638Y-52855299D01*
X98699103Y-52865885D01*
X98644544Y-52882006D01*
X98591084Y-52862498D01*
X98553883Y-52811563D01*
X98551609Y-52800423D01*
X98565898Y-52756992D01*
X98604106Y-52719328D01*
X98651911Y-52703257D01*
X98691964Y-52713912D01*
G37*
G36*
X100571919Y-52792693D02*
G01*
X100571919Y-52859771D01*
X100404226Y-52859771D01*
X100236532Y-52859771D01*
X100236532Y-53407570D01*
X100236532Y-53955369D01*
X100147095Y-53955369D01*
X100057659Y-53955369D01*
X100057659Y-53407570D01*
X100057659Y-52859771D01*
X99889965Y-52859771D01*
X99722272Y-52859771D01*
X99722272Y-52792693D01*
X99722272Y-52725616D01*
X100147095Y-52725616D01*
X100571919Y-52725616D01*
X100571919Y-52792693D01*
G37*
G36*
X98338979Y-46518083D02*
G01*
X98440429Y-46583191D01*
X98461314Y-46602940D01*
X98515652Y-46666740D01*
X98551746Y-46726705D01*
X98570945Y-46786792D01*
X98578920Y-46909671D01*
X98550027Y-47029025D01*
X98487743Y-47134005D01*
X98395550Y-47213763D01*
X98297920Y-47255351D01*
X98180719Y-47266043D01*
X98069251Y-47237299D01*
X97971660Y-47171448D01*
X97896088Y-47070823D01*
X97870822Y-47013931D01*
X97846731Y-46897196D01*
X97856790Y-46786656D01*
X97895726Y-46687036D01*
X97958265Y-46603060D01*
X98039134Y-46539453D01*
X98133058Y-46500938D01*
X98234765Y-46492240D01*
X98338979Y-46518083D01*
G37*
G36*
X100292968Y-50848377D02*
G01*
X100487711Y-51184694D01*
X100686797Y-50848377D01*
X100885883Y-50512059D01*
X100974852Y-50512059D01*
X101063821Y-50512059D01*
X101063821Y-51126936D01*
X101063821Y-51741813D01*
X100986000Y-51741813D01*
X100908179Y-51741813D01*
X100902153Y-51255501D01*
X100896127Y-50769190D01*
X100720748Y-51066731D01*
X100651656Y-51182969D01*
X100588958Y-51280072D01*
X100538051Y-51339087D01*
X100493207Y-51359929D01*
X100448696Y-51342513D01*
X100398792Y-51286753D01*
X100337767Y-51192563D01*
X100259891Y-51059859D01*
X100091198Y-50769190D01*
X100085172Y-51255501D01*
X100079146Y-51741813D01*
X100001325Y-51741813D01*
X99923504Y-51741813D01*
X99923504Y-51126936D01*
X99923504Y-50512059D01*
X100010865Y-50512059D01*
X100098226Y-50512059D01*
X100292968Y-50848377D01*
G37*
G36*
X97677732Y-50791549D02*
G01*
X97698327Y-50829481D01*
X97751546Y-50924578D01*
X97796751Y-51001240D01*
X97829691Y-51052413D01*
X97846115Y-51071038D01*
X97849816Y-51068547D01*
X97872448Y-51037363D01*
X97909872Y-50976075D01*
X97957873Y-50891773D01*
X98012235Y-50791549D01*
X98160503Y-50512059D01*
X98248254Y-50512059D01*
X98266750Y-50512365D01*
X98316174Y-50517063D01*
X98336004Y-50525632D01*
X98326499Y-50546532D01*
X98298156Y-50600373D01*
X98254430Y-50680590D01*
X98198807Y-50780792D01*
X98134772Y-50894590D01*
X97933539Y-51249976D01*
X97933539Y-51495894D01*
X97933539Y-51741813D01*
X97844103Y-51741813D01*
X97754666Y-51741813D01*
X97754666Y-51489724D01*
X97754666Y-51237636D01*
X97596336Y-50958694D01*
X97580687Y-50931089D01*
X97520156Y-50823675D01*
X97465307Y-50725411D01*
X97421638Y-50646190D01*
X97394649Y-50595906D01*
X97351292Y-50512059D01*
X97439247Y-50512059D01*
X97527201Y-50512059D01*
X97677732Y-50791549D01*
G37*
G36*
X95567113Y-53026720D02*
G01*
X95675993Y-53060559D01*
X95769473Y-53121219D01*
X95792024Y-53140046D01*
X95806720Y-53138486D01*
X95809419Y-53098007D01*
X95813271Y-53061445D01*
X95834900Y-53042659D01*
X95887676Y-53038644D01*
X95965933Y-53038644D01*
X95965933Y-53497007D01*
X95965933Y-53955369D01*
X95887676Y-53955369D01*
X95809419Y-53955369D01*
X95809419Y-53623879D01*
X95809396Y-53579388D01*
X95808716Y-53462934D01*
X95806322Y-53381121D01*
X95801189Y-53326264D01*
X95792293Y-53290676D01*
X95778609Y-53266672D01*
X95759111Y-53246568D01*
X95702281Y-53202418D01*
X95607472Y-53158664D01*
X95517077Y-53151359D01*
X95439177Y-53182131D01*
X95433146Y-53186864D01*
X95418514Y-53204224D01*
X95407918Y-53232011D01*
X95400497Y-53277084D01*
X95395391Y-53346300D01*
X95391739Y-53446518D01*
X95388681Y-53584596D01*
X95381586Y-53955369D01*
X95304834Y-53955369D01*
X95228081Y-53955369D01*
X95228081Y-53595412D01*
X95228487Y-53509506D01*
X95232380Y-53365437D01*
X95241681Y-53256634D01*
X95257949Y-53176833D01*
X95282743Y-53119775D01*
X95317620Y-53079197D01*
X95364141Y-53048839D01*
X95457526Y-53022325D01*
X95567113Y-53026720D01*
G37*
G36*
X93908891Y-51741813D02*
G01*
X93839721Y-51741813D01*
X93837756Y-51741807D01*
X93783152Y-51731412D01*
X93758929Y-51697376D01*
X93758406Y-51695381D01*
X93748017Y-51667806D01*
X93729334Y-51667619D01*
X93688355Y-51694188D01*
X93637637Y-51726573D01*
X93595863Y-51748039D01*
X93545552Y-51761116D01*
X93436696Y-51759291D01*
X93327421Y-51723478D01*
X93231707Y-51657165D01*
X93183740Y-51595596D01*
X93137548Y-51487106D01*
X93112442Y-51359306D01*
X93110761Y-51283450D01*
X93274224Y-51283450D01*
X93275228Y-51327241D01*
X93293281Y-51455483D01*
X93333060Y-51549796D01*
X93393392Y-51606995D01*
X93402371Y-51611291D01*
X93475526Y-51627285D01*
X93559690Y-51624771D01*
X93629402Y-51604065D01*
X93662885Y-51583528D01*
X93707248Y-51541477D01*
X93734341Y-51484551D01*
X93747955Y-51402932D01*
X93751880Y-51286804D01*
X93751901Y-51277906D01*
X93751307Y-51185746D01*
X93746790Y-51125262D01*
X93735016Y-51084357D01*
X93712650Y-51050936D01*
X93676356Y-51012904D01*
X93642183Y-50981380D01*
X93583837Y-50946494D01*
X93518372Y-50936883D01*
X93454666Y-50942478D01*
X93373207Y-50976300D01*
X93317098Y-51042816D01*
X93284663Y-51144405D01*
X93274224Y-51283450D01*
X93110761Y-51283450D01*
X93109449Y-51224206D01*
X93129594Y-51093815D01*
X93173901Y-50980144D01*
X93248399Y-50887083D01*
X93344756Y-50827828D01*
X93453489Y-50805506D01*
X93565872Y-50821889D01*
X93673178Y-50878751D01*
X93752377Y-50939159D01*
X93752377Y-50725609D01*
X93752377Y-50512059D01*
X93830634Y-50512059D01*
X93908891Y-50512059D01*
X93908891Y-51126936D01*
X93908891Y-51277906D01*
X93908891Y-51741813D01*
G37*
G36*
X97240405Y-51741813D02*
G01*
X97171235Y-51741813D01*
X97169270Y-51741807D01*
X97114666Y-51731412D01*
X97090444Y-51697376D01*
X97089920Y-51695381D01*
X97079531Y-51667806D01*
X97060848Y-51667619D01*
X97019870Y-51694188D01*
X96969152Y-51726573D01*
X96927377Y-51748039D01*
X96877066Y-51761116D01*
X96768210Y-51759291D01*
X96658935Y-51723478D01*
X96563221Y-51657165D01*
X96515254Y-51595596D01*
X96469062Y-51487106D01*
X96443956Y-51359306D01*
X96442275Y-51283450D01*
X96605738Y-51283450D01*
X96606742Y-51327241D01*
X96624795Y-51455483D01*
X96664574Y-51549796D01*
X96724906Y-51606995D01*
X96733885Y-51611291D01*
X96807041Y-51627285D01*
X96891204Y-51624771D01*
X96960916Y-51604065D01*
X96994399Y-51583528D01*
X97038762Y-51541477D01*
X97065855Y-51484551D01*
X97079469Y-51402932D01*
X97083394Y-51286804D01*
X97083416Y-51277906D01*
X97082821Y-51185746D01*
X97078304Y-51125262D01*
X97066530Y-51084357D01*
X97044164Y-51050936D01*
X97007870Y-51012904D01*
X96973698Y-50981380D01*
X96915351Y-50946494D01*
X96849886Y-50936883D01*
X96786180Y-50942478D01*
X96704721Y-50976300D01*
X96648613Y-51042816D01*
X96616177Y-51144405D01*
X96605738Y-51283450D01*
X96442275Y-51283450D01*
X96440963Y-51224206D01*
X96461108Y-51093815D01*
X96505415Y-50980144D01*
X96579913Y-50887083D01*
X96676270Y-50827828D01*
X96785003Y-50805506D01*
X96897386Y-50821889D01*
X97004692Y-50878751D01*
X97083891Y-50939159D01*
X97083891Y-50725609D01*
X97083891Y-50512059D01*
X97162148Y-50512059D01*
X97240405Y-50512059D01*
X97240405Y-51126936D01*
X97240405Y-51277906D01*
X97240405Y-51741813D01*
G37*
G36*
X99752084Y-53696765D02*
G01*
X99737459Y-53797169D01*
X99687325Y-53885823D01*
X99603198Y-53946414D01*
X99549648Y-53963436D01*
X99442299Y-53969448D01*
X99332998Y-53947581D01*
X99240558Y-53900231D01*
X99191527Y-53864257D01*
X99157980Y-53847561D01*
X99143835Y-53859320D01*
X99140933Y-53899471D01*
X99139332Y-53923779D01*
X99121794Y-53949353D01*
X99073856Y-53955369D01*
X99006779Y-53955369D01*
X99007108Y-53592033D01*
X99007611Y-53503034D01*
X99163293Y-53503034D01*
X99163293Y-53616600D01*
X99163988Y-53660799D01*
X99172185Y-53713174D01*
X99196828Y-53749196D01*
X99246740Y-53786870D01*
X99286884Y-53808977D01*
X99365596Y-53834573D01*
X99446831Y-53845091D01*
X99516258Y-53839214D01*
X99559549Y-53815625D01*
X99590190Y-53759642D01*
X99596273Y-53682514D01*
X99563065Y-53614337D01*
X99493232Y-53565184D01*
X99457805Y-53553047D01*
X99377962Y-53533439D01*
X99291858Y-53518971D01*
X99163293Y-53503034D01*
X99007611Y-53503034D01*
X99007828Y-53464732D01*
X99011211Y-53344777D01*
X99018903Y-53256390D01*
X99032555Y-53192360D01*
X99053821Y-53145481D01*
X99084353Y-53108543D01*
X99125804Y-53074338D01*
X99144645Y-53061565D01*
X99192798Y-53040721D01*
X99257754Y-53030303D01*
X99353345Y-53027464D01*
X99362340Y-53027494D01*
X99480963Y-53036526D01*
X99567717Y-53065266D01*
X99632520Y-53118954D01*
X99685290Y-53202830D01*
X99701182Y-53238331D01*
X99714440Y-53302381D01*
X99693001Y-53339620D01*
X99636332Y-53351672D01*
X99611290Y-53350455D01*
X99575502Y-53333488D01*
X99558135Y-53285609D01*
X99552128Y-53264292D01*
X99506833Y-53199230D01*
X99431959Y-53156441D01*
X99337610Y-53142482D01*
X99303135Y-53145069D01*
X99224381Y-53172094D01*
X99178299Y-53229350D01*
X99163293Y-53318447D01*
X99163293Y-53412446D01*
X99349167Y-53424042D01*
X99485708Y-53439701D01*
X99605856Y-53473951D01*
X99688698Y-53527126D01*
X99736638Y-53600855D01*
X99749789Y-53682514D01*
X99752084Y-53696765D01*
G37*
G36*
X102138182Y-51292999D02*
G01*
X102188698Y-51430509D01*
X102231456Y-51548089D01*
X102264473Y-51640254D01*
X102285762Y-51701517D01*
X102293342Y-51726393D01*
X102292082Y-51729483D01*
X102264082Y-51737754D01*
X102210812Y-51737573D01*
X102179584Y-51734270D01*
X102147445Y-51724081D01*
X102123726Y-51699212D01*
X102100807Y-51650449D01*
X102071068Y-51568577D01*
X102014085Y-51406521D01*
X101764051Y-51406473D01*
X101700001Y-51406561D01*
X101612012Y-51407874D01*
X101556076Y-51411993D01*
X101523982Y-51420474D01*
X101507520Y-51434869D01*
X101498480Y-51456734D01*
X101489693Y-51483536D01*
X101466878Y-51548938D01*
X101439469Y-51624427D01*
X101439313Y-51624848D01*
X101412956Y-51691478D01*
X101389738Y-51726312D01*
X101357922Y-51739655D01*
X101305773Y-51741813D01*
X101249845Y-51739171D01*
X101227492Y-51727778D01*
X101230969Y-51702684D01*
X101239642Y-51679733D01*
X101262387Y-51618577D01*
X101296423Y-51526608D01*
X101339492Y-51409939D01*
X101389337Y-51274678D01*
X101390223Y-51272271D01*
X101556759Y-51272271D01*
X101757473Y-51272271D01*
X101801982Y-51271852D01*
X101882033Y-51268622D01*
X101937304Y-51262893D01*
X101957829Y-51255501D01*
X101957823Y-51255348D01*
X101950676Y-51228856D01*
X101932262Y-51172272D01*
X101905798Y-51094646D01*
X101874501Y-51005029D01*
X101841590Y-50912471D01*
X101810281Y-50826023D01*
X101783793Y-50754736D01*
X101765343Y-50707658D01*
X101758149Y-50693842D01*
X101757648Y-50696204D01*
X101747051Y-50729907D01*
X101724846Y-50795603D01*
X101693845Y-50885074D01*
X101656857Y-50990101D01*
X101556759Y-51272271D01*
X101390223Y-51272271D01*
X101443701Y-51126936D01*
X101488881Y-51004154D01*
X101539751Y-50866138D01*
X101584274Y-50745592D01*
X101620184Y-50648642D01*
X101645214Y-50581416D01*
X101657098Y-50550041D01*
X101666484Y-50533738D01*
X101699401Y-50517019D01*
X101762518Y-50516502D01*
X101851853Y-50523239D01*
X102072481Y-51115757D01*
X102081891Y-51141045D01*
X102124291Y-51255501D01*
X102138182Y-51292999D01*
G37*
G36*
X99389319Y-50514551D02*
G01*
X99485452Y-50546727D01*
X99540826Y-50583727D01*
X99611095Y-50667098D01*
X99648299Y-50767066D01*
X99649377Y-50873209D01*
X99611269Y-50975110D01*
X99585611Y-51010225D01*
X99532376Y-51057353D01*
X99455473Y-51100892D01*
X99348085Y-51144462D01*
X99203393Y-51191685D01*
X99118640Y-51219521D01*
X99030551Y-51258456D01*
X98975722Y-51301462D01*
X98947617Y-51354263D01*
X98939701Y-51422580D01*
X98939794Y-51428177D01*
X98962449Y-51505617D01*
X99019508Y-51566189D01*
X99103026Y-51606000D01*
X99205057Y-51621157D01*
X99317657Y-51607767D01*
X99350602Y-51598716D01*
X99434929Y-51562228D01*
X99485936Y-51510400D01*
X99512134Y-51435707D01*
X99513444Y-51428816D01*
X99527036Y-51382146D01*
X99553129Y-51365101D01*
X99607597Y-51366109D01*
X99613850Y-51366643D01*
X99663842Y-51374836D01*
X99682167Y-51395244D01*
X99680818Y-51439964D01*
X99669542Y-51496526D01*
X99617184Y-51602287D01*
X99529062Y-51683937D01*
X99408426Y-51737920D01*
X99335629Y-51753474D01*
X99200962Y-51759235D01*
X99069063Y-51739451D01*
X98952624Y-51696570D01*
X98864339Y-51633039D01*
X98808093Y-51548926D01*
X98775518Y-51439707D01*
X98777001Y-51329539D01*
X98790855Y-51276595D01*
X98823171Y-51212479D01*
X98875548Y-51158390D01*
X98953997Y-51109959D01*
X99064524Y-51062823D01*
X99213138Y-51012615D01*
X99225616Y-51008682D01*
X99334264Y-50971344D01*
X99406760Y-50937363D01*
X99450003Y-50901160D01*
X99470891Y-50857158D01*
X99476321Y-50799778D01*
X99468317Y-50742442D01*
X99427899Y-50681919D01*
X99352165Y-50646805D01*
X99239761Y-50636163D01*
X99203444Y-50637726D01*
X99099078Y-50660660D01*
X99027566Y-50709506D01*
X98991808Y-50782553D01*
X98978355Y-50826954D01*
X98952154Y-50843780D01*
X98897544Y-50843026D01*
X98845304Y-50835226D01*
X98823034Y-50816042D01*
X98820969Y-50774532D01*
X98821324Y-50770188D01*
X98849779Y-50684001D01*
X98912708Y-50604421D01*
X99000748Y-50543479D01*
X99037445Y-50528613D01*
X99147163Y-50505373D01*
X99270505Y-50500726D01*
X99389319Y-50514551D01*
G37*
G36*
X97811705Y-53040796D02*
G01*
X97830790Y-53052284D01*
X97848108Y-53078287D01*
X97866517Y-53124489D01*
X97888875Y-53196571D01*
X97918042Y-53300217D01*
X97956875Y-53441109D01*
X97984861Y-53540433D01*
X98010856Y-53629003D01*
X98030939Y-53693492D01*
X98042235Y-53724355D01*
X98049037Y-53719394D01*
X98066454Y-53679632D01*
X98091405Y-53607937D01*
X98121682Y-53510762D01*
X98155079Y-53394558D01*
X98253643Y-53038644D01*
X98328362Y-53038644D01*
X98335622Y-53038757D01*
X98383498Y-53046471D01*
X98403081Y-53062590D01*
X98401418Y-53070938D01*
X98389455Y-53115573D01*
X98367921Y-53191120D01*
X98339151Y-53289746D01*
X98305479Y-53403616D01*
X98269241Y-53524895D01*
X98232772Y-53645749D01*
X98198406Y-53758345D01*
X98168479Y-53854846D01*
X98145325Y-53927420D01*
X98143083Y-53931604D01*
X98109410Y-53948668D01*
X98049910Y-53955369D01*
X97963645Y-53955369D01*
X97866462Y-53608802D01*
X97844161Y-53530620D01*
X97812379Y-53424016D01*
X97785319Y-53338944D01*
X97765306Y-53282614D01*
X97754666Y-53262235D01*
X97748859Y-53271188D01*
X97731806Y-53315971D01*
X97706907Y-53391974D01*
X97676486Y-53491988D01*
X97642870Y-53608802D01*
X97545687Y-53955369D01*
X97461085Y-53955369D01*
X97376483Y-53955369D01*
X97287797Y-53670290D01*
X97254187Y-53562105D01*
X97204121Y-53400095D01*
X97165775Y-53274569D01*
X97137982Y-53181594D01*
X97119575Y-53117237D01*
X97109387Y-53077566D01*
X97106250Y-53058648D01*
X97106543Y-53056867D01*
X97130220Y-53043939D01*
X97180228Y-53038644D01*
X97254206Y-53038644D01*
X97352627Y-53395412D01*
X97377149Y-53483390D01*
X97407483Y-53589462D01*
X97432348Y-53673189D01*
X97449671Y-53727632D01*
X97457377Y-53745850D01*
X97459375Y-53741312D01*
X97471924Y-53703291D01*
X97493480Y-53633256D01*
X97521678Y-53538975D01*
X97554151Y-53428211D01*
X97566432Y-53385956D01*
X97598565Y-53275530D01*
X97625999Y-53181445D01*
X97646147Y-53112569D01*
X97656419Y-53077772D01*
X97659873Y-53069145D01*
X97690455Y-53045639D01*
X97754439Y-53038644D01*
X97756803Y-53038638D01*
X97787996Y-53038142D01*
X97811705Y-53040796D01*
G37*
G36*
X94934992Y-51565822D02*
G01*
X94892932Y-51652454D01*
X94821372Y-51718881D01*
X94815866Y-51722115D01*
X94742484Y-51751677D01*
X94669103Y-51763597D01*
X94643208Y-51761732D01*
X94570116Y-51745669D01*
X94493045Y-51718294D01*
X94428017Y-51685881D01*
X94391052Y-51654704D01*
X94367243Y-51631577D01*
X94343605Y-51640961D01*
X94333715Y-51685915D01*
X94332113Y-51710223D01*
X94314576Y-51735797D01*
X94266638Y-51741813D01*
X94199560Y-51741813D01*
X94199560Y-51363423D01*
X94199591Y-51343242D01*
X94358048Y-51343242D01*
X94360496Y-51411261D01*
X94362907Y-51445543D01*
X94373386Y-51504438D01*
X94397308Y-51543130D01*
X94443228Y-51578955D01*
X94502729Y-51608318D01*
X94591770Y-51628186D01*
X94678150Y-51626304D01*
X94744442Y-51601376D01*
X94768939Y-51571592D01*
X94784823Y-51508586D01*
X94776875Y-51439431D01*
X94745043Y-51382992D01*
X94732627Y-51373080D01*
X94672660Y-51344705D01*
X94588436Y-51319529D01*
X94495088Y-51301515D01*
X94407752Y-51294630D01*
X94382800Y-51296136D01*
X94363972Y-51308594D01*
X94358048Y-51343242D01*
X94199591Y-51343242D01*
X94199773Y-51225056D01*
X94201039Y-51123878D01*
X94204303Y-51052578D01*
X94210507Y-51003736D01*
X94220594Y-50969929D01*
X94235507Y-50943735D01*
X94256190Y-50917732D01*
X94342684Y-50847424D01*
X94456756Y-50811239D01*
X94598338Y-50809938D01*
X94624812Y-50813164D01*
X94735692Y-50843016D01*
X94817197Y-50899851D01*
X94878072Y-50989274D01*
X94895319Y-51028196D01*
X94907185Y-51090645D01*
X94884426Y-51126594D01*
X94826318Y-51138116D01*
X94813040Y-51137848D01*
X94770465Y-51127195D01*
X94758539Y-51096413D01*
X94755848Y-51074889D01*
X94724547Y-51012898D01*
X94669207Y-50959377D01*
X94603809Y-50929414D01*
X94573150Y-50925739D01*
X94493428Y-50933999D01*
X94422510Y-50962323D01*
X94377962Y-51004843D01*
X94376787Y-51007151D01*
X94362119Y-51059300D01*
X94356074Y-51125466D01*
X94356074Y-51205193D01*
X94486676Y-51205193D01*
X94590366Y-51211867D01*
X94705672Y-51233600D01*
X94804388Y-51266819D01*
X94872544Y-51307808D01*
X94924627Y-51380007D01*
X94946056Y-51471001D01*
X94941670Y-51508586D01*
X94934992Y-51565822D01*
G37*
G36*
X96992034Y-53779379D02*
G01*
X96949975Y-53866011D01*
X96878415Y-53932437D01*
X96872908Y-53935671D01*
X96799526Y-53965233D01*
X96726145Y-53977154D01*
X96700250Y-53975288D01*
X96627158Y-53959225D01*
X96550087Y-53931850D01*
X96485059Y-53899438D01*
X96448094Y-53868261D01*
X96424286Y-53845133D01*
X96400648Y-53854517D01*
X96390757Y-53899471D01*
X96389156Y-53923779D01*
X96371618Y-53949353D01*
X96323680Y-53955369D01*
X96256603Y-53955369D01*
X96256603Y-53576979D01*
X96256634Y-53556798D01*
X96415090Y-53556798D01*
X96417538Y-53624818D01*
X96419950Y-53659100D01*
X96430428Y-53717994D01*
X96454351Y-53756686D01*
X96500270Y-53792511D01*
X96559771Y-53821874D01*
X96648812Y-53841742D01*
X96735192Y-53839861D01*
X96801484Y-53814933D01*
X96825982Y-53785148D01*
X96841865Y-53722143D01*
X96833917Y-53652987D01*
X96802085Y-53596549D01*
X96789669Y-53586636D01*
X96729702Y-53558262D01*
X96645478Y-53533085D01*
X96552131Y-53515072D01*
X96464794Y-53508186D01*
X96439842Y-53509693D01*
X96421014Y-53522150D01*
X96415090Y-53556798D01*
X96256634Y-53556798D01*
X96256815Y-53438612D01*
X96258082Y-53337434D01*
X96261345Y-53266135D01*
X96267549Y-53217293D01*
X96277636Y-53183486D01*
X96292550Y-53157292D01*
X96313232Y-53131289D01*
X96399726Y-53060980D01*
X96513798Y-53024796D01*
X96655380Y-53023494D01*
X96681854Y-53026720D01*
X96792734Y-53056572D01*
X96874239Y-53113407D01*
X96935114Y-53202830D01*
X96952361Y-53241753D01*
X96964228Y-53304202D01*
X96941468Y-53340150D01*
X96883361Y-53351672D01*
X96870082Y-53351405D01*
X96827507Y-53340752D01*
X96815581Y-53309969D01*
X96812890Y-53288446D01*
X96781589Y-53226455D01*
X96726250Y-53172933D01*
X96660852Y-53142971D01*
X96630192Y-53139295D01*
X96550470Y-53147555D01*
X96479552Y-53175879D01*
X96435004Y-53218399D01*
X96433830Y-53220707D01*
X96419162Y-53272856D01*
X96413117Y-53339023D01*
X96413117Y-53418750D01*
X96543718Y-53418750D01*
X96647408Y-53425423D01*
X96762714Y-53447156D01*
X96861431Y-53480375D01*
X96929586Y-53521365D01*
X96981670Y-53593563D01*
X97003098Y-53684557D01*
X96998712Y-53722143D01*
X96992034Y-53779379D01*
G37*
G36*
X100406094Y-46889721D02*
G01*
X100398093Y-47072617D01*
X100380021Y-47241044D01*
X100352011Y-47381285D01*
X100328825Y-47461712D01*
X100214710Y-47763380D01*
X100065246Y-48039923D01*
X99881995Y-48289132D01*
X99666524Y-48508798D01*
X99420397Y-48696711D01*
X99368910Y-48729467D01*
X99101349Y-48869411D01*
X98819968Y-48970040D01*
X98529493Y-49031550D01*
X98234649Y-49054139D01*
X97940162Y-49038002D01*
X97650758Y-48983337D01*
X97371162Y-48890340D01*
X97106101Y-48759208D01*
X96860300Y-48590139D01*
X96816646Y-48555600D01*
X96749217Y-48504167D01*
X96699460Y-48468705D01*
X96675837Y-48455394D01*
X96671431Y-48468691D01*
X96666502Y-48519955D01*
X96662585Y-48602948D01*
X96660000Y-48710421D01*
X96659067Y-48835123D01*
X96659386Y-48934928D01*
X96660610Y-49046669D01*
X96662589Y-49135473D01*
X96665151Y-49194080D01*
X96668122Y-49215228D01*
X96675692Y-49208057D01*
X96700915Y-49171999D01*
X96735465Y-49115768D01*
X96774061Y-49053070D01*
X96807309Y-49012134D01*
X96836328Y-48998452D01*
X96869462Y-49005136D01*
X96884617Y-49013079D01*
X96900469Y-49037590D01*
X96897034Y-49078334D01*
X96872620Y-49140338D01*
X96825537Y-49228632D01*
X96754094Y-49348244D01*
X96744525Y-49363774D01*
X96688177Y-49453729D01*
X96640765Y-49526964D01*
X96607024Y-49576296D01*
X96591691Y-49594544D01*
X96589561Y-49593182D01*
X96568383Y-49566287D01*
X96529580Y-49510196D01*
X96477816Y-49431791D01*
X96417756Y-49337951D01*
X96400251Y-49310137D01*
X96339328Y-49210966D01*
X96299797Y-49140608D01*
X96278612Y-49092431D01*
X96272727Y-49059806D01*
X96279097Y-49036102D01*
X96298031Y-49009077D01*
X96324467Y-48991637D01*
X96337871Y-48994993D01*
X96379694Y-49026174D01*
X96426777Y-49080687D01*
X96468400Y-49146962D01*
X96472204Y-49154204D01*
X96498050Y-49197532D01*
X96514307Y-49215228D01*
X96516992Y-49202991D01*
X96520147Y-49152915D01*
X96522656Y-49070961D01*
X96524314Y-48964443D01*
X96524912Y-48840674D01*
X96524912Y-48466120D01*
X96427674Y-48414535D01*
X96352613Y-48360339D01*
X96284210Y-48274303D01*
X96242767Y-48175350D01*
X96232611Y-48074492D01*
X96258066Y-47982741D01*
X96266119Y-47955777D01*
X96262055Y-47913372D01*
X96241913Y-47849507D01*
X96203501Y-47755030D01*
X96193089Y-47730515D01*
X96123574Y-47552073D01*
X96074842Y-47390669D01*
X96043828Y-47231067D01*
X96027467Y-47058035D01*
X96022694Y-46856338D01*
X96025466Y-46739173D01*
X96177641Y-46739173D01*
X96181588Y-47028599D01*
X96226473Y-47318743D01*
X96313402Y-47605369D01*
X96321808Y-47627318D01*
X96356218Y-47713982D01*
X96381642Y-47766732D01*
X96403347Y-47792323D01*
X96426604Y-47797509D01*
X96456680Y-47789045D01*
X96473552Y-47781912D01*
X96489761Y-47768030D01*
X96499543Y-47741898D01*
X96504272Y-47695402D01*
X96505318Y-47620426D01*
X96504054Y-47508857D01*
X96500188Y-47247623D01*
X96579628Y-47247623D01*
X96659067Y-47247623D01*
X96659067Y-47515933D01*
X96659541Y-47604241D01*
X96662146Y-47692816D01*
X96667722Y-47747975D01*
X96677045Y-47776267D01*
X96690891Y-47784242D01*
X96700598Y-47785398D01*
X96750256Y-47810156D01*
X96807821Y-47858341D01*
X96860845Y-47918235D01*
X96896879Y-47978123D01*
X96920013Y-48051879D01*
X96921051Y-48156439D01*
X96881525Y-48265826D01*
X96835673Y-48354401D01*
X96938698Y-48446169D01*
X96982498Y-48483349D01*
X97169989Y-48612184D01*
X97388178Y-48722096D01*
X97627672Y-48808869D01*
X97879078Y-48868287D01*
X98076523Y-48892491D01*
X98365608Y-48891914D01*
X98649128Y-48850008D01*
X98922934Y-48768777D01*
X99182876Y-48650227D01*
X99424807Y-48496362D01*
X99644575Y-48309188D01*
X99838033Y-48090710D01*
X100001030Y-47842932D01*
X100036711Y-47775047D01*
X100127483Y-47558339D01*
X100197629Y-47322047D01*
X100242861Y-47082578D01*
X100258891Y-46856338D01*
X100255525Y-46757161D01*
X100226913Y-46529404D01*
X100172593Y-46295706D01*
X100096788Y-46072306D01*
X100003725Y-45875444D01*
X99966382Y-45809519D01*
X99922596Y-45736173D01*
X99890543Y-45692438D01*
X99864289Y-45672485D01*
X99837904Y-45670486D01*
X99805454Y-45680609D01*
X99744631Y-45703734D01*
X99744631Y-45983777D01*
X99744631Y-46263820D01*
X99677553Y-46263820D01*
X99610476Y-46263820D01*
X99610476Y-45988077D01*
X99610476Y-45712333D01*
X99527347Y-45658279D01*
X99510212Y-45646725D01*
X99413767Y-45558273D01*
X99359276Y-45457842D01*
X99347698Y-45347095D01*
X99350415Y-45320932D01*
X99360770Y-45254687D01*
X99372446Y-45211742D01*
X99373384Y-45204111D01*
X99351262Y-45171471D01*
X99296969Y-45128256D01*
X99217685Y-45078698D01*
X99120589Y-45027029D01*
X99012863Y-44977480D01*
X98901687Y-44934284D01*
X98765112Y-44891344D01*
X98469472Y-44831047D01*
X98173987Y-44815382D01*
X97879078Y-44844388D01*
X97648721Y-44896022D01*
X97393026Y-44986884D01*
X97153824Y-45113035D01*
X96920914Y-45279105D01*
X96733273Y-45451009D01*
X96549117Y-45673331D01*
X96400370Y-45917543D01*
X96288138Y-46179411D01*
X96213527Y-46454699D01*
X96177641Y-46739173D01*
X96025466Y-46739173D01*
X96027440Y-46655768D01*
X96043755Y-46482454D01*
X96074580Y-46322694D01*
X96122854Y-46161279D01*
X96191520Y-45982996D01*
X96310758Y-45747984D01*
X96469317Y-45518370D01*
X96658484Y-45305228D01*
X96871215Y-45115602D01*
X97100466Y-44956539D01*
X97339194Y-44835083D01*
X97524084Y-44767174D01*
X97827275Y-44692431D01*
X98133951Y-44660000D01*
X98439888Y-44669637D01*
X98740863Y-44721098D01*
X99032654Y-44814142D01*
X99311037Y-44948525D01*
X99367665Y-44980575D01*
X99442278Y-45019805D01*
X99493001Y-45040097D01*
X99528693Y-45044604D01*
X99558216Y-45036477D01*
X99565620Y-45033014D01*
X99584166Y-45021116D01*
X99596735Y-45001784D01*
X99604489Y-44967563D01*
X99608589Y-44910994D01*
X99610198Y-44824621D01*
X99610476Y-44700987D01*
X99610476Y-44699811D01*
X99609741Y-44553890D01*
X99606778Y-44449086D01*
X99600421Y-44381836D01*
X99589509Y-44348576D01*
X99572878Y-44345742D01*
X99549364Y-44369772D01*
X99517804Y-44417101D01*
X99473100Y-44476224D01*
X99422436Y-44515050D01*
X99379311Y-44519019D01*
X99349986Y-44485576D01*
X99349437Y-44481192D01*
X99360462Y-44444344D01*
X99389053Y-44382651D01*
X99430423Y-44304170D01*
X99479785Y-44216960D01*
X99532350Y-44129079D01*
X99583330Y-44048585D01*
X99627938Y-43983537D01*
X99661387Y-43941992D01*
X99678887Y-43932009D01*
X99707611Y-43969548D01*
X99750133Y-44033309D01*
X99800998Y-44114146D01*
X99854780Y-44202948D01*
X99906055Y-44290601D01*
X99949397Y-44367993D01*
X99979381Y-44426011D01*
X99990581Y-44455544D01*
X99983480Y-44494793D01*
X99955197Y-44517802D01*
X99911697Y-44508762D01*
X99859837Y-44469652D01*
X99806473Y-44402449D01*
X99745339Y-44307394D01*
X99744985Y-44659251D01*
X99744631Y-45011107D01*
X99818342Y-45041906D01*
X99850896Y-45057642D01*
X99941809Y-45130983D01*
X100002775Y-45229023D01*
X100028991Y-45341622D01*
X100015657Y-45458642D01*
X100006085Y-45494602D01*
X100003531Y-45531912D01*
X100014546Y-45572124D01*
X100042655Y-45626819D01*
X100091378Y-45707577D01*
X100178146Y-45865374D01*
X100280040Y-46104120D01*
X100361820Y-46364436D01*
X100368352Y-46391377D01*
X100391356Y-46535384D01*
X100403892Y-46706071D01*
X100405694Y-46856338D01*
X100406094Y-46889721D01*
G37*
%TO.C,G2*%
G36*
X80936928Y-46043770D02*
G01*
X81170498Y-46303365D01*
X81371612Y-46533148D01*
X81529096Y-46720563D01*
X81631780Y-46853056D01*
X81668490Y-46918072D01*
X81639445Y-46920960D01*
X81527131Y-46891074D01*
X81349977Y-46829617D01*
X81129044Y-46743408D01*
X81046676Y-46709951D01*
X80650021Y-46553502D01*
X80245219Y-46400674D01*
X79846219Y-46256101D01*
X79466970Y-46124419D01*
X79121419Y-46010263D01*
X78823514Y-45918268D01*
X78587205Y-45853070D01*
X78426439Y-45819303D01*
X78355165Y-45821604D01*
X78349700Y-45836323D01*
X78324972Y-45940757D01*
X78285280Y-46131288D01*
X78233809Y-46391937D01*
X78173748Y-46706721D01*
X78108284Y-47059660D01*
X78077745Y-47225533D01*
X78014439Y-47562832D01*
X77958059Y-47854583D01*
X77911780Y-48084821D01*
X77878778Y-48237578D01*
X77862228Y-48296889D01*
X77834991Y-48271927D01*
X77776068Y-48168876D01*
X77700909Y-48010515D01*
X77513579Y-47587911D01*
X77308306Y-47128039D01*
X77143300Y-46762803D01*
X77016592Y-46487944D01*
X76926212Y-46299203D01*
X76870190Y-46192319D01*
X76846556Y-46163035D01*
X76829955Y-46211387D01*
X76791912Y-46355506D01*
X76736813Y-46580229D01*
X76668171Y-46870674D01*
X76589496Y-47211959D01*
X76504299Y-47589204D01*
X76416091Y-47987527D01*
X76403294Y-48045217D01*
X76358724Y-48235220D01*
X76323701Y-48368196D01*
X76304904Y-48418271D01*
X76293005Y-48397559D01*
X76242887Y-48290087D01*
X76159722Y-48103428D01*
X76049705Y-47851691D01*
X75919034Y-47548982D01*
X75773906Y-47209409D01*
X75700615Y-47037322D01*
X75546715Y-46677225D01*
X75402070Y-46340374D01*
X75275208Y-46046546D01*
X75174655Y-45815519D01*
X75108938Y-45667068D01*
X75106021Y-45660607D01*
X75023536Y-45474918D01*
X74912480Y-45221004D01*
X74787035Y-44931450D01*
X74661383Y-44638840D01*
X74541077Y-44366518D01*
X74383470Y-44023584D01*
X74203103Y-43640999D01*
X74013989Y-43248481D01*
X73830136Y-42875747D01*
X73295714Y-41807402D01*
X73716566Y-42037910D01*
X73885294Y-42131334D01*
X74194224Y-42306965D01*
X74492217Y-42481577D01*
X74757582Y-42642169D01*
X74968628Y-42775742D01*
X75103666Y-42869293D01*
X75209849Y-42940425D01*
X75285101Y-42971444D01*
X75292725Y-42965913D01*
X75275699Y-42886692D01*
X75200433Y-42714086D01*
X75067295Y-42448834D01*
X74876649Y-42091676D01*
X74700855Y-41773611D01*
X75110066Y-41773611D01*
X75111726Y-41779042D01*
X75148717Y-41858100D01*
X75229440Y-42019712D01*
X75347452Y-42251294D01*
X75496310Y-42540259D01*
X75669570Y-42874020D01*
X75860788Y-43239992D01*
X76038579Y-43582924D01*
X76266778Y-44032304D01*
X76492351Y-44485585D01*
X76702787Y-44917320D01*
X76885572Y-45302062D01*
X77028196Y-45614364D01*
X77173330Y-45942064D01*
X77334538Y-46304023D01*
X77459826Y-46581304D01*
X77554160Y-46783774D01*
X77622508Y-46921303D01*
X77669836Y-47003757D01*
X77701111Y-47041006D01*
X77721299Y-47042916D01*
X77735369Y-47019357D01*
X77737303Y-47013940D01*
X77763055Y-46910300D01*
X77797819Y-46735205D01*
X77834646Y-46523379D01*
X77855606Y-46384080D01*
X77872019Y-46203153D01*
X77867154Y-46030649D01*
X77839054Y-45827827D01*
X77785763Y-45555951D01*
X77658735Y-45067145D01*
X77474658Y-44612817D01*
X77230071Y-44214607D01*
X76911838Y-43846827D01*
X76538432Y-43471663D01*
X76739232Y-43471663D01*
X76985997Y-43505354D01*
X77282955Y-43604798D01*
X77572937Y-43752262D01*
X77813934Y-43929836D01*
X77822362Y-43937664D01*
X78084958Y-44256635D01*
X78269976Y-44640569D01*
X78365675Y-45065302D01*
X78402667Y-45408393D01*
X78854507Y-45529933D01*
X78927873Y-45550278D01*
X79215931Y-45637416D01*
X79533601Y-45741822D01*
X79824466Y-45845161D01*
X79972719Y-45899313D01*
X80168397Y-45966244D01*
X80306861Y-46007778D01*
X80364886Y-46016551D01*
X80338395Y-45974489D01*
X80243270Y-45867429D01*
X80091346Y-45707788D01*
X79894912Y-45507664D01*
X79666257Y-45279156D01*
X79417670Y-45034362D01*
X79161443Y-44785382D01*
X78909863Y-44544314D01*
X78675221Y-44323256D01*
X78469806Y-44134306D01*
X78305908Y-43989565D01*
X77676308Y-43478124D01*
X76936223Y-42928164D01*
X76166083Y-42403979D01*
X76145669Y-42390720D01*
X75793549Y-42163224D01*
X75524656Y-41992402D01*
X75330426Y-41873142D01*
X75202294Y-41800332D01*
X75131695Y-41768859D01*
X75110066Y-41773611D01*
X74700855Y-41773611D01*
X74628861Y-41643353D01*
X74602194Y-41595493D01*
X74476448Y-41363712D01*
X74377930Y-41172009D01*
X74316005Y-41039163D01*
X74300036Y-40983954D01*
X74334701Y-40988957D01*
X74454822Y-41040332D01*
X74646665Y-41136477D01*
X74896687Y-41270109D01*
X75191344Y-41433944D01*
X75517094Y-41620699D01*
X75860394Y-41823092D01*
X76911663Y-42491395D01*
X78031840Y-43305705D01*
X79093258Y-44194728D01*
X80118532Y-45176274D01*
X80153198Y-45211661D01*
X80417106Y-45485363D01*
X80682073Y-45766918D01*
X80911872Y-46016551D01*
X80936928Y-46043770D01*
G37*
%TD*%
%LPC*%
D12*
%TO.C,TH3*%
X90750000Y-51600000D03*
%TD*%
%TO.C,TH1*%
X129400000Y-51550000D03*
%TD*%
D13*
%TO.C,J1*%
X82525019Y-44750000D03*
X82525019Y-47250127D03*
D14*
X77474981Y-49800038D03*
X77474981Y-39699962D03*
%TD*%
D12*
%TO.C,TH2*%
X112600000Y-37400000D03*
%TD*%
D13*
%TO.C,J2*%
X137474981Y-44750000D03*
X137474981Y-42249873D03*
D14*
X142525019Y-39699962D03*
X142525019Y-49800038D03*
%TD*%
%LPD*%
M02*
