%TF.GenerationSoftware,KiCad,Pcbnew,10.0.3*%
%TF.CreationDate,2026-06-27T16:59:53+08:00*%
%TF.ProjectId,LPFilter_2kHz_Elliptical_v0.1,4c504669-6c74-4657-925f-326b487a5f45,rev?*%
%TF.SameCoordinates,Original*%
%TF.FileFunction,Copper,L1,Top*%
%TF.FilePolarity,Positive*%
%FSLAX46Y46*%
G04 Gerber Fmt 4.6, Leading zero omitted, Abs format (unit mm)*
G04 Created by KiCad (PCBNEW 10.0.3) date 2026-06-27 16:59:53*
%MOMM*%
%LPD*%
G01*
G04 APERTURE LIST*
G04 Aperture macros list*
%AMRoundRect*
0 Rectangle with rounded corners*
0 $1 Rounding radius*
0 $2 $3 $4 $5 $6 $7 $8 $9 X,Y pos of 4 corners*
0 Add a 4 corners polygon primitive as box body*
4,1,4,$2,$3,$4,$5,$6,$7,$8,$9,$2,$3,0*
0 Add four circle primitives for the rounded corners*
1,1,$1+$1,$2,$3*
1,1,$1+$1,$4,$5*
1,1,$1+$1,$6,$7*
1,1,$1+$1,$8,$9*
0 Add four rect primitives between the rounded corners*
20,1,$1+$1,$2,$3,$4,$5,0*
20,1,$1+$1,$4,$5,$6,$7,0*
20,1,$1+$1,$6,$7,$8,$9,0*
20,1,$1+$1,$8,$9,$2,$3,0*%
G04 Aperture macros list end*
%TA.AperFunction,SMDPad,CuDef*%
%ADD10RoundRect,0.225000X-0.250000X0.225000X-0.250000X-0.225000X0.250000X-0.225000X0.250000X0.225000X0*%
%TD*%
%TA.AperFunction,SMDPad,CuDef*%
%ADD11RoundRect,0.300000X-2.450000X-0.700000X2.450000X-0.700000X2.450000X0.700000X-2.450000X0.700000X0*%
%TD*%
%TA.AperFunction,ComponentPad*%
%ADD12C,1.600000*%
%TD*%
%TA.AperFunction,ComponentPad*%
%ADD13C,2.600965*%
%TD*%
%TA.AperFunction,SMDPad,CuDef*%
%ADD14RoundRect,0.375000X-3.375000X-0.875000X3.375000X-0.875000X3.375000X0.875000X-3.375000X0.875000X0*%
%TD*%
%TA.AperFunction,SMDPad,CuDef*%
%ADD15RoundRect,0.225000X0.250000X-0.225000X0.250000X0.225000X-0.250000X0.225000X-0.250000X-0.225000X0*%
%TD*%
%TA.AperFunction,ViaPad*%
%ADD16C,0.500000*%
%TD*%
%TA.AperFunction,Conductor*%
%ADD17C,0.500000*%
%TD*%
G04 APERTURE END LIST*
D10*
%TO.P,C3,1*%
%TO.N,Net-(C2-Pad2)*%
X109500000Y-44225000D03*
%TO.P,C3,2*%
%TO.N,GNDA*%
X109500000Y-45775000D03*
%TD*%
D11*
%TO.P,L2,1,1_1*%
%TO.N,Net-(C2-Pad2)*%
X121000000Y-40650000D03*
%TO.P,L2,2,2_2*%
%TO.N,Net-(J2-OUT)*%
X121000000Y-48850000D03*
%TD*%
D10*
%TO.P,C2,1*%
%TO.N,Net-(J1-OUT)*%
X106500000Y-44225000D03*
%TO.P,C2,2*%
%TO.N,Net-(C2-Pad2)*%
X106500000Y-45775000D03*
%TD*%
D12*
%TO.P,J1,1,OUT_1*%
%TO.N,Net-(J1-OUT)*%
X82525019Y-44750000D03*
%TO.P,J1,2,2_2*%
%TO.N,GNDA*%
X82525019Y-47250127D03*
D13*
%TO.P,J1,3,3_3*%
X77474981Y-49800038D03*
%TO.P,J1,4,4_4*%
X77474981Y-39699962D03*
%TD*%
D14*
%TO.P,L1,1,1_1*%
%TO.N,Net-(J1-OUT)*%
X100000000Y-41900000D03*
%TO.P,L1,2,2_2*%
%TO.N,Net-(C2-Pad2)*%
X100000000Y-47600000D03*
%TD*%
D15*
%TO.P,C5,1*%
%TO.N,Net-(J2-OUT)*%
X129500000Y-44750000D03*
%TO.P,C5,2*%
%TO.N,GNDA*%
X129500000Y-43200000D03*
%TD*%
D12*
%TO.P,J2,1,OUT_1*%
%TO.N,Net-(J2-OUT)*%
X137474981Y-44750000D03*
%TO.P,J2,2,2_2*%
%TO.N,GNDA*%
X137474981Y-42249873D03*
D13*
%TO.P,J2,3,3_3*%
X142525019Y-39699962D03*
%TO.P,J2,4,4_4*%
X142525019Y-49800038D03*
%TD*%
D10*
%TO.P,C1,1*%
%TO.N,Net-(J1-OUT)*%
X91500000Y-44725000D03*
%TO.P,C1,2*%
%TO.N,GNDA*%
X91500000Y-46275000D03*
%TD*%
%TO.P,C4,1*%
%TO.N,Net-(C2-Pad2)*%
X112500000Y-44225000D03*
%TO.P,C4,2*%
%TO.N,Net-(J2-OUT)*%
X112500000Y-45775000D03*
%TD*%
D16*
%TO.N,GNDA*%
X129500000Y-40500000D03*
X109500000Y-47000000D03*
X91500000Y-47500000D03*
%TD*%
%TO.N,Net-(J2-OUT)*%
D17*
X129500000Y-44750000D02*
X137474981Y-44750000D01*
%TO.N,Net-(J1-OUT)*%
X91475000Y-44750000D02*
X91500000Y-44725000D01*
X82525019Y-44750000D02*
X91475000Y-44750000D01*
%TO.N,Net-(C2-Pad2)*%
X112500000Y-44225000D02*
X117425000Y-44225000D01*
X107950000Y-45775000D02*
X109500000Y-44225000D01*
X117425000Y-44225000D02*
X121000000Y-40650000D01*
X100000000Y-47600000D02*
X104675000Y-47600000D01*
X109500000Y-44225000D02*
X112500000Y-44225000D01*
X104675000Y-47600000D02*
X106500000Y-45775000D01*
X106500000Y-45775000D02*
X107950000Y-45775000D01*
%TO.N,GNDA*%
X91500000Y-47500000D02*
X91500000Y-46275000D01*
X109500000Y-45775000D02*
X109500000Y-47000000D01*
X129500000Y-40500000D02*
X129500000Y-43200000D01*
%TO.N,Net-(J2-OUT)*%
X112500000Y-45775000D02*
X117925000Y-45775000D01*
X125400000Y-48850000D02*
X129500000Y-44750000D01*
X121000000Y-48850000D02*
X125400000Y-48850000D01*
X117925000Y-45775000D02*
X121000000Y-48850000D01*
%TO.N,Net-(J1-OUT)*%
X91500000Y-44725000D02*
X97175000Y-44725000D01*
X100000000Y-41900000D02*
X104175000Y-41900000D01*
X97175000Y-44725000D02*
X100000000Y-41900000D01*
X104175000Y-41900000D02*
X106500000Y-44225000D01*
%TD*%
M02*
