%TF.GenerationSoftware,KiCad,Pcbnew,10.0.3*%
%TF.CreationDate,2026-06-27T16:59:53+08:00*%
%TF.ProjectId,LPFilter_2kHz_Elliptical_v0.1,4c504669-6c74-4657-925f-326b487a5f45,rev?*%
%TF.SameCoordinates,Original*%
%TF.FileFunction,Legend,Bot*%
%TF.FilePolarity,Positive*%
%FSLAX46Y46*%
G04 Gerber Fmt 4.6, Leading zero omitted, Abs format (unit mm)*
G04 Created by KiCad (PCBNEW 10.0.3) date 2026-06-27 16:59:53*
%MOMM*%
%LPD*%
G01*
G04 APERTURE LIST*
%ADD10C,0.300000*%
%ADD11C,0.000000*%
%ADD12C,1.448000*%
%ADD13C,1.600000*%
%ADD14C,2.600965*%
G04 APERTURE END LIST*
D10*
X132445489Y-40020366D02*
X131945489Y-40020366D01*
X131731203Y-40806080D02*
X132445489Y-40806080D01*
X132445489Y-40806080D02*
X132445489Y-39306080D01*
X132445489Y-39306080D02*
X131731203Y-39306080D01*
X130874060Y-40806080D02*
X131016917Y-40734652D01*
X131016917Y-40734652D02*
X131088346Y-40591794D01*
X131088346Y-40591794D02*
X131088346Y-39306080D01*
X130088346Y-40806080D02*
X130231203Y-40734652D01*
X130231203Y-40734652D02*
X130302632Y-40591794D01*
X130302632Y-40591794D02*
X130302632Y-39306080D01*
X129516918Y-40806080D02*
X129516918Y-39806080D01*
X129516918Y-39306080D02*
X129588346Y-39377509D01*
X129588346Y-39377509D02*
X129516918Y-39448937D01*
X129516918Y-39448937D02*
X129445489Y-39377509D01*
X129445489Y-39377509D02*
X129516918Y-39306080D01*
X129516918Y-39306080D02*
X129516918Y-39448937D01*
X128802632Y-39806080D02*
X128802632Y-41306080D01*
X128802632Y-39877509D02*
X128659775Y-39806080D01*
X128659775Y-39806080D02*
X128374060Y-39806080D01*
X128374060Y-39806080D02*
X128231203Y-39877509D01*
X128231203Y-39877509D02*
X128159775Y-39948937D01*
X128159775Y-39948937D02*
X128088346Y-40091794D01*
X128088346Y-40091794D02*
X128088346Y-40520366D01*
X128088346Y-40520366D02*
X128159775Y-40663223D01*
X128159775Y-40663223D02*
X128231203Y-40734652D01*
X128231203Y-40734652D02*
X128374060Y-40806080D01*
X128374060Y-40806080D02*
X128659775Y-40806080D01*
X128659775Y-40806080D02*
X128802632Y-40734652D01*
X127659774Y-39806080D02*
X127088346Y-39806080D01*
X127445489Y-39306080D02*
X127445489Y-40591794D01*
X127445489Y-40591794D02*
X127374060Y-40734652D01*
X127374060Y-40734652D02*
X127231203Y-40806080D01*
X127231203Y-40806080D02*
X127088346Y-40806080D01*
X126588346Y-40806080D02*
X126588346Y-39806080D01*
X126588346Y-39306080D02*
X126659774Y-39377509D01*
X126659774Y-39377509D02*
X126588346Y-39448937D01*
X126588346Y-39448937D02*
X126516917Y-39377509D01*
X126516917Y-39377509D02*
X126588346Y-39306080D01*
X126588346Y-39306080D02*
X126588346Y-39448937D01*
X125231203Y-40734652D02*
X125374060Y-40806080D01*
X125374060Y-40806080D02*
X125659774Y-40806080D01*
X125659774Y-40806080D02*
X125802631Y-40734652D01*
X125802631Y-40734652D02*
X125874060Y-40663223D01*
X125874060Y-40663223D02*
X125945488Y-40520366D01*
X125945488Y-40520366D02*
X125945488Y-40091794D01*
X125945488Y-40091794D02*
X125874060Y-39948937D01*
X125874060Y-39948937D02*
X125802631Y-39877509D01*
X125802631Y-39877509D02*
X125659774Y-39806080D01*
X125659774Y-39806080D02*
X125374060Y-39806080D01*
X125374060Y-39806080D02*
X125231203Y-39877509D01*
X122731203Y-40806080D02*
X123445489Y-40806080D01*
X123445489Y-40806080D02*
X123445489Y-39306080D01*
X122016917Y-40806080D02*
X122159774Y-40734652D01*
X122159774Y-40734652D02*
X122231203Y-40663223D01*
X122231203Y-40663223D02*
X122302631Y-40520366D01*
X122302631Y-40520366D02*
X122302631Y-40091794D01*
X122302631Y-40091794D02*
X122231203Y-39948937D01*
X122231203Y-39948937D02*
X122159774Y-39877509D01*
X122159774Y-39877509D02*
X122016917Y-39806080D01*
X122016917Y-39806080D02*
X121802631Y-39806080D01*
X121802631Y-39806080D02*
X121659774Y-39877509D01*
X121659774Y-39877509D02*
X121588346Y-39948937D01*
X121588346Y-39948937D02*
X121516917Y-40091794D01*
X121516917Y-40091794D02*
X121516917Y-40520366D01*
X121516917Y-40520366D02*
X121588346Y-40663223D01*
X121588346Y-40663223D02*
X121659774Y-40734652D01*
X121659774Y-40734652D02*
X121802631Y-40806080D01*
X121802631Y-40806080D02*
X122016917Y-40806080D01*
X121016917Y-39806080D02*
X120731203Y-40806080D01*
X120731203Y-40806080D02*
X120445488Y-40091794D01*
X120445488Y-40091794D02*
X120159774Y-40806080D01*
X120159774Y-40806080D02*
X119874060Y-39806080D01*
X118159774Y-40806080D02*
X118159774Y-39306080D01*
X118159774Y-39306080D02*
X117588345Y-39306080D01*
X117588345Y-39306080D02*
X117445488Y-39377509D01*
X117445488Y-39377509D02*
X117374059Y-39448937D01*
X117374059Y-39448937D02*
X117302631Y-39591794D01*
X117302631Y-39591794D02*
X117302631Y-39806080D01*
X117302631Y-39806080D02*
X117374059Y-39948937D01*
X117374059Y-39948937D02*
X117445488Y-40020366D01*
X117445488Y-40020366D02*
X117588345Y-40091794D01*
X117588345Y-40091794D02*
X118159774Y-40091794D01*
X116016917Y-40806080D02*
X116016917Y-40020366D01*
X116016917Y-40020366D02*
X116088345Y-39877509D01*
X116088345Y-39877509D02*
X116231202Y-39806080D01*
X116231202Y-39806080D02*
X116516917Y-39806080D01*
X116516917Y-39806080D02*
X116659774Y-39877509D01*
X116016917Y-40734652D02*
X116159774Y-40806080D01*
X116159774Y-40806080D02*
X116516917Y-40806080D01*
X116516917Y-40806080D02*
X116659774Y-40734652D01*
X116659774Y-40734652D02*
X116731202Y-40591794D01*
X116731202Y-40591794D02*
X116731202Y-40448937D01*
X116731202Y-40448937D02*
X116659774Y-40306080D01*
X116659774Y-40306080D02*
X116516917Y-40234652D01*
X116516917Y-40234652D02*
X116159774Y-40234652D01*
X116159774Y-40234652D02*
X116016917Y-40163223D01*
X115374059Y-40734652D02*
X115231202Y-40806080D01*
X115231202Y-40806080D02*
X114945488Y-40806080D01*
X114945488Y-40806080D02*
X114802631Y-40734652D01*
X114802631Y-40734652D02*
X114731202Y-40591794D01*
X114731202Y-40591794D02*
X114731202Y-40520366D01*
X114731202Y-40520366D02*
X114802631Y-40377509D01*
X114802631Y-40377509D02*
X114945488Y-40306080D01*
X114945488Y-40306080D02*
X115159774Y-40306080D01*
X115159774Y-40306080D02*
X115302631Y-40234652D01*
X115302631Y-40234652D02*
X115374059Y-40091794D01*
X115374059Y-40091794D02*
X115374059Y-40020366D01*
X115374059Y-40020366D02*
X115302631Y-39877509D01*
X115302631Y-39877509D02*
X115159774Y-39806080D01*
X115159774Y-39806080D02*
X114945488Y-39806080D01*
X114945488Y-39806080D02*
X114802631Y-39877509D01*
X114159773Y-40734652D02*
X114016916Y-40806080D01*
X114016916Y-40806080D02*
X113731202Y-40806080D01*
X113731202Y-40806080D02*
X113588345Y-40734652D01*
X113588345Y-40734652D02*
X113516916Y-40591794D01*
X113516916Y-40591794D02*
X113516916Y-40520366D01*
X113516916Y-40520366D02*
X113588345Y-40377509D01*
X113588345Y-40377509D02*
X113731202Y-40306080D01*
X113731202Y-40306080D02*
X113945488Y-40306080D01*
X113945488Y-40306080D02*
X114088345Y-40234652D01*
X114088345Y-40234652D02*
X114159773Y-40091794D01*
X114159773Y-40091794D02*
X114159773Y-40020366D01*
X114159773Y-40020366D02*
X114088345Y-39877509D01*
X114088345Y-39877509D02*
X113945488Y-39806080D01*
X113945488Y-39806080D02*
X113731202Y-39806080D01*
X113731202Y-39806080D02*
X113588345Y-39877509D01*
X111231202Y-40020366D02*
X111731202Y-40020366D01*
X111731202Y-40806080D02*
X111731202Y-39306080D01*
X111731202Y-39306080D02*
X111016916Y-39306080D01*
X110445488Y-40806080D02*
X110445488Y-39806080D01*
X110445488Y-39306080D02*
X110516916Y-39377509D01*
X110516916Y-39377509D02*
X110445488Y-39448937D01*
X110445488Y-39448937D02*
X110374059Y-39377509D01*
X110374059Y-39377509D02*
X110445488Y-39306080D01*
X110445488Y-39306080D02*
X110445488Y-39448937D01*
X109516916Y-40806080D02*
X109659773Y-40734652D01*
X109659773Y-40734652D02*
X109731202Y-40591794D01*
X109731202Y-40591794D02*
X109731202Y-39306080D01*
X109159773Y-39806080D02*
X108588345Y-39806080D01*
X108945488Y-39306080D02*
X108945488Y-40591794D01*
X108945488Y-40591794D02*
X108874059Y-40734652D01*
X108874059Y-40734652D02*
X108731202Y-40806080D01*
X108731202Y-40806080D02*
X108588345Y-40806080D01*
X107516916Y-40734652D02*
X107659773Y-40806080D01*
X107659773Y-40806080D02*
X107945488Y-40806080D01*
X107945488Y-40806080D02*
X108088345Y-40734652D01*
X108088345Y-40734652D02*
X108159773Y-40591794D01*
X108159773Y-40591794D02*
X108159773Y-40020366D01*
X108159773Y-40020366D02*
X108088345Y-39877509D01*
X108088345Y-39877509D02*
X107945488Y-39806080D01*
X107945488Y-39806080D02*
X107659773Y-39806080D01*
X107659773Y-39806080D02*
X107516916Y-39877509D01*
X107516916Y-39877509D02*
X107445488Y-40020366D01*
X107445488Y-40020366D02*
X107445488Y-40163223D01*
X107445488Y-40163223D02*
X108159773Y-40306080D01*
X106802631Y-40806080D02*
X106802631Y-39806080D01*
X106802631Y-40091794D02*
X106731202Y-39948937D01*
X106731202Y-39948937D02*
X106659774Y-39877509D01*
X106659774Y-39877509D02*
X106516916Y-39806080D01*
X106516916Y-39806080D02*
X106374059Y-39806080D01*
X104874060Y-39806080D02*
X104516917Y-40806080D01*
X104516917Y-40806080D02*
X104159774Y-39806080D01*
X103302631Y-39306080D02*
X103159774Y-39306080D01*
X103159774Y-39306080D02*
X103016917Y-39377509D01*
X103016917Y-39377509D02*
X102945489Y-39448937D01*
X102945489Y-39448937D02*
X102874060Y-39591794D01*
X102874060Y-39591794D02*
X102802631Y-39877509D01*
X102802631Y-39877509D02*
X102802631Y-40234652D01*
X102802631Y-40234652D02*
X102874060Y-40520366D01*
X102874060Y-40520366D02*
X102945489Y-40663223D01*
X102945489Y-40663223D02*
X103016917Y-40734652D01*
X103016917Y-40734652D02*
X103159774Y-40806080D01*
X103159774Y-40806080D02*
X103302631Y-40806080D01*
X103302631Y-40806080D02*
X103445489Y-40734652D01*
X103445489Y-40734652D02*
X103516917Y-40663223D01*
X103516917Y-40663223D02*
X103588346Y-40520366D01*
X103588346Y-40520366D02*
X103659774Y-40234652D01*
X103659774Y-40234652D02*
X103659774Y-39877509D01*
X103659774Y-39877509D02*
X103588346Y-39591794D01*
X103588346Y-39591794D02*
X103516917Y-39448937D01*
X103516917Y-39448937D02*
X103445489Y-39377509D01*
X103445489Y-39377509D02*
X103302631Y-39306080D01*
X102159775Y-40663223D02*
X102088346Y-40734652D01*
X102088346Y-40734652D02*
X102159775Y-40806080D01*
X102159775Y-40806080D02*
X102231203Y-40734652D01*
X102231203Y-40734652D02*
X102159775Y-40663223D01*
X102159775Y-40663223D02*
X102159775Y-40806080D01*
X100659774Y-40806080D02*
X101516917Y-40806080D01*
X101088346Y-40806080D02*
X101088346Y-39306080D01*
X101088346Y-39306080D02*
X101231203Y-39520366D01*
X101231203Y-39520366D02*
X101374060Y-39663223D01*
X101374060Y-39663223D02*
X101516917Y-39734652D01*
X131588346Y-43078139D02*
X131659774Y-43149568D01*
X131659774Y-43149568D02*
X131874060Y-43220996D01*
X131874060Y-43220996D02*
X132016917Y-43220996D01*
X132016917Y-43220996D02*
X132231203Y-43149568D01*
X132231203Y-43149568D02*
X132374060Y-43006710D01*
X132374060Y-43006710D02*
X132445489Y-42863853D01*
X132445489Y-42863853D02*
X132516917Y-42578139D01*
X132516917Y-42578139D02*
X132516917Y-42363853D01*
X132516917Y-42363853D02*
X132445489Y-42078139D01*
X132445489Y-42078139D02*
X132374060Y-41935282D01*
X132374060Y-41935282D02*
X132231203Y-41792425D01*
X132231203Y-41792425D02*
X132016917Y-41720996D01*
X132016917Y-41720996D02*
X131874060Y-41720996D01*
X131874060Y-41720996D02*
X131659774Y-41792425D01*
X131659774Y-41792425D02*
X131588346Y-41863853D01*
X130302632Y-42220996D02*
X130302632Y-43220996D01*
X130945489Y-42220996D02*
X130945489Y-43006710D01*
X130945489Y-43006710D02*
X130874060Y-43149568D01*
X130874060Y-43149568D02*
X130731203Y-43220996D01*
X130731203Y-43220996D02*
X130516917Y-43220996D01*
X130516917Y-43220996D02*
X130374060Y-43149568D01*
X130374060Y-43149568D02*
X130302632Y-43078139D01*
X129802631Y-42220996D02*
X129231203Y-42220996D01*
X129588346Y-41720996D02*
X129588346Y-43006710D01*
X129588346Y-43006710D02*
X129516917Y-43149568D01*
X129516917Y-43149568D02*
X129374060Y-43220996D01*
X129374060Y-43220996D02*
X129231203Y-43220996D01*
X128516917Y-43220996D02*
X128659774Y-43149568D01*
X128659774Y-43149568D02*
X128731203Y-43078139D01*
X128731203Y-43078139D02*
X128802631Y-42935282D01*
X128802631Y-42935282D02*
X128802631Y-42506710D01*
X128802631Y-42506710D02*
X128731203Y-42363853D01*
X128731203Y-42363853D02*
X128659774Y-42292425D01*
X128659774Y-42292425D02*
X128516917Y-42220996D01*
X128516917Y-42220996D02*
X128302631Y-42220996D01*
X128302631Y-42220996D02*
X128159774Y-42292425D01*
X128159774Y-42292425D02*
X128088346Y-42363853D01*
X128088346Y-42363853D02*
X128016917Y-42506710D01*
X128016917Y-42506710D02*
X128016917Y-42935282D01*
X128016917Y-42935282D02*
X128088346Y-43078139D01*
X128088346Y-43078139D02*
X128159774Y-43149568D01*
X128159774Y-43149568D02*
X128302631Y-43220996D01*
X128302631Y-43220996D02*
X128516917Y-43220996D01*
X127588345Y-42220996D02*
X127016917Y-42220996D01*
X127374060Y-43220996D02*
X127374060Y-41935282D01*
X127374060Y-41935282D02*
X127302631Y-41792425D01*
X127302631Y-41792425D02*
X127159774Y-41720996D01*
X127159774Y-41720996D02*
X127016917Y-41720996D01*
X126731202Y-42220996D02*
X126159774Y-42220996D01*
X126516917Y-43220996D02*
X126516917Y-41935282D01*
X126516917Y-41935282D02*
X126445488Y-41792425D01*
X126445488Y-41792425D02*
X126302631Y-41720996D01*
X126302631Y-41720996D02*
X126159774Y-41720996D01*
X125659774Y-43078139D02*
X125588345Y-43149568D01*
X125588345Y-43149568D02*
X125659774Y-43220996D01*
X125659774Y-43220996D02*
X125731202Y-43149568D01*
X125731202Y-43149568D02*
X125659774Y-43078139D01*
X125659774Y-43078139D02*
X125659774Y-43220996D01*
X125659774Y-42292425D02*
X125588345Y-42363853D01*
X125588345Y-42363853D02*
X125659774Y-42435282D01*
X125659774Y-42435282D02*
X125731202Y-42363853D01*
X125731202Y-42363853D02*
X125659774Y-42292425D01*
X125659774Y-42292425D02*
X125659774Y-42435282D01*
X123874059Y-41863853D02*
X123802631Y-41792425D01*
X123802631Y-41792425D02*
X123659774Y-41720996D01*
X123659774Y-41720996D02*
X123302631Y-41720996D01*
X123302631Y-41720996D02*
X123159774Y-41792425D01*
X123159774Y-41792425D02*
X123088345Y-41863853D01*
X123088345Y-41863853D02*
X123016916Y-42006710D01*
X123016916Y-42006710D02*
X123016916Y-42149568D01*
X123016916Y-42149568D02*
X123088345Y-42363853D01*
X123088345Y-42363853D02*
X123945488Y-43220996D01*
X123945488Y-43220996D02*
X123016916Y-43220996D01*
X122374060Y-43220996D02*
X122374060Y-41720996D01*
X122231203Y-42649568D02*
X121802631Y-43220996D01*
X121802631Y-42220996D02*
X122374060Y-42792425D01*
X121159774Y-43220996D02*
X121159774Y-41720996D01*
X121159774Y-42435282D02*
X120302631Y-42435282D01*
X120302631Y-43220996D02*
X120302631Y-41720996D01*
X119731202Y-42220996D02*
X118945488Y-42220996D01*
X118945488Y-42220996D02*
X119731202Y-43220996D01*
X119731202Y-43220996D02*
X118945488Y-43220996D01*
X132445489Y-45635912D02*
X132445489Y-44135912D01*
X132445489Y-44135912D02*
X132088346Y-44135912D01*
X132088346Y-44135912D02*
X131874060Y-44207341D01*
X131874060Y-44207341D02*
X131731203Y-44350198D01*
X131731203Y-44350198D02*
X131659774Y-44493055D01*
X131659774Y-44493055D02*
X131588346Y-44778769D01*
X131588346Y-44778769D02*
X131588346Y-44993055D01*
X131588346Y-44993055D02*
X131659774Y-45278769D01*
X131659774Y-45278769D02*
X131731203Y-45421626D01*
X131731203Y-45421626D02*
X131874060Y-45564484D01*
X131874060Y-45564484D02*
X132088346Y-45635912D01*
X132088346Y-45635912D02*
X132445489Y-45635912D01*
X130302632Y-45635912D02*
X130302632Y-44850198D01*
X130302632Y-44850198D02*
X130374060Y-44707341D01*
X130374060Y-44707341D02*
X130516917Y-44635912D01*
X130516917Y-44635912D02*
X130802632Y-44635912D01*
X130802632Y-44635912D02*
X130945489Y-44707341D01*
X130302632Y-45564484D02*
X130445489Y-45635912D01*
X130445489Y-45635912D02*
X130802632Y-45635912D01*
X130802632Y-45635912D02*
X130945489Y-45564484D01*
X130945489Y-45564484D02*
X131016917Y-45421626D01*
X131016917Y-45421626D02*
X131016917Y-45278769D01*
X131016917Y-45278769D02*
X130945489Y-45135912D01*
X130945489Y-45135912D02*
X130802632Y-45064484D01*
X130802632Y-45064484D02*
X130445489Y-45064484D01*
X130445489Y-45064484D02*
X130302632Y-44993055D01*
X129802631Y-44635912D02*
X129231203Y-44635912D01*
X129588346Y-44135912D02*
X129588346Y-45421626D01*
X129588346Y-45421626D02*
X129516917Y-45564484D01*
X129516917Y-45564484D02*
X129374060Y-45635912D01*
X129374060Y-45635912D02*
X129231203Y-45635912D01*
X128159774Y-45564484D02*
X128302631Y-45635912D01*
X128302631Y-45635912D02*
X128588346Y-45635912D01*
X128588346Y-45635912D02*
X128731203Y-45564484D01*
X128731203Y-45564484D02*
X128802631Y-45421626D01*
X128802631Y-45421626D02*
X128802631Y-44850198D01*
X128802631Y-44850198D02*
X128731203Y-44707341D01*
X128731203Y-44707341D02*
X128588346Y-44635912D01*
X128588346Y-44635912D02*
X128302631Y-44635912D01*
X128302631Y-44635912D02*
X128159774Y-44707341D01*
X128159774Y-44707341D02*
X128088346Y-44850198D01*
X128088346Y-44850198D02*
X128088346Y-44993055D01*
X128088346Y-44993055D02*
X128802631Y-45135912D01*
X127445489Y-45493055D02*
X127374060Y-45564484D01*
X127374060Y-45564484D02*
X127445489Y-45635912D01*
X127445489Y-45635912D02*
X127516917Y-45564484D01*
X127516917Y-45564484D02*
X127445489Y-45493055D01*
X127445489Y-45493055D02*
X127445489Y-45635912D01*
X127445489Y-44707341D02*
X127374060Y-44778769D01*
X127374060Y-44778769D02*
X127445489Y-44850198D01*
X127445489Y-44850198D02*
X127516917Y-44778769D01*
X127516917Y-44778769D02*
X127445489Y-44707341D01*
X127445489Y-44707341D02*
X127445489Y-44850198D01*
X125659774Y-44278769D02*
X125588346Y-44207341D01*
X125588346Y-44207341D02*
X125445489Y-44135912D01*
X125445489Y-44135912D02*
X125088346Y-44135912D01*
X125088346Y-44135912D02*
X124945489Y-44207341D01*
X124945489Y-44207341D02*
X124874060Y-44278769D01*
X124874060Y-44278769D02*
X124802631Y-44421626D01*
X124802631Y-44421626D02*
X124802631Y-44564484D01*
X124802631Y-44564484D02*
X124874060Y-44778769D01*
X124874060Y-44778769D02*
X125731203Y-45635912D01*
X125731203Y-45635912D02*
X124802631Y-45635912D01*
X123874060Y-44135912D02*
X123731203Y-44135912D01*
X123731203Y-44135912D02*
X123588346Y-44207341D01*
X123588346Y-44207341D02*
X123516918Y-44278769D01*
X123516918Y-44278769D02*
X123445489Y-44421626D01*
X123445489Y-44421626D02*
X123374060Y-44707341D01*
X123374060Y-44707341D02*
X123374060Y-45064484D01*
X123374060Y-45064484D02*
X123445489Y-45350198D01*
X123445489Y-45350198D02*
X123516918Y-45493055D01*
X123516918Y-45493055D02*
X123588346Y-45564484D01*
X123588346Y-45564484D02*
X123731203Y-45635912D01*
X123731203Y-45635912D02*
X123874060Y-45635912D01*
X123874060Y-45635912D02*
X124016918Y-45564484D01*
X124016918Y-45564484D02*
X124088346Y-45493055D01*
X124088346Y-45493055D02*
X124159775Y-45350198D01*
X124159775Y-45350198D02*
X124231203Y-45064484D01*
X124231203Y-45064484D02*
X124231203Y-44707341D01*
X124231203Y-44707341D02*
X124159775Y-44421626D01*
X124159775Y-44421626D02*
X124088346Y-44278769D01*
X124088346Y-44278769D02*
X124016918Y-44207341D01*
X124016918Y-44207341D02*
X123874060Y-44135912D01*
X122802632Y-44278769D02*
X122731204Y-44207341D01*
X122731204Y-44207341D02*
X122588347Y-44135912D01*
X122588347Y-44135912D02*
X122231204Y-44135912D01*
X122231204Y-44135912D02*
X122088347Y-44207341D01*
X122088347Y-44207341D02*
X122016918Y-44278769D01*
X122016918Y-44278769D02*
X121945489Y-44421626D01*
X121945489Y-44421626D02*
X121945489Y-44564484D01*
X121945489Y-44564484D02*
X122016918Y-44778769D01*
X122016918Y-44778769D02*
X122874061Y-45635912D01*
X122874061Y-45635912D02*
X121945489Y-45635912D01*
X120659776Y-44135912D02*
X120945490Y-44135912D01*
X120945490Y-44135912D02*
X121088347Y-44207341D01*
X121088347Y-44207341D02*
X121159776Y-44278769D01*
X121159776Y-44278769D02*
X121302633Y-44493055D01*
X121302633Y-44493055D02*
X121374061Y-44778769D01*
X121374061Y-44778769D02*
X121374061Y-45350198D01*
X121374061Y-45350198D02*
X121302633Y-45493055D01*
X121302633Y-45493055D02*
X121231204Y-45564484D01*
X121231204Y-45564484D02*
X121088347Y-45635912D01*
X121088347Y-45635912D02*
X120802633Y-45635912D01*
X120802633Y-45635912D02*
X120659776Y-45564484D01*
X120659776Y-45564484D02*
X120588347Y-45493055D01*
X120588347Y-45493055D02*
X120516918Y-45350198D01*
X120516918Y-45350198D02*
X120516918Y-44993055D01*
X120516918Y-44993055D02*
X120588347Y-44850198D01*
X120588347Y-44850198D02*
X120659776Y-44778769D01*
X120659776Y-44778769D02*
X120802633Y-44707341D01*
X120802633Y-44707341D02*
X121088347Y-44707341D01*
X121088347Y-44707341D02*
X121231204Y-44778769D01*
X121231204Y-44778769D02*
X121302633Y-44850198D01*
X121302633Y-44850198D02*
X121374061Y-44993055D01*
X118802633Y-44064484D02*
X120088347Y-45993055D01*
X118016918Y-44135912D02*
X117874061Y-44135912D01*
X117874061Y-44135912D02*
X117731204Y-44207341D01*
X117731204Y-44207341D02*
X117659776Y-44278769D01*
X117659776Y-44278769D02*
X117588347Y-44421626D01*
X117588347Y-44421626D02*
X117516918Y-44707341D01*
X117516918Y-44707341D02*
X117516918Y-45064484D01*
X117516918Y-45064484D02*
X117588347Y-45350198D01*
X117588347Y-45350198D02*
X117659776Y-45493055D01*
X117659776Y-45493055D02*
X117731204Y-45564484D01*
X117731204Y-45564484D02*
X117874061Y-45635912D01*
X117874061Y-45635912D02*
X118016918Y-45635912D01*
X118016918Y-45635912D02*
X118159776Y-45564484D01*
X118159776Y-45564484D02*
X118231204Y-45493055D01*
X118231204Y-45493055D02*
X118302633Y-45350198D01*
X118302633Y-45350198D02*
X118374061Y-45064484D01*
X118374061Y-45064484D02*
X118374061Y-44707341D01*
X118374061Y-44707341D02*
X118302633Y-44421626D01*
X118302633Y-44421626D02*
X118231204Y-44278769D01*
X118231204Y-44278769D02*
X118159776Y-44207341D01*
X118159776Y-44207341D02*
X118016918Y-44135912D01*
X116231205Y-44135912D02*
X116516919Y-44135912D01*
X116516919Y-44135912D02*
X116659776Y-44207341D01*
X116659776Y-44207341D02*
X116731205Y-44278769D01*
X116731205Y-44278769D02*
X116874062Y-44493055D01*
X116874062Y-44493055D02*
X116945490Y-44778769D01*
X116945490Y-44778769D02*
X116945490Y-45350198D01*
X116945490Y-45350198D02*
X116874062Y-45493055D01*
X116874062Y-45493055D02*
X116802633Y-45564484D01*
X116802633Y-45564484D02*
X116659776Y-45635912D01*
X116659776Y-45635912D02*
X116374062Y-45635912D01*
X116374062Y-45635912D02*
X116231205Y-45564484D01*
X116231205Y-45564484D02*
X116159776Y-45493055D01*
X116159776Y-45493055D02*
X116088347Y-45350198D01*
X116088347Y-45350198D02*
X116088347Y-44993055D01*
X116088347Y-44993055D02*
X116159776Y-44850198D01*
X116159776Y-44850198D02*
X116231205Y-44778769D01*
X116231205Y-44778769D02*
X116374062Y-44707341D01*
X116374062Y-44707341D02*
X116659776Y-44707341D01*
X116659776Y-44707341D02*
X116802633Y-44778769D01*
X116802633Y-44778769D02*
X116874062Y-44850198D01*
X116874062Y-44850198D02*
X116945490Y-44993055D01*
X114374062Y-44064484D02*
X115659776Y-45993055D01*
X113945490Y-44278769D02*
X113874062Y-44207341D01*
X113874062Y-44207341D02*
X113731205Y-44135912D01*
X113731205Y-44135912D02*
X113374062Y-44135912D01*
X113374062Y-44135912D02*
X113231205Y-44207341D01*
X113231205Y-44207341D02*
X113159776Y-44278769D01*
X113159776Y-44278769D02*
X113088347Y-44421626D01*
X113088347Y-44421626D02*
X113088347Y-44564484D01*
X113088347Y-44564484D02*
X113159776Y-44778769D01*
X113159776Y-44778769D02*
X114016919Y-45635912D01*
X114016919Y-45635912D02*
X113088347Y-45635912D01*
X112588348Y-44135912D02*
X111659776Y-44135912D01*
X111659776Y-44135912D02*
X112159776Y-44707341D01*
X112159776Y-44707341D02*
X111945491Y-44707341D01*
X111945491Y-44707341D02*
X111802634Y-44778769D01*
X111802634Y-44778769D02*
X111731205Y-44850198D01*
X111731205Y-44850198D02*
X111659776Y-44993055D01*
X111659776Y-44993055D02*
X111659776Y-45350198D01*
X111659776Y-45350198D02*
X111731205Y-45493055D01*
X111731205Y-45493055D02*
X111802634Y-45564484D01*
X111802634Y-45564484D02*
X111945491Y-45635912D01*
X111945491Y-45635912D02*
X112374062Y-45635912D01*
X112374062Y-45635912D02*
X112516919Y-45564484D01*
X112516919Y-45564484D02*
X112588348Y-45493055D01*
X132445489Y-48050828D02*
X132445489Y-46550828D01*
X132445489Y-46550828D02*
X132088346Y-46550828D01*
X132088346Y-46550828D02*
X131874060Y-46622257D01*
X131874060Y-46622257D02*
X131731203Y-46765114D01*
X131731203Y-46765114D02*
X131659774Y-46907971D01*
X131659774Y-46907971D02*
X131588346Y-47193685D01*
X131588346Y-47193685D02*
X131588346Y-47407971D01*
X131588346Y-47407971D02*
X131659774Y-47693685D01*
X131659774Y-47693685D02*
X131731203Y-47836542D01*
X131731203Y-47836542D02*
X131874060Y-47979400D01*
X131874060Y-47979400D02*
X132088346Y-48050828D01*
X132088346Y-48050828D02*
X132445489Y-48050828D01*
X130374060Y-47979400D02*
X130516917Y-48050828D01*
X130516917Y-48050828D02*
X130802632Y-48050828D01*
X130802632Y-48050828D02*
X130945489Y-47979400D01*
X130945489Y-47979400D02*
X131016917Y-47836542D01*
X131016917Y-47836542D02*
X131016917Y-47265114D01*
X131016917Y-47265114D02*
X130945489Y-47122257D01*
X130945489Y-47122257D02*
X130802632Y-47050828D01*
X130802632Y-47050828D02*
X130516917Y-47050828D01*
X130516917Y-47050828D02*
X130374060Y-47122257D01*
X130374060Y-47122257D02*
X130302632Y-47265114D01*
X130302632Y-47265114D02*
X130302632Y-47407971D01*
X130302632Y-47407971D02*
X131016917Y-47550828D01*
X129802632Y-47050828D02*
X129445489Y-48050828D01*
X129445489Y-48050828D02*
X129088346Y-47050828D01*
X127945489Y-47979400D02*
X128088346Y-48050828D01*
X128088346Y-48050828D02*
X128374061Y-48050828D01*
X128374061Y-48050828D02*
X128516918Y-47979400D01*
X128516918Y-47979400D02*
X128588346Y-47836542D01*
X128588346Y-47836542D02*
X128588346Y-47265114D01*
X128588346Y-47265114D02*
X128516918Y-47122257D01*
X128516918Y-47122257D02*
X128374061Y-47050828D01*
X128374061Y-47050828D02*
X128088346Y-47050828D01*
X128088346Y-47050828D02*
X127945489Y-47122257D01*
X127945489Y-47122257D02*
X127874061Y-47265114D01*
X127874061Y-47265114D02*
X127874061Y-47407971D01*
X127874061Y-47407971D02*
X128588346Y-47550828D01*
X127016918Y-48050828D02*
X127159775Y-47979400D01*
X127159775Y-47979400D02*
X127231204Y-47836542D01*
X127231204Y-47836542D02*
X127231204Y-46550828D01*
X126231204Y-48050828D02*
X126374061Y-47979400D01*
X126374061Y-47979400D02*
X126445490Y-47907971D01*
X126445490Y-47907971D02*
X126516918Y-47765114D01*
X126516918Y-47765114D02*
X126516918Y-47336542D01*
X126516918Y-47336542D02*
X126445490Y-47193685D01*
X126445490Y-47193685D02*
X126374061Y-47122257D01*
X126374061Y-47122257D02*
X126231204Y-47050828D01*
X126231204Y-47050828D02*
X126016918Y-47050828D01*
X126016918Y-47050828D02*
X125874061Y-47122257D01*
X125874061Y-47122257D02*
X125802633Y-47193685D01*
X125802633Y-47193685D02*
X125731204Y-47336542D01*
X125731204Y-47336542D02*
X125731204Y-47765114D01*
X125731204Y-47765114D02*
X125802633Y-47907971D01*
X125802633Y-47907971D02*
X125874061Y-47979400D01*
X125874061Y-47979400D02*
X126016918Y-48050828D01*
X126016918Y-48050828D02*
X126231204Y-48050828D01*
X125088347Y-47050828D02*
X125088347Y-48550828D01*
X125088347Y-47122257D02*
X124945490Y-47050828D01*
X124945490Y-47050828D02*
X124659775Y-47050828D01*
X124659775Y-47050828D02*
X124516918Y-47122257D01*
X124516918Y-47122257D02*
X124445490Y-47193685D01*
X124445490Y-47193685D02*
X124374061Y-47336542D01*
X124374061Y-47336542D02*
X124374061Y-47765114D01*
X124374061Y-47765114D02*
X124445490Y-47907971D01*
X124445490Y-47907971D02*
X124516918Y-47979400D01*
X124516918Y-47979400D02*
X124659775Y-48050828D01*
X124659775Y-48050828D02*
X124945490Y-48050828D01*
X124945490Y-48050828D02*
X125088347Y-47979400D01*
X123159775Y-47979400D02*
X123302632Y-48050828D01*
X123302632Y-48050828D02*
X123588347Y-48050828D01*
X123588347Y-48050828D02*
X123731204Y-47979400D01*
X123731204Y-47979400D02*
X123802632Y-47836542D01*
X123802632Y-47836542D02*
X123802632Y-47265114D01*
X123802632Y-47265114D02*
X123731204Y-47122257D01*
X123731204Y-47122257D02*
X123588347Y-47050828D01*
X123588347Y-47050828D02*
X123302632Y-47050828D01*
X123302632Y-47050828D02*
X123159775Y-47122257D01*
X123159775Y-47122257D02*
X123088347Y-47265114D01*
X123088347Y-47265114D02*
X123088347Y-47407971D01*
X123088347Y-47407971D02*
X123802632Y-47550828D01*
X121802633Y-48050828D02*
X121802633Y-46550828D01*
X121802633Y-47979400D02*
X121945490Y-48050828D01*
X121945490Y-48050828D02*
X122231204Y-48050828D01*
X122231204Y-48050828D02*
X122374061Y-47979400D01*
X122374061Y-47979400D02*
X122445490Y-47907971D01*
X122445490Y-47907971D02*
X122516918Y-47765114D01*
X122516918Y-47765114D02*
X122516918Y-47336542D01*
X122516918Y-47336542D02*
X122445490Y-47193685D01*
X122445490Y-47193685D02*
X122374061Y-47122257D01*
X122374061Y-47122257D02*
X122231204Y-47050828D01*
X122231204Y-47050828D02*
X121945490Y-47050828D01*
X121945490Y-47050828D02*
X121802633Y-47122257D01*
X119945490Y-48050828D02*
X119945490Y-46550828D01*
X119945490Y-47122257D02*
X119802633Y-47050828D01*
X119802633Y-47050828D02*
X119516918Y-47050828D01*
X119516918Y-47050828D02*
X119374061Y-47122257D01*
X119374061Y-47122257D02*
X119302633Y-47193685D01*
X119302633Y-47193685D02*
X119231204Y-47336542D01*
X119231204Y-47336542D02*
X119231204Y-47765114D01*
X119231204Y-47765114D02*
X119302633Y-47907971D01*
X119302633Y-47907971D02*
X119374061Y-47979400D01*
X119374061Y-47979400D02*
X119516918Y-48050828D01*
X119516918Y-48050828D02*
X119802633Y-48050828D01*
X119802633Y-48050828D02*
X119945490Y-47979400D01*
X118731204Y-47050828D02*
X118374061Y-48050828D01*
X118016918Y-47050828D02*
X118374061Y-48050828D01*
X118374061Y-48050828D02*
X118516918Y-48407971D01*
X118516918Y-48407971D02*
X118588347Y-48479400D01*
X118588347Y-48479400D02*
X118731204Y-48550828D01*
X117445490Y-47907971D02*
X117374061Y-47979400D01*
X117374061Y-47979400D02*
X117445490Y-48050828D01*
X117445490Y-48050828D02*
X117516918Y-47979400D01*
X117516918Y-47979400D02*
X117445490Y-47907971D01*
X117445490Y-47907971D02*
X117445490Y-48050828D01*
X117445490Y-47122257D02*
X117374061Y-47193685D01*
X117374061Y-47193685D02*
X117445490Y-47265114D01*
X117445490Y-47265114D02*
X117516918Y-47193685D01*
X117516918Y-47193685D02*
X117445490Y-47122257D01*
X117445490Y-47122257D02*
X117445490Y-47265114D01*
X115588347Y-48050828D02*
X115588347Y-46550828D01*
X115588347Y-46550828D02*
X115088347Y-47622257D01*
X115088347Y-47622257D02*
X114588347Y-46550828D01*
X114588347Y-46550828D02*
X114588347Y-48050828D01*
X113874061Y-48050828D02*
X113874061Y-47050828D01*
X113874061Y-46550828D02*
X113945489Y-46622257D01*
X113945489Y-46622257D02*
X113874061Y-46693685D01*
X113874061Y-46693685D02*
X113802632Y-46622257D01*
X113802632Y-46622257D02*
X113874061Y-46550828D01*
X113874061Y-46550828D02*
X113874061Y-46693685D01*
X113159775Y-48050828D02*
X113159775Y-46550828D01*
X113016918Y-47479400D02*
X112588346Y-48050828D01*
X112588346Y-47050828D02*
X113159775Y-47622257D01*
X111374060Y-47979400D02*
X111516917Y-48050828D01*
X111516917Y-48050828D02*
X111802632Y-48050828D01*
X111802632Y-48050828D02*
X111945489Y-47979400D01*
X111945489Y-47979400D02*
X112016917Y-47836542D01*
X112016917Y-47836542D02*
X112016917Y-47265114D01*
X112016917Y-47265114D02*
X111945489Y-47122257D01*
X111945489Y-47122257D02*
X111802632Y-47050828D01*
X111802632Y-47050828D02*
X111516917Y-47050828D01*
X111516917Y-47050828D02*
X111374060Y-47122257D01*
X111374060Y-47122257D02*
X111302632Y-47265114D01*
X111302632Y-47265114D02*
X111302632Y-47407971D01*
X111302632Y-47407971D02*
X112016917Y-47550828D01*
X109516918Y-48050828D02*
X109516918Y-46550828D01*
X109516918Y-47265114D02*
X108659775Y-47265114D01*
X108659775Y-48050828D02*
X108659775Y-46550828D01*
X107302632Y-47050828D02*
X107302632Y-48050828D01*
X107945489Y-47050828D02*
X107945489Y-47836542D01*
X107945489Y-47836542D02*
X107874060Y-47979400D01*
X107874060Y-47979400D02*
X107731203Y-48050828D01*
X107731203Y-48050828D02*
X107516917Y-48050828D01*
X107516917Y-48050828D02*
X107374060Y-47979400D01*
X107374060Y-47979400D02*
X107302632Y-47907971D01*
X106588346Y-47050828D02*
X106588346Y-48050828D01*
X106588346Y-47193685D02*
X106516917Y-47122257D01*
X106516917Y-47122257D02*
X106374060Y-47050828D01*
X106374060Y-47050828D02*
X106159774Y-47050828D01*
X106159774Y-47050828D02*
X106016917Y-47122257D01*
X106016917Y-47122257D02*
X105945489Y-47265114D01*
X105945489Y-47265114D02*
X105945489Y-48050828D01*
X104588346Y-47050828D02*
X104588346Y-48265114D01*
X104588346Y-48265114D02*
X104659774Y-48407971D01*
X104659774Y-48407971D02*
X104731203Y-48479400D01*
X104731203Y-48479400D02*
X104874060Y-48550828D01*
X104874060Y-48550828D02*
X105088346Y-48550828D01*
X105088346Y-48550828D02*
X105231203Y-48479400D01*
X104588346Y-47979400D02*
X104731203Y-48050828D01*
X104731203Y-48050828D02*
X105016917Y-48050828D01*
X105016917Y-48050828D02*
X105159774Y-47979400D01*
X105159774Y-47979400D02*
X105231203Y-47907971D01*
X105231203Y-47907971D02*
X105302631Y-47765114D01*
X105302631Y-47765114D02*
X105302631Y-47336542D01*
X105302631Y-47336542D02*
X105231203Y-47193685D01*
X105231203Y-47193685D02*
X105159774Y-47122257D01*
X105159774Y-47122257D02*
X105016917Y-47050828D01*
X105016917Y-47050828D02*
X104731203Y-47050828D01*
X104731203Y-47050828D02*
X104588346Y-47122257D01*
D11*
%TO.C,G1*%
G36*
X88342172Y-37490909D02*
G01*
X88342172Y-38501136D01*
X88286048Y-38501136D01*
X88229924Y-38501136D01*
X88229924Y-37490909D01*
X88229924Y-36480682D01*
X88286048Y-36480682D01*
X88342172Y-36480682D01*
X88342172Y-37490909D01*
G37*
G36*
X88694950Y-37490909D02*
G01*
X88694950Y-38501136D01*
X88638826Y-38501136D01*
X88582702Y-38501136D01*
X88582702Y-37490909D01*
X88582702Y-36480682D01*
X88638826Y-36480682D01*
X88694950Y-36480682D01*
X88694950Y-37490909D01*
G37*
G36*
X89015657Y-37490909D02*
G01*
X89015657Y-38501136D01*
X88959533Y-38501136D01*
X88903409Y-38501136D01*
X88903409Y-37490909D01*
X88903409Y-36480682D01*
X88959533Y-36480682D01*
X89015657Y-36480682D01*
X89015657Y-37490909D01*
G37*
G36*
X93232955Y-42085038D02*
G01*
X93232955Y-42413763D01*
X93176831Y-42413763D01*
X93120707Y-42413763D01*
X93120707Y-42085038D01*
X93120707Y-41756313D01*
X93176831Y-41756313D01*
X93232955Y-41756313D01*
X93232955Y-42085038D01*
G37*
G36*
X96039142Y-40385290D02*
G01*
X96039142Y-40826263D01*
X95983018Y-40826263D01*
X95926894Y-40826263D01*
X95926894Y-40385290D01*
X95926894Y-39944318D01*
X95983018Y-39944318D01*
X96039142Y-39944318D01*
X96039142Y-40385290D01*
G37*
G36*
X96728662Y-37490909D02*
G01*
X96728662Y-38501136D01*
X96672538Y-38501136D01*
X96616414Y-38501136D01*
X96616414Y-37490909D01*
X96616414Y-36480682D01*
X96672538Y-36480682D01*
X96728662Y-36480682D01*
X96728662Y-37490909D01*
G37*
G36*
X97065404Y-37490909D02*
G01*
X97065404Y-38501136D01*
X97009280Y-38501136D01*
X96953157Y-38501136D01*
X96953157Y-37490909D01*
X96953157Y-36480682D01*
X97009280Y-36480682D01*
X97065404Y-36480682D01*
X97065404Y-37490909D01*
G37*
G36*
X97402147Y-37490909D02*
G01*
X97402147Y-38501136D01*
X97346023Y-38501136D01*
X97289899Y-38501136D01*
X97289899Y-37490909D01*
X97289899Y-36480682D01*
X97346023Y-36480682D01*
X97402147Y-36480682D01*
X97402147Y-37490909D01*
G37*
G36*
X91164394Y-40385290D02*
G01*
X91164394Y-40826263D01*
X90899811Y-40826263D01*
X90635227Y-40826263D01*
X90635227Y-40778157D01*
X90635227Y-40730050D01*
X90843687Y-40730050D01*
X91052147Y-40730050D01*
X91052147Y-40337184D01*
X91052147Y-39944318D01*
X91108270Y-39944318D01*
X91164394Y-39944318D01*
X91164394Y-40385290D01*
G37*
G36*
X93215638Y-41523424D02*
G01*
X93240944Y-41551444D01*
X93247177Y-41589137D01*
X93229748Y-41624823D01*
X93220758Y-41632415D01*
X93181630Y-41643977D01*
X93143290Y-41629986D01*
X93116610Y-41593457D01*
X93114980Y-41585468D01*
X93125227Y-41554320D01*
X93152629Y-41527309D01*
X93186913Y-41515783D01*
X93215638Y-41523424D01*
G37*
G36*
X94579924Y-41579924D02*
G01*
X94579924Y-41628030D01*
X94451642Y-41628030D01*
X94323359Y-41628030D01*
X94323359Y-42020896D01*
X94323359Y-42413763D01*
X94267235Y-42413763D01*
X94211111Y-42413763D01*
X94211111Y-42020896D01*
X94211111Y-41628030D01*
X94082828Y-41628030D01*
X93954546Y-41628030D01*
X93954546Y-41579924D01*
X93954546Y-41531818D01*
X94267235Y-41531818D01*
X94579924Y-41531818D01*
X94579924Y-41579924D01*
G37*
G36*
X91412698Y-36348998D02*
G01*
X91498800Y-36389037D01*
X91506789Y-36394523D01*
X91570539Y-36457607D01*
X91610466Y-36534761D01*
X91626960Y-36619716D01*
X91620408Y-36706207D01*
X91591200Y-36787964D01*
X91539724Y-36858722D01*
X91466368Y-36912213D01*
X91454214Y-36918067D01*
X91365735Y-36942899D01*
X91279054Y-36939620D01*
X91198937Y-36911528D01*
X91130151Y-36861921D01*
X91077464Y-36794093D01*
X91045643Y-36711344D01*
X91039455Y-36616968D01*
X91058645Y-36530108D01*
X91102230Y-36451496D01*
X91164537Y-36391544D01*
X91240457Y-36352786D01*
X91324880Y-36337760D01*
X91412698Y-36348998D01*
G37*
G36*
X94058531Y-36348998D02*
G01*
X94144633Y-36389037D01*
X94152623Y-36394523D01*
X94216372Y-36457607D01*
X94256299Y-36534761D01*
X94272793Y-36619716D01*
X94266242Y-36706207D01*
X94237033Y-36787964D01*
X94185557Y-36858722D01*
X94112201Y-36912213D01*
X94100047Y-36918067D01*
X94011569Y-36942899D01*
X93924887Y-36939620D01*
X93844770Y-36911528D01*
X93775985Y-36861921D01*
X93723298Y-36794093D01*
X93691477Y-36711344D01*
X93685288Y-36616968D01*
X93704479Y-36530108D01*
X93748064Y-36451496D01*
X93810371Y-36391544D01*
X93886291Y-36352786D01*
X93970714Y-36337760D01*
X94058531Y-36348998D01*
G37*
G36*
X94199508Y-39944534D02*
G01*
X94214839Y-39949345D01*
X94230667Y-39961721D01*
X94249648Y-39984993D01*
X94274440Y-40022487D01*
X94307699Y-40077534D01*
X94352081Y-40153461D01*
X94410244Y-40253598D01*
X94510869Y-40426578D01*
X94652792Y-40185448D01*
X94794715Y-39944318D01*
X94863709Y-39944318D01*
X94932702Y-39944318D01*
X94932702Y-40385290D01*
X94932702Y-40826263D01*
X94868880Y-40826263D01*
X94805057Y-40826263D01*
X94800729Y-40485511D01*
X94796402Y-40144760D01*
X94676169Y-40349211D01*
X94633813Y-40420765D01*
X94588010Y-40492921D01*
X94551134Y-40537543D01*
X94519019Y-40554593D01*
X94487500Y-40544034D01*
X94452412Y-40505830D01*
X94409591Y-40439942D01*
X94354871Y-40346334D01*
X94235164Y-40139007D01*
X94230843Y-40482635D01*
X94226521Y-40826263D01*
X94162693Y-40826263D01*
X94098864Y-40826263D01*
X94098864Y-40385290D01*
X94098864Y-39944318D01*
X94163400Y-39944318D01*
X94182016Y-39943960D01*
X94199508Y-39944534D01*
G37*
G36*
X92325161Y-39944362D02*
G01*
X92363526Y-39946301D01*
X92388517Y-39956431D01*
X92409397Y-39981571D01*
X92435425Y-40028542D01*
X92440938Y-40038966D01*
X92472752Y-40098325D01*
X92511398Y-40169536D01*
X92549727Y-40239411D01*
X92619703Y-40366132D01*
X92717119Y-40183287D01*
X92728771Y-40161417D01*
X92772838Y-40079294D01*
X92805729Y-40020749D01*
X92830676Y-39981939D01*
X92850913Y-39959019D01*
X92869672Y-39948145D01*
X92890186Y-39945473D01*
X92915687Y-39947158D01*
X92973971Y-39952336D01*
X92823214Y-40216919D01*
X92672458Y-40481502D01*
X92672087Y-40653883D01*
X92671717Y-40826263D01*
X92615594Y-40826263D01*
X92559470Y-40826263D01*
X92559470Y-40654855D01*
X92559470Y-40483447D01*
X92428612Y-40249962D01*
X92398274Y-40195978D01*
X92355078Y-40119621D01*
X92317908Y-40054513D01*
X92289961Y-40006243D01*
X92274432Y-39980398D01*
X92265470Y-39965982D01*
X92261704Y-39950932D01*
X92278297Y-39945231D01*
X92321104Y-39944356D01*
X92325161Y-39944362D01*
G37*
G36*
X91024545Y-41758046D02*
G01*
X91097231Y-41794848D01*
X91156376Y-41837100D01*
X91161450Y-41796706D01*
X91166153Y-41775739D01*
X91183215Y-41760009D01*
X91221583Y-41756313D01*
X91276642Y-41756313D01*
X91276642Y-42085038D01*
X91276642Y-42413763D01*
X91220518Y-42413763D01*
X91164394Y-42413763D01*
X91164394Y-42184818D01*
X91164168Y-42122409D01*
X91162020Y-42037894D01*
X91156196Y-41976981D01*
X91145002Y-41934334D01*
X91126750Y-41904618D01*
X91099748Y-41882496D01*
X91062305Y-41862633D01*
X91061119Y-41862074D01*
X90989420Y-41839454D01*
X90928194Y-41842233D01*
X90882252Y-41870210D01*
X90871197Y-41885288D01*
X90862412Y-41907276D01*
X90856181Y-41940390D01*
X90851851Y-41989865D01*
X90848771Y-42060939D01*
X90846287Y-42158847D01*
X90840869Y-42413763D01*
X90784775Y-42413763D01*
X90728680Y-42413763D01*
X90734199Y-42153188D01*
X90736461Y-42070532D01*
X90741647Y-41974590D01*
X90750300Y-41902767D01*
X90763772Y-41850371D01*
X90783415Y-41812709D01*
X90810579Y-41785089D01*
X90846616Y-41762816D01*
X90872792Y-41752165D01*
X90946236Y-41743372D01*
X91024545Y-41758046D01*
G37*
G36*
X89801389Y-40826263D02*
G01*
X89745265Y-40826263D01*
X89710529Y-40824141D01*
X89692893Y-40812291D01*
X89689142Y-40783379D01*
X89689142Y-40740495D01*
X89653054Y-40774398D01*
X89619174Y-40801013D01*
X89576886Y-40825155D01*
X89540132Y-40835115D01*
X89469268Y-40836794D01*
X89396493Y-40822565D01*
X89336544Y-40794320D01*
X89298580Y-40760790D01*
X89256717Y-40695166D01*
X89232472Y-40608429D01*
X89224838Y-40502062D01*
X89336453Y-40502062D01*
X89336475Y-40507258D01*
X89346889Y-40598135D01*
X89374889Y-40670853D01*
X89418415Y-40719937D01*
X89422622Y-40722650D01*
X89466510Y-40739288D01*
X89517924Y-40746086D01*
X89550022Y-40743799D01*
X89591312Y-40728066D01*
X89634621Y-40691566D01*
X89654103Y-40671517D01*
X89673810Y-40645693D01*
X89684257Y-40616805D01*
X89688360Y-40575186D01*
X89689036Y-40511168D01*
X89685566Y-40442757D01*
X89666014Y-40357191D01*
X89628502Y-40297220D01*
X89572200Y-40261718D01*
X89496276Y-40249558D01*
X89459280Y-40252546D01*
X89404395Y-40276357D01*
X89366180Y-40325008D01*
X89343809Y-40399808D01*
X89336453Y-40502062D01*
X89224838Y-40502062D01*
X89224469Y-40496927D01*
X89230583Y-40401553D01*
X89256352Y-40303201D01*
X89302032Y-40229454D01*
X89367377Y-40180679D01*
X89452140Y-40157246D01*
X89511046Y-40157742D01*
X89584021Y-40179931D01*
X89640158Y-40223879D01*
X89659051Y-40242662D01*
X89673870Y-40244121D01*
X89683089Y-40222182D01*
X89687812Y-40173980D01*
X89689142Y-40096654D01*
X89689142Y-39944318D01*
X89745265Y-39944318D01*
X89801389Y-39944318D01*
X89801389Y-40385290D01*
X89801389Y-40511168D01*
X89801389Y-40826263D01*
G37*
G36*
X92190657Y-40826263D02*
G01*
X92134533Y-40826263D01*
X92099797Y-40824141D01*
X92082161Y-40812291D01*
X92078409Y-40783379D01*
X92078409Y-40740495D01*
X92042322Y-40774398D01*
X92008441Y-40801013D01*
X91966154Y-40825155D01*
X91929399Y-40835115D01*
X91858535Y-40836794D01*
X91785761Y-40822565D01*
X91725812Y-40794320D01*
X91687848Y-40760790D01*
X91645985Y-40695166D01*
X91621740Y-40608429D01*
X91614105Y-40502062D01*
X91725721Y-40502062D01*
X91725743Y-40507258D01*
X91736157Y-40598135D01*
X91764156Y-40670853D01*
X91807682Y-40719937D01*
X91811890Y-40722650D01*
X91855778Y-40739288D01*
X91907192Y-40746086D01*
X91939290Y-40743799D01*
X91980580Y-40728066D01*
X92023889Y-40691566D01*
X92043371Y-40671517D01*
X92063078Y-40645693D01*
X92073524Y-40616805D01*
X92077628Y-40575186D01*
X92078304Y-40511168D01*
X92074833Y-40442757D01*
X92055282Y-40357191D01*
X92017770Y-40297220D01*
X91961467Y-40261718D01*
X91885544Y-40249558D01*
X91848548Y-40252546D01*
X91793663Y-40276357D01*
X91755448Y-40325008D01*
X91733076Y-40399808D01*
X91725721Y-40502062D01*
X91614105Y-40502062D01*
X91613736Y-40496927D01*
X91619851Y-40401553D01*
X91645620Y-40303201D01*
X91691300Y-40229454D01*
X91756645Y-40180679D01*
X91841408Y-40157246D01*
X91900314Y-40157742D01*
X91973289Y-40179931D01*
X92029426Y-40223879D01*
X92048319Y-40242662D01*
X92063137Y-40244121D01*
X92072357Y-40222182D01*
X92077080Y-40173980D01*
X92078409Y-40096654D01*
X92078409Y-39944318D01*
X92134533Y-39944318D01*
X92190657Y-39944318D01*
X92190657Y-40385290D01*
X92190657Y-40511168D01*
X92190657Y-40826263D01*
G37*
G36*
X95719913Y-40564666D02*
G01*
X95751670Y-40649966D01*
X95778087Y-40720788D01*
X95797232Y-40771933D01*
X95807176Y-40798201D01*
X95809752Y-40815750D01*
X95794369Y-40824231D01*
X95753848Y-40826263D01*
X95689618Y-40826263D01*
X95645754Y-40705997D01*
X95601891Y-40585732D01*
X95423641Y-40585766D01*
X95245392Y-40585800D01*
X95204525Y-40702023D01*
X95188970Y-40745550D01*
X95171613Y-40787106D01*
X95155359Y-40809498D01*
X95134744Y-40819334D01*
X95104304Y-40823222D01*
X95093800Y-40823898D01*
X95059123Y-40822397D01*
X95045315Y-40815204D01*
X95045465Y-40814301D01*
X95052503Y-40792113D01*
X95069051Y-40744408D01*
X95093695Y-40675129D01*
X95125025Y-40588218D01*
X95161629Y-40487618D01*
X95166084Y-40475470D01*
X95285480Y-40475470D01*
X95289059Y-40478581D01*
X95316773Y-40484192D01*
X95365940Y-40488072D01*
X95429395Y-40489520D01*
X95573310Y-40489520D01*
X95527862Y-40365246D01*
X95526130Y-40360504D01*
X95499790Y-40287143D01*
X95473912Y-40213170D01*
X95453864Y-40153917D01*
X95425315Y-40066862D01*
X95355397Y-40264141D01*
X95350779Y-40277202D01*
X95325252Y-40350581D01*
X95304508Y-40412170D01*
X95290575Y-40455843D01*
X95285480Y-40475470D01*
X95166084Y-40475470D01*
X95202095Y-40377273D01*
X95358509Y-39952336D01*
X95424366Y-39947496D01*
X95431504Y-39946996D01*
X95471375Y-39947312D01*
X95492460Y-39958978D01*
X95506163Y-39987584D01*
X95510285Y-39998979D01*
X95525359Y-40040028D01*
X95548608Y-40102998D01*
X95578103Y-40182689D01*
X95611911Y-40273901D01*
X95648103Y-40371434D01*
X95684747Y-40470089D01*
X95691972Y-40489520D01*
X95719913Y-40564666D01*
G37*
G36*
X90530543Y-40710679D02*
G01*
X90497165Y-40771078D01*
X90439627Y-40816382D01*
X90409504Y-40828439D01*
X90331231Y-40838314D01*
X90248113Y-40824584D01*
X90170596Y-40788338D01*
X90106061Y-40745631D01*
X90106061Y-40785947D01*
X90103130Y-40810594D01*
X90087110Y-40823442D01*
X90048585Y-40826263D01*
X89991110Y-40826263D01*
X89996471Y-40557670D01*
X89996927Y-40535740D01*
X89997977Y-40501413D01*
X90106061Y-40501413D01*
X90106061Y-40572848D01*
X90106145Y-40579760D01*
X90117630Y-40640343D01*
X90151759Y-40687497D01*
X90213245Y-40728047D01*
X90264284Y-40745413D01*
X90323965Y-40746587D01*
X90376008Y-40729522D01*
X90412811Y-40696940D01*
X90426768Y-40651566D01*
X90422778Y-40615163D01*
X90402359Y-40575929D01*
X90361262Y-40547245D01*
X90295756Y-40526799D01*
X90202112Y-40512280D01*
X90106061Y-40501413D01*
X89997977Y-40501413D01*
X90000207Y-40428553D01*
X90005795Y-40347906D01*
X90015262Y-40289096D01*
X90030181Y-40247422D01*
X90052125Y-40218180D01*
X90082665Y-40196671D01*
X90123374Y-40178190D01*
X90150056Y-40168765D01*
X90236360Y-40153867D01*
X90319213Y-40160565D01*
X90393157Y-40186366D01*
X90452733Y-40228774D01*
X90492482Y-40285297D01*
X90506945Y-40353439D01*
X90505092Y-40376833D01*
X90491708Y-40390603D01*
X90456829Y-40390315D01*
X90432902Y-40386161D01*
X90406494Y-40368625D01*
X90388678Y-40329225D01*
X90379350Y-40305209D01*
X90353676Y-40273655D01*
X90307991Y-40252645D01*
X90273500Y-40243771D01*
X90204666Y-40243785D01*
X90151850Y-40270265D01*
X90117999Y-40321143D01*
X90106061Y-40394352D01*
X90106083Y-40402046D01*
X90108585Y-40424737D01*
X90120588Y-40436432D01*
X90149615Y-40440776D01*
X90203190Y-40441414D01*
X90263466Y-40443178D01*
X90360824Y-40457233D01*
X90435250Y-40486426D01*
X90490922Y-40532073D01*
X90519449Y-40574367D01*
X90538419Y-40642628D01*
X90537385Y-40651566D01*
X90530543Y-40710679D01*
G37*
G36*
X92005796Y-42298179D02*
G01*
X91972418Y-42358578D01*
X91914879Y-42403882D01*
X91884757Y-42415939D01*
X91806483Y-42425814D01*
X91723365Y-42412084D01*
X91645849Y-42375838D01*
X91581313Y-42333131D01*
X91581313Y-42373447D01*
X91578383Y-42398094D01*
X91562363Y-42410942D01*
X91523838Y-42413763D01*
X91466363Y-42413763D01*
X91471723Y-42145170D01*
X91472179Y-42123240D01*
X91473230Y-42088913D01*
X91581313Y-42088913D01*
X91581313Y-42160348D01*
X91581398Y-42167260D01*
X91592883Y-42227843D01*
X91627012Y-42274997D01*
X91688498Y-42315547D01*
X91739537Y-42332913D01*
X91799217Y-42334087D01*
X91851261Y-42317022D01*
X91888063Y-42284440D01*
X91902020Y-42239066D01*
X91898030Y-42202663D01*
X91877612Y-42163429D01*
X91836514Y-42134745D01*
X91771008Y-42114299D01*
X91677365Y-42099780D01*
X91581313Y-42088913D01*
X91473230Y-42088913D01*
X91475460Y-42016053D01*
X91481047Y-41935406D01*
X91490515Y-41876596D01*
X91505434Y-41834922D01*
X91527377Y-41805680D01*
X91557917Y-41784171D01*
X91598627Y-41765690D01*
X91625309Y-41756265D01*
X91711612Y-41741367D01*
X91794466Y-41748065D01*
X91868410Y-41773866D01*
X91927986Y-41816274D01*
X91967735Y-41872797D01*
X91982197Y-41940939D01*
X91980344Y-41964333D01*
X91966961Y-41978103D01*
X91932081Y-41977815D01*
X91908155Y-41973661D01*
X91881746Y-41956125D01*
X91863931Y-41916725D01*
X91854603Y-41892709D01*
X91828928Y-41861155D01*
X91783244Y-41840145D01*
X91748753Y-41831271D01*
X91679919Y-41831285D01*
X91627103Y-41857765D01*
X91593252Y-41908643D01*
X91581313Y-41981852D01*
X91581336Y-41989546D01*
X91583838Y-42012237D01*
X91595841Y-42023932D01*
X91624868Y-42028276D01*
X91678442Y-42028914D01*
X91738719Y-42030678D01*
X91836076Y-42044733D01*
X91910503Y-42073926D01*
X91966175Y-42119573D01*
X91994701Y-42161867D01*
X92013671Y-42230128D01*
X92012637Y-42239066D01*
X92005796Y-42298179D01*
G37*
G36*
X93978144Y-42298179D02*
G01*
X93944766Y-42358578D01*
X93887228Y-42403882D01*
X93857105Y-42415939D01*
X93778832Y-42425814D01*
X93695714Y-42412084D01*
X93618197Y-42375838D01*
X93553662Y-42333131D01*
X93553662Y-42373447D01*
X93550731Y-42398094D01*
X93534711Y-42410942D01*
X93496186Y-42413763D01*
X93438711Y-42413763D01*
X93444072Y-42145170D01*
X93444528Y-42123240D01*
X93445578Y-42088913D01*
X93553662Y-42088913D01*
X93553662Y-42160348D01*
X93553746Y-42167260D01*
X93565231Y-42227843D01*
X93599360Y-42274997D01*
X93660846Y-42315547D01*
X93711885Y-42332913D01*
X93771566Y-42334087D01*
X93823609Y-42317022D01*
X93860412Y-42284440D01*
X93874369Y-42239066D01*
X93870379Y-42202663D01*
X93849960Y-42163429D01*
X93808863Y-42134745D01*
X93743357Y-42114299D01*
X93649713Y-42099780D01*
X93553662Y-42088913D01*
X93445578Y-42088913D01*
X93447808Y-42016053D01*
X93453396Y-41935406D01*
X93462863Y-41876596D01*
X93477782Y-41834922D01*
X93499726Y-41805680D01*
X93530266Y-41784171D01*
X93570975Y-41765690D01*
X93597657Y-41756265D01*
X93683961Y-41741367D01*
X93766814Y-41748065D01*
X93840758Y-41773866D01*
X93900334Y-41816274D01*
X93940083Y-41872797D01*
X93954546Y-41940939D01*
X93952693Y-41964333D01*
X93939309Y-41978103D01*
X93904430Y-41977815D01*
X93880503Y-41973661D01*
X93854095Y-41956125D01*
X93836279Y-41916725D01*
X93826951Y-41892709D01*
X93801277Y-41861155D01*
X93755592Y-41840145D01*
X93721101Y-41831271D01*
X93652267Y-41831285D01*
X93599451Y-41857765D01*
X93565600Y-41908643D01*
X93553662Y-41981852D01*
X93553684Y-41989546D01*
X93556186Y-42012237D01*
X93568189Y-42023932D01*
X93597216Y-42028276D01*
X93650791Y-42028914D01*
X93711067Y-42030678D01*
X93808425Y-42044733D01*
X93882851Y-42073926D01*
X93938523Y-42119573D01*
X93967050Y-42161867D01*
X93986020Y-42230128D01*
X93984986Y-42239066D01*
X93978144Y-42298179D01*
G37*
G36*
X93722269Y-39942989D02*
G01*
X93802417Y-39974708D01*
X93865895Y-40026877D01*
X93887408Y-40057110D01*
X93902416Y-40100018D01*
X93906440Y-40159863D01*
X93906057Y-40176815D01*
X93894284Y-40243314D01*
X93863620Y-40297668D01*
X93810772Y-40342903D01*
X93732443Y-40382048D01*
X93625338Y-40418129D01*
X93610155Y-40422591D01*
X93525442Y-40450778D01*
X93467160Y-40477847D01*
X93430636Y-40506440D01*
X93411199Y-40539198D01*
X93400988Y-40601467D01*
X93418394Y-40657853D01*
X93464137Y-40701269D01*
X93537025Y-40729906D01*
X93585175Y-40738040D01*
X93666610Y-40734873D01*
X93734640Y-40710194D01*
X93784219Y-40666300D01*
X93810300Y-40605490D01*
X93817621Y-40580755D01*
X93837352Y-40563741D01*
X93878450Y-40556702D01*
X93914797Y-40555547D01*
X93934061Y-40563475D01*
X93938510Y-40585279D01*
X93925044Y-40654844D01*
X93884582Y-40723488D01*
X93822390Y-40780449D01*
X93743790Y-40819328D01*
X93741370Y-40820102D01*
X93662372Y-40834575D01*
X93572347Y-40835262D01*
X93484985Y-40823019D01*
X93413978Y-40798703D01*
X93356894Y-40758252D01*
X93307706Y-40693347D01*
X93282482Y-40617695D01*
X93283346Y-40538341D01*
X93312426Y-40462330D01*
X93320649Y-40449382D01*
X93345761Y-40417717D01*
X93377752Y-40391653D01*
X93422659Y-40367755D01*
X93486517Y-40342589D01*
X93575361Y-40312721D01*
X93620776Y-40297235D01*
X93685576Y-40272149D01*
X93735972Y-40248991D01*
X93763776Y-40231300D01*
X93765613Y-40229419D01*
X93790756Y-40182574D01*
X93787376Y-40130397D01*
X93755895Y-40080952D01*
X93721996Y-40055295D01*
X93659129Y-40033046D01*
X93590912Y-40030677D01*
X93525812Y-40046884D01*
X93472299Y-40080361D01*
X93438841Y-40129804D01*
X93425389Y-40160664D01*
X93403661Y-40180351D01*
X93366034Y-40184848D01*
X93339499Y-40183545D01*
X93318160Y-40173291D01*
X93313132Y-40147131D01*
X93313610Y-40140308D01*
X93325841Y-40099438D01*
X93349423Y-40054928D01*
X93386574Y-40012372D01*
X93457603Y-39966410D01*
X93542282Y-39939251D01*
X93633030Y-39931307D01*
X93722269Y-39942989D01*
G37*
G36*
X92584342Y-41757857D02*
G01*
X92598029Y-41766095D01*
X92610448Y-41784744D01*
X92623651Y-41817878D01*
X92639686Y-41869574D01*
X92660603Y-41943906D01*
X92688453Y-42044949D01*
X92708524Y-42116182D01*
X92727166Y-42179702D01*
X92741570Y-42225952D01*
X92749671Y-42248086D01*
X92754549Y-42244528D01*
X92767040Y-42216011D01*
X92784934Y-42164594D01*
X92806648Y-42094903D01*
X92830599Y-42011564D01*
X92901287Y-41756313D01*
X92954873Y-41756313D01*
X92960080Y-41756394D01*
X92994415Y-41761927D01*
X93008460Y-41773487D01*
X93007267Y-41779473D01*
X92998687Y-41811484D01*
X92983244Y-41865665D01*
X92962611Y-41936397D01*
X92938462Y-42018061D01*
X92912473Y-42105039D01*
X92886319Y-42191712D01*
X92861673Y-42272462D01*
X92840210Y-42341670D01*
X92823604Y-42393718D01*
X92821996Y-42396718D01*
X92797847Y-42408957D01*
X92755175Y-42413763D01*
X92693308Y-42413763D01*
X92623611Y-42165215D01*
X92607618Y-42109144D01*
X92584825Y-42032691D01*
X92565418Y-41971680D01*
X92551065Y-41931282D01*
X92543435Y-41916667D01*
X92539270Y-41923087D01*
X92527040Y-41955204D01*
X92509183Y-42009711D01*
X92487366Y-42081438D01*
X92463258Y-42165215D01*
X92393561Y-42413763D01*
X92332887Y-42413763D01*
X92272213Y-42413763D01*
X92208609Y-42209312D01*
X92184505Y-42131724D01*
X92148599Y-42015536D01*
X92121099Y-41925512D01*
X92101166Y-41858833D01*
X92087965Y-41812678D01*
X92080659Y-41784227D01*
X92078409Y-41770659D01*
X92078619Y-41769382D01*
X92095599Y-41760111D01*
X92131464Y-41756313D01*
X92184519Y-41756313D01*
X92255104Y-42012177D01*
X92272690Y-42075272D01*
X92294444Y-42151344D01*
X92312277Y-42211391D01*
X92324701Y-42250436D01*
X92330227Y-42263502D01*
X92331660Y-42260247D01*
X92340660Y-42232979D01*
X92356120Y-42182752D01*
X92376342Y-42115136D01*
X92399631Y-42035700D01*
X92408438Y-42005396D01*
X92431483Y-41926201D01*
X92451158Y-41858726D01*
X92465608Y-41809330D01*
X92472975Y-41784375D01*
X92475452Y-41778188D01*
X92497384Y-41761330D01*
X92543272Y-41756313D01*
X92544967Y-41756309D01*
X92567338Y-41755953D01*
X92584342Y-41757857D01*
G37*
G36*
X93983049Y-38125615D02*
G01*
X93983673Y-38163499D01*
X93984339Y-38242398D01*
X93984008Y-38306691D01*
X93982740Y-38350559D01*
X93980594Y-38368186D01*
X93974829Y-38368583D01*
X93947278Y-38359614D01*
X93906440Y-38340783D01*
X93884489Y-38329967D01*
X93850444Y-38315153D01*
X93835325Y-38311602D01*
X93829227Y-38320385D01*
X93809322Y-38349599D01*
X93781166Y-38391181D01*
X93757821Y-38422205D01*
X93697924Y-38487863D01*
X93622048Y-38559365D01*
X93537661Y-38629867D01*
X93452233Y-38692527D01*
X93356893Y-38749772D01*
X93203333Y-38820818D01*
X93031267Y-38879886D01*
X92848106Y-38924133D01*
X92844440Y-38924798D01*
X92786459Y-38929933D01*
X92705995Y-38930663D01*
X92611516Y-38927526D01*
X92511491Y-38921057D01*
X92414387Y-38911795D01*
X92328672Y-38900275D01*
X92262816Y-38887035D01*
X92108960Y-38837710D01*
X91912515Y-38746742D01*
X91731257Y-38629664D01*
X91569785Y-38489116D01*
X91437681Y-38355817D01*
X91373835Y-38388388D01*
X91355670Y-38397479D01*
X91319635Y-38414292D01*
X91301333Y-38420960D01*
X91299782Y-38417065D01*
X91296973Y-38387996D01*
X91294719Y-38335172D01*
X91293221Y-38264135D01*
X91292677Y-38180429D01*
X91292806Y-38137334D01*
X91293769Y-38059270D01*
X91295519Y-37996648D01*
X91297872Y-37955010D01*
X91300644Y-37939899D01*
X91304968Y-37941994D01*
X91330957Y-37958629D01*
X91375967Y-37989161D01*
X91435249Y-38030343D01*
X91504053Y-38078927D01*
X91699493Y-38217955D01*
X91632386Y-38250458D01*
X91611968Y-38261212D01*
X91578496Y-38283938D01*
X91565278Y-38301144D01*
X91566568Y-38306035D01*
X91585189Y-38332564D01*
X91621795Y-38372563D01*
X91671057Y-38421080D01*
X91727647Y-38473160D01*
X91786237Y-38523850D01*
X91841496Y-38568196D01*
X91888098Y-38601245D01*
X91954278Y-38641365D01*
X92112536Y-38719860D01*
X92272870Y-38772800D01*
X92443246Y-38802432D01*
X92631629Y-38811003D01*
X92699737Y-38809371D01*
X92895491Y-38788718D01*
X93076722Y-38742972D01*
X93249676Y-38670214D01*
X93420598Y-38568524D01*
X93435101Y-38558170D01*
X93481860Y-38520554D01*
X93535826Y-38472765D01*
X93591750Y-38419989D01*
X93644383Y-38367411D01*
X93688477Y-38320220D01*
X93718782Y-38283601D01*
X93730051Y-38262741D01*
X93727620Y-38258025D01*
X93704857Y-38240832D01*
X93665909Y-38220518D01*
X93648199Y-38212141D01*
X93615287Y-38193753D01*
X93602630Y-38182003D01*
X93605114Y-38178721D01*
X93627278Y-38159060D01*
X93668684Y-38125491D01*
X93724788Y-38081652D01*
X93791045Y-38031180D01*
X93978599Y-37889949D01*
X93983049Y-38125615D01*
G37*
G36*
X94831890Y-37489380D02*
G01*
X94888673Y-37501574D01*
X94988782Y-37524967D01*
X95137469Y-37579141D01*
X95286939Y-37654072D01*
X95428767Y-37745368D01*
X95554525Y-37848637D01*
X95559329Y-37853183D01*
X95620550Y-37917089D01*
X95685005Y-37993751D01*
X95749180Y-38077928D01*
X95809563Y-38164379D01*
X95862642Y-38247864D01*
X95904905Y-38323143D01*
X95932838Y-38384975D01*
X95942929Y-38428120D01*
X95950385Y-38464391D01*
X95972740Y-38520010D01*
X96005133Y-38582927D01*
X96042621Y-38643627D01*
X96080265Y-38692595D01*
X96102086Y-38717040D01*
X96122891Y-38739263D01*
X96143752Y-38757595D01*
X96167578Y-38772399D01*
X96197280Y-38784037D01*
X96235768Y-38792872D01*
X96285954Y-38799269D01*
X96350747Y-38803588D01*
X96433059Y-38806194D01*
X96535799Y-38807449D01*
X96661878Y-38807716D01*
X96814207Y-38807358D01*
X96995696Y-38806738D01*
X97754924Y-38804310D01*
X97754924Y-38861012D01*
X97754924Y-38917715D01*
X97061395Y-38922958D01*
X96971678Y-38923634D01*
X96799925Y-38924859D01*
X96656143Y-38925679D01*
X96537531Y-38925990D01*
X96441288Y-38925685D01*
X96364612Y-38924662D01*
X96304702Y-38922814D01*
X96258756Y-38920039D01*
X96223972Y-38916230D01*
X96197549Y-38911284D01*
X96176685Y-38905095D01*
X96158579Y-38897560D01*
X96140429Y-38888574D01*
X96096564Y-38862172D01*
X96012208Y-38788527D01*
X95935762Y-38692044D01*
X95871697Y-38578859D01*
X95824484Y-38455105D01*
X95819345Y-38438622D01*
X95772820Y-38329207D01*
X95704672Y-38212192D01*
X95620130Y-38094945D01*
X95524426Y-37984835D01*
X95422791Y-37889231D01*
X95362374Y-37842924D01*
X95256369Y-37774510D01*
X95140973Y-37711991D01*
X95026856Y-37660981D01*
X94924685Y-37627096D01*
X94906163Y-37624359D01*
X94853784Y-37620630D01*
X94773425Y-37617204D01*
X94667487Y-37614082D01*
X94538373Y-37611264D01*
X94388485Y-37608750D01*
X94220225Y-37606541D01*
X94035994Y-37604636D01*
X93838194Y-37603036D01*
X93629229Y-37601742D01*
X93411499Y-37600752D01*
X93187406Y-37600069D01*
X92959353Y-37599691D01*
X92729742Y-37599620D01*
X92500973Y-37599855D01*
X92275451Y-37600396D01*
X92055576Y-37601245D01*
X91843750Y-37602400D01*
X91642376Y-37603863D01*
X91453855Y-37605634D01*
X91280589Y-37607712D01*
X91124981Y-37610099D01*
X90989432Y-37612794D01*
X90876345Y-37615798D01*
X90788120Y-37619110D01*
X90727161Y-37622732D01*
X90695869Y-37626663D01*
X90602359Y-37654732D01*
X90414438Y-37735453D01*
X90241248Y-37844338D01*
X90084630Y-37980323D01*
X90074850Y-37990336D01*
X90004970Y-38068961D01*
X89936508Y-38156912D01*
X89874921Y-38246336D01*
X89825669Y-38329379D01*
X89794209Y-38398187D01*
X89789315Y-38412120D01*
X89766076Y-38478247D01*
X89743797Y-38541596D01*
X89732530Y-38570127D01*
X89692543Y-38647977D01*
X89641337Y-38727054D01*
X89586134Y-38796844D01*
X89534158Y-38846828D01*
X89531265Y-38849032D01*
X89507097Y-38866701D01*
X89483166Y-38881463D01*
X89456535Y-38893555D01*
X89424267Y-38903214D01*
X89383425Y-38910676D01*
X89331073Y-38916180D01*
X89264273Y-38919960D01*
X89180088Y-38922256D01*
X89075582Y-38923302D01*
X88947817Y-38923338D01*
X88793857Y-38922598D01*
X88610764Y-38921321D01*
X87861111Y-38915783D01*
X87861111Y-38860013D01*
X87861111Y-38804243D01*
X88612245Y-38806745D01*
X88768370Y-38807299D01*
X88923798Y-38807728D01*
X89052585Y-38807571D01*
X89157662Y-38806458D01*
X89241955Y-38804024D01*
X89308394Y-38799900D01*
X89359907Y-38793718D01*
X89399422Y-38785111D01*
X89429867Y-38773711D01*
X89454172Y-38759150D01*
X89475264Y-38741061D01*
X89496072Y-38719076D01*
X89519525Y-38692828D01*
X89547708Y-38658028D01*
X89587851Y-38597497D01*
X89622768Y-38533419D01*
X89647457Y-38475271D01*
X89656914Y-38432529D01*
X89662669Y-38407798D01*
X89679915Y-38362881D01*
X89704612Y-38309831D01*
X89802884Y-38142256D01*
X89924578Y-37983092D01*
X90063173Y-37840858D01*
X90214909Y-37718572D01*
X90376031Y-37619250D01*
X90542779Y-37545910D01*
X90711395Y-37501568D01*
X90747854Y-37494316D01*
X90790417Y-37481988D01*
X90792361Y-37480922D01*
X91667853Y-37480922D01*
X91690850Y-37481349D01*
X91741544Y-37481741D01*
X91819079Y-37482093D01*
X91922600Y-37482402D01*
X92051249Y-37482664D01*
X92204170Y-37482875D01*
X92380507Y-37483030D01*
X92579402Y-37483126D01*
X92800000Y-37483159D01*
X92824236Y-37483159D01*
X93042588Y-37483119D01*
X93239147Y-37483017D01*
X93413058Y-37482855D01*
X93563462Y-37482639D01*
X93689504Y-37482372D01*
X93790328Y-37482058D01*
X93865077Y-37481702D01*
X93912893Y-37481306D01*
X93932922Y-37480876D01*
X93924306Y-37480414D01*
X93886188Y-37479926D01*
X93817713Y-37479415D01*
X93718024Y-37478885D01*
X93562339Y-37478266D01*
X93333620Y-37477651D01*
X93087337Y-37477270D01*
X92831760Y-37477124D01*
X92575163Y-37477212D01*
X92325819Y-37477535D01*
X92091999Y-37478093D01*
X91881976Y-37478885D01*
X91869978Y-37478942D01*
X91773618Y-37479470D01*
X91708381Y-37479979D01*
X91673412Y-37480464D01*
X91667853Y-37480922D01*
X90792361Y-37480922D01*
X90811284Y-37470547D01*
X90807277Y-37462120D01*
X90775215Y-37458838D01*
X90762793Y-37458252D01*
X90705010Y-37448331D01*
X90629845Y-37428335D01*
X90546247Y-37401107D01*
X90463166Y-37369489D01*
X90389550Y-37336324D01*
X90305523Y-37290881D01*
X90129164Y-37169882D01*
X89971191Y-37023029D01*
X89830655Y-36849495D01*
X89801440Y-36806226D01*
X89759496Y-36738465D01*
X89720331Y-36669506D01*
X89687687Y-36606329D01*
X89665301Y-36555913D01*
X89656914Y-36525236D01*
X89649228Y-36491865D01*
X89626538Y-36439243D01*
X89593807Y-36378840D01*
X89556059Y-36319855D01*
X89518320Y-36271487D01*
X89501700Y-36253006D01*
X89477816Y-36227516D01*
X89454389Y-36206371D01*
X89428462Y-36189163D01*
X89397080Y-36175486D01*
X89357283Y-36164931D01*
X89306116Y-36157093D01*
X89240621Y-36151563D01*
X89157840Y-36147935D01*
X89054818Y-36145801D01*
X88928597Y-36144754D01*
X88776220Y-36144387D01*
X88594729Y-36144291D01*
X87861111Y-36143939D01*
X87861111Y-36087816D01*
X87861111Y-36031692D01*
X88610764Y-36031849D01*
X89360417Y-36032005D01*
X89443334Y-36070612D01*
X89500737Y-36102647D01*
X89585617Y-36173903D01*
X89661698Y-36270843D01*
X89730461Y-36395496D01*
X89793391Y-36549894D01*
X89798584Y-36563193D01*
X89825185Y-36618506D01*
X89862219Y-36684648D01*
X89903342Y-36750071D01*
X89996317Y-36874578D01*
X90142606Y-37026745D01*
X90307159Y-37153424D01*
X90488277Y-37253362D01*
X90684261Y-37325309D01*
X90688513Y-37326494D01*
X90705392Y-37330689D01*
X90724827Y-37334446D01*
X90748552Y-37337789D01*
X90778305Y-37340743D01*
X90815821Y-37343330D01*
X90862838Y-37345575D01*
X90921090Y-37347503D01*
X90992314Y-37349137D01*
X91078247Y-37350501D01*
X91180625Y-37351620D01*
X91301183Y-37352517D01*
X91441659Y-37353216D01*
X91603787Y-37353742D01*
X91789306Y-37354118D01*
X91999950Y-37354369D01*
X92237457Y-37354518D01*
X92503561Y-37354590D01*
X92800000Y-37354609D01*
X92885859Y-37354607D01*
X93173643Y-37354576D01*
X93431577Y-37354486D01*
X93661400Y-37354311D01*
X93864849Y-37354029D01*
X94043661Y-37353614D01*
X94199572Y-37353044D01*
X94334321Y-37352293D01*
X94449645Y-37351338D01*
X94547280Y-37350154D01*
X94628965Y-37348717D01*
X94696435Y-37347004D01*
X94751429Y-37344991D01*
X94795683Y-37342652D01*
X94830935Y-37339964D01*
X94858923Y-37336904D01*
X94881382Y-37333446D01*
X94900051Y-37329566D01*
X94916667Y-37325242D01*
X94983743Y-37304373D01*
X95168108Y-37225803D01*
X95339412Y-37121487D01*
X95494182Y-36994548D01*
X95628945Y-36848107D01*
X95740227Y-36685286D01*
X95824556Y-36509205D01*
X95859079Y-36424734D01*
X95920536Y-36301597D01*
X95986429Y-36204669D01*
X96059475Y-36130232D01*
X96142391Y-36074570D01*
X96154895Y-36068099D01*
X96171003Y-36061147D01*
X96190228Y-36055395D01*
X96215464Y-36050705D01*
X96249607Y-36046943D01*
X96295552Y-36043971D01*
X96356195Y-36041653D01*
X96434432Y-36039854D01*
X96533157Y-36038437D01*
X96655266Y-36037266D01*
X96803655Y-36036204D01*
X96981219Y-36035117D01*
X97754924Y-36030524D01*
X97754924Y-36086636D01*
X97754924Y-36142749D01*
X96994606Y-36147353D01*
X96234288Y-36151957D01*
X96165282Y-36200471D01*
X96096186Y-36259099D01*
X96019738Y-36354117D01*
X95967191Y-36459652D01*
X95921155Y-36576193D01*
X95820741Y-36769790D01*
X95698256Y-36944673D01*
X95555956Y-37098544D01*
X95396098Y-37229106D01*
X95220937Y-37334061D01*
X95032731Y-37411112D01*
X94997229Y-37422106D01*
X94929250Y-37440961D01*
X94872412Y-37453981D01*
X94836298Y-37458838D01*
X94808042Y-37460220D01*
X94789262Y-37466816D01*
X94797982Y-37477166D01*
X94808282Y-37480876D01*
X94831890Y-37489380D01*
G37*
%TO.C,G3*%
G36*
X99266110Y-53197007D02*
G01*
X99266110Y-53655369D01*
X99187853Y-53655369D01*
X99109595Y-53655369D01*
X99109595Y-53197007D01*
X99109595Y-52738644D01*
X99187853Y-52738644D01*
X99266110Y-52738644D01*
X99266110Y-53197007D01*
G37*
G36*
X103178962Y-50826936D02*
G01*
X103178962Y-51441813D01*
X103100705Y-51441813D01*
X103022448Y-51441813D01*
X103022448Y-50826936D01*
X103022448Y-50212059D01*
X103100705Y-50212059D01*
X103178962Y-50212059D01*
X103178962Y-50826936D01*
G37*
G36*
X96381779Y-50826936D02*
G01*
X96381779Y-51441813D01*
X96012853Y-51441813D01*
X95643926Y-51441813D01*
X95643926Y-51374735D01*
X95643926Y-51307658D01*
X95923416Y-51307658D01*
X96202905Y-51307658D01*
X96202905Y-50759859D01*
X96202905Y-50212059D01*
X96292342Y-50212059D01*
X96381779Y-50212059D01*
X96381779Y-50826936D01*
G37*
G36*
X99241964Y-52413912D02*
G01*
X99277250Y-52452982D01*
X99285941Y-52505539D01*
X99261638Y-52555299D01*
X99249103Y-52565885D01*
X99194544Y-52582006D01*
X99141084Y-52562498D01*
X99103883Y-52511563D01*
X99101609Y-52500423D01*
X99115898Y-52456992D01*
X99154106Y-52419328D01*
X99201911Y-52403257D01*
X99241964Y-52413912D01*
G37*
G36*
X101121919Y-52492693D02*
G01*
X101121919Y-52559771D01*
X100954226Y-52559771D01*
X100786532Y-52559771D01*
X100786532Y-53107570D01*
X100786532Y-53655369D01*
X100697095Y-53655369D01*
X100607659Y-53655369D01*
X100607659Y-53107570D01*
X100607659Y-52559771D01*
X100439965Y-52559771D01*
X100272272Y-52559771D01*
X100272272Y-52492693D01*
X100272272Y-52425616D01*
X100697095Y-52425616D01*
X101121919Y-52425616D01*
X101121919Y-52492693D01*
G37*
G36*
X98888979Y-46218083D02*
G01*
X98990429Y-46283191D01*
X99011314Y-46302940D01*
X99065652Y-46366740D01*
X99101746Y-46426705D01*
X99120945Y-46486792D01*
X99128920Y-46609671D01*
X99100027Y-46729025D01*
X99037743Y-46834005D01*
X98945550Y-46913763D01*
X98847920Y-46955351D01*
X98730719Y-46966043D01*
X98619251Y-46937299D01*
X98521660Y-46871448D01*
X98446088Y-46770823D01*
X98420822Y-46713931D01*
X98396731Y-46597196D01*
X98406790Y-46486656D01*
X98445726Y-46387036D01*
X98508265Y-46303060D01*
X98589134Y-46239453D01*
X98683058Y-46200938D01*
X98784765Y-46192240D01*
X98888979Y-46218083D01*
G37*
G36*
X100842968Y-50548377D02*
G01*
X101037711Y-50884694D01*
X101236797Y-50548377D01*
X101435883Y-50212059D01*
X101524852Y-50212059D01*
X101613821Y-50212059D01*
X101613821Y-50826936D01*
X101613821Y-51441813D01*
X101536000Y-51441813D01*
X101458179Y-51441813D01*
X101452153Y-50955501D01*
X101446127Y-50469190D01*
X101270748Y-50766731D01*
X101201656Y-50882969D01*
X101138958Y-50980072D01*
X101088051Y-51039087D01*
X101043207Y-51059929D01*
X100998696Y-51042513D01*
X100948792Y-50986753D01*
X100887767Y-50892563D01*
X100809891Y-50759859D01*
X100641198Y-50469190D01*
X100635172Y-50955501D01*
X100629146Y-51441813D01*
X100551325Y-51441813D01*
X100473504Y-51441813D01*
X100473504Y-50826936D01*
X100473504Y-50212059D01*
X100560865Y-50212059D01*
X100648226Y-50212059D01*
X100842968Y-50548377D01*
G37*
G36*
X98227732Y-50491549D02*
G01*
X98248327Y-50529481D01*
X98301546Y-50624578D01*
X98346751Y-50701240D01*
X98379691Y-50752413D01*
X98396115Y-50771038D01*
X98399816Y-50768547D01*
X98422448Y-50737363D01*
X98459872Y-50676075D01*
X98507873Y-50591773D01*
X98562235Y-50491549D01*
X98710503Y-50212059D01*
X98798254Y-50212059D01*
X98816750Y-50212365D01*
X98866174Y-50217063D01*
X98886004Y-50225632D01*
X98876499Y-50246532D01*
X98848156Y-50300373D01*
X98804430Y-50380590D01*
X98748807Y-50480792D01*
X98684772Y-50594590D01*
X98483539Y-50949976D01*
X98483539Y-51195894D01*
X98483539Y-51441813D01*
X98394103Y-51441813D01*
X98304666Y-51441813D01*
X98304666Y-51189724D01*
X98304666Y-50937636D01*
X98146336Y-50658694D01*
X98130687Y-50631089D01*
X98070156Y-50523675D01*
X98015307Y-50425411D01*
X97971638Y-50346190D01*
X97944649Y-50295906D01*
X97901292Y-50212059D01*
X97989247Y-50212059D01*
X98077201Y-50212059D01*
X98227732Y-50491549D01*
G37*
G36*
X96117113Y-52726720D02*
G01*
X96225993Y-52760559D01*
X96319473Y-52821219D01*
X96342024Y-52840046D01*
X96356720Y-52838486D01*
X96359419Y-52798007D01*
X96363271Y-52761445D01*
X96384900Y-52742659D01*
X96437676Y-52738644D01*
X96515933Y-52738644D01*
X96515933Y-53197007D01*
X96515933Y-53655369D01*
X96437676Y-53655369D01*
X96359419Y-53655369D01*
X96359419Y-53323879D01*
X96359396Y-53279388D01*
X96358716Y-53162934D01*
X96356322Y-53081121D01*
X96351189Y-53026264D01*
X96342293Y-52990676D01*
X96328609Y-52966672D01*
X96309111Y-52946568D01*
X96252281Y-52902418D01*
X96157472Y-52858664D01*
X96067077Y-52851359D01*
X95989177Y-52882131D01*
X95983146Y-52886864D01*
X95968514Y-52904224D01*
X95957918Y-52932011D01*
X95950497Y-52977084D01*
X95945391Y-53046300D01*
X95941739Y-53146518D01*
X95938681Y-53284596D01*
X95931586Y-53655369D01*
X95854834Y-53655369D01*
X95778081Y-53655369D01*
X95778081Y-53295412D01*
X95778487Y-53209506D01*
X95782380Y-53065437D01*
X95791681Y-52956634D01*
X95807949Y-52876833D01*
X95832743Y-52819775D01*
X95867620Y-52779197D01*
X95914141Y-52748839D01*
X96007526Y-52722325D01*
X96117113Y-52726720D01*
G37*
G36*
X94458891Y-51441813D02*
G01*
X94389721Y-51441813D01*
X94387756Y-51441807D01*
X94333152Y-51431412D01*
X94308929Y-51397376D01*
X94308406Y-51395381D01*
X94298017Y-51367806D01*
X94279334Y-51367619D01*
X94238355Y-51394188D01*
X94187637Y-51426573D01*
X94145863Y-51448039D01*
X94095552Y-51461116D01*
X93986696Y-51459291D01*
X93877421Y-51423478D01*
X93781707Y-51357165D01*
X93733740Y-51295596D01*
X93687548Y-51187106D01*
X93662442Y-51059306D01*
X93660761Y-50983450D01*
X93824224Y-50983450D01*
X93825228Y-51027241D01*
X93843281Y-51155483D01*
X93883060Y-51249796D01*
X93943392Y-51306995D01*
X93952371Y-51311291D01*
X94025526Y-51327285D01*
X94109690Y-51324771D01*
X94179402Y-51304065D01*
X94212885Y-51283528D01*
X94257248Y-51241477D01*
X94284341Y-51184551D01*
X94297955Y-51102932D01*
X94301880Y-50986804D01*
X94301901Y-50977906D01*
X94301307Y-50885746D01*
X94296790Y-50825262D01*
X94285016Y-50784357D01*
X94262650Y-50750936D01*
X94226356Y-50712904D01*
X94192183Y-50681380D01*
X94133837Y-50646494D01*
X94068372Y-50636883D01*
X94004666Y-50642478D01*
X93923207Y-50676300D01*
X93867098Y-50742816D01*
X93834663Y-50844405D01*
X93824224Y-50983450D01*
X93660761Y-50983450D01*
X93659449Y-50924206D01*
X93679594Y-50793815D01*
X93723901Y-50680144D01*
X93798399Y-50587083D01*
X93894756Y-50527828D01*
X94003489Y-50505506D01*
X94115872Y-50521889D01*
X94223178Y-50578751D01*
X94302377Y-50639159D01*
X94302377Y-50425609D01*
X94302377Y-50212059D01*
X94380634Y-50212059D01*
X94458891Y-50212059D01*
X94458891Y-50826936D01*
X94458891Y-50977906D01*
X94458891Y-51441813D01*
G37*
G36*
X97790405Y-51441813D02*
G01*
X97721235Y-51441813D01*
X97719270Y-51441807D01*
X97664666Y-51431412D01*
X97640444Y-51397376D01*
X97639920Y-51395381D01*
X97629531Y-51367806D01*
X97610848Y-51367619D01*
X97569870Y-51394188D01*
X97519152Y-51426573D01*
X97477377Y-51448039D01*
X97427066Y-51461116D01*
X97318210Y-51459291D01*
X97208935Y-51423478D01*
X97113221Y-51357165D01*
X97065254Y-51295596D01*
X97019062Y-51187106D01*
X96993956Y-51059306D01*
X96992275Y-50983450D01*
X97155738Y-50983450D01*
X97156742Y-51027241D01*
X97174795Y-51155483D01*
X97214574Y-51249796D01*
X97274906Y-51306995D01*
X97283885Y-51311291D01*
X97357041Y-51327285D01*
X97441204Y-51324771D01*
X97510916Y-51304065D01*
X97544399Y-51283528D01*
X97588762Y-51241477D01*
X97615855Y-51184551D01*
X97629469Y-51102932D01*
X97633394Y-50986804D01*
X97633416Y-50977906D01*
X97632821Y-50885746D01*
X97628304Y-50825262D01*
X97616530Y-50784357D01*
X97594164Y-50750936D01*
X97557870Y-50712904D01*
X97523698Y-50681380D01*
X97465351Y-50646494D01*
X97399886Y-50636883D01*
X97336180Y-50642478D01*
X97254721Y-50676300D01*
X97198613Y-50742816D01*
X97166177Y-50844405D01*
X97155738Y-50983450D01*
X96992275Y-50983450D01*
X96990963Y-50924206D01*
X97011108Y-50793815D01*
X97055415Y-50680144D01*
X97129913Y-50587083D01*
X97226270Y-50527828D01*
X97335003Y-50505506D01*
X97447386Y-50521889D01*
X97554692Y-50578751D01*
X97633891Y-50639159D01*
X97633891Y-50425609D01*
X97633891Y-50212059D01*
X97712148Y-50212059D01*
X97790405Y-50212059D01*
X97790405Y-50826936D01*
X97790405Y-50977906D01*
X97790405Y-51441813D01*
G37*
G36*
X100302084Y-53396765D02*
G01*
X100287459Y-53497169D01*
X100237325Y-53585823D01*
X100153198Y-53646414D01*
X100099648Y-53663436D01*
X99992299Y-53669448D01*
X99882998Y-53647581D01*
X99790558Y-53600231D01*
X99741527Y-53564257D01*
X99707980Y-53547561D01*
X99693835Y-53559320D01*
X99690933Y-53599471D01*
X99689332Y-53623779D01*
X99671794Y-53649353D01*
X99623856Y-53655369D01*
X99556779Y-53655369D01*
X99557108Y-53292033D01*
X99557611Y-53203034D01*
X99713293Y-53203034D01*
X99713293Y-53316600D01*
X99713988Y-53360799D01*
X99722185Y-53413174D01*
X99746828Y-53449196D01*
X99796740Y-53486870D01*
X99836884Y-53508977D01*
X99915596Y-53534573D01*
X99996831Y-53545091D01*
X100066258Y-53539214D01*
X100109549Y-53515625D01*
X100140190Y-53459642D01*
X100146273Y-53382514D01*
X100113065Y-53314337D01*
X100043232Y-53265184D01*
X100007805Y-53253047D01*
X99927962Y-53233439D01*
X99841858Y-53218971D01*
X99713293Y-53203034D01*
X99557611Y-53203034D01*
X99557828Y-53164732D01*
X99561211Y-53044777D01*
X99568903Y-52956390D01*
X99582555Y-52892360D01*
X99603821Y-52845481D01*
X99634353Y-52808543D01*
X99675804Y-52774338D01*
X99694645Y-52761565D01*
X99742798Y-52740721D01*
X99807754Y-52730303D01*
X99903345Y-52727464D01*
X99912340Y-52727494D01*
X100030963Y-52736526D01*
X100117717Y-52765266D01*
X100182520Y-52818954D01*
X100235290Y-52902830D01*
X100251182Y-52938331D01*
X100264440Y-53002381D01*
X100243001Y-53039620D01*
X100186332Y-53051672D01*
X100161290Y-53050455D01*
X100125502Y-53033488D01*
X100108135Y-52985609D01*
X100102128Y-52964292D01*
X100056833Y-52899230D01*
X99981959Y-52856441D01*
X99887610Y-52842482D01*
X99853135Y-52845069D01*
X99774381Y-52872094D01*
X99728299Y-52929350D01*
X99713293Y-53018447D01*
X99713293Y-53112446D01*
X99899167Y-53124042D01*
X100035708Y-53139701D01*
X100155856Y-53173951D01*
X100238698Y-53227126D01*
X100286638Y-53300855D01*
X100299789Y-53382514D01*
X100302084Y-53396765D01*
G37*
G36*
X102688182Y-50992999D02*
G01*
X102738698Y-51130509D01*
X102781456Y-51248089D01*
X102814473Y-51340254D01*
X102835762Y-51401517D01*
X102843342Y-51426393D01*
X102842082Y-51429483D01*
X102814082Y-51437754D01*
X102760812Y-51437573D01*
X102729584Y-51434270D01*
X102697445Y-51424081D01*
X102673726Y-51399212D01*
X102650807Y-51350449D01*
X102621068Y-51268577D01*
X102564085Y-51106521D01*
X102314051Y-51106473D01*
X102250001Y-51106561D01*
X102162012Y-51107874D01*
X102106076Y-51111993D01*
X102073982Y-51120474D01*
X102057520Y-51134869D01*
X102048480Y-51156734D01*
X102039693Y-51183536D01*
X102016878Y-51248938D01*
X101989469Y-51324427D01*
X101989313Y-51324848D01*
X101962956Y-51391478D01*
X101939738Y-51426312D01*
X101907922Y-51439655D01*
X101855773Y-51441813D01*
X101799845Y-51439171D01*
X101777492Y-51427778D01*
X101780969Y-51402684D01*
X101789642Y-51379733D01*
X101812387Y-51318577D01*
X101846423Y-51226608D01*
X101889492Y-51109939D01*
X101939337Y-50974678D01*
X101940223Y-50972271D01*
X102106759Y-50972271D01*
X102307473Y-50972271D01*
X102351982Y-50971852D01*
X102432033Y-50968622D01*
X102487304Y-50962893D01*
X102507829Y-50955501D01*
X102507823Y-50955348D01*
X102500676Y-50928856D01*
X102482262Y-50872272D01*
X102455798Y-50794646D01*
X102424501Y-50705029D01*
X102391590Y-50612471D01*
X102360281Y-50526023D01*
X102333793Y-50454736D01*
X102315343Y-50407658D01*
X102308149Y-50393842D01*
X102307648Y-50396204D01*
X102297051Y-50429907D01*
X102274846Y-50495603D01*
X102243845Y-50585074D01*
X102206857Y-50690101D01*
X102106759Y-50972271D01*
X101940223Y-50972271D01*
X101993701Y-50826936D01*
X102038881Y-50704154D01*
X102089751Y-50566138D01*
X102134274Y-50445592D01*
X102170184Y-50348642D01*
X102195214Y-50281416D01*
X102207098Y-50250041D01*
X102216484Y-50233738D01*
X102249401Y-50217019D01*
X102312518Y-50216502D01*
X102401853Y-50223239D01*
X102622481Y-50815757D01*
X102631891Y-50841045D01*
X102674291Y-50955501D01*
X102688182Y-50992999D01*
G37*
G36*
X99939319Y-50214551D02*
G01*
X100035452Y-50246727D01*
X100090826Y-50283727D01*
X100161095Y-50367098D01*
X100198299Y-50467066D01*
X100199377Y-50573209D01*
X100161269Y-50675110D01*
X100135611Y-50710225D01*
X100082376Y-50757353D01*
X100005473Y-50800892D01*
X99898085Y-50844462D01*
X99753393Y-50891685D01*
X99668640Y-50919521D01*
X99580551Y-50958456D01*
X99525722Y-51001462D01*
X99497617Y-51054263D01*
X99489701Y-51122580D01*
X99489794Y-51128177D01*
X99512449Y-51205617D01*
X99569508Y-51266189D01*
X99653026Y-51306000D01*
X99755057Y-51321157D01*
X99867657Y-51307767D01*
X99900602Y-51298716D01*
X99984929Y-51262228D01*
X100035936Y-51210400D01*
X100062134Y-51135707D01*
X100063444Y-51128816D01*
X100077036Y-51082146D01*
X100103129Y-51065101D01*
X100157597Y-51066109D01*
X100163850Y-51066643D01*
X100213842Y-51074836D01*
X100232167Y-51095244D01*
X100230818Y-51139964D01*
X100219542Y-51196526D01*
X100167184Y-51302287D01*
X100079062Y-51383937D01*
X99958426Y-51437920D01*
X99885629Y-51453474D01*
X99750962Y-51459235D01*
X99619063Y-51439451D01*
X99502624Y-51396570D01*
X99414339Y-51333039D01*
X99358093Y-51248926D01*
X99325518Y-51139707D01*
X99327001Y-51029539D01*
X99340855Y-50976595D01*
X99373171Y-50912479D01*
X99425548Y-50858390D01*
X99503997Y-50809959D01*
X99614524Y-50762823D01*
X99763138Y-50712615D01*
X99775616Y-50708682D01*
X99884264Y-50671344D01*
X99956760Y-50637363D01*
X100000003Y-50601160D01*
X100020891Y-50557158D01*
X100026321Y-50499778D01*
X100018317Y-50442442D01*
X99977899Y-50381919D01*
X99902165Y-50346805D01*
X99789761Y-50336163D01*
X99753444Y-50337726D01*
X99649078Y-50360660D01*
X99577566Y-50409506D01*
X99541808Y-50482553D01*
X99528355Y-50526954D01*
X99502154Y-50543780D01*
X99447544Y-50543026D01*
X99395304Y-50535226D01*
X99373034Y-50516042D01*
X99370969Y-50474532D01*
X99371324Y-50470188D01*
X99399779Y-50384001D01*
X99462708Y-50304421D01*
X99550748Y-50243479D01*
X99587445Y-50228613D01*
X99697163Y-50205373D01*
X99820505Y-50200726D01*
X99939319Y-50214551D01*
G37*
G36*
X98361705Y-52740796D02*
G01*
X98380790Y-52752284D01*
X98398108Y-52778287D01*
X98416517Y-52824489D01*
X98438875Y-52896571D01*
X98468042Y-53000217D01*
X98506875Y-53141109D01*
X98534861Y-53240433D01*
X98560856Y-53329003D01*
X98580939Y-53393492D01*
X98592235Y-53424355D01*
X98599037Y-53419394D01*
X98616454Y-53379632D01*
X98641405Y-53307937D01*
X98671682Y-53210762D01*
X98705079Y-53094558D01*
X98803643Y-52738644D01*
X98878362Y-52738644D01*
X98885622Y-52738757D01*
X98933498Y-52746471D01*
X98953081Y-52762590D01*
X98951418Y-52770938D01*
X98939455Y-52815573D01*
X98917921Y-52891120D01*
X98889151Y-52989746D01*
X98855479Y-53103616D01*
X98819241Y-53224895D01*
X98782772Y-53345749D01*
X98748406Y-53458345D01*
X98718479Y-53554846D01*
X98695325Y-53627420D01*
X98693083Y-53631604D01*
X98659410Y-53648668D01*
X98599910Y-53655369D01*
X98513645Y-53655369D01*
X98416462Y-53308802D01*
X98394161Y-53230620D01*
X98362379Y-53124016D01*
X98335319Y-53038944D01*
X98315306Y-52982614D01*
X98304666Y-52962235D01*
X98298859Y-52971188D01*
X98281806Y-53015971D01*
X98256907Y-53091974D01*
X98226486Y-53191988D01*
X98192870Y-53308802D01*
X98095687Y-53655369D01*
X98011085Y-53655369D01*
X97926483Y-53655369D01*
X97837797Y-53370290D01*
X97804187Y-53262105D01*
X97754121Y-53100095D01*
X97715775Y-52974569D01*
X97687982Y-52881594D01*
X97669575Y-52817237D01*
X97659387Y-52777566D01*
X97656250Y-52758648D01*
X97656543Y-52756867D01*
X97680220Y-52743939D01*
X97730228Y-52738644D01*
X97804206Y-52738644D01*
X97902627Y-53095412D01*
X97927149Y-53183390D01*
X97957483Y-53289462D01*
X97982348Y-53373189D01*
X97999671Y-53427632D01*
X98007377Y-53445850D01*
X98009375Y-53441312D01*
X98021924Y-53403291D01*
X98043480Y-53333256D01*
X98071678Y-53238975D01*
X98104151Y-53128211D01*
X98116432Y-53085956D01*
X98148565Y-52975530D01*
X98175999Y-52881445D01*
X98196147Y-52812569D01*
X98206419Y-52777772D01*
X98209873Y-52769145D01*
X98240455Y-52745639D01*
X98304439Y-52738644D01*
X98306803Y-52738638D01*
X98337996Y-52738142D01*
X98361705Y-52740796D01*
G37*
G36*
X95484992Y-51265822D02*
G01*
X95442932Y-51352454D01*
X95371372Y-51418881D01*
X95365866Y-51422115D01*
X95292484Y-51451677D01*
X95219103Y-51463597D01*
X95193208Y-51461732D01*
X95120116Y-51445669D01*
X95043045Y-51418294D01*
X94978017Y-51385881D01*
X94941052Y-51354704D01*
X94917243Y-51331577D01*
X94893605Y-51340961D01*
X94883715Y-51385915D01*
X94882113Y-51410223D01*
X94864576Y-51435797D01*
X94816638Y-51441813D01*
X94749560Y-51441813D01*
X94749560Y-51063423D01*
X94749591Y-51043242D01*
X94908048Y-51043242D01*
X94910496Y-51111261D01*
X94912907Y-51145543D01*
X94923386Y-51204438D01*
X94947308Y-51243130D01*
X94993228Y-51278955D01*
X95052729Y-51308318D01*
X95141770Y-51328186D01*
X95228150Y-51326304D01*
X95294442Y-51301376D01*
X95318939Y-51271592D01*
X95334823Y-51208586D01*
X95326875Y-51139431D01*
X95295043Y-51082992D01*
X95282627Y-51073080D01*
X95222660Y-51044705D01*
X95138436Y-51019529D01*
X95045088Y-51001515D01*
X94957752Y-50994630D01*
X94932800Y-50996136D01*
X94913972Y-51008594D01*
X94908048Y-51043242D01*
X94749591Y-51043242D01*
X94749773Y-50925056D01*
X94751039Y-50823878D01*
X94754303Y-50752578D01*
X94760507Y-50703736D01*
X94770594Y-50669929D01*
X94785507Y-50643735D01*
X94806190Y-50617732D01*
X94892684Y-50547424D01*
X95006756Y-50511239D01*
X95148338Y-50509938D01*
X95174812Y-50513164D01*
X95285692Y-50543016D01*
X95367197Y-50599851D01*
X95428072Y-50689274D01*
X95445319Y-50728196D01*
X95457185Y-50790645D01*
X95434426Y-50826594D01*
X95376318Y-50838116D01*
X95363040Y-50837848D01*
X95320465Y-50827195D01*
X95308539Y-50796413D01*
X95305848Y-50774889D01*
X95274547Y-50712898D01*
X95219207Y-50659377D01*
X95153809Y-50629414D01*
X95123150Y-50625739D01*
X95043428Y-50633999D01*
X94972510Y-50662323D01*
X94927962Y-50704843D01*
X94926787Y-50707151D01*
X94912119Y-50759300D01*
X94906074Y-50825466D01*
X94906074Y-50905193D01*
X95036676Y-50905193D01*
X95140366Y-50911867D01*
X95255672Y-50933600D01*
X95354388Y-50966819D01*
X95422544Y-51007808D01*
X95474627Y-51080007D01*
X95496056Y-51171001D01*
X95491670Y-51208586D01*
X95484992Y-51265822D01*
G37*
G36*
X97542034Y-53479379D02*
G01*
X97499975Y-53566011D01*
X97428415Y-53632437D01*
X97422908Y-53635671D01*
X97349526Y-53665233D01*
X97276145Y-53677154D01*
X97250250Y-53675288D01*
X97177158Y-53659225D01*
X97100087Y-53631850D01*
X97035059Y-53599438D01*
X96998094Y-53568261D01*
X96974286Y-53545133D01*
X96950648Y-53554517D01*
X96940757Y-53599471D01*
X96939156Y-53623779D01*
X96921618Y-53649353D01*
X96873680Y-53655369D01*
X96806603Y-53655369D01*
X96806603Y-53276979D01*
X96806634Y-53256798D01*
X96965090Y-53256798D01*
X96967538Y-53324818D01*
X96969950Y-53359100D01*
X96980428Y-53417994D01*
X97004351Y-53456686D01*
X97050270Y-53492511D01*
X97109771Y-53521874D01*
X97198812Y-53541742D01*
X97285192Y-53539861D01*
X97351484Y-53514933D01*
X97375982Y-53485148D01*
X97391865Y-53422143D01*
X97383917Y-53352987D01*
X97352085Y-53296549D01*
X97339669Y-53286636D01*
X97279702Y-53258262D01*
X97195478Y-53233085D01*
X97102131Y-53215072D01*
X97014794Y-53208186D01*
X96989842Y-53209693D01*
X96971014Y-53222150D01*
X96965090Y-53256798D01*
X96806634Y-53256798D01*
X96806815Y-53138612D01*
X96808082Y-53037434D01*
X96811345Y-52966135D01*
X96817549Y-52917293D01*
X96827636Y-52883486D01*
X96842550Y-52857292D01*
X96863232Y-52831289D01*
X96949726Y-52760980D01*
X97063798Y-52724796D01*
X97205380Y-52723494D01*
X97231854Y-52726720D01*
X97342734Y-52756572D01*
X97424239Y-52813407D01*
X97485114Y-52902830D01*
X97502361Y-52941753D01*
X97514228Y-53004202D01*
X97491468Y-53040150D01*
X97433361Y-53051672D01*
X97420082Y-53051405D01*
X97377507Y-53040752D01*
X97365581Y-53009969D01*
X97362890Y-52988446D01*
X97331589Y-52926455D01*
X97276250Y-52872933D01*
X97210852Y-52842971D01*
X97180192Y-52839295D01*
X97100470Y-52847555D01*
X97029552Y-52875879D01*
X96985004Y-52918399D01*
X96983830Y-52920707D01*
X96969162Y-52972856D01*
X96963117Y-53039023D01*
X96963117Y-53118750D01*
X97093718Y-53118750D01*
X97197408Y-53125423D01*
X97312714Y-53147156D01*
X97411431Y-53180375D01*
X97479586Y-53221365D01*
X97531670Y-53293563D01*
X97553098Y-53384557D01*
X97548712Y-53422143D01*
X97542034Y-53479379D01*
G37*
G36*
X100956094Y-46589721D02*
G01*
X100948093Y-46772617D01*
X100930021Y-46941044D01*
X100902011Y-47081285D01*
X100878825Y-47161712D01*
X100764710Y-47463380D01*
X100615246Y-47739923D01*
X100431995Y-47989132D01*
X100216524Y-48208798D01*
X99970397Y-48396711D01*
X99918910Y-48429467D01*
X99651349Y-48569411D01*
X99369968Y-48670040D01*
X99079493Y-48731550D01*
X98784649Y-48754139D01*
X98490162Y-48738002D01*
X98200758Y-48683337D01*
X97921162Y-48590340D01*
X97656101Y-48459208D01*
X97410300Y-48290139D01*
X97366646Y-48255600D01*
X97299217Y-48204167D01*
X97249460Y-48168705D01*
X97225837Y-48155394D01*
X97221431Y-48168691D01*
X97216502Y-48219955D01*
X97212585Y-48302948D01*
X97210000Y-48410421D01*
X97209067Y-48535123D01*
X97209386Y-48634928D01*
X97210610Y-48746669D01*
X97212589Y-48835473D01*
X97215151Y-48894080D01*
X97218122Y-48915228D01*
X97225692Y-48908057D01*
X97250915Y-48871999D01*
X97285465Y-48815768D01*
X97324061Y-48753070D01*
X97357309Y-48712134D01*
X97386328Y-48698452D01*
X97419462Y-48705136D01*
X97434617Y-48713079D01*
X97450469Y-48737590D01*
X97447034Y-48778334D01*
X97422620Y-48840338D01*
X97375537Y-48928632D01*
X97304094Y-49048244D01*
X97294525Y-49063774D01*
X97238177Y-49153729D01*
X97190765Y-49226964D01*
X97157024Y-49276296D01*
X97141691Y-49294544D01*
X97139561Y-49293182D01*
X97118383Y-49266287D01*
X97079580Y-49210196D01*
X97027816Y-49131791D01*
X96967756Y-49037951D01*
X96950251Y-49010137D01*
X96889328Y-48910966D01*
X96849797Y-48840608D01*
X96828612Y-48792431D01*
X96822727Y-48759806D01*
X96829097Y-48736102D01*
X96848031Y-48709077D01*
X96874467Y-48691637D01*
X96887871Y-48694993D01*
X96929694Y-48726174D01*
X96976777Y-48780687D01*
X97018400Y-48846962D01*
X97022204Y-48854204D01*
X97048050Y-48897532D01*
X97064307Y-48915228D01*
X97066992Y-48902991D01*
X97070147Y-48852915D01*
X97072656Y-48770961D01*
X97074314Y-48664443D01*
X97074912Y-48540674D01*
X97074912Y-48166120D01*
X96977674Y-48114535D01*
X96902613Y-48060339D01*
X96834210Y-47974303D01*
X96792767Y-47875350D01*
X96782611Y-47774492D01*
X96808066Y-47682741D01*
X96816119Y-47655777D01*
X96812055Y-47613372D01*
X96791913Y-47549507D01*
X96753501Y-47455030D01*
X96743089Y-47430515D01*
X96673574Y-47252073D01*
X96624842Y-47090669D01*
X96593828Y-46931067D01*
X96577467Y-46758035D01*
X96572694Y-46556338D01*
X96575466Y-46439173D01*
X96727641Y-46439173D01*
X96731588Y-46728599D01*
X96776473Y-47018743D01*
X96863402Y-47305369D01*
X96871808Y-47327318D01*
X96906218Y-47413982D01*
X96931642Y-47466732D01*
X96953347Y-47492323D01*
X96976604Y-47497509D01*
X97006680Y-47489045D01*
X97023552Y-47481912D01*
X97039761Y-47468030D01*
X97049543Y-47441898D01*
X97054272Y-47395402D01*
X97055318Y-47320426D01*
X97054054Y-47208857D01*
X97050188Y-46947623D01*
X97129628Y-46947623D01*
X97209067Y-46947623D01*
X97209067Y-47215933D01*
X97209541Y-47304241D01*
X97212146Y-47392816D01*
X97217722Y-47447975D01*
X97227045Y-47476267D01*
X97240891Y-47484242D01*
X97250598Y-47485398D01*
X97300256Y-47510156D01*
X97357821Y-47558341D01*
X97410845Y-47618235D01*
X97446879Y-47678123D01*
X97470013Y-47751879D01*
X97471051Y-47856439D01*
X97431525Y-47965826D01*
X97385673Y-48054401D01*
X97488698Y-48146169D01*
X97532498Y-48183349D01*
X97719989Y-48312184D01*
X97938178Y-48422096D01*
X98177672Y-48508869D01*
X98429078Y-48568287D01*
X98626523Y-48592491D01*
X98915608Y-48591914D01*
X99199128Y-48550008D01*
X99472934Y-48468777D01*
X99732876Y-48350227D01*
X99974807Y-48196362D01*
X100194575Y-48009188D01*
X100388033Y-47790710D01*
X100551030Y-47542932D01*
X100586711Y-47475047D01*
X100677483Y-47258339D01*
X100747629Y-47022047D01*
X100792861Y-46782578D01*
X100808891Y-46556338D01*
X100805525Y-46457161D01*
X100776913Y-46229404D01*
X100722593Y-45995706D01*
X100646788Y-45772306D01*
X100553725Y-45575444D01*
X100516382Y-45509519D01*
X100472596Y-45436173D01*
X100440543Y-45392438D01*
X100414289Y-45372485D01*
X100387904Y-45370486D01*
X100355454Y-45380609D01*
X100294631Y-45403734D01*
X100294631Y-45683777D01*
X100294631Y-45963820D01*
X100227553Y-45963820D01*
X100160476Y-45963820D01*
X100160476Y-45688077D01*
X100160476Y-45412333D01*
X100077347Y-45358279D01*
X100060212Y-45346725D01*
X99963767Y-45258273D01*
X99909276Y-45157842D01*
X99897698Y-45047095D01*
X99900415Y-45020932D01*
X99910770Y-44954687D01*
X99922446Y-44911742D01*
X99923384Y-44904111D01*
X99901262Y-44871471D01*
X99846969Y-44828256D01*
X99767685Y-44778698D01*
X99670589Y-44727029D01*
X99562863Y-44677480D01*
X99451687Y-44634284D01*
X99315112Y-44591344D01*
X99019472Y-44531047D01*
X98723987Y-44515382D01*
X98429078Y-44544388D01*
X98198721Y-44596022D01*
X97943026Y-44686884D01*
X97703824Y-44813035D01*
X97470914Y-44979105D01*
X97283273Y-45151009D01*
X97099117Y-45373331D01*
X96950370Y-45617543D01*
X96838138Y-45879411D01*
X96763527Y-46154699D01*
X96727641Y-46439173D01*
X96575466Y-46439173D01*
X96577440Y-46355768D01*
X96593755Y-46182454D01*
X96624580Y-46022694D01*
X96672854Y-45861279D01*
X96741520Y-45682996D01*
X96860758Y-45447984D01*
X97019317Y-45218370D01*
X97208484Y-45005228D01*
X97421215Y-44815602D01*
X97650466Y-44656539D01*
X97889194Y-44535083D01*
X98074084Y-44467174D01*
X98377275Y-44392431D01*
X98683951Y-44360000D01*
X98989888Y-44369637D01*
X99290863Y-44421098D01*
X99582654Y-44514142D01*
X99861037Y-44648525D01*
X99917665Y-44680575D01*
X99992278Y-44719805D01*
X100043001Y-44740097D01*
X100078693Y-44744604D01*
X100108216Y-44736477D01*
X100115620Y-44733014D01*
X100134166Y-44721116D01*
X100146735Y-44701784D01*
X100154489Y-44667563D01*
X100158589Y-44610994D01*
X100160198Y-44524621D01*
X100160476Y-44400987D01*
X100160476Y-44399811D01*
X100159741Y-44253890D01*
X100156778Y-44149086D01*
X100150421Y-44081836D01*
X100139509Y-44048576D01*
X100122878Y-44045742D01*
X100099364Y-44069772D01*
X100067804Y-44117101D01*
X100023100Y-44176224D01*
X99972436Y-44215050D01*
X99929311Y-44219019D01*
X99899986Y-44185576D01*
X99899437Y-44181192D01*
X99910462Y-44144344D01*
X99939053Y-44082651D01*
X99980423Y-44004170D01*
X100029785Y-43916960D01*
X100082350Y-43829079D01*
X100133330Y-43748585D01*
X100177938Y-43683537D01*
X100211387Y-43641992D01*
X100228887Y-43632009D01*
X100257611Y-43669548D01*
X100300133Y-43733309D01*
X100350998Y-43814146D01*
X100404780Y-43902948D01*
X100456055Y-43990601D01*
X100499397Y-44067993D01*
X100529381Y-44126011D01*
X100540581Y-44155544D01*
X100533480Y-44194793D01*
X100505197Y-44217802D01*
X100461697Y-44208762D01*
X100409837Y-44169652D01*
X100356473Y-44102449D01*
X100295339Y-44007394D01*
X100294985Y-44359251D01*
X100294631Y-44711107D01*
X100368342Y-44741906D01*
X100400896Y-44757642D01*
X100491809Y-44830983D01*
X100552775Y-44929023D01*
X100578991Y-45041622D01*
X100565657Y-45158642D01*
X100556085Y-45194602D01*
X100553531Y-45231912D01*
X100564546Y-45272124D01*
X100592655Y-45326819D01*
X100641378Y-45407577D01*
X100728146Y-45565374D01*
X100830040Y-45804120D01*
X100911820Y-46064436D01*
X100918352Y-46091377D01*
X100941356Y-46235384D01*
X100953892Y-46406071D01*
X100955694Y-46556338D01*
X100956094Y-46589721D01*
G37*
%TO.C,G2*%
G36*
X80936928Y-46043770D02*
G01*
X81170498Y-46303365D01*
X81371612Y-46533148D01*
X81529096Y-46720563D01*
X81631780Y-46853056D01*
X81668490Y-46918072D01*
X81639445Y-46920960D01*
X81527131Y-46891074D01*
X81349977Y-46829617D01*
X81129044Y-46743408D01*
X81046676Y-46709951D01*
X80650021Y-46553502D01*
X80245219Y-46400674D01*
X79846219Y-46256101D01*
X79466970Y-46124419D01*
X79121419Y-46010263D01*
X78823514Y-45918268D01*
X78587205Y-45853070D01*
X78426439Y-45819303D01*
X78355165Y-45821604D01*
X78349700Y-45836323D01*
X78324972Y-45940757D01*
X78285280Y-46131288D01*
X78233809Y-46391937D01*
X78173748Y-46706721D01*
X78108284Y-47059660D01*
X78077745Y-47225533D01*
X78014439Y-47562832D01*
X77958059Y-47854583D01*
X77911780Y-48084821D01*
X77878778Y-48237578D01*
X77862228Y-48296889D01*
X77834991Y-48271927D01*
X77776068Y-48168876D01*
X77700909Y-48010515D01*
X77513579Y-47587911D01*
X77308306Y-47128039D01*
X77143300Y-46762803D01*
X77016592Y-46487944D01*
X76926212Y-46299203D01*
X76870190Y-46192319D01*
X76846556Y-46163035D01*
X76829955Y-46211387D01*
X76791912Y-46355506D01*
X76736813Y-46580229D01*
X76668171Y-46870674D01*
X76589496Y-47211959D01*
X76504299Y-47589204D01*
X76416091Y-47987527D01*
X76403294Y-48045217D01*
X76358724Y-48235220D01*
X76323701Y-48368196D01*
X76304904Y-48418271D01*
X76293005Y-48397559D01*
X76242887Y-48290087D01*
X76159722Y-48103428D01*
X76049705Y-47851691D01*
X75919034Y-47548982D01*
X75773906Y-47209409D01*
X75700615Y-47037322D01*
X75546715Y-46677225D01*
X75402070Y-46340374D01*
X75275208Y-46046546D01*
X75174655Y-45815519D01*
X75108938Y-45667068D01*
X75106021Y-45660607D01*
X75023536Y-45474918D01*
X74912480Y-45221004D01*
X74787035Y-44931450D01*
X74661383Y-44638840D01*
X74541077Y-44366518D01*
X74383470Y-44023584D01*
X74203103Y-43640999D01*
X74013989Y-43248481D01*
X73830136Y-42875747D01*
X73295714Y-41807402D01*
X73716566Y-42037910D01*
X73885294Y-42131334D01*
X74194224Y-42306965D01*
X74492217Y-42481577D01*
X74757582Y-42642169D01*
X74968628Y-42775742D01*
X75103666Y-42869293D01*
X75209849Y-42940425D01*
X75285101Y-42971444D01*
X75292725Y-42965913D01*
X75275699Y-42886692D01*
X75200433Y-42714086D01*
X75067295Y-42448834D01*
X74876649Y-42091676D01*
X74700855Y-41773611D01*
X75110066Y-41773611D01*
X75111726Y-41779042D01*
X75148717Y-41858100D01*
X75229440Y-42019712D01*
X75347452Y-42251294D01*
X75496310Y-42540259D01*
X75669570Y-42874020D01*
X75860788Y-43239992D01*
X76038579Y-43582924D01*
X76266778Y-44032304D01*
X76492351Y-44485585D01*
X76702787Y-44917320D01*
X76885572Y-45302062D01*
X77028196Y-45614364D01*
X77173330Y-45942064D01*
X77334538Y-46304023D01*
X77459826Y-46581304D01*
X77554160Y-46783774D01*
X77622508Y-46921303D01*
X77669836Y-47003757D01*
X77701111Y-47041006D01*
X77721299Y-47042916D01*
X77735369Y-47019357D01*
X77737303Y-47013940D01*
X77763055Y-46910300D01*
X77797819Y-46735205D01*
X77834646Y-46523379D01*
X77855606Y-46384080D01*
X77872019Y-46203153D01*
X77867154Y-46030649D01*
X77839054Y-45827827D01*
X77785763Y-45555951D01*
X77658735Y-45067145D01*
X77474658Y-44612817D01*
X77230071Y-44214607D01*
X76911838Y-43846827D01*
X76538432Y-43471663D01*
X76739232Y-43471663D01*
X76985997Y-43505354D01*
X77282955Y-43604798D01*
X77572937Y-43752262D01*
X77813934Y-43929836D01*
X77822362Y-43937664D01*
X78084958Y-44256635D01*
X78269976Y-44640569D01*
X78365675Y-45065302D01*
X78402667Y-45408393D01*
X78854507Y-45529933D01*
X78927873Y-45550278D01*
X79215931Y-45637416D01*
X79533601Y-45741822D01*
X79824466Y-45845161D01*
X79972719Y-45899313D01*
X80168397Y-45966244D01*
X80306861Y-46007778D01*
X80364886Y-46016551D01*
X80338395Y-45974489D01*
X80243270Y-45867429D01*
X80091346Y-45707788D01*
X79894912Y-45507664D01*
X79666257Y-45279156D01*
X79417670Y-45034362D01*
X79161443Y-44785382D01*
X78909863Y-44544314D01*
X78675221Y-44323256D01*
X78469806Y-44134306D01*
X78305908Y-43989565D01*
X77676308Y-43478124D01*
X76936223Y-42928164D01*
X76166083Y-42403979D01*
X76145669Y-42390720D01*
X75793549Y-42163224D01*
X75524656Y-41992402D01*
X75330426Y-41873142D01*
X75202294Y-41800332D01*
X75131695Y-41768859D01*
X75110066Y-41773611D01*
X74700855Y-41773611D01*
X74628861Y-41643353D01*
X74602194Y-41595493D01*
X74476448Y-41363712D01*
X74377930Y-41172009D01*
X74316005Y-41039163D01*
X74300036Y-40983954D01*
X74334701Y-40988957D01*
X74454822Y-41040332D01*
X74646665Y-41136477D01*
X74896687Y-41270109D01*
X75191344Y-41433944D01*
X75517094Y-41620699D01*
X75860394Y-41823092D01*
X76911663Y-42491395D01*
X78031840Y-43305705D01*
X79093258Y-44194728D01*
X80118532Y-45176274D01*
X80153198Y-45211661D01*
X80417106Y-45485363D01*
X80682073Y-45766918D01*
X80911872Y-46016551D01*
X80936928Y-46043770D01*
G37*
%TD*%
%LPC*%
D12*
%TO.C,TH3*%
X90500000Y-52350000D03*
%TD*%
D13*
%TO.C,J1*%
X82525019Y-44750000D03*
X82525019Y-47250127D03*
D14*
X77474981Y-49800038D03*
X77474981Y-39699962D03*
%TD*%
D12*
%TO.C,TH2*%
X129050000Y-37650000D03*
%TD*%
D13*
%TO.C,J2*%
X137474981Y-44750000D03*
X137474981Y-42249873D03*
D14*
X142525019Y-39699962D03*
X142525019Y-49800038D03*
%TD*%
D12*
%TO.C,TH1*%
X129300000Y-52050000D03*
%TD*%
%LPD*%
M02*
